M48
; DRILL file {KiCad 8.0.2} date 2024-09-20T16:54:04+0200
; FORMAT={-:-/ absolute / inch / decimal}
; #@! TF.CreationDate,2024-09-20T16:54:04+02:00
; #@! TF.GenerationSoftware,Kicad,Pcbnew,8.0.2
; #@! TF.FileFunction,Plated,1,2,PTH
FMAT,2
INCH
; #@! TA.AperFunction,Plated,PTH,ViaDrill
T1C0.0157
; #@! TA.AperFunction,Plated,PTH,ComponentDrill
T2C0.0197
; #@! TA.AperFunction,Plated,PTH,ComponentDrill
T3C0.0276
; #@! TA.AperFunction,Plated,PTH,ComponentDrill
T4C0.0315
; #@! TA.AperFunction,Plated,PTH,ComponentDrill
T5C0.0394
; #@! TA.AperFunction,Plated,PTH,ComponentDrill
T6C0.0402
; #@! TA.AperFunction,Plated,PTH,ComponentDrill
T7C0.0433
; #@! TA.AperFunction,Plated,PTH,ComponentDrill
T8C0.0591
%
G90
G05
T1
X5.025Y-5.05
X5.0896Y-3.9386
X5.125Y-3.3886
X5.125Y-3.4886
X5.1896Y-4.0386
X5.2396Y-4.1386
X5.25Y-4.9
X5.3896Y-3.8386
X5.3896Y-3.9386
X5.3896Y-5.0386
X5.4146Y-4.4136
X5.6896Y-3.0386
X5.7296Y-3.0386
X5.7896Y-3.9386
X5.8Y-3.15
X5.8069Y-3.9963
X5.8296Y-3.9186
X5.85Y-3.2
X5.8646Y-4.3386
X6.0Y-2.4
X6.011Y-4.2414
X6.0396Y-4.5136
X6.0646Y-4.0886
X6.175Y-3.325
X6.175Y-3.5
X6.225Y-3.45
X6.2561Y-4.87
X6.2646Y-4.7136
X6.35Y-3.5
X6.4646Y-3.1636
X6.5Y-4.25
X6.5146Y-3.1921
X6.525Y-4.375
X6.525Y-4.775
X6.525Y-5.425
X6.5285Y-3.6
X6.5396Y-3.0386
X6.5521Y-3.1011
X6.575Y-5.425
X6.5896Y-5.1136
X6.6181Y-5.1886
X6.648Y-4.914
X6.65Y-4.875
X6.7396Y-3.2886
X6.9396Y-3.1386
X7.025Y-4.45
X7.075Y-5.075
X7.5646Y-3.8386
X7.6146Y-3.5136
X7.6646Y-3.3886
X7.6646Y-3.6636
T2
X7.1Y-1.8
X7.1748Y-1.8
T3
X4.975Y-5.475
X4.975Y-5.625
X5.175Y-5.475
X5.175Y-5.625
X6.775Y-3.925
X6.975Y-3.925
X7.175Y-3.925
X7.375Y-3.925
T4
X4.9417Y-1.7305
X4.9417Y-2.5967
X5.0205Y-1.7305
X5.0205Y-2.5967
X5.0992Y-1.7305
X5.0992Y-2.5967
X5.178Y-1.7305
X5.178Y-2.5967
X5.2567Y-1.7305
X5.2567Y-2.5967
X5.3354Y-1.7305
X5.3354Y-2.5967
X5.4142Y-1.7305
X5.4142Y-2.5967
X5.4929Y-1.7305
X5.4929Y-2.5967
X5.5717Y-1.7305
X5.5717Y-2.5967
X5.6504Y-1.7305
X5.6504Y-2.5967
X6.862Y-5.5052
X6.862Y-5.6036
X6.862Y-5.7021
X6.988Y-5.5052
X6.988Y-5.6036
X6.988Y-5.7021
X7.1Y-1.989
X7.1Y-2.289
X7.2Y-1.989
X7.2Y-2.289
X7.3Y-1.989
X7.3Y-2.289
X7.4Y-1.989
X7.4Y-2.289
T5
X4.6419Y-4.9
X4.6419Y-5.0
X4.6419Y-5.1
X4.825Y-4.9
X4.825Y-5.0
X4.825Y-5.1
X4.8396Y-5.3636
X4.8396Y-5.4636
X4.8396Y-5.5636
X5.0Y-3.0886
X5.0Y-3.1886
X5.0Y-3.2886
X5.0Y-3.3886
X5.0Y-3.4886
X5.0Y-3.5886
X5.0Y-3.6886
X5.0Y-3.7886
X5.0Y-4.2313
X5.0Y-4.3313
X5.0Y-4.4313
X5.0Y-4.5313
X6.1411Y-2.9596
X6.2411Y-2.9596
X6.3411Y-2.9596
X6.4411Y-2.9596
X6.5411Y-2.9596
X6.6411Y-2.9596
X6.725Y-3.5943
X6.725Y-5.1743
X6.7411Y-2.9596
X6.8411Y-2.9596
X7.15Y-5.5
X7.15Y-5.6
X7.3114Y-2.4878
X7.3114Y-2.5878
X7.3114Y-2.6878
X7.3114Y-2.7878
X7.3114Y-2.8878
X7.3114Y-2.9878
X7.3114Y-3.0878
X7.3114Y-3.1878
X7.425Y-3.5943
X7.425Y-5.1743
X7.8896Y-3.838
X7.8896Y-3.938
X7.8896Y-4.038
X7.8896Y-4.313
X7.8896Y-4.413
X7.8896Y-4.513
X7.9488Y-3.675
X7.95Y-3.425
X8.0488Y-3.675
X8.05Y-3.425
X8.1488Y-3.675
X8.15Y-3.425
T6
X5.6396Y-3.8136
X5.6396Y-3.9136
X5.6396Y-4.0136
X5.6396Y-4.1136
X5.6396Y-4.2136
X5.6396Y-4.3136
X5.6396Y-4.4136
X5.6396Y-4.5136
X5.6396Y-4.6136
X5.6396Y-4.7136
X5.6396Y-4.8136
X5.6396Y-4.9136
X5.6396Y-5.0136
X5.6396Y-5.1136
X5.6396Y-5.2136
X5.6396Y-5.3136
X5.6396Y-5.4136
X5.6396Y-5.5136
X5.6396Y-5.6136
X5.6396Y-5.7136
X5.8896Y-3.8226
X5.9896Y-3.8226
X6.0896Y-3.8226
X6.3396Y-3.8136
X6.3396Y-3.9136
X6.3396Y-4.0136
X6.3396Y-4.1136
X6.3396Y-4.2136
X6.3396Y-4.3136
X6.3396Y-4.4136
X6.3396Y-4.5136
X6.3396Y-4.6136
X6.3396Y-4.7136
X6.3396Y-4.8136
X6.3396Y-4.9136
X6.3396Y-5.0136
X6.3396Y-5.1136
X6.3396Y-5.2136
X6.3396Y-5.3136
X6.3396Y-5.4136
X6.3396Y-5.5136
X6.3396Y-5.6136
X6.3396Y-5.7136
T7
X6.725Y-5.3386
X6.7719Y-3.4
X7.025Y-5.3386
X7.0719Y-3.4
T8
X6.0402Y-1.8886
X6.8469Y-1.8886
M30
