%TF.GenerationSoftware,KiCad,Pcbnew,8.0.2*%
%TF.CreationDate,2024-09-20T16:54:03+02:00*%
%TF.ProjectId,liberocan1,6c696265-726f-4636-916e-312e6b696361,v1.2*%
%TF.SameCoordinates,Original*%
%TF.FileFunction,Drillmap*%
%TF.FilePolarity,Positive*%
%FSLAX45Y45*%
G04 Gerber Fmt 4.5, Leading zero omitted, Abs format (unit mm)*
G04 Created by KiCad (PCBNEW 8.0.2) date 2024-09-20 16:54:03*
%MOMM*%
%LPD*%
G01*
G04 APERTURE LIST*
%ADD10C,0.100000*%
%ADD11C,0.200000*%
%ADD12C,0.102000*%
%ADD13C,0.110000*%
%ADD14C,0.150000*%
G04 APERTURE END LIST*
D10*
X21081500Y-9436000D02*
G75*
G02*
X9281500Y-9436000I-5900000J0D01*
G01*
X9281500Y-9436000D02*
G75*
G02*
X21081500Y-9436000I5900000J0D01*
G01*
D11*
D10*
X12743500Y-12807000D02*
X12783500Y-12847000D01*
X12783500Y-12807000D02*
X12743500Y-12847000D01*
X12907500Y-9984000D02*
X12947500Y-10024000D01*
X12947500Y-9984000D02*
X12907500Y-10024000D01*
X12997500Y-8587000D02*
X13037500Y-8627000D01*
X13037500Y-8587000D02*
X12997500Y-8627000D01*
X12997500Y-8841000D02*
X13037500Y-8881000D01*
X13037500Y-8841000D02*
X12997500Y-8881000D01*
X13161500Y-10238000D02*
X13201500Y-10278000D01*
X13201500Y-10238000D02*
X13161500Y-10278000D01*
X13288500Y-10492000D02*
X13328500Y-10532000D01*
X13328500Y-10492000D02*
X13288500Y-10532000D01*
X13315000Y-12426000D02*
X13355000Y-12466000D01*
X13355000Y-12426000D02*
X13315000Y-12466000D01*
X13669500Y-9730000D02*
X13709500Y-9770000D01*
X13709500Y-9730000D02*
X13669500Y-9770000D01*
X13669500Y-9984000D02*
X13709500Y-10024000D01*
X13709500Y-9984000D02*
X13669500Y-10024000D01*
X13669500Y-12778000D02*
X13709500Y-12818000D01*
X13709500Y-12778000D02*
X13669500Y-12818000D01*
X13733000Y-11190500D02*
X13773000Y-11230500D01*
X13773000Y-11190500D02*
X13733000Y-11230500D01*
X14431500Y-7698000D02*
X14471500Y-7738000D01*
X14471500Y-7698000D02*
X14431500Y-7738000D01*
X14533100Y-7698000D02*
X14573100Y-7738000D01*
X14573100Y-7698000D02*
X14533100Y-7738000D01*
X14685500Y-9984000D02*
X14725500Y-10024000D01*
X14725500Y-9984000D02*
X14685500Y-10024000D01*
X14712000Y-7981000D02*
X14752000Y-8021000D01*
X14752000Y-7981000D02*
X14712000Y-8021000D01*
X14729520Y-10130480D02*
X14769520Y-10170480D01*
X14769520Y-10130480D02*
X14729520Y-10170480D01*
X14787100Y-9933200D02*
X14827100Y-9973200D01*
X14827100Y-9933200D02*
X14787100Y-9973200D01*
X14839000Y-8108000D02*
X14879000Y-8148000D01*
X14879000Y-8108000D02*
X14839000Y-8148000D01*
X14876000Y-11000000D02*
X14916000Y-11040000D01*
X14916000Y-11000000D02*
X14876000Y-11040000D01*
X15220000Y-6076000D02*
X15260000Y-6116000D01*
X15260000Y-6076000D02*
X15220000Y-6116000D01*
X15248050Y-10753210D02*
X15288050Y-10793210D01*
X15288050Y-10753210D02*
X15248050Y-10793210D01*
X15320500Y-11444500D02*
X15360500Y-11484500D01*
X15360500Y-11444500D02*
X15320500Y-11484500D01*
X15384000Y-10365000D02*
X15424000Y-10405000D01*
X15424000Y-10365000D02*
X15384000Y-10405000D01*
X15664500Y-8425500D02*
X15704500Y-8465500D01*
X15704500Y-8425500D02*
X15664500Y-8465500D01*
X15664500Y-8870000D02*
X15704500Y-8910000D01*
X15704500Y-8870000D02*
X15664500Y-8910000D01*
X15791500Y-8743000D02*
X15831500Y-8783000D01*
X15831500Y-8743000D02*
X15791500Y-8783000D01*
X15870550Y-12349800D02*
X15910550Y-12389800D01*
X15910550Y-12349800D02*
X15870550Y-12389800D01*
X15892000Y-11952500D02*
X15932000Y-11992500D01*
X15932000Y-11952500D02*
X15892000Y-11992500D01*
X16109000Y-8870000D02*
X16149000Y-8910000D01*
X16149000Y-8870000D02*
X16109000Y-8910000D01*
X16400000Y-8015500D02*
X16440000Y-8055500D01*
X16440000Y-8015500D02*
X16400000Y-8055500D01*
X16490000Y-10775000D02*
X16530000Y-10815000D01*
X16530000Y-10775000D02*
X16490000Y-10815000D01*
X16527000Y-8087950D02*
X16567000Y-8127950D01*
X16567000Y-8087950D02*
X16527000Y-8127950D01*
X16553500Y-11092500D02*
X16593500Y-11132500D01*
X16593500Y-11092500D02*
X16553500Y-11132500D01*
X16553500Y-12108500D02*
X16593500Y-12148500D01*
X16593500Y-12108500D02*
X16553500Y-12148500D01*
X16553500Y-13759500D02*
X16593500Y-13799500D01*
X16593500Y-13759500D02*
X16553500Y-13799500D01*
X16562450Y-9124000D02*
X16602450Y-9164000D01*
X16602450Y-9124000D02*
X16562450Y-9164000D01*
X16590500Y-7698000D02*
X16630500Y-7738000D01*
X16630500Y-7698000D02*
X16590500Y-7738000D01*
X16622250Y-7856750D02*
X16662250Y-7896750D01*
X16662250Y-7856750D02*
X16622250Y-7896750D01*
X16680500Y-13759500D02*
X16720500Y-13799500D01*
X16720500Y-13759500D02*
X16680500Y-13799500D01*
X16717500Y-12968500D02*
X16757500Y-13008500D01*
X16757500Y-12968500D02*
X16717500Y-13008500D01*
X16789950Y-13159000D02*
X16829950Y-13199000D01*
X16829950Y-13159000D02*
X16789950Y-13199000D01*
X16865920Y-12461560D02*
X16905920Y-12501560D01*
X16905920Y-12461560D02*
X16865920Y-12501560D01*
X16871000Y-12362500D02*
X16911000Y-12402500D01*
X16911000Y-12362500D02*
X16871000Y-12402500D01*
X17098500Y-8333000D02*
X17138500Y-8373000D01*
X17138500Y-8333000D02*
X17098500Y-8373000D01*
X17606500Y-7952000D02*
X17646500Y-7992000D01*
X17646500Y-7952000D02*
X17606500Y-7992000D01*
X17823500Y-11283000D02*
X17863500Y-11323000D01*
X17863500Y-11283000D02*
X17823500Y-11323000D01*
X17950500Y-12870500D02*
X17990500Y-12910500D01*
X17990500Y-12870500D02*
X17950500Y-12910500D01*
X19194000Y-9730000D02*
X19234000Y-9770000D01*
X19234000Y-9730000D02*
X19194000Y-9770000D01*
X19321000Y-8904500D02*
X19361000Y-8944500D01*
X19361000Y-8904500D02*
X19321000Y-8944500D01*
X19448000Y-8587000D02*
X19488000Y-8627000D01*
X19488000Y-8587000D02*
X19448000Y-8627000D01*
X19448000Y-9285500D02*
X19488000Y-9325500D01*
X19488000Y-9285500D02*
X19448000Y-9325500D01*
X18059000Y-4572000D02*
G75*
G02*
X18009000Y-4572000I-25000J0D01*
G01*
X18009000Y-4572000D02*
G75*
G02*
X18059000Y-4572000I25000J0D01*
G01*
X18249000Y-4572000D02*
G75*
G02*
X18199000Y-4572000I-25000J0D01*
G01*
X18199000Y-4572000D02*
G75*
G02*
X18249000Y-4572000I25000J0D01*
G01*
X12636500Y-13871500D02*
X12636500Y-13941500D01*
X12601500Y-13906500D02*
X12671500Y-13906500D01*
X12636500Y-14252500D02*
X12636500Y-14322500D01*
X12601500Y-14287500D02*
X12671500Y-14287500D01*
X13144500Y-13871500D02*
X13144500Y-13941500D01*
X13109500Y-13906500D02*
X13179500Y-13906500D01*
X13144500Y-14252500D02*
X13144500Y-14322500D01*
X13109500Y-14287500D02*
X13179500Y-14287500D01*
X17208500Y-9934500D02*
X17208500Y-10004500D01*
X17173500Y-9969500D02*
X17243500Y-9969500D01*
X17716500Y-9934500D02*
X17716500Y-10004500D01*
X17681500Y-9969500D02*
X17751500Y-9969500D01*
X18224500Y-9934500D02*
X18224500Y-10004500D01*
X18189500Y-9969500D02*
X18259500Y-9969500D01*
X18732500Y-9934500D02*
X18732500Y-10004500D01*
X18697500Y-9969500D02*
X18767500Y-9969500D01*
X12580284Y-4423785D02*
X12580284Y-4367216D01*
X12523715Y-4367216D01*
X12523715Y-4423785D01*
X12580284Y-4423785D01*
X12580284Y-6623784D02*
X12580284Y-6567215D01*
X12523715Y-6567215D01*
X12523715Y-6623784D01*
X12580284Y-6623784D01*
X12780284Y-4423785D02*
X12780284Y-4367216D01*
X12723715Y-4367216D01*
X12723715Y-4423785D01*
X12780284Y-4423785D01*
X12780284Y-6623784D02*
X12780284Y-6567215D01*
X12723715Y-6567215D01*
X12723715Y-6623784D01*
X12780284Y-6623784D01*
X12980284Y-4423785D02*
X12980284Y-4367216D01*
X12923715Y-4367216D01*
X12923715Y-4423785D01*
X12980284Y-4423785D01*
X12980284Y-6623784D02*
X12980284Y-6567215D01*
X12923715Y-6567215D01*
X12923715Y-6623784D01*
X12980284Y-6623784D01*
X13180284Y-4423785D02*
X13180284Y-4367216D01*
X13123715Y-4367216D01*
X13123715Y-4423785D01*
X13180284Y-4423785D01*
X13180284Y-6623784D02*
X13180284Y-6567215D01*
X13123715Y-6567215D01*
X13123715Y-6623784D01*
X13180284Y-6623784D01*
X13380284Y-4423785D02*
X13380284Y-4367216D01*
X13323715Y-4367216D01*
X13323715Y-4423785D01*
X13380284Y-4423785D01*
X13380284Y-6623784D02*
X13380284Y-6567215D01*
X13323715Y-6567215D01*
X13323715Y-6623784D01*
X13380284Y-6623784D01*
X13580284Y-4423785D02*
X13580284Y-4367216D01*
X13523715Y-4367216D01*
X13523715Y-4423785D01*
X13580284Y-4423785D01*
X13580284Y-6623784D02*
X13580284Y-6567215D01*
X13523715Y-6567215D01*
X13523715Y-6623784D01*
X13580284Y-6623784D01*
X13780284Y-4423785D02*
X13780284Y-4367216D01*
X13723715Y-4367216D01*
X13723715Y-4423785D01*
X13780284Y-4423785D01*
X13780284Y-6623784D02*
X13780284Y-6567215D01*
X13723715Y-6567215D01*
X13723715Y-6623784D01*
X13780284Y-6623784D01*
X13980284Y-4423785D02*
X13980284Y-4367216D01*
X13923715Y-4367216D01*
X13923715Y-4423785D01*
X13980284Y-4423785D01*
X13980284Y-6623784D02*
X13980284Y-6567215D01*
X13923715Y-6567215D01*
X13923715Y-6623784D01*
X13980284Y-6623784D01*
X14180284Y-4423785D02*
X14180284Y-4367216D01*
X14123715Y-4367216D01*
X14123715Y-4423785D01*
X14180284Y-4423785D01*
X14180284Y-6623784D02*
X14180284Y-6567215D01*
X14123715Y-6567215D01*
X14123715Y-6623784D01*
X14180284Y-6623784D01*
X14380284Y-4423785D02*
X14380284Y-4367216D01*
X14323715Y-4367216D01*
X14323715Y-4423785D01*
X14380284Y-4423785D01*
X14380284Y-6623784D02*
X14380284Y-6567215D01*
X14323715Y-6567215D01*
X14323715Y-6623784D01*
X14380284Y-6623784D01*
X17457785Y-14011534D02*
X17457785Y-13954965D01*
X17401216Y-13954965D01*
X17401216Y-14011534D01*
X17457785Y-14011534D01*
X17457785Y-14261534D02*
X17457785Y-14204965D01*
X17401216Y-14204965D01*
X17401216Y-14261534D01*
X17457785Y-14261534D01*
X17457785Y-14511534D02*
X17457785Y-14454965D01*
X17401216Y-14454965D01*
X17401216Y-14511534D01*
X17457785Y-14511534D01*
X17777785Y-14011534D02*
X17777785Y-13954965D01*
X17721216Y-13954965D01*
X17721216Y-14011534D01*
X17777785Y-14011534D01*
X17777785Y-14261534D02*
X17777785Y-14204965D01*
X17721216Y-14204965D01*
X17721216Y-14261534D01*
X17777785Y-14261534D01*
X17777785Y-14511534D02*
X17777785Y-14454965D01*
X17721216Y-14454965D01*
X17721216Y-14511534D01*
X17777785Y-14511534D01*
X18062285Y-5080285D02*
X18062285Y-5023716D01*
X18005716Y-5023716D01*
X18005716Y-5080285D01*
X18062285Y-5080285D01*
X18062285Y-5842284D02*
X18062285Y-5785715D01*
X18005716Y-5785715D01*
X18005716Y-5842284D01*
X18062285Y-5842284D01*
X18316285Y-5080285D02*
X18316285Y-5023716D01*
X18259716Y-5023716D01*
X18259716Y-5080285D01*
X18316285Y-5080285D01*
X18316285Y-5842284D02*
X18316285Y-5785715D01*
X18259716Y-5785715D01*
X18259716Y-5842284D01*
X18316285Y-5842284D01*
X18570285Y-5080285D02*
X18570285Y-5023716D01*
X18513716Y-5023716D01*
X18513716Y-5080285D01*
X18570285Y-5080285D01*
X18570285Y-5842284D02*
X18570285Y-5785715D01*
X18513716Y-5785715D01*
X18513716Y-5842284D01*
X18570285Y-5842284D01*
X18824285Y-5080285D02*
X18824285Y-5023716D01*
X18767716Y-5023716D01*
X18767716Y-5080285D01*
X18824285Y-5080285D01*
X18824285Y-5842284D02*
X18824285Y-5785715D01*
X18767716Y-5785715D01*
X18767716Y-5842284D01*
X18824285Y-5842284D01*
X11790500Y-12496000D02*
X11840500Y-12446000D01*
X11790500Y-12396000D01*
X11740500Y-12446000D01*
X11790500Y-12496000D01*
X11790500Y-12750000D02*
X11840500Y-12700000D01*
X11790500Y-12650000D01*
X11740500Y-12700000D01*
X11790500Y-12750000D01*
X11790500Y-13004000D02*
X11840500Y-12954000D01*
X11790500Y-12904000D01*
X11740500Y-12954000D01*
X11790500Y-13004000D01*
X12255500Y-12496000D02*
X12305500Y-12446000D01*
X12255500Y-12396000D01*
X12205500Y-12446000D01*
X12255500Y-12496000D01*
X12255500Y-12750000D02*
X12305500Y-12700000D01*
X12255500Y-12650000D01*
X12205500Y-12700000D01*
X12255500Y-12750000D01*
X12255500Y-13004000D02*
X12305500Y-12954000D01*
X12255500Y-12904000D01*
X12205500Y-12954000D01*
X12255500Y-13004000D01*
X12292500Y-13673500D02*
X12342500Y-13623500D01*
X12292500Y-13573500D01*
X12242500Y-13623500D01*
X12292500Y-13673500D01*
X12292500Y-13927500D02*
X12342500Y-13877500D01*
X12292500Y-13827500D01*
X12242500Y-13877500D01*
X12292500Y-13927500D01*
X12292500Y-14181500D02*
X12342500Y-14131500D01*
X12292500Y-14081500D01*
X12242500Y-14131500D01*
X12292500Y-14181500D01*
X12700000Y-7895000D02*
X12750000Y-7845000D01*
X12700000Y-7795000D01*
X12650000Y-7845000D01*
X12700000Y-7895000D01*
X12700000Y-8149000D02*
X12750000Y-8099000D01*
X12700000Y-8049000D01*
X12650000Y-8099000D01*
X12700000Y-8149000D01*
X12700000Y-8403000D02*
X12750000Y-8353000D01*
X12700000Y-8303000D01*
X12650000Y-8353000D01*
X12700000Y-8403000D01*
X12700000Y-8657000D02*
X12750000Y-8607000D01*
X12700000Y-8557000D01*
X12650000Y-8607000D01*
X12700000Y-8657000D01*
X12700000Y-8911000D02*
X12750000Y-8861000D01*
X12700000Y-8811000D01*
X12650000Y-8861000D01*
X12700000Y-8911000D01*
X12700000Y-9165000D02*
X12750000Y-9115000D01*
X12700000Y-9065000D01*
X12650000Y-9115000D01*
X12700000Y-9165000D01*
X12700000Y-9419000D02*
X12750000Y-9369000D01*
X12700000Y-9319000D01*
X12650000Y-9369000D01*
X12700000Y-9419000D01*
X12700000Y-9673000D02*
X12750000Y-9623000D01*
X12700000Y-9573000D01*
X12650000Y-9623000D01*
X12700000Y-9673000D01*
X12700000Y-10797500D02*
X12750000Y-10747500D01*
X12700000Y-10697500D01*
X12650000Y-10747500D01*
X12700000Y-10797500D01*
X12700000Y-11051500D02*
X12750000Y-11001500D01*
X12700000Y-10951500D01*
X12650000Y-11001500D01*
X12700000Y-11051500D01*
X12700000Y-11305500D02*
X12750000Y-11255500D01*
X12700000Y-11205500D01*
X12650000Y-11255500D01*
X12700000Y-11305500D01*
X12700000Y-11559500D02*
X12750000Y-11509500D01*
X12700000Y-11459500D01*
X12650000Y-11509500D01*
X12700000Y-11559500D01*
X15598500Y-7567500D02*
X15648500Y-7517500D01*
X15598500Y-7467500D01*
X15548500Y-7517500D01*
X15598500Y-7567500D01*
X15852500Y-7567500D02*
X15902500Y-7517500D01*
X15852500Y-7467500D01*
X15802500Y-7517500D01*
X15852500Y-7567500D01*
X16106500Y-7567500D02*
X16156500Y-7517500D01*
X16106500Y-7467500D01*
X16056500Y-7517500D01*
X16106500Y-7567500D01*
X16360500Y-7567500D02*
X16410500Y-7517500D01*
X16360500Y-7467500D01*
X16310500Y-7517500D01*
X16360500Y-7567500D01*
X16614500Y-7567500D02*
X16664500Y-7517500D01*
X16614500Y-7467500D01*
X16564500Y-7517500D01*
X16614500Y-7567500D01*
X16868500Y-7567500D02*
X16918500Y-7517500D01*
X16868500Y-7467500D01*
X16818500Y-7517500D01*
X16868500Y-7567500D01*
X17081500Y-9179400D02*
X17131500Y-9129400D01*
X17081500Y-9079400D01*
X17031500Y-9129400D01*
X17081500Y-9179400D01*
X17081500Y-13192600D02*
X17131500Y-13142600D01*
X17081500Y-13092600D01*
X17031500Y-13142600D01*
X17081500Y-13192600D01*
X17122500Y-7567500D02*
X17172500Y-7517500D01*
X17122500Y-7467500D01*
X17072500Y-7517500D01*
X17122500Y-7567500D01*
X17376500Y-7567500D02*
X17426500Y-7517500D01*
X17376500Y-7467500D01*
X17326500Y-7517500D01*
X17376500Y-7567500D01*
X18161000Y-14020000D02*
X18211000Y-13970000D01*
X18161000Y-13920000D01*
X18111000Y-13970000D01*
X18161000Y-14020000D01*
X18161000Y-14274000D02*
X18211000Y-14224000D01*
X18161000Y-14174000D01*
X18111000Y-14224000D01*
X18161000Y-14274000D01*
X18571000Y-6369000D02*
X18621000Y-6319000D01*
X18571000Y-6269000D01*
X18521000Y-6319000D01*
X18571000Y-6369000D01*
X18571000Y-6623000D02*
X18621000Y-6573000D01*
X18571000Y-6523000D01*
X18521000Y-6573000D01*
X18571000Y-6623000D01*
X18571000Y-6877000D02*
X18621000Y-6827000D01*
X18571000Y-6777000D01*
X18521000Y-6827000D01*
X18571000Y-6877000D01*
X18571000Y-7131000D02*
X18621000Y-7081000D01*
X18571000Y-7031000D01*
X18521000Y-7081000D01*
X18571000Y-7131000D01*
X18571000Y-7385000D02*
X18621000Y-7335000D01*
X18571000Y-7285000D01*
X18521000Y-7335000D01*
X18571000Y-7385000D01*
X18571000Y-7639000D02*
X18621000Y-7589000D01*
X18571000Y-7539000D01*
X18521000Y-7589000D01*
X18571000Y-7639000D01*
X18571000Y-7893000D02*
X18621000Y-7843000D01*
X18571000Y-7793000D01*
X18521000Y-7843000D01*
X18571000Y-7893000D01*
X18571000Y-8147000D02*
X18621000Y-8097000D01*
X18571000Y-8047000D01*
X18521000Y-8097000D01*
X18571000Y-8147000D01*
X18859500Y-9179400D02*
X18909500Y-9129400D01*
X18859500Y-9079400D01*
X18809500Y-9129400D01*
X18859500Y-9179400D01*
X18859500Y-13192600D02*
X18909500Y-13142600D01*
X18859500Y-13092600D01*
X18809500Y-13142600D01*
X18859500Y-13192600D01*
X20039500Y-9798500D02*
X20089500Y-9748500D01*
X20039500Y-9698500D01*
X19989500Y-9748500D01*
X20039500Y-9798500D01*
X20039500Y-10052500D02*
X20089500Y-10002500D01*
X20039500Y-9952500D01*
X19989500Y-10002500D01*
X20039500Y-10052500D01*
X20039500Y-10306500D02*
X20089500Y-10256500D01*
X20039500Y-10206500D01*
X19989500Y-10256500D01*
X20039500Y-10306500D01*
X20039500Y-11005000D02*
X20089500Y-10955000D01*
X20039500Y-10905000D01*
X19989500Y-10955000D01*
X20039500Y-11005000D01*
X20039500Y-11259000D02*
X20089500Y-11209000D01*
X20039500Y-11159000D01*
X19989500Y-11209000D01*
X20039500Y-11259000D01*
X20039500Y-11513000D02*
X20089500Y-11463000D01*
X20039500Y-11413000D01*
X19989500Y-11463000D01*
X20039500Y-11513000D01*
X20190000Y-9384500D02*
X20240000Y-9334500D01*
X20190000Y-9284500D01*
X20140000Y-9334500D01*
X20190000Y-9384500D01*
X20193000Y-8749500D02*
X20243000Y-8699500D01*
X20193000Y-8649500D01*
X20143000Y-8699500D01*
X20193000Y-8749500D01*
X20444000Y-9384500D02*
X20494000Y-9334500D01*
X20444000Y-9284500D01*
X20394000Y-9334500D01*
X20444000Y-9384500D01*
X20447000Y-8749500D02*
X20497000Y-8699500D01*
X20447000Y-8649500D01*
X20397000Y-8699500D01*
X20447000Y-8749500D01*
X20698000Y-9384500D02*
X20748000Y-9334500D01*
X20698000Y-9284500D01*
X20648000Y-9334500D01*
X20698000Y-9384500D01*
X20701000Y-8749500D02*
X20751000Y-8699500D01*
X20701000Y-8649500D01*
X20651000Y-8699500D01*
X20701000Y-8749500D01*
D12*
X14273500Y-9635500D02*
X14375500Y-9737500D01*
X14375500Y-9635500D02*
X14273500Y-9737500D01*
X14375500Y-9686500D02*
G75*
G02*
X14273500Y-9686500I-51000J0D01*
G01*
X14273500Y-9686500D02*
G75*
G02*
X14375500Y-9686500I51000J0D01*
G01*
X14273500Y-9889500D02*
X14375500Y-9991500D01*
X14375500Y-9889500D02*
X14273500Y-9991500D01*
X14375500Y-9940500D02*
G75*
G02*
X14273500Y-9940500I-51000J0D01*
G01*
X14273500Y-9940500D02*
G75*
G02*
X14375500Y-9940500I51000J0D01*
G01*
X14273500Y-10143500D02*
X14375500Y-10245500D01*
X14375500Y-10143500D02*
X14273500Y-10245500D01*
X14375500Y-10194500D02*
G75*
G02*
X14273500Y-10194500I-51000J0D01*
G01*
X14273500Y-10194500D02*
G75*
G02*
X14375500Y-10194500I51000J0D01*
G01*
X14273500Y-10397500D02*
X14375500Y-10499500D01*
X14375500Y-10397500D02*
X14273500Y-10499500D01*
X14375500Y-10448500D02*
G75*
G02*
X14273500Y-10448500I-51000J0D01*
G01*
X14273500Y-10448500D02*
G75*
G02*
X14375500Y-10448500I51000J0D01*
G01*
X14273500Y-10651500D02*
X14375500Y-10753500D01*
X14375500Y-10651500D02*
X14273500Y-10753500D01*
X14375500Y-10702500D02*
G75*
G02*
X14273500Y-10702500I-51000J0D01*
G01*
X14273500Y-10702500D02*
G75*
G02*
X14375500Y-10702500I51000J0D01*
G01*
X14273500Y-10905500D02*
X14375500Y-11007500D01*
X14375500Y-10905500D02*
X14273500Y-11007500D01*
X14375500Y-10956500D02*
G75*
G02*
X14273500Y-10956500I-51000J0D01*
G01*
X14273500Y-10956500D02*
G75*
G02*
X14375500Y-10956500I51000J0D01*
G01*
X14273500Y-11159500D02*
X14375500Y-11261500D01*
X14375500Y-11159500D02*
X14273500Y-11261500D01*
X14375500Y-11210500D02*
G75*
G02*
X14273500Y-11210500I-51000J0D01*
G01*
X14273500Y-11210500D02*
G75*
G02*
X14375500Y-11210500I51000J0D01*
G01*
X14273500Y-11413500D02*
X14375500Y-11515500D01*
X14375500Y-11413500D02*
X14273500Y-11515500D01*
X14375500Y-11464500D02*
G75*
G02*
X14273500Y-11464500I-51000J0D01*
G01*
X14273500Y-11464500D02*
G75*
G02*
X14375500Y-11464500I51000J0D01*
G01*
X14273500Y-11667500D02*
X14375500Y-11769500D01*
X14375500Y-11667500D02*
X14273500Y-11769500D01*
X14375500Y-11718500D02*
G75*
G02*
X14273500Y-11718500I-51000J0D01*
G01*
X14273500Y-11718500D02*
G75*
G02*
X14375500Y-11718500I51000J0D01*
G01*
X14273500Y-11921500D02*
X14375500Y-12023500D01*
X14375500Y-11921500D02*
X14273500Y-12023500D01*
X14375500Y-11972500D02*
G75*
G02*
X14273500Y-11972500I-51000J0D01*
G01*
X14273500Y-11972500D02*
G75*
G02*
X14375500Y-11972500I51000J0D01*
G01*
X14273500Y-12175500D02*
X14375500Y-12277500D01*
X14375500Y-12175500D02*
X14273500Y-12277500D01*
X14375500Y-12226500D02*
G75*
G02*
X14273500Y-12226500I-51000J0D01*
G01*
X14273500Y-12226500D02*
G75*
G02*
X14375500Y-12226500I51000J0D01*
G01*
X14273500Y-12429500D02*
X14375500Y-12531500D01*
X14375500Y-12429500D02*
X14273500Y-12531500D01*
X14375500Y-12480500D02*
G75*
G02*
X14273500Y-12480500I-51000J0D01*
G01*
X14273500Y-12480500D02*
G75*
G02*
X14375500Y-12480500I51000J0D01*
G01*
X14273500Y-12683500D02*
X14375500Y-12785500D01*
X14375500Y-12683500D02*
X14273500Y-12785500D01*
X14375500Y-12734500D02*
G75*
G02*
X14273500Y-12734500I-51000J0D01*
G01*
X14273500Y-12734500D02*
G75*
G02*
X14375500Y-12734500I51000J0D01*
G01*
X14273500Y-12937500D02*
X14375500Y-13039500D01*
X14375500Y-12937500D02*
X14273500Y-13039500D01*
X14375500Y-12988500D02*
G75*
G02*
X14273500Y-12988500I-51000J0D01*
G01*
X14273500Y-12988500D02*
G75*
G02*
X14375500Y-12988500I51000J0D01*
G01*
X14273500Y-13191500D02*
X14375500Y-13293500D01*
X14375500Y-13191500D02*
X14273500Y-13293500D01*
X14375500Y-13242500D02*
G75*
G02*
X14273500Y-13242500I-51000J0D01*
G01*
X14273500Y-13242500D02*
G75*
G02*
X14375500Y-13242500I51000J0D01*
G01*
X14273500Y-13445500D02*
X14375500Y-13547500D01*
X14375500Y-13445500D02*
X14273500Y-13547500D01*
X14375500Y-13496500D02*
G75*
G02*
X14273500Y-13496500I-51000J0D01*
G01*
X14273500Y-13496500D02*
G75*
G02*
X14375500Y-13496500I51000J0D01*
G01*
X14273500Y-13699500D02*
X14375500Y-13801500D01*
X14375500Y-13699500D02*
X14273500Y-13801500D01*
X14375500Y-13750500D02*
G75*
G02*
X14273500Y-13750500I-51000J0D01*
G01*
X14273500Y-13750500D02*
G75*
G02*
X14375500Y-13750500I51000J0D01*
G01*
X14273500Y-13953500D02*
X14375500Y-14055500D01*
X14375500Y-13953500D02*
X14273500Y-14055500D01*
X14375500Y-14004500D02*
G75*
G02*
X14273500Y-14004500I-51000J0D01*
G01*
X14273500Y-14004500D02*
G75*
G02*
X14375500Y-14004500I51000J0D01*
G01*
X14273500Y-14207500D02*
X14375500Y-14309500D01*
X14375500Y-14207500D02*
X14273500Y-14309500D01*
X14375500Y-14258500D02*
G75*
G02*
X14273500Y-14258500I-51000J0D01*
G01*
X14273500Y-14258500D02*
G75*
G02*
X14375500Y-14258500I51000J0D01*
G01*
X14273500Y-14461500D02*
X14375500Y-14563500D01*
X14375500Y-14461500D02*
X14273500Y-14563500D01*
X14375500Y-14512500D02*
G75*
G02*
X14273500Y-14512500I-51000J0D01*
G01*
X14273500Y-14512500D02*
G75*
G02*
X14375500Y-14512500I51000J0D01*
G01*
X14908500Y-9658500D02*
X15010500Y-9760500D01*
X15010500Y-9658500D02*
X14908500Y-9760500D01*
X15010500Y-9709500D02*
G75*
G02*
X14908500Y-9709500I-51000J0D01*
G01*
X14908500Y-9709500D02*
G75*
G02*
X15010500Y-9709500I51000J0D01*
G01*
X15162500Y-9658500D02*
X15264500Y-9760500D01*
X15264500Y-9658500D02*
X15162500Y-9760500D01*
X15264500Y-9709500D02*
G75*
G02*
X15162500Y-9709500I-51000J0D01*
G01*
X15162500Y-9709500D02*
G75*
G02*
X15264500Y-9709500I51000J0D01*
G01*
X15416500Y-9658500D02*
X15518500Y-9760500D01*
X15518500Y-9658500D02*
X15416500Y-9760500D01*
X15518500Y-9709500D02*
G75*
G02*
X15416500Y-9709500I-51000J0D01*
G01*
X15416500Y-9709500D02*
G75*
G02*
X15518500Y-9709500I51000J0D01*
G01*
X16051500Y-9635500D02*
X16153500Y-9737500D01*
X16153500Y-9635500D02*
X16051500Y-9737500D01*
X16153500Y-9686500D02*
G75*
G02*
X16051500Y-9686500I-51000J0D01*
G01*
X16051500Y-9686500D02*
G75*
G02*
X16153500Y-9686500I51000J0D01*
G01*
X16051500Y-9889500D02*
X16153500Y-9991500D01*
X16153500Y-9889500D02*
X16051500Y-9991500D01*
X16153500Y-9940500D02*
G75*
G02*
X16051500Y-9940500I-51000J0D01*
G01*
X16051500Y-9940500D02*
G75*
G02*
X16153500Y-9940500I51000J0D01*
G01*
X16051500Y-10143500D02*
X16153500Y-10245500D01*
X16153500Y-10143500D02*
X16051500Y-10245500D01*
X16153500Y-10194500D02*
G75*
G02*
X16051500Y-10194500I-51000J0D01*
G01*
X16051500Y-10194500D02*
G75*
G02*
X16153500Y-10194500I51000J0D01*
G01*
X16051500Y-10397500D02*
X16153500Y-10499500D01*
X16153500Y-10397500D02*
X16051500Y-10499500D01*
X16153500Y-10448500D02*
G75*
G02*
X16051500Y-10448500I-51000J0D01*
G01*
X16051500Y-10448500D02*
G75*
G02*
X16153500Y-10448500I51000J0D01*
G01*
X16051500Y-10651500D02*
X16153500Y-10753500D01*
X16153500Y-10651500D02*
X16051500Y-10753500D01*
X16153500Y-10702500D02*
G75*
G02*
X16051500Y-10702500I-51000J0D01*
G01*
X16051500Y-10702500D02*
G75*
G02*
X16153500Y-10702500I51000J0D01*
G01*
X16051500Y-10905500D02*
X16153500Y-11007500D01*
X16153500Y-10905500D02*
X16051500Y-11007500D01*
X16153500Y-10956500D02*
G75*
G02*
X16051500Y-10956500I-51000J0D01*
G01*
X16051500Y-10956500D02*
G75*
G02*
X16153500Y-10956500I51000J0D01*
G01*
X16051500Y-11159500D02*
X16153500Y-11261500D01*
X16153500Y-11159500D02*
X16051500Y-11261500D01*
X16153500Y-11210500D02*
G75*
G02*
X16051500Y-11210500I-51000J0D01*
G01*
X16051500Y-11210500D02*
G75*
G02*
X16153500Y-11210500I51000J0D01*
G01*
X16051500Y-11413500D02*
X16153500Y-11515500D01*
X16153500Y-11413500D02*
X16051500Y-11515500D01*
X16153500Y-11464500D02*
G75*
G02*
X16051500Y-11464500I-51000J0D01*
G01*
X16051500Y-11464500D02*
G75*
G02*
X16153500Y-11464500I51000J0D01*
G01*
X16051500Y-11667500D02*
X16153500Y-11769500D01*
X16153500Y-11667500D02*
X16051500Y-11769500D01*
X16153500Y-11718500D02*
G75*
G02*
X16051500Y-11718500I-51000J0D01*
G01*
X16051500Y-11718500D02*
G75*
G02*
X16153500Y-11718500I51000J0D01*
G01*
X16051500Y-11921500D02*
X16153500Y-12023500D01*
X16153500Y-11921500D02*
X16051500Y-12023500D01*
X16153500Y-11972500D02*
G75*
G02*
X16051500Y-11972500I-51000J0D01*
G01*
X16051500Y-11972500D02*
G75*
G02*
X16153500Y-11972500I51000J0D01*
G01*
X16051500Y-12175500D02*
X16153500Y-12277500D01*
X16153500Y-12175500D02*
X16051500Y-12277500D01*
X16153500Y-12226500D02*
G75*
G02*
X16051500Y-12226500I-51000J0D01*
G01*
X16051500Y-12226500D02*
G75*
G02*
X16153500Y-12226500I51000J0D01*
G01*
X16051500Y-12429500D02*
X16153500Y-12531500D01*
X16153500Y-12429500D02*
X16051500Y-12531500D01*
X16153500Y-12480500D02*
G75*
G02*
X16051500Y-12480500I-51000J0D01*
G01*
X16051500Y-12480500D02*
G75*
G02*
X16153500Y-12480500I51000J0D01*
G01*
X16051500Y-12683500D02*
X16153500Y-12785500D01*
X16153500Y-12683500D02*
X16051500Y-12785500D01*
X16153500Y-12734500D02*
G75*
G02*
X16051500Y-12734500I-51000J0D01*
G01*
X16051500Y-12734500D02*
G75*
G02*
X16153500Y-12734500I51000J0D01*
G01*
X16051500Y-12937500D02*
X16153500Y-13039500D01*
X16153500Y-12937500D02*
X16051500Y-13039500D01*
X16153500Y-12988500D02*
G75*
G02*
X16051500Y-12988500I-51000J0D01*
G01*
X16051500Y-12988500D02*
G75*
G02*
X16153500Y-12988500I51000J0D01*
G01*
X16051500Y-13191500D02*
X16153500Y-13293500D01*
X16153500Y-13191500D02*
X16051500Y-13293500D01*
X16153500Y-13242500D02*
G75*
G02*
X16051500Y-13242500I-51000J0D01*
G01*
X16051500Y-13242500D02*
G75*
G02*
X16153500Y-13242500I51000J0D01*
G01*
X16051500Y-13445500D02*
X16153500Y-13547500D01*
X16153500Y-13445500D02*
X16051500Y-13547500D01*
X16153500Y-13496500D02*
G75*
G02*
X16051500Y-13496500I-51000J0D01*
G01*
X16051500Y-13496500D02*
G75*
G02*
X16153500Y-13496500I51000J0D01*
G01*
X16051500Y-13699500D02*
X16153500Y-13801500D01*
X16153500Y-13699500D02*
X16051500Y-13801500D01*
X16153500Y-13750500D02*
G75*
G02*
X16051500Y-13750500I-51000J0D01*
G01*
X16051500Y-13750500D02*
G75*
G02*
X16153500Y-13750500I51000J0D01*
G01*
X16051500Y-13953500D02*
X16153500Y-14055500D01*
X16153500Y-13953500D02*
X16051500Y-14055500D01*
X16153500Y-14004500D02*
G75*
G02*
X16051500Y-14004500I-51000J0D01*
G01*
X16051500Y-14004500D02*
G75*
G02*
X16153500Y-14004500I51000J0D01*
G01*
X16051500Y-14207500D02*
X16153500Y-14309500D01*
X16153500Y-14207500D02*
X16051500Y-14309500D01*
X16153500Y-14258500D02*
G75*
G02*
X16051500Y-14258500I-51000J0D01*
G01*
X16051500Y-14258500D02*
G75*
G02*
X16153500Y-14258500I51000J0D01*
G01*
X16051500Y-14461500D02*
X16153500Y-14563500D01*
X16153500Y-14461500D02*
X16051500Y-14563500D01*
X16153500Y-14512500D02*
G75*
G02*
X16051500Y-14512500I-51000J0D01*
G01*
X16051500Y-14512500D02*
G75*
G02*
X16153500Y-14512500I51000J0D01*
G01*
D13*
X17026500Y-13505000D02*
X17136500Y-13615000D01*
X17136500Y-13505000D02*
X17026500Y-13615000D01*
X17081500Y-13505000D02*
X17081500Y-13615000D01*
X17026500Y-13560000D02*
X17136500Y-13560000D01*
X17145500Y-8581000D02*
X17255500Y-8691000D01*
X17255500Y-8581000D02*
X17145500Y-8691000D01*
X17200500Y-8581000D02*
X17200500Y-8691000D01*
X17145500Y-8636000D02*
X17255500Y-8636000D01*
X17788500Y-13505000D02*
X17898500Y-13615000D01*
X17898500Y-13505000D02*
X17788500Y-13615000D01*
X17843500Y-13505000D02*
X17843500Y-13615000D01*
X17788500Y-13560000D02*
X17898500Y-13560000D01*
X17907500Y-8581000D02*
X18017500Y-8691000D01*
X18017500Y-8581000D02*
X17907500Y-8691000D01*
X17962500Y-8581000D02*
X17962500Y-8691000D01*
X17907500Y-8636000D02*
X18017500Y-8636000D01*
D14*
X15267000Y-4722000D02*
X15417000Y-4872000D01*
X15417000Y-4722000D02*
X15267000Y-4872000D01*
X15395033Y-4850034D02*
X15395033Y-4743967D01*
X15288966Y-4743967D01*
X15288966Y-4850034D01*
X15395033Y-4850034D01*
X17316000Y-4722000D02*
X17466000Y-4872000D01*
X17466000Y-4722000D02*
X17316000Y-4872000D01*
X17444034Y-4850034D02*
X17444034Y-4743967D01*
X17337967Y-4743967D01*
X17337967Y-4850034D01*
X17444034Y-4850034D01*
D11*
X9537277Y-15652484D02*
X9537277Y-15452484D01*
X9537277Y-15452484D02*
X9584896Y-15452484D01*
X9584896Y-15452484D02*
X9613467Y-15462008D01*
X9613467Y-15462008D02*
X9632515Y-15481055D01*
X9632515Y-15481055D02*
X9642039Y-15500103D01*
X9642039Y-15500103D02*
X9651563Y-15538198D01*
X9651563Y-15538198D02*
X9651563Y-15566769D01*
X9651563Y-15566769D02*
X9642039Y-15604865D01*
X9642039Y-15604865D02*
X9632515Y-15623912D01*
X9632515Y-15623912D02*
X9613467Y-15642960D01*
X9613467Y-15642960D02*
X9584896Y-15652484D01*
X9584896Y-15652484D02*
X9537277Y-15652484D01*
X9737277Y-15652484D02*
X9737277Y-15519150D01*
X9737277Y-15557246D02*
X9746801Y-15538198D01*
X9746801Y-15538198D02*
X9756324Y-15528674D01*
X9756324Y-15528674D02*
X9775372Y-15519150D01*
X9775372Y-15519150D02*
X9794420Y-15519150D01*
X9861086Y-15652484D02*
X9861086Y-15519150D01*
X9861086Y-15452484D02*
X9851563Y-15462008D01*
X9851563Y-15462008D02*
X9861086Y-15471531D01*
X9861086Y-15471531D02*
X9870610Y-15462008D01*
X9870610Y-15462008D02*
X9861086Y-15452484D01*
X9861086Y-15452484D02*
X9861086Y-15471531D01*
X9984896Y-15652484D02*
X9965848Y-15642960D01*
X9965848Y-15642960D02*
X9956324Y-15623912D01*
X9956324Y-15623912D02*
X9956324Y-15452484D01*
X10089658Y-15652484D02*
X10070610Y-15642960D01*
X10070610Y-15642960D02*
X10061086Y-15623912D01*
X10061086Y-15623912D02*
X10061086Y-15452484D01*
X10318229Y-15652484D02*
X10318229Y-15452484D01*
X10318229Y-15452484D02*
X10384896Y-15595341D01*
X10384896Y-15595341D02*
X10451563Y-15452484D01*
X10451563Y-15452484D02*
X10451563Y-15652484D01*
X10632515Y-15652484D02*
X10632515Y-15547722D01*
X10632515Y-15547722D02*
X10622991Y-15528674D01*
X10622991Y-15528674D02*
X10603944Y-15519150D01*
X10603944Y-15519150D02*
X10565848Y-15519150D01*
X10565848Y-15519150D02*
X10546801Y-15528674D01*
X10632515Y-15642960D02*
X10613467Y-15652484D01*
X10613467Y-15652484D02*
X10565848Y-15652484D01*
X10565848Y-15652484D02*
X10546801Y-15642960D01*
X10546801Y-15642960D02*
X10537277Y-15623912D01*
X10537277Y-15623912D02*
X10537277Y-15604865D01*
X10537277Y-15604865D02*
X10546801Y-15585817D01*
X10546801Y-15585817D02*
X10565848Y-15576293D01*
X10565848Y-15576293D02*
X10613467Y-15576293D01*
X10613467Y-15576293D02*
X10632515Y-15566769D01*
X10727753Y-15519150D02*
X10727753Y-15719150D01*
X10727753Y-15528674D02*
X10746801Y-15519150D01*
X10746801Y-15519150D02*
X10784896Y-15519150D01*
X10784896Y-15519150D02*
X10803944Y-15528674D01*
X10803944Y-15528674D02*
X10813467Y-15538198D01*
X10813467Y-15538198D02*
X10822991Y-15557246D01*
X10822991Y-15557246D02*
X10822991Y-15614388D01*
X10822991Y-15614388D02*
X10813467Y-15633436D01*
X10813467Y-15633436D02*
X10803944Y-15642960D01*
X10803944Y-15642960D02*
X10784896Y-15652484D01*
X10784896Y-15652484D02*
X10746801Y-15652484D01*
X10746801Y-15652484D02*
X10727753Y-15642960D01*
X10908705Y-15633436D02*
X10918229Y-15642960D01*
X10918229Y-15642960D02*
X10908705Y-15652484D01*
X10908705Y-15652484D02*
X10899182Y-15642960D01*
X10899182Y-15642960D02*
X10908705Y-15633436D01*
X10908705Y-15633436D02*
X10908705Y-15652484D01*
X10908705Y-15528674D02*
X10918229Y-15538198D01*
X10918229Y-15538198D02*
X10908705Y-15547722D01*
X10908705Y-15547722D02*
X10899182Y-15538198D01*
X10899182Y-15538198D02*
X10908705Y-15528674D01*
X10908705Y-15528674D02*
X10908705Y-15547722D01*
D10*
X9236500Y-15961000D02*
X9276500Y-16001000D01*
X9276500Y-15961000D02*
X9236500Y-16001000D01*
D11*
X9575372Y-15872484D02*
X9594420Y-15872484D01*
X9594420Y-15872484D02*
X9613467Y-15882008D01*
X9613467Y-15882008D02*
X9622991Y-15891531D01*
X9622991Y-15891531D02*
X9632515Y-15910579D01*
X9632515Y-15910579D02*
X9642039Y-15948674D01*
X9642039Y-15948674D02*
X9642039Y-15996293D01*
X9642039Y-15996293D02*
X9632515Y-16034388D01*
X9632515Y-16034388D02*
X9622991Y-16053436D01*
X9622991Y-16053436D02*
X9613467Y-16062960D01*
X9613467Y-16062960D02*
X9594420Y-16072484D01*
X9594420Y-16072484D02*
X9575372Y-16072484D01*
X9575372Y-16072484D02*
X9556324Y-16062960D01*
X9556324Y-16062960D02*
X9546801Y-16053436D01*
X9546801Y-16053436D02*
X9537277Y-16034388D01*
X9537277Y-16034388D02*
X9527753Y-15996293D01*
X9527753Y-15996293D02*
X9527753Y-15948674D01*
X9527753Y-15948674D02*
X9537277Y-15910579D01*
X9537277Y-15910579D02*
X9546801Y-15891531D01*
X9546801Y-15891531D02*
X9556324Y-15882008D01*
X9556324Y-15882008D02*
X9575372Y-15872484D01*
X9727753Y-16053436D02*
X9737277Y-16062960D01*
X9737277Y-16062960D02*
X9727753Y-16072484D01*
X9727753Y-16072484D02*
X9718229Y-16062960D01*
X9718229Y-16062960D02*
X9727753Y-16053436D01*
X9727753Y-16053436D02*
X9727753Y-16072484D01*
X9908705Y-15939150D02*
X9908705Y-16072484D01*
X9861086Y-15862960D02*
X9813467Y-16005817D01*
X9813467Y-16005817D02*
X9937277Y-16005817D01*
X10051563Y-15872484D02*
X10070610Y-15872484D01*
X10070610Y-15872484D02*
X10089658Y-15882008D01*
X10089658Y-15882008D02*
X10099182Y-15891531D01*
X10099182Y-15891531D02*
X10108705Y-15910579D01*
X10108705Y-15910579D02*
X10118229Y-15948674D01*
X10118229Y-15948674D02*
X10118229Y-15996293D01*
X10118229Y-15996293D02*
X10108705Y-16034388D01*
X10108705Y-16034388D02*
X10099182Y-16053436D01*
X10099182Y-16053436D02*
X10089658Y-16062960D01*
X10089658Y-16062960D02*
X10070610Y-16072484D01*
X10070610Y-16072484D02*
X10051563Y-16072484D01*
X10051563Y-16072484D02*
X10032515Y-16062960D01*
X10032515Y-16062960D02*
X10022991Y-16053436D01*
X10022991Y-16053436D02*
X10013467Y-16034388D01*
X10013467Y-16034388D02*
X10003944Y-15996293D01*
X10003944Y-15996293D02*
X10003944Y-15948674D01*
X10003944Y-15948674D02*
X10013467Y-15910579D01*
X10013467Y-15910579D02*
X10022991Y-15891531D01*
X10022991Y-15891531D02*
X10032515Y-15882008D01*
X10032515Y-15882008D02*
X10051563Y-15872484D01*
X10242039Y-15872484D02*
X10261086Y-15872484D01*
X10261086Y-15872484D02*
X10280134Y-15882008D01*
X10280134Y-15882008D02*
X10289658Y-15891531D01*
X10289658Y-15891531D02*
X10299182Y-15910579D01*
X10299182Y-15910579D02*
X10308705Y-15948674D01*
X10308705Y-15948674D02*
X10308705Y-15996293D01*
X10308705Y-15996293D02*
X10299182Y-16034388D01*
X10299182Y-16034388D02*
X10289658Y-16053436D01*
X10289658Y-16053436D02*
X10280134Y-16062960D01*
X10280134Y-16062960D02*
X10261086Y-16072484D01*
X10261086Y-16072484D02*
X10242039Y-16072484D01*
X10242039Y-16072484D02*
X10222991Y-16062960D01*
X10222991Y-16062960D02*
X10213467Y-16053436D01*
X10213467Y-16053436D02*
X10203944Y-16034388D01*
X10203944Y-16034388D02*
X10194420Y-15996293D01*
X10194420Y-15996293D02*
X10194420Y-15948674D01*
X10194420Y-15948674D02*
X10203944Y-15910579D01*
X10203944Y-15910579D02*
X10213467Y-15891531D01*
X10213467Y-15891531D02*
X10222991Y-15882008D01*
X10222991Y-15882008D02*
X10242039Y-15872484D01*
X10394420Y-16072484D02*
X10394420Y-15939150D01*
X10394420Y-15958198D02*
X10403944Y-15948674D01*
X10403944Y-15948674D02*
X10422991Y-15939150D01*
X10422991Y-15939150D02*
X10451563Y-15939150D01*
X10451563Y-15939150D02*
X10470610Y-15948674D01*
X10470610Y-15948674D02*
X10480134Y-15967722D01*
X10480134Y-15967722D02*
X10480134Y-16072484D01*
X10480134Y-15967722D02*
X10489658Y-15948674D01*
X10489658Y-15948674D02*
X10508705Y-15939150D01*
X10508705Y-15939150D02*
X10537277Y-15939150D01*
X10537277Y-15939150D02*
X10556325Y-15948674D01*
X10556325Y-15948674D02*
X10565848Y-15967722D01*
X10565848Y-15967722D02*
X10565848Y-16072484D01*
X10661086Y-16072484D02*
X10661086Y-15939150D01*
X10661086Y-15958198D02*
X10670610Y-15948674D01*
X10670610Y-15948674D02*
X10689658Y-15939150D01*
X10689658Y-15939150D02*
X10718229Y-15939150D01*
X10718229Y-15939150D02*
X10737277Y-15948674D01*
X10737277Y-15948674D02*
X10746801Y-15967722D01*
X10746801Y-15967722D02*
X10746801Y-16072484D01*
X10746801Y-15967722D02*
X10756325Y-15948674D01*
X10756325Y-15948674D02*
X10775372Y-15939150D01*
X10775372Y-15939150D02*
X10803944Y-15939150D01*
X10803944Y-15939150D02*
X10822991Y-15948674D01*
X10822991Y-15948674D02*
X10832515Y-15967722D01*
X10832515Y-15967722D02*
X10832515Y-16072484D01*
X11222991Y-15862960D02*
X11051563Y-16120103D01*
X11480134Y-15872484D02*
X11499182Y-15872484D01*
X11499182Y-15872484D02*
X11518229Y-15882008D01*
X11518229Y-15882008D02*
X11527753Y-15891531D01*
X11527753Y-15891531D02*
X11537277Y-15910579D01*
X11537277Y-15910579D02*
X11546801Y-15948674D01*
X11546801Y-15948674D02*
X11546801Y-15996293D01*
X11546801Y-15996293D02*
X11537277Y-16034388D01*
X11537277Y-16034388D02*
X11527753Y-16053436D01*
X11527753Y-16053436D02*
X11518229Y-16062960D01*
X11518229Y-16062960D02*
X11499182Y-16072484D01*
X11499182Y-16072484D02*
X11480134Y-16072484D01*
X11480134Y-16072484D02*
X11461086Y-16062960D01*
X11461086Y-16062960D02*
X11451563Y-16053436D01*
X11451563Y-16053436D02*
X11442039Y-16034388D01*
X11442039Y-16034388D02*
X11432515Y-15996293D01*
X11432515Y-15996293D02*
X11432515Y-15948674D01*
X11432515Y-15948674D02*
X11442039Y-15910579D01*
X11442039Y-15910579D02*
X11451563Y-15891531D01*
X11451563Y-15891531D02*
X11461086Y-15882008D01*
X11461086Y-15882008D02*
X11480134Y-15872484D01*
X11632515Y-16053436D02*
X11642039Y-16062960D01*
X11642039Y-16062960D02*
X11632515Y-16072484D01*
X11632515Y-16072484D02*
X11622991Y-16062960D01*
X11622991Y-16062960D02*
X11632515Y-16053436D01*
X11632515Y-16053436D02*
X11632515Y-16072484D01*
X11765848Y-15872484D02*
X11784896Y-15872484D01*
X11784896Y-15872484D02*
X11803944Y-15882008D01*
X11803944Y-15882008D02*
X11813467Y-15891531D01*
X11813467Y-15891531D02*
X11822991Y-15910579D01*
X11822991Y-15910579D02*
X11832515Y-15948674D01*
X11832515Y-15948674D02*
X11832515Y-15996293D01*
X11832515Y-15996293D02*
X11822991Y-16034388D01*
X11822991Y-16034388D02*
X11813467Y-16053436D01*
X11813467Y-16053436D02*
X11803944Y-16062960D01*
X11803944Y-16062960D02*
X11784896Y-16072484D01*
X11784896Y-16072484D02*
X11765848Y-16072484D01*
X11765848Y-16072484D02*
X11746801Y-16062960D01*
X11746801Y-16062960D02*
X11737277Y-16053436D01*
X11737277Y-16053436D02*
X11727753Y-16034388D01*
X11727753Y-16034388D02*
X11718229Y-15996293D01*
X11718229Y-15996293D02*
X11718229Y-15948674D01*
X11718229Y-15948674D02*
X11727753Y-15910579D01*
X11727753Y-15910579D02*
X11737277Y-15891531D01*
X11737277Y-15891531D02*
X11746801Y-15882008D01*
X11746801Y-15882008D02*
X11765848Y-15872484D01*
X12022991Y-16072484D02*
X11908706Y-16072484D01*
X11965848Y-16072484D02*
X11965848Y-15872484D01*
X11965848Y-15872484D02*
X11946801Y-15901055D01*
X11946801Y-15901055D02*
X11927753Y-15920103D01*
X11927753Y-15920103D02*
X11908706Y-15929627D01*
X12203944Y-15872484D02*
X12108706Y-15872484D01*
X12108706Y-15872484D02*
X12099182Y-15967722D01*
X12099182Y-15967722D02*
X12108706Y-15958198D01*
X12108706Y-15958198D02*
X12127753Y-15948674D01*
X12127753Y-15948674D02*
X12175372Y-15948674D01*
X12175372Y-15948674D02*
X12194420Y-15958198D01*
X12194420Y-15958198D02*
X12203944Y-15967722D01*
X12203944Y-15967722D02*
X12213467Y-15986769D01*
X12213467Y-15986769D02*
X12213467Y-16034388D01*
X12213467Y-16034388D02*
X12203944Y-16053436D01*
X12203944Y-16053436D02*
X12194420Y-16062960D01*
X12194420Y-16062960D02*
X12175372Y-16072484D01*
X12175372Y-16072484D02*
X12127753Y-16072484D01*
X12127753Y-16072484D02*
X12108706Y-16062960D01*
X12108706Y-16062960D02*
X12099182Y-16053436D01*
X12280134Y-15872484D02*
X12413467Y-15872484D01*
X12413467Y-15872484D02*
X12327753Y-16072484D01*
X12480134Y-15872484D02*
X12480134Y-15910579D01*
X12556325Y-15872484D02*
X12556325Y-15910579D01*
X12851563Y-16148674D02*
X12842039Y-16139150D01*
X12842039Y-16139150D02*
X12822991Y-16110579D01*
X12822991Y-16110579D02*
X12813468Y-16091531D01*
X12813468Y-16091531D02*
X12803944Y-16062960D01*
X12803944Y-16062960D02*
X12794420Y-16015341D01*
X12794420Y-16015341D02*
X12794420Y-15977246D01*
X12794420Y-15977246D02*
X12803944Y-15929627D01*
X12803944Y-15929627D02*
X12813468Y-15901055D01*
X12813468Y-15901055D02*
X12822991Y-15882008D01*
X12822991Y-15882008D02*
X12842039Y-15853436D01*
X12842039Y-15853436D02*
X12851563Y-15843912D01*
X13022991Y-15872484D02*
X12927753Y-15872484D01*
X12927753Y-15872484D02*
X12918229Y-15967722D01*
X12918229Y-15967722D02*
X12927753Y-15958198D01*
X12927753Y-15958198D02*
X12946801Y-15948674D01*
X12946801Y-15948674D02*
X12994420Y-15948674D01*
X12994420Y-15948674D02*
X13013468Y-15958198D01*
X13013468Y-15958198D02*
X13022991Y-15967722D01*
X13022991Y-15967722D02*
X13032515Y-15986769D01*
X13032515Y-15986769D02*
X13032515Y-16034388D01*
X13032515Y-16034388D02*
X13022991Y-16053436D01*
X13022991Y-16053436D02*
X13013468Y-16062960D01*
X13013468Y-16062960D02*
X12994420Y-16072484D01*
X12994420Y-16072484D02*
X12946801Y-16072484D01*
X12946801Y-16072484D02*
X12927753Y-16062960D01*
X12927753Y-16062960D02*
X12918229Y-16053436D01*
X13222991Y-16072484D02*
X13108706Y-16072484D01*
X13165848Y-16072484D02*
X13165848Y-15872484D01*
X13165848Y-15872484D02*
X13146801Y-15901055D01*
X13146801Y-15901055D02*
X13127753Y-15920103D01*
X13127753Y-15920103D02*
X13108706Y-15929627D01*
X13461087Y-16072484D02*
X13461087Y-15872484D01*
X13546801Y-16072484D02*
X13546801Y-15967722D01*
X13546801Y-15967722D02*
X13537277Y-15948674D01*
X13537277Y-15948674D02*
X13518230Y-15939150D01*
X13518230Y-15939150D02*
X13489658Y-15939150D01*
X13489658Y-15939150D02*
X13470610Y-15948674D01*
X13470610Y-15948674D02*
X13461087Y-15958198D01*
X13670610Y-16072484D02*
X13651563Y-16062960D01*
X13651563Y-16062960D02*
X13642039Y-16053436D01*
X13642039Y-16053436D02*
X13632515Y-16034388D01*
X13632515Y-16034388D02*
X13632515Y-15977246D01*
X13632515Y-15977246D02*
X13642039Y-15958198D01*
X13642039Y-15958198D02*
X13651563Y-15948674D01*
X13651563Y-15948674D02*
X13670610Y-15939150D01*
X13670610Y-15939150D02*
X13699182Y-15939150D01*
X13699182Y-15939150D02*
X13718230Y-15948674D01*
X13718230Y-15948674D02*
X13727753Y-15958198D01*
X13727753Y-15958198D02*
X13737277Y-15977246D01*
X13737277Y-15977246D02*
X13737277Y-16034388D01*
X13737277Y-16034388D02*
X13727753Y-16053436D01*
X13727753Y-16053436D02*
X13718230Y-16062960D01*
X13718230Y-16062960D02*
X13699182Y-16072484D01*
X13699182Y-16072484D02*
X13670610Y-16072484D01*
X13851563Y-16072484D02*
X13832515Y-16062960D01*
X13832515Y-16062960D02*
X13822991Y-16043912D01*
X13822991Y-16043912D02*
X13822991Y-15872484D01*
X14003944Y-16062960D02*
X13984896Y-16072484D01*
X13984896Y-16072484D02*
X13946801Y-16072484D01*
X13946801Y-16072484D02*
X13927753Y-16062960D01*
X13927753Y-16062960D02*
X13918230Y-16043912D01*
X13918230Y-16043912D02*
X13918230Y-15967722D01*
X13918230Y-15967722D02*
X13927753Y-15948674D01*
X13927753Y-15948674D02*
X13946801Y-15939150D01*
X13946801Y-15939150D02*
X13984896Y-15939150D01*
X13984896Y-15939150D02*
X14003944Y-15948674D01*
X14003944Y-15948674D02*
X14013468Y-15967722D01*
X14013468Y-15967722D02*
X14013468Y-15986769D01*
X14013468Y-15986769D02*
X13918230Y-16005817D01*
X14089658Y-16062960D02*
X14108706Y-16072484D01*
X14108706Y-16072484D02*
X14146801Y-16072484D01*
X14146801Y-16072484D02*
X14165849Y-16062960D01*
X14165849Y-16062960D02*
X14175372Y-16043912D01*
X14175372Y-16043912D02*
X14175372Y-16034388D01*
X14175372Y-16034388D02*
X14165849Y-16015341D01*
X14165849Y-16015341D02*
X14146801Y-16005817D01*
X14146801Y-16005817D02*
X14118230Y-16005817D01*
X14118230Y-16005817D02*
X14099182Y-15996293D01*
X14099182Y-15996293D02*
X14089658Y-15977246D01*
X14089658Y-15977246D02*
X14089658Y-15967722D01*
X14089658Y-15967722D02*
X14099182Y-15948674D01*
X14099182Y-15948674D02*
X14118230Y-15939150D01*
X14118230Y-15939150D02*
X14146801Y-15939150D01*
X14146801Y-15939150D02*
X14165849Y-15948674D01*
X14242039Y-16148674D02*
X14251563Y-16139150D01*
X14251563Y-16139150D02*
X14270611Y-16110579D01*
X14270611Y-16110579D02*
X14280134Y-16091531D01*
X14280134Y-16091531D02*
X14289658Y-16062960D01*
X14289658Y-16062960D02*
X14299182Y-16015341D01*
X14299182Y-16015341D02*
X14299182Y-15977246D01*
X14299182Y-15977246D02*
X14289658Y-15929627D01*
X14289658Y-15929627D02*
X14280134Y-15901055D01*
X14280134Y-15901055D02*
X14270611Y-15882008D01*
X14270611Y-15882008D02*
X14251563Y-15853436D01*
X14251563Y-15853436D02*
X14242039Y-15843912D01*
D10*
X9276500Y-16245000D02*
G75*
G02*
X9226500Y-16245000I-25000J0D01*
G01*
X9226500Y-16245000D02*
G75*
G02*
X9276500Y-16245000I25000J0D01*
G01*
D11*
X9575372Y-16136484D02*
X9594420Y-16136484D01*
X9594420Y-16136484D02*
X9613467Y-16146008D01*
X9613467Y-16146008D02*
X9622991Y-16155531D01*
X9622991Y-16155531D02*
X9632515Y-16174579D01*
X9632515Y-16174579D02*
X9642039Y-16212674D01*
X9642039Y-16212674D02*
X9642039Y-16260293D01*
X9642039Y-16260293D02*
X9632515Y-16298388D01*
X9632515Y-16298388D02*
X9622991Y-16317436D01*
X9622991Y-16317436D02*
X9613467Y-16326960D01*
X9613467Y-16326960D02*
X9594420Y-16336484D01*
X9594420Y-16336484D02*
X9575372Y-16336484D01*
X9575372Y-16336484D02*
X9556324Y-16326960D01*
X9556324Y-16326960D02*
X9546801Y-16317436D01*
X9546801Y-16317436D02*
X9537277Y-16298388D01*
X9537277Y-16298388D02*
X9527753Y-16260293D01*
X9527753Y-16260293D02*
X9527753Y-16212674D01*
X9527753Y-16212674D02*
X9537277Y-16174579D01*
X9537277Y-16174579D02*
X9546801Y-16155531D01*
X9546801Y-16155531D02*
X9556324Y-16146008D01*
X9556324Y-16146008D02*
X9575372Y-16136484D01*
X9727753Y-16317436D02*
X9737277Y-16326960D01*
X9737277Y-16326960D02*
X9727753Y-16336484D01*
X9727753Y-16336484D02*
X9718229Y-16326960D01*
X9718229Y-16326960D02*
X9727753Y-16317436D01*
X9727753Y-16317436D02*
X9727753Y-16336484D01*
X9918229Y-16136484D02*
X9822991Y-16136484D01*
X9822991Y-16136484D02*
X9813467Y-16231722D01*
X9813467Y-16231722D02*
X9822991Y-16222198D01*
X9822991Y-16222198D02*
X9842039Y-16212674D01*
X9842039Y-16212674D02*
X9889658Y-16212674D01*
X9889658Y-16212674D02*
X9908705Y-16222198D01*
X9908705Y-16222198D02*
X9918229Y-16231722D01*
X9918229Y-16231722D02*
X9927753Y-16250769D01*
X9927753Y-16250769D02*
X9927753Y-16298388D01*
X9927753Y-16298388D02*
X9918229Y-16317436D01*
X9918229Y-16317436D02*
X9908705Y-16326960D01*
X9908705Y-16326960D02*
X9889658Y-16336484D01*
X9889658Y-16336484D02*
X9842039Y-16336484D01*
X9842039Y-16336484D02*
X9822991Y-16326960D01*
X9822991Y-16326960D02*
X9813467Y-16317436D01*
X10051563Y-16136484D02*
X10070610Y-16136484D01*
X10070610Y-16136484D02*
X10089658Y-16146008D01*
X10089658Y-16146008D02*
X10099182Y-16155531D01*
X10099182Y-16155531D02*
X10108705Y-16174579D01*
X10108705Y-16174579D02*
X10118229Y-16212674D01*
X10118229Y-16212674D02*
X10118229Y-16260293D01*
X10118229Y-16260293D02*
X10108705Y-16298388D01*
X10108705Y-16298388D02*
X10099182Y-16317436D01*
X10099182Y-16317436D02*
X10089658Y-16326960D01*
X10089658Y-16326960D02*
X10070610Y-16336484D01*
X10070610Y-16336484D02*
X10051563Y-16336484D01*
X10051563Y-16336484D02*
X10032515Y-16326960D01*
X10032515Y-16326960D02*
X10022991Y-16317436D01*
X10022991Y-16317436D02*
X10013467Y-16298388D01*
X10013467Y-16298388D02*
X10003944Y-16260293D01*
X10003944Y-16260293D02*
X10003944Y-16212674D01*
X10003944Y-16212674D02*
X10013467Y-16174579D01*
X10013467Y-16174579D02*
X10022991Y-16155531D01*
X10022991Y-16155531D02*
X10032515Y-16146008D01*
X10032515Y-16146008D02*
X10051563Y-16136484D01*
X10242039Y-16136484D02*
X10261086Y-16136484D01*
X10261086Y-16136484D02*
X10280134Y-16146008D01*
X10280134Y-16146008D02*
X10289658Y-16155531D01*
X10289658Y-16155531D02*
X10299182Y-16174579D01*
X10299182Y-16174579D02*
X10308705Y-16212674D01*
X10308705Y-16212674D02*
X10308705Y-16260293D01*
X10308705Y-16260293D02*
X10299182Y-16298388D01*
X10299182Y-16298388D02*
X10289658Y-16317436D01*
X10289658Y-16317436D02*
X10280134Y-16326960D01*
X10280134Y-16326960D02*
X10261086Y-16336484D01*
X10261086Y-16336484D02*
X10242039Y-16336484D01*
X10242039Y-16336484D02*
X10222991Y-16326960D01*
X10222991Y-16326960D02*
X10213467Y-16317436D01*
X10213467Y-16317436D02*
X10203944Y-16298388D01*
X10203944Y-16298388D02*
X10194420Y-16260293D01*
X10194420Y-16260293D02*
X10194420Y-16212674D01*
X10194420Y-16212674D02*
X10203944Y-16174579D01*
X10203944Y-16174579D02*
X10213467Y-16155531D01*
X10213467Y-16155531D02*
X10222991Y-16146008D01*
X10222991Y-16146008D02*
X10242039Y-16136484D01*
X10394420Y-16336484D02*
X10394420Y-16203150D01*
X10394420Y-16222198D02*
X10403944Y-16212674D01*
X10403944Y-16212674D02*
X10422991Y-16203150D01*
X10422991Y-16203150D02*
X10451563Y-16203150D01*
X10451563Y-16203150D02*
X10470610Y-16212674D01*
X10470610Y-16212674D02*
X10480134Y-16231722D01*
X10480134Y-16231722D02*
X10480134Y-16336484D01*
X10480134Y-16231722D02*
X10489658Y-16212674D01*
X10489658Y-16212674D02*
X10508705Y-16203150D01*
X10508705Y-16203150D02*
X10537277Y-16203150D01*
X10537277Y-16203150D02*
X10556325Y-16212674D01*
X10556325Y-16212674D02*
X10565848Y-16231722D01*
X10565848Y-16231722D02*
X10565848Y-16336484D01*
X10661086Y-16336484D02*
X10661086Y-16203150D01*
X10661086Y-16222198D02*
X10670610Y-16212674D01*
X10670610Y-16212674D02*
X10689658Y-16203150D01*
X10689658Y-16203150D02*
X10718229Y-16203150D01*
X10718229Y-16203150D02*
X10737277Y-16212674D01*
X10737277Y-16212674D02*
X10746801Y-16231722D01*
X10746801Y-16231722D02*
X10746801Y-16336484D01*
X10746801Y-16231722D02*
X10756325Y-16212674D01*
X10756325Y-16212674D02*
X10775372Y-16203150D01*
X10775372Y-16203150D02*
X10803944Y-16203150D01*
X10803944Y-16203150D02*
X10822991Y-16212674D01*
X10822991Y-16212674D02*
X10832515Y-16231722D01*
X10832515Y-16231722D02*
X10832515Y-16336484D01*
X11222991Y-16126960D02*
X11051563Y-16384103D01*
X11480134Y-16136484D02*
X11499182Y-16136484D01*
X11499182Y-16136484D02*
X11518229Y-16146008D01*
X11518229Y-16146008D02*
X11527753Y-16155531D01*
X11527753Y-16155531D02*
X11537277Y-16174579D01*
X11537277Y-16174579D02*
X11546801Y-16212674D01*
X11546801Y-16212674D02*
X11546801Y-16260293D01*
X11546801Y-16260293D02*
X11537277Y-16298388D01*
X11537277Y-16298388D02*
X11527753Y-16317436D01*
X11527753Y-16317436D02*
X11518229Y-16326960D01*
X11518229Y-16326960D02*
X11499182Y-16336484D01*
X11499182Y-16336484D02*
X11480134Y-16336484D01*
X11480134Y-16336484D02*
X11461086Y-16326960D01*
X11461086Y-16326960D02*
X11451563Y-16317436D01*
X11451563Y-16317436D02*
X11442039Y-16298388D01*
X11442039Y-16298388D02*
X11432515Y-16260293D01*
X11432515Y-16260293D02*
X11432515Y-16212674D01*
X11432515Y-16212674D02*
X11442039Y-16174579D01*
X11442039Y-16174579D02*
X11451563Y-16155531D01*
X11451563Y-16155531D02*
X11461086Y-16146008D01*
X11461086Y-16146008D02*
X11480134Y-16136484D01*
X11632515Y-16317436D02*
X11642039Y-16326960D01*
X11642039Y-16326960D02*
X11632515Y-16336484D01*
X11632515Y-16336484D02*
X11622991Y-16326960D01*
X11622991Y-16326960D02*
X11632515Y-16317436D01*
X11632515Y-16317436D02*
X11632515Y-16336484D01*
X11765848Y-16136484D02*
X11784896Y-16136484D01*
X11784896Y-16136484D02*
X11803944Y-16146008D01*
X11803944Y-16146008D02*
X11813467Y-16155531D01*
X11813467Y-16155531D02*
X11822991Y-16174579D01*
X11822991Y-16174579D02*
X11832515Y-16212674D01*
X11832515Y-16212674D02*
X11832515Y-16260293D01*
X11832515Y-16260293D02*
X11822991Y-16298388D01*
X11822991Y-16298388D02*
X11813467Y-16317436D01*
X11813467Y-16317436D02*
X11803944Y-16326960D01*
X11803944Y-16326960D02*
X11784896Y-16336484D01*
X11784896Y-16336484D02*
X11765848Y-16336484D01*
X11765848Y-16336484D02*
X11746801Y-16326960D01*
X11746801Y-16326960D02*
X11737277Y-16317436D01*
X11737277Y-16317436D02*
X11727753Y-16298388D01*
X11727753Y-16298388D02*
X11718229Y-16260293D01*
X11718229Y-16260293D02*
X11718229Y-16212674D01*
X11718229Y-16212674D02*
X11727753Y-16174579D01*
X11727753Y-16174579D02*
X11737277Y-16155531D01*
X11737277Y-16155531D02*
X11746801Y-16146008D01*
X11746801Y-16146008D02*
X11765848Y-16136484D01*
X12022991Y-16336484D02*
X11908706Y-16336484D01*
X11965848Y-16336484D02*
X11965848Y-16136484D01*
X11965848Y-16136484D02*
X11946801Y-16165055D01*
X11946801Y-16165055D02*
X11927753Y-16184103D01*
X11927753Y-16184103D02*
X11908706Y-16193627D01*
X12118229Y-16336484D02*
X12156325Y-16336484D01*
X12156325Y-16336484D02*
X12175372Y-16326960D01*
X12175372Y-16326960D02*
X12184896Y-16317436D01*
X12184896Y-16317436D02*
X12203944Y-16288865D01*
X12203944Y-16288865D02*
X12213467Y-16250769D01*
X12213467Y-16250769D02*
X12213467Y-16174579D01*
X12213467Y-16174579D02*
X12203944Y-16155531D01*
X12203944Y-16155531D02*
X12194420Y-16146008D01*
X12194420Y-16146008D02*
X12175372Y-16136484D01*
X12175372Y-16136484D02*
X12137277Y-16136484D01*
X12137277Y-16136484D02*
X12118229Y-16146008D01*
X12118229Y-16146008D02*
X12108706Y-16155531D01*
X12108706Y-16155531D02*
X12099182Y-16174579D01*
X12099182Y-16174579D02*
X12099182Y-16222198D01*
X12099182Y-16222198D02*
X12108706Y-16241246D01*
X12108706Y-16241246D02*
X12118229Y-16250769D01*
X12118229Y-16250769D02*
X12137277Y-16260293D01*
X12137277Y-16260293D02*
X12175372Y-16260293D01*
X12175372Y-16260293D02*
X12194420Y-16250769D01*
X12194420Y-16250769D02*
X12203944Y-16241246D01*
X12203944Y-16241246D02*
X12213467Y-16222198D01*
X12280134Y-16136484D02*
X12413467Y-16136484D01*
X12413467Y-16136484D02*
X12327753Y-16336484D01*
X12480134Y-16136484D02*
X12480134Y-16174579D01*
X12556325Y-16136484D02*
X12556325Y-16174579D01*
X12851563Y-16412674D02*
X12842039Y-16403150D01*
X12842039Y-16403150D02*
X12822991Y-16374579D01*
X12822991Y-16374579D02*
X12813468Y-16355531D01*
X12813468Y-16355531D02*
X12803944Y-16326960D01*
X12803944Y-16326960D02*
X12794420Y-16279341D01*
X12794420Y-16279341D02*
X12794420Y-16241246D01*
X12794420Y-16241246D02*
X12803944Y-16193627D01*
X12803944Y-16193627D02*
X12813468Y-16165055D01*
X12813468Y-16165055D02*
X12822991Y-16146008D01*
X12822991Y-16146008D02*
X12842039Y-16117436D01*
X12842039Y-16117436D02*
X12851563Y-16107912D01*
X12918229Y-16155531D02*
X12927753Y-16146008D01*
X12927753Y-16146008D02*
X12946801Y-16136484D01*
X12946801Y-16136484D02*
X12994420Y-16136484D01*
X12994420Y-16136484D02*
X13013468Y-16146008D01*
X13013468Y-16146008D02*
X13022991Y-16155531D01*
X13022991Y-16155531D02*
X13032515Y-16174579D01*
X13032515Y-16174579D02*
X13032515Y-16193627D01*
X13032515Y-16193627D02*
X13022991Y-16222198D01*
X13022991Y-16222198D02*
X12908706Y-16336484D01*
X12908706Y-16336484D02*
X13032515Y-16336484D01*
X13270610Y-16336484D02*
X13270610Y-16136484D01*
X13356325Y-16336484D02*
X13356325Y-16231722D01*
X13356325Y-16231722D02*
X13346801Y-16212674D01*
X13346801Y-16212674D02*
X13327753Y-16203150D01*
X13327753Y-16203150D02*
X13299182Y-16203150D01*
X13299182Y-16203150D02*
X13280134Y-16212674D01*
X13280134Y-16212674D02*
X13270610Y-16222198D01*
X13480134Y-16336484D02*
X13461087Y-16326960D01*
X13461087Y-16326960D02*
X13451563Y-16317436D01*
X13451563Y-16317436D02*
X13442039Y-16298388D01*
X13442039Y-16298388D02*
X13442039Y-16241246D01*
X13442039Y-16241246D02*
X13451563Y-16222198D01*
X13451563Y-16222198D02*
X13461087Y-16212674D01*
X13461087Y-16212674D02*
X13480134Y-16203150D01*
X13480134Y-16203150D02*
X13508706Y-16203150D01*
X13508706Y-16203150D02*
X13527753Y-16212674D01*
X13527753Y-16212674D02*
X13537277Y-16222198D01*
X13537277Y-16222198D02*
X13546801Y-16241246D01*
X13546801Y-16241246D02*
X13546801Y-16298388D01*
X13546801Y-16298388D02*
X13537277Y-16317436D01*
X13537277Y-16317436D02*
X13527753Y-16326960D01*
X13527753Y-16326960D02*
X13508706Y-16336484D01*
X13508706Y-16336484D02*
X13480134Y-16336484D01*
X13661087Y-16336484D02*
X13642039Y-16326960D01*
X13642039Y-16326960D02*
X13632515Y-16307912D01*
X13632515Y-16307912D02*
X13632515Y-16136484D01*
X13813468Y-16326960D02*
X13794420Y-16336484D01*
X13794420Y-16336484D02*
X13756325Y-16336484D01*
X13756325Y-16336484D02*
X13737277Y-16326960D01*
X13737277Y-16326960D02*
X13727753Y-16307912D01*
X13727753Y-16307912D02*
X13727753Y-16231722D01*
X13727753Y-16231722D02*
X13737277Y-16212674D01*
X13737277Y-16212674D02*
X13756325Y-16203150D01*
X13756325Y-16203150D02*
X13794420Y-16203150D01*
X13794420Y-16203150D02*
X13813468Y-16212674D01*
X13813468Y-16212674D02*
X13822991Y-16231722D01*
X13822991Y-16231722D02*
X13822991Y-16250769D01*
X13822991Y-16250769D02*
X13727753Y-16269817D01*
X13899182Y-16326960D02*
X13918230Y-16336484D01*
X13918230Y-16336484D02*
X13956325Y-16336484D01*
X13956325Y-16336484D02*
X13975372Y-16326960D01*
X13975372Y-16326960D02*
X13984896Y-16307912D01*
X13984896Y-16307912D02*
X13984896Y-16298388D01*
X13984896Y-16298388D02*
X13975372Y-16279341D01*
X13975372Y-16279341D02*
X13956325Y-16269817D01*
X13956325Y-16269817D02*
X13927753Y-16269817D01*
X13927753Y-16269817D02*
X13908706Y-16260293D01*
X13908706Y-16260293D02*
X13899182Y-16241246D01*
X13899182Y-16241246D02*
X13899182Y-16231722D01*
X13899182Y-16231722D02*
X13908706Y-16212674D01*
X13908706Y-16212674D02*
X13927753Y-16203150D01*
X13927753Y-16203150D02*
X13956325Y-16203150D01*
X13956325Y-16203150D02*
X13975372Y-16212674D01*
X14051563Y-16412674D02*
X14061087Y-16403150D01*
X14061087Y-16403150D02*
X14080134Y-16374579D01*
X14080134Y-16374579D02*
X14089658Y-16355531D01*
X14089658Y-16355531D02*
X14099182Y-16326960D01*
X14099182Y-16326960D02*
X14108706Y-16279341D01*
X14108706Y-16279341D02*
X14108706Y-16241246D01*
X14108706Y-16241246D02*
X14099182Y-16193627D01*
X14099182Y-16193627D02*
X14089658Y-16165055D01*
X14089658Y-16165055D02*
X14080134Y-16146008D01*
X14080134Y-16146008D02*
X14061087Y-16117436D01*
X14061087Y-16117436D02*
X14051563Y-16107912D01*
D10*
X9241500Y-16474000D02*
X9241500Y-16544000D01*
X9206500Y-16509000D02*
X9276500Y-16509000D01*
D11*
X9575372Y-16400484D02*
X9594420Y-16400484D01*
X9594420Y-16400484D02*
X9613467Y-16410008D01*
X9613467Y-16410008D02*
X9622991Y-16419531D01*
X9622991Y-16419531D02*
X9632515Y-16438579D01*
X9632515Y-16438579D02*
X9642039Y-16476674D01*
X9642039Y-16476674D02*
X9642039Y-16524293D01*
X9642039Y-16524293D02*
X9632515Y-16562388D01*
X9632515Y-16562388D02*
X9622991Y-16581436D01*
X9622991Y-16581436D02*
X9613467Y-16590960D01*
X9613467Y-16590960D02*
X9594420Y-16600484D01*
X9594420Y-16600484D02*
X9575372Y-16600484D01*
X9575372Y-16600484D02*
X9556324Y-16590960D01*
X9556324Y-16590960D02*
X9546801Y-16581436D01*
X9546801Y-16581436D02*
X9537277Y-16562388D01*
X9537277Y-16562388D02*
X9527753Y-16524293D01*
X9527753Y-16524293D02*
X9527753Y-16476674D01*
X9527753Y-16476674D02*
X9537277Y-16438579D01*
X9537277Y-16438579D02*
X9546801Y-16419531D01*
X9546801Y-16419531D02*
X9556324Y-16410008D01*
X9556324Y-16410008D02*
X9575372Y-16400484D01*
X9727753Y-16581436D02*
X9737277Y-16590960D01*
X9737277Y-16590960D02*
X9727753Y-16600484D01*
X9727753Y-16600484D02*
X9718229Y-16590960D01*
X9718229Y-16590960D02*
X9727753Y-16581436D01*
X9727753Y-16581436D02*
X9727753Y-16600484D01*
X9803944Y-16400484D02*
X9937277Y-16400484D01*
X9937277Y-16400484D02*
X9851563Y-16600484D01*
X10051563Y-16400484D02*
X10070610Y-16400484D01*
X10070610Y-16400484D02*
X10089658Y-16410008D01*
X10089658Y-16410008D02*
X10099182Y-16419531D01*
X10099182Y-16419531D02*
X10108705Y-16438579D01*
X10108705Y-16438579D02*
X10118229Y-16476674D01*
X10118229Y-16476674D02*
X10118229Y-16524293D01*
X10118229Y-16524293D02*
X10108705Y-16562388D01*
X10108705Y-16562388D02*
X10099182Y-16581436D01*
X10099182Y-16581436D02*
X10089658Y-16590960D01*
X10089658Y-16590960D02*
X10070610Y-16600484D01*
X10070610Y-16600484D02*
X10051563Y-16600484D01*
X10051563Y-16600484D02*
X10032515Y-16590960D01*
X10032515Y-16590960D02*
X10022991Y-16581436D01*
X10022991Y-16581436D02*
X10013467Y-16562388D01*
X10013467Y-16562388D02*
X10003944Y-16524293D01*
X10003944Y-16524293D02*
X10003944Y-16476674D01*
X10003944Y-16476674D02*
X10013467Y-16438579D01*
X10013467Y-16438579D02*
X10022991Y-16419531D01*
X10022991Y-16419531D02*
X10032515Y-16410008D01*
X10032515Y-16410008D02*
X10051563Y-16400484D01*
X10242039Y-16400484D02*
X10261086Y-16400484D01*
X10261086Y-16400484D02*
X10280134Y-16410008D01*
X10280134Y-16410008D02*
X10289658Y-16419531D01*
X10289658Y-16419531D02*
X10299182Y-16438579D01*
X10299182Y-16438579D02*
X10308705Y-16476674D01*
X10308705Y-16476674D02*
X10308705Y-16524293D01*
X10308705Y-16524293D02*
X10299182Y-16562388D01*
X10299182Y-16562388D02*
X10289658Y-16581436D01*
X10289658Y-16581436D02*
X10280134Y-16590960D01*
X10280134Y-16590960D02*
X10261086Y-16600484D01*
X10261086Y-16600484D02*
X10242039Y-16600484D01*
X10242039Y-16600484D02*
X10222991Y-16590960D01*
X10222991Y-16590960D02*
X10213467Y-16581436D01*
X10213467Y-16581436D02*
X10203944Y-16562388D01*
X10203944Y-16562388D02*
X10194420Y-16524293D01*
X10194420Y-16524293D02*
X10194420Y-16476674D01*
X10194420Y-16476674D02*
X10203944Y-16438579D01*
X10203944Y-16438579D02*
X10213467Y-16419531D01*
X10213467Y-16419531D02*
X10222991Y-16410008D01*
X10222991Y-16410008D02*
X10242039Y-16400484D01*
X10394420Y-16600484D02*
X10394420Y-16467150D01*
X10394420Y-16486198D02*
X10403944Y-16476674D01*
X10403944Y-16476674D02*
X10422991Y-16467150D01*
X10422991Y-16467150D02*
X10451563Y-16467150D01*
X10451563Y-16467150D02*
X10470610Y-16476674D01*
X10470610Y-16476674D02*
X10480134Y-16495722D01*
X10480134Y-16495722D02*
X10480134Y-16600484D01*
X10480134Y-16495722D02*
X10489658Y-16476674D01*
X10489658Y-16476674D02*
X10508705Y-16467150D01*
X10508705Y-16467150D02*
X10537277Y-16467150D01*
X10537277Y-16467150D02*
X10556325Y-16476674D01*
X10556325Y-16476674D02*
X10565848Y-16495722D01*
X10565848Y-16495722D02*
X10565848Y-16600484D01*
X10661086Y-16600484D02*
X10661086Y-16467150D01*
X10661086Y-16486198D02*
X10670610Y-16476674D01*
X10670610Y-16476674D02*
X10689658Y-16467150D01*
X10689658Y-16467150D02*
X10718229Y-16467150D01*
X10718229Y-16467150D02*
X10737277Y-16476674D01*
X10737277Y-16476674D02*
X10746801Y-16495722D01*
X10746801Y-16495722D02*
X10746801Y-16600484D01*
X10746801Y-16495722D02*
X10756325Y-16476674D01*
X10756325Y-16476674D02*
X10775372Y-16467150D01*
X10775372Y-16467150D02*
X10803944Y-16467150D01*
X10803944Y-16467150D02*
X10822991Y-16476674D01*
X10822991Y-16476674D02*
X10832515Y-16495722D01*
X10832515Y-16495722D02*
X10832515Y-16600484D01*
X11222991Y-16390960D02*
X11051563Y-16648103D01*
X11480134Y-16400484D02*
X11499182Y-16400484D01*
X11499182Y-16400484D02*
X11518229Y-16410008D01*
X11518229Y-16410008D02*
X11527753Y-16419531D01*
X11527753Y-16419531D02*
X11537277Y-16438579D01*
X11537277Y-16438579D02*
X11546801Y-16476674D01*
X11546801Y-16476674D02*
X11546801Y-16524293D01*
X11546801Y-16524293D02*
X11537277Y-16562388D01*
X11537277Y-16562388D02*
X11527753Y-16581436D01*
X11527753Y-16581436D02*
X11518229Y-16590960D01*
X11518229Y-16590960D02*
X11499182Y-16600484D01*
X11499182Y-16600484D02*
X11480134Y-16600484D01*
X11480134Y-16600484D02*
X11461086Y-16590960D01*
X11461086Y-16590960D02*
X11451563Y-16581436D01*
X11451563Y-16581436D02*
X11442039Y-16562388D01*
X11442039Y-16562388D02*
X11432515Y-16524293D01*
X11432515Y-16524293D02*
X11432515Y-16476674D01*
X11432515Y-16476674D02*
X11442039Y-16438579D01*
X11442039Y-16438579D02*
X11451563Y-16419531D01*
X11451563Y-16419531D02*
X11461086Y-16410008D01*
X11461086Y-16410008D02*
X11480134Y-16400484D01*
X11632515Y-16581436D02*
X11642039Y-16590960D01*
X11642039Y-16590960D02*
X11632515Y-16600484D01*
X11632515Y-16600484D02*
X11622991Y-16590960D01*
X11622991Y-16590960D02*
X11632515Y-16581436D01*
X11632515Y-16581436D02*
X11632515Y-16600484D01*
X11765848Y-16400484D02*
X11784896Y-16400484D01*
X11784896Y-16400484D02*
X11803944Y-16410008D01*
X11803944Y-16410008D02*
X11813467Y-16419531D01*
X11813467Y-16419531D02*
X11822991Y-16438579D01*
X11822991Y-16438579D02*
X11832515Y-16476674D01*
X11832515Y-16476674D02*
X11832515Y-16524293D01*
X11832515Y-16524293D02*
X11822991Y-16562388D01*
X11822991Y-16562388D02*
X11813467Y-16581436D01*
X11813467Y-16581436D02*
X11803944Y-16590960D01*
X11803944Y-16590960D02*
X11784896Y-16600484D01*
X11784896Y-16600484D02*
X11765848Y-16600484D01*
X11765848Y-16600484D02*
X11746801Y-16590960D01*
X11746801Y-16590960D02*
X11737277Y-16581436D01*
X11737277Y-16581436D02*
X11727753Y-16562388D01*
X11727753Y-16562388D02*
X11718229Y-16524293D01*
X11718229Y-16524293D02*
X11718229Y-16476674D01*
X11718229Y-16476674D02*
X11727753Y-16438579D01*
X11727753Y-16438579D02*
X11737277Y-16419531D01*
X11737277Y-16419531D02*
X11746801Y-16410008D01*
X11746801Y-16410008D02*
X11765848Y-16400484D01*
X11908706Y-16419531D02*
X11918229Y-16410008D01*
X11918229Y-16410008D02*
X11937277Y-16400484D01*
X11937277Y-16400484D02*
X11984896Y-16400484D01*
X11984896Y-16400484D02*
X12003944Y-16410008D01*
X12003944Y-16410008D02*
X12013467Y-16419531D01*
X12013467Y-16419531D02*
X12022991Y-16438579D01*
X12022991Y-16438579D02*
X12022991Y-16457627D01*
X12022991Y-16457627D02*
X12013467Y-16486198D01*
X12013467Y-16486198D02*
X11899182Y-16600484D01*
X11899182Y-16600484D02*
X12022991Y-16600484D01*
X12089658Y-16400484D02*
X12222991Y-16400484D01*
X12222991Y-16400484D02*
X12137277Y-16600484D01*
X12384896Y-16400484D02*
X12346801Y-16400484D01*
X12346801Y-16400484D02*
X12327753Y-16410008D01*
X12327753Y-16410008D02*
X12318229Y-16419531D01*
X12318229Y-16419531D02*
X12299182Y-16448103D01*
X12299182Y-16448103D02*
X12289658Y-16486198D01*
X12289658Y-16486198D02*
X12289658Y-16562388D01*
X12289658Y-16562388D02*
X12299182Y-16581436D01*
X12299182Y-16581436D02*
X12308706Y-16590960D01*
X12308706Y-16590960D02*
X12327753Y-16600484D01*
X12327753Y-16600484D02*
X12365848Y-16600484D01*
X12365848Y-16600484D02*
X12384896Y-16590960D01*
X12384896Y-16590960D02*
X12394420Y-16581436D01*
X12394420Y-16581436D02*
X12403944Y-16562388D01*
X12403944Y-16562388D02*
X12403944Y-16514769D01*
X12403944Y-16514769D02*
X12394420Y-16495722D01*
X12394420Y-16495722D02*
X12384896Y-16486198D01*
X12384896Y-16486198D02*
X12365848Y-16476674D01*
X12365848Y-16476674D02*
X12327753Y-16476674D01*
X12327753Y-16476674D02*
X12308706Y-16486198D01*
X12308706Y-16486198D02*
X12299182Y-16495722D01*
X12299182Y-16495722D02*
X12289658Y-16514769D01*
X12480134Y-16400484D02*
X12480134Y-16438579D01*
X12556325Y-16400484D02*
X12556325Y-16438579D01*
X12851563Y-16676674D02*
X12842039Y-16667150D01*
X12842039Y-16667150D02*
X12822991Y-16638579D01*
X12822991Y-16638579D02*
X12813468Y-16619531D01*
X12813468Y-16619531D02*
X12803944Y-16590960D01*
X12803944Y-16590960D02*
X12794420Y-16543341D01*
X12794420Y-16543341D02*
X12794420Y-16505246D01*
X12794420Y-16505246D02*
X12803944Y-16457627D01*
X12803944Y-16457627D02*
X12813468Y-16429055D01*
X12813468Y-16429055D02*
X12822991Y-16410008D01*
X12822991Y-16410008D02*
X12842039Y-16381436D01*
X12842039Y-16381436D02*
X12851563Y-16371912D01*
X12956325Y-16486198D02*
X12937277Y-16476674D01*
X12937277Y-16476674D02*
X12927753Y-16467150D01*
X12927753Y-16467150D02*
X12918229Y-16448103D01*
X12918229Y-16448103D02*
X12918229Y-16438579D01*
X12918229Y-16438579D02*
X12927753Y-16419531D01*
X12927753Y-16419531D02*
X12937277Y-16410008D01*
X12937277Y-16410008D02*
X12956325Y-16400484D01*
X12956325Y-16400484D02*
X12994420Y-16400484D01*
X12994420Y-16400484D02*
X13013468Y-16410008D01*
X13013468Y-16410008D02*
X13022991Y-16419531D01*
X13022991Y-16419531D02*
X13032515Y-16438579D01*
X13032515Y-16438579D02*
X13032515Y-16448103D01*
X13032515Y-16448103D02*
X13022991Y-16467150D01*
X13022991Y-16467150D02*
X13013468Y-16476674D01*
X13013468Y-16476674D02*
X12994420Y-16486198D01*
X12994420Y-16486198D02*
X12956325Y-16486198D01*
X12956325Y-16486198D02*
X12937277Y-16495722D01*
X12937277Y-16495722D02*
X12927753Y-16505246D01*
X12927753Y-16505246D02*
X12918229Y-16524293D01*
X12918229Y-16524293D02*
X12918229Y-16562388D01*
X12918229Y-16562388D02*
X12927753Y-16581436D01*
X12927753Y-16581436D02*
X12937277Y-16590960D01*
X12937277Y-16590960D02*
X12956325Y-16600484D01*
X12956325Y-16600484D02*
X12994420Y-16600484D01*
X12994420Y-16600484D02*
X13013468Y-16590960D01*
X13013468Y-16590960D02*
X13022991Y-16581436D01*
X13022991Y-16581436D02*
X13032515Y-16562388D01*
X13032515Y-16562388D02*
X13032515Y-16524293D01*
X13032515Y-16524293D02*
X13022991Y-16505246D01*
X13022991Y-16505246D02*
X13013468Y-16495722D01*
X13013468Y-16495722D02*
X12994420Y-16486198D01*
X13270610Y-16600484D02*
X13270610Y-16400484D01*
X13356325Y-16600484D02*
X13356325Y-16495722D01*
X13356325Y-16495722D02*
X13346801Y-16476674D01*
X13346801Y-16476674D02*
X13327753Y-16467150D01*
X13327753Y-16467150D02*
X13299182Y-16467150D01*
X13299182Y-16467150D02*
X13280134Y-16476674D01*
X13280134Y-16476674D02*
X13270610Y-16486198D01*
X13480134Y-16600484D02*
X13461087Y-16590960D01*
X13461087Y-16590960D02*
X13451563Y-16581436D01*
X13451563Y-16581436D02*
X13442039Y-16562388D01*
X13442039Y-16562388D02*
X13442039Y-16505246D01*
X13442039Y-16505246D02*
X13451563Y-16486198D01*
X13451563Y-16486198D02*
X13461087Y-16476674D01*
X13461087Y-16476674D02*
X13480134Y-16467150D01*
X13480134Y-16467150D02*
X13508706Y-16467150D01*
X13508706Y-16467150D02*
X13527753Y-16476674D01*
X13527753Y-16476674D02*
X13537277Y-16486198D01*
X13537277Y-16486198D02*
X13546801Y-16505246D01*
X13546801Y-16505246D02*
X13546801Y-16562388D01*
X13546801Y-16562388D02*
X13537277Y-16581436D01*
X13537277Y-16581436D02*
X13527753Y-16590960D01*
X13527753Y-16590960D02*
X13508706Y-16600484D01*
X13508706Y-16600484D02*
X13480134Y-16600484D01*
X13661087Y-16600484D02*
X13642039Y-16590960D01*
X13642039Y-16590960D02*
X13632515Y-16571912D01*
X13632515Y-16571912D02*
X13632515Y-16400484D01*
X13813468Y-16590960D02*
X13794420Y-16600484D01*
X13794420Y-16600484D02*
X13756325Y-16600484D01*
X13756325Y-16600484D02*
X13737277Y-16590960D01*
X13737277Y-16590960D02*
X13727753Y-16571912D01*
X13727753Y-16571912D02*
X13727753Y-16495722D01*
X13727753Y-16495722D02*
X13737277Y-16476674D01*
X13737277Y-16476674D02*
X13756325Y-16467150D01*
X13756325Y-16467150D02*
X13794420Y-16467150D01*
X13794420Y-16467150D02*
X13813468Y-16476674D01*
X13813468Y-16476674D02*
X13822991Y-16495722D01*
X13822991Y-16495722D02*
X13822991Y-16514769D01*
X13822991Y-16514769D02*
X13727753Y-16533817D01*
X13899182Y-16590960D02*
X13918230Y-16600484D01*
X13918230Y-16600484D02*
X13956325Y-16600484D01*
X13956325Y-16600484D02*
X13975372Y-16590960D01*
X13975372Y-16590960D02*
X13984896Y-16571912D01*
X13984896Y-16571912D02*
X13984896Y-16562388D01*
X13984896Y-16562388D02*
X13975372Y-16543341D01*
X13975372Y-16543341D02*
X13956325Y-16533817D01*
X13956325Y-16533817D02*
X13927753Y-16533817D01*
X13927753Y-16533817D02*
X13908706Y-16524293D01*
X13908706Y-16524293D02*
X13899182Y-16505246D01*
X13899182Y-16505246D02*
X13899182Y-16495722D01*
X13899182Y-16495722D02*
X13908706Y-16476674D01*
X13908706Y-16476674D02*
X13927753Y-16467150D01*
X13927753Y-16467150D02*
X13956325Y-16467150D01*
X13956325Y-16467150D02*
X13975372Y-16476674D01*
X14051563Y-16676674D02*
X14061087Y-16667150D01*
X14061087Y-16667150D02*
X14080134Y-16638579D01*
X14080134Y-16638579D02*
X14089658Y-16619531D01*
X14089658Y-16619531D02*
X14099182Y-16590960D01*
X14099182Y-16590960D02*
X14108706Y-16543341D01*
X14108706Y-16543341D02*
X14108706Y-16505246D01*
X14108706Y-16505246D02*
X14099182Y-16457627D01*
X14099182Y-16457627D02*
X14089658Y-16429055D01*
X14089658Y-16429055D02*
X14080134Y-16410008D01*
X14080134Y-16410008D02*
X14061087Y-16381436D01*
X14061087Y-16381436D02*
X14051563Y-16371912D01*
D10*
X9264785Y-16801285D02*
X9264785Y-16744715D01*
X9208216Y-16744715D01*
X9208216Y-16801285D01*
X9264785Y-16801285D01*
D11*
X9575372Y-16664484D02*
X9594420Y-16664484D01*
X9594420Y-16664484D02*
X9613467Y-16674008D01*
X9613467Y-16674008D02*
X9622991Y-16683531D01*
X9622991Y-16683531D02*
X9632515Y-16702579D01*
X9632515Y-16702579D02*
X9642039Y-16740674D01*
X9642039Y-16740674D02*
X9642039Y-16788293D01*
X9642039Y-16788293D02*
X9632515Y-16826389D01*
X9632515Y-16826389D02*
X9622991Y-16845436D01*
X9622991Y-16845436D02*
X9613467Y-16854960D01*
X9613467Y-16854960D02*
X9594420Y-16864484D01*
X9594420Y-16864484D02*
X9575372Y-16864484D01*
X9575372Y-16864484D02*
X9556324Y-16854960D01*
X9556324Y-16854960D02*
X9546801Y-16845436D01*
X9546801Y-16845436D02*
X9537277Y-16826389D01*
X9537277Y-16826389D02*
X9527753Y-16788293D01*
X9527753Y-16788293D02*
X9527753Y-16740674D01*
X9527753Y-16740674D02*
X9537277Y-16702579D01*
X9537277Y-16702579D02*
X9546801Y-16683531D01*
X9546801Y-16683531D02*
X9556324Y-16674008D01*
X9556324Y-16674008D02*
X9575372Y-16664484D01*
X9727753Y-16845436D02*
X9737277Y-16854960D01*
X9737277Y-16854960D02*
X9727753Y-16864484D01*
X9727753Y-16864484D02*
X9718229Y-16854960D01*
X9718229Y-16854960D02*
X9727753Y-16845436D01*
X9727753Y-16845436D02*
X9727753Y-16864484D01*
X9851563Y-16750198D02*
X9832515Y-16740674D01*
X9832515Y-16740674D02*
X9822991Y-16731150D01*
X9822991Y-16731150D02*
X9813467Y-16712103D01*
X9813467Y-16712103D02*
X9813467Y-16702579D01*
X9813467Y-16702579D02*
X9822991Y-16683531D01*
X9822991Y-16683531D02*
X9832515Y-16674008D01*
X9832515Y-16674008D02*
X9851563Y-16664484D01*
X9851563Y-16664484D02*
X9889658Y-16664484D01*
X9889658Y-16664484D02*
X9908705Y-16674008D01*
X9908705Y-16674008D02*
X9918229Y-16683531D01*
X9918229Y-16683531D02*
X9927753Y-16702579D01*
X9927753Y-16702579D02*
X9927753Y-16712103D01*
X9927753Y-16712103D02*
X9918229Y-16731150D01*
X9918229Y-16731150D02*
X9908705Y-16740674D01*
X9908705Y-16740674D02*
X9889658Y-16750198D01*
X9889658Y-16750198D02*
X9851563Y-16750198D01*
X9851563Y-16750198D02*
X9832515Y-16759722D01*
X9832515Y-16759722D02*
X9822991Y-16769246D01*
X9822991Y-16769246D02*
X9813467Y-16788293D01*
X9813467Y-16788293D02*
X9813467Y-16826389D01*
X9813467Y-16826389D02*
X9822991Y-16845436D01*
X9822991Y-16845436D02*
X9832515Y-16854960D01*
X9832515Y-16854960D02*
X9851563Y-16864484D01*
X9851563Y-16864484D02*
X9889658Y-16864484D01*
X9889658Y-16864484D02*
X9908705Y-16854960D01*
X9908705Y-16854960D02*
X9918229Y-16845436D01*
X9918229Y-16845436D02*
X9927753Y-16826389D01*
X9927753Y-16826389D02*
X9927753Y-16788293D01*
X9927753Y-16788293D02*
X9918229Y-16769246D01*
X9918229Y-16769246D02*
X9908705Y-16759722D01*
X9908705Y-16759722D02*
X9889658Y-16750198D01*
X10051563Y-16664484D02*
X10070610Y-16664484D01*
X10070610Y-16664484D02*
X10089658Y-16674008D01*
X10089658Y-16674008D02*
X10099182Y-16683531D01*
X10099182Y-16683531D02*
X10108705Y-16702579D01*
X10108705Y-16702579D02*
X10118229Y-16740674D01*
X10118229Y-16740674D02*
X10118229Y-16788293D01*
X10118229Y-16788293D02*
X10108705Y-16826389D01*
X10108705Y-16826389D02*
X10099182Y-16845436D01*
X10099182Y-16845436D02*
X10089658Y-16854960D01*
X10089658Y-16854960D02*
X10070610Y-16864484D01*
X10070610Y-16864484D02*
X10051563Y-16864484D01*
X10051563Y-16864484D02*
X10032515Y-16854960D01*
X10032515Y-16854960D02*
X10022991Y-16845436D01*
X10022991Y-16845436D02*
X10013467Y-16826389D01*
X10013467Y-16826389D02*
X10003944Y-16788293D01*
X10003944Y-16788293D02*
X10003944Y-16740674D01*
X10003944Y-16740674D02*
X10013467Y-16702579D01*
X10013467Y-16702579D02*
X10022991Y-16683531D01*
X10022991Y-16683531D02*
X10032515Y-16674008D01*
X10032515Y-16674008D02*
X10051563Y-16664484D01*
X10242039Y-16664484D02*
X10261086Y-16664484D01*
X10261086Y-16664484D02*
X10280134Y-16674008D01*
X10280134Y-16674008D02*
X10289658Y-16683531D01*
X10289658Y-16683531D02*
X10299182Y-16702579D01*
X10299182Y-16702579D02*
X10308705Y-16740674D01*
X10308705Y-16740674D02*
X10308705Y-16788293D01*
X10308705Y-16788293D02*
X10299182Y-16826389D01*
X10299182Y-16826389D02*
X10289658Y-16845436D01*
X10289658Y-16845436D02*
X10280134Y-16854960D01*
X10280134Y-16854960D02*
X10261086Y-16864484D01*
X10261086Y-16864484D02*
X10242039Y-16864484D01*
X10242039Y-16864484D02*
X10222991Y-16854960D01*
X10222991Y-16854960D02*
X10213467Y-16845436D01*
X10213467Y-16845436D02*
X10203944Y-16826389D01*
X10203944Y-16826389D02*
X10194420Y-16788293D01*
X10194420Y-16788293D02*
X10194420Y-16740674D01*
X10194420Y-16740674D02*
X10203944Y-16702579D01*
X10203944Y-16702579D02*
X10213467Y-16683531D01*
X10213467Y-16683531D02*
X10222991Y-16674008D01*
X10222991Y-16674008D02*
X10242039Y-16664484D01*
X10394420Y-16864484D02*
X10394420Y-16731150D01*
X10394420Y-16750198D02*
X10403944Y-16740674D01*
X10403944Y-16740674D02*
X10422991Y-16731150D01*
X10422991Y-16731150D02*
X10451563Y-16731150D01*
X10451563Y-16731150D02*
X10470610Y-16740674D01*
X10470610Y-16740674D02*
X10480134Y-16759722D01*
X10480134Y-16759722D02*
X10480134Y-16864484D01*
X10480134Y-16759722D02*
X10489658Y-16740674D01*
X10489658Y-16740674D02*
X10508705Y-16731150D01*
X10508705Y-16731150D02*
X10537277Y-16731150D01*
X10537277Y-16731150D02*
X10556325Y-16740674D01*
X10556325Y-16740674D02*
X10565848Y-16759722D01*
X10565848Y-16759722D02*
X10565848Y-16864484D01*
X10661086Y-16864484D02*
X10661086Y-16731150D01*
X10661086Y-16750198D02*
X10670610Y-16740674D01*
X10670610Y-16740674D02*
X10689658Y-16731150D01*
X10689658Y-16731150D02*
X10718229Y-16731150D01*
X10718229Y-16731150D02*
X10737277Y-16740674D01*
X10737277Y-16740674D02*
X10746801Y-16759722D01*
X10746801Y-16759722D02*
X10746801Y-16864484D01*
X10746801Y-16759722D02*
X10756325Y-16740674D01*
X10756325Y-16740674D02*
X10775372Y-16731150D01*
X10775372Y-16731150D02*
X10803944Y-16731150D01*
X10803944Y-16731150D02*
X10822991Y-16740674D01*
X10822991Y-16740674D02*
X10832515Y-16759722D01*
X10832515Y-16759722D02*
X10832515Y-16864484D01*
X11222991Y-16654960D02*
X11051563Y-16912103D01*
X11480134Y-16664484D02*
X11499182Y-16664484D01*
X11499182Y-16664484D02*
X11518229Y-16674008D01*
X11518229Y-16674008D02*
X11527753Y-16683531D01*
X11527753Y-16683531D02*
X11537277Y-16702579D01*
X11537277Y-16702579D02*
X11546801Y-16740674D01*
X11546801Y-16740674D02*
X11546801Y-16788293D01*
X11546801Y-16788293D02*
X11537277Y-16826389D01*
X11537277Y-16826389D02*
X11527753Y-16845436D01*
X11527753Y-16845436D02*
X11518229Y-16854960D01*
X11518229Y-16854960D02*
X11499182Y-16864484D01*
X11499182Y-16864484D02*
X11480134Y-16864484D01*
X11480134Y-16864484D02*
X11461086Y-16854960D01*
X11461086Y-16854960D02*
X11451563Y-16845436D01*
X11451563Y-16845436D02*
X11442039Y-16826389D01*
X11442039Y-16826389D02*
X11432515Y-16788293D01*
X11432515Y-16788293D02*
X11432515Y-16740674D01*
X11432515Y-16740674D02*
X11442039Y-16702579D01*
X11442039Y-16702579D02*
X11451563Y-16683531D01*
X11451563Y-16683531D02*
X11461086Y-16674008D01*
X11461086Y-16674008D02*
X11480134Y-16664484D01*
X11632515Y-16845436D02*
X11642039Y-16854960D01*
X11642039Y-16854960D02*
X11632515Y-16864484D01*
X11632515Y-16864484D02*
X11622991Y-16854960D01*
X11622991Y-16854960D02*
X11632515Y-16845436D01*
X11632515Y-16845436D02*
X11632515Y-16864484D01*
X11765848Y-16664484D02*
X11784896Y-16664484D01*
X11784896Y-16664484D02*
X11803944Y-16674008D01*
X11803944Y-16674008D02*
X11813467Y-16683531D01*
X11813467Y-16683531D02*
X11822991Y-16702579D01*
X11822991Y-16702579D02*
X11832515Y-16740674D01*
X11832515Y-16740674D02*
X11832515Y-16788293D01*
X11832515Y-16788293D02*
X11822991Y-16826389D01*
X11822991Y-16826389D02*
X11813467Y-16845436D01*
X11813467Y-16845436D02*
X11803944Y-16854960D01*
X11803944Y-16854960D02*
X11784896Y-16864484D01*
X11784896Y-16864484D02*
X11765848Y-16864484D01*
X11765848Y-16864484D02*
X11746801Y-16854960D01*
X11746801Y-16854960D02*
X11737277Y-16845436D01*
X11737277Y-16845436D02*
X11727753Y-16826389D01*
X11727753Y-16826389D02*
X11718229Y-16788293D01*
X11718229Y-16788293D02*
X11718229Y-16740674D01*
X11718229Y-16740674D02*
X11727753Y-16702579D01*
X11727753Y-16702579D02*
X11737277Y-16683531D01*
X11737277Y-16683531D02*
X11746801Y-16674008D01*
X11746801Y-16674008D02*
X11765848Y-16664484D01*
X11899182Y-16664484D02*
X12022991Y-16664484D01*
X12022991Y-16664484D02*
X11956325Y-16740674D01*
X11956325Y-16740674D02*
X11984896Y-16740674D01*
X11984896Y-16740674D02*
X12003944Y-16750198D01*
X12003944Y-16750198D02*
X12013467Y-16759722D01*
X12013467Y-16759722D02*
X12022991Y-16778770D01*
X12022991Y-16778770D02*
X12022991Y-16826389D01*
X12022991Y-16826389D02*
X12013467Y-16845436D01*
X12013467Y-16845436D02*
X12003944Y-16854960D01*
X12003944Y-16854960D02*
X11984896Y-16864484D01*
X11984896Y-16864484D02*
X11927753Y-16864484D01*
X11927753Y-16864484D02*
X11908706Y-16854960D01*
X11908706Y-16854960D02*
X11899182Y-16845436D01*
X12213467Y-16864484D02*
X12099182Y-16864484D01*
X12156325Y-16864484D02*
X12156325Y-16664484D01*
X12156325Y-16664484D02*
X12137277Y-16693055D01*
X12137277Y-16693055D02*
X12118229Y-16712103D01*
X12118229Y-16712103D02*
X12099182Y-16721627D01*
X12394420Y-16664484D02*
X12299182Y-16664484D01*
X12299182Y-16664484D02*
X12289658Y-16759722D01*
X12289658Y-16759722D02*
X12299182Y-16750198D01*
X12299182Y-16750198D02*
X12318229Y-16740674D01*
X12318229Y-16740674D02*
X12365848Y-16740674D01*
X12365848Y-16740674D02*
X12384896Y-16750198D01*
X12384896Y-16750198D02*
X12394420Y-16759722D01*
X12394420Y-16759722D02*
X12403944Y-16778770D01*
X12403944Y-16778770D02*
X12403944Y-16826389D01*
X12403944Y-16826389D02*
X12394420Y-16845436D01*
X12394420Y-16845436D02*
X12384896Y-16854960D01*
X12384896Y-16854960D02*
X12365848Y-16864484D01*
X12365848Y-16864484D02*
X12318229Y-16864484D01*
X12318229Y-16864484D02*
X12299182Y-16854960D01*
X12299182Y-16854960D02*
X12289658Y-16845436D01*
X12480134Y-16664484D02*
X12480134Y-16702579D01*
X12556325Y-16664484D02*
X12556325Y-16702579D01*
X12851563Y-16940674D02*
X12842039Y-16931150D01*
X12842039Y-16931150D02*
X12822991Y-16902579D01*
X12822991Y-16902579D02*
X12813468Y-16883531D01*
X12813468Y-16883531D02*
X12803944Y-16854960D01*
X12803944Y-16854960D02*
X12794420Y-16807341D01*
X12794420Y-16807341D02*
X12794420Y-16769246D01*
X12794420Y-16769246D02*
X12803944Y-16721627D01*
X12803944Y-16721627D02*
X12813468Y-16693055D01*
X12813468Y-16693055D02*
X12822991Y-16674008D01*
X12822991Y-16674008D02*
X12842039Y-16645436D01*
X12842039Y-16645436D02*
X12851563Y-16635912D01*
X12908706Y-16664484D02*
X13032515Y-16664484D01*
X13032515Y-16664484D02*
X12965848Y-16740674D01*
X12965848Y-16740674D02*
X12994420Y-16740674D01*
X12994420Y-16740674D02*
X13013468Y-16750198D01*
X13013468Y-16750198D02*
X13022991Y-16759722D01*
X13022991Y-16759722D02*
X13032515Y-16778770D01*
X13032515Y-16778770D02*
X13032515Y-16826389D01*
X13032515Y-16826389D02*
X13022991Y-16845436D01*
X13022991Y-16845436D02*
X13013468Y-16854960D01*
X13013468Y-16854960D02*
X12994420Y-16864484D01*
X12994420Y-16864484D02*
X12937277Y-16864484D01*
X12937277Y-16864484D02*
X12918229Y-16854960D01*
X12918229Y-16854960D02*
X12908706Y-16845436D01*
X13203944Y-16731150D02*
X13203944Y-16864484D01*
X13156325Y-16654960D02*
X13108706Y-16797817D01*
X13108706Y-16797817D02*
X13232515Y-16797817D01*
X13461087Y-16864484D02*
X13461087Y-16664484D01*
X13546801Y-16864484D02*
X13546801Y-16759722D01*
X13546801Y-16759722D02*
X13537277Y-16740674D01*
X13537277Y-16740674D02*
X13518230Y-16731150D01*
X13518230Y-16731150D02*
X13489658Y-16731150D01*
X13489658Y-16731150D02*
X13470610Y-16740674D01*
X13470610Y-16740674D02*
X13461087Y-16750198D01*
X13670610Y-16864484D02*
X13651563Y-16854960D01*
X13651563Y-16854960D02*
X13642039Y-16845436D01*
X13642039Y-16845436D02*
X13632515Y-16826389D01*
X13632515Y-16826389D02*
X13632515Y-16769246D01*
X13632515Y-16769246D02*
X13642039Y-16750198D01*
X13642039Y-16750198D02*
X13651563Y-16740674D01*
X13651563Y-16740674D02*
X13670610Y-16731150D01*
X13670610Y-16731150D02*
X13699182Y-16731150D01*
X13699182Y-16731150D02*
X13718230Y-16740674D01*
X13718230Y-16740674D02*
X13727753Y-16750198D01*
X13727753Y-16750198D02*
X13737277Y-16769246D01*
X13737277Y-16769246D02*
X13737277Y-16826389D01*
X13737277Y-16826389D02*
X13727753Y-16845436D01*
X13727753Y-16845436D02*
X13718230Y-16854960D01*
X13718230Y-16854960D02*
X13699182Y-16864484D01*
X13699182Y-16864484D02*
X13670610Y-16864484D01*
X13851563Y-16864484D02*
X13832515Y-16854960D01*
X13832515Y-16854960D02*
X13822991Y-16835912D01*
X13822991Y-16835912D02*
X13822991Y-16664484D01*
X14003944Y-16854960D02*
X13984896Y-16864484D01*
X13984896Y-16864484D02*
X13946801Y-16864484D01*
X13946801Y-16864484D02*
X13927753Y-16854960D01*
X13927753Y-16854960D02*
X13918230Y-16835912D01*
X13918230Y-16835912D02*
X13918230Y-16759722D01*
X13918230Y-16759722D02*
X13927753Y-16740674D01*
X13927753Y-16740674D02*
X13946801Y-16731150D01*
X13946801Y-16731150D02*
X13984896Y-16731150D01*
X13984896Y-16731150D02*
X14003944Y-16740674D01*
X14003944Y-16740674D02*
X14013468Y-16759722D01*
X14013468Y-16759722D02*
X14013468Y-16778770D01*
X14013468Y-16778770D02*
X13918230Y-16797817D01*
X14089658Y-16854960D02*
X14108706Y-16864484D01*
X14108706Y-16864484D02*
X14146801Y-16864484D01*
X14146801Y-16864484D02*
X14165849Y-16854960D01*
X14165849Y-16854960D02*
X14175372Y-16835912D01*
X14175372Y-16835912D02*
X14175372Y-16826389D01*
X14175372Y-16826389D02*
X14165849Y-16807341D01*
X14165849Y-16807341D02*
X14146801Y-16797817D01*
X14146801Y-16797817D02*
X14118230Y-16797817D01*
X14118230Y-16797817D02*
X14099182Y-16788293D01*
X14099182Y-16788293D02*
X14089658Y-16769246D01*
X14089658Y-16769246D02*
X14089658Y-16759722D01*
X14089658Y-16759722D02*
X14099182Y-16740674D01*
X14099182Y-16740674D02*
X14118230Y-16731150D01*
X14118230Y-16731150D02*
X14146801Y-16731150D01*
X14146801Y-16731150D02*
X14165849Y-16740674D01*
X14242039Y-16940674D02*
X14251563Y-16931150D01*
X14251563Y-16931150D02*
X14270611Y-16902579D01*
X14270611Y-16902579D02*
X14280134Y-16883531D01*
X14280134Y-16883531D02*
X14289658Y-16854960D01*
X14289658Y-16854960D02*
X14299182Y-16807341D01*
X14299182Y-16807341D02*
X14299182Y-16769246D01*
X14299182Y-16769246D02*
X14289658Y-16721627D01*
X14289658Y-16721627D02*
X14280134Y-16693055D01*
X14280134Y-16693055D02*
X14270611Y-16674008D01*
X14270611Y-16674008D02*
X14251563Y-16645436D01*
X14251563Y-16645436D02*
X14242039Y-16635912D01*
D10*
X9226500Y-17087000D02*
X9276500Y-17037000D01*
X9226500Y-16987000D01*
X9176500Y-17037000D01*
X9226500Y-17087000D01*
D11*
X9642039Y-17128484D02*
X9527753Y-17128484D01*
X9584896Y-17128484D02*
X9584896Y-16928484D01*
X9584896Y-16928484D02*
X9565848Y-16957055D01*
X9565848Y-16957055D02*
X9546801Y-16976103D01*
X9546801Y-16976103D02*
X9527753Y-16985627D01*
X9727753Y-17109436D02*
X9737277Y-17118960D01*
X9737277Y-17118960D02*
X9727753Y-17128484D01*
X9727753Y-17128484D02*
X9718229Y-17118960D01*
X9718229Y-17118960D02*
X9727753Y-17109436D01*
X9727753Y-17109436D02*
X9727753Y-17128484D01*
X9861086Y-16928484D02*
X9880134Y-16928484D01*
X9880134Y-16928484D02*
X9899182Y-16938008D01*
X9899182Y-16938008D02*
X9908705Y-16947531D01*
X9908705Y-16947531D02*
X9918229Y-16966579D01*
X9918229Y-16966579D02*
X9927753Y-17004674D01*
X9927753Y-17004674D02*
X9927753Y-17052293D01*
X9927753Y-17052293D02*
X9918229Y-17090389D01*
X9918229Y-17090389D02*
X9908705Y-17109436D01*
X9908705Y-17109436D02*
X9899182Y-17118960D01*
X9899182Y-17118960D02*
X9880134Y-17128484D01*
X9880134Y-17128484D02*
X9861086Y-17128484D01*
X9861086Y-17128484D02*
X9842039Y-17118960D01*
X9842039Y-17118960D02*
X9832515Y-17109436D01*
X9832515Y-17109436D02*
X9822991Y-17090389D01*
X9822991Y-17090389D02*
X9813467Y-17052293D01*
X9813467Y-17052293D02*
X9813467Y-17004674D01*
X9813467Y-17004674D02*
X9822991Y-16966579D01*
X9822991Y-16966579D02*
X9832515Y-16947531D01*
X9832515Y-16947531D02*
X9842039Y-16938008D01*
X9842039Y-16938008D02*
X9861086Y-16928484D01*
X10051563Y-16928484D02*
X10070610Y-16928484D01*
X10070610Y-16928484D02*
X10089658Y-16938008D01*
X10089658Y-16938008D02*
X10099182Y-16947531D01*
X10099182Y-16947531D02*
X10108705Y-16966579D01*
X10108705Y-16966579D02*
X10118229Y-17004674D01*
X10118229Y-17004674D02*
X10118229Y-17052293D01*
X10118229Y-17052293D02*
X10108705Y-17090389D01*
X10108705Y-17090389D02*
X10099182Y-17109436D01*
X10099182Y-17109436D02*
X10089658Y-17118960D01*
X10089658Y-17118960D02*
X10070610Y-17128484D01*
X10070610Y-17128484D02*
X10051563Y-17128484D01*
X10051563Y-17128484D02*
X10032515Y-17118960D01*
X10032515Y-17118960D02*
X10022991Y-17109436D01*
X10022991Y-17109436D02*
X10013467Y-17090389D01*
X10013467Y-17090389D02*
X10003944Y-17052293D01*
X10003944Y-17052293D02*
X10003944Y-17004674D01*
X10003944Y-17004674D02*
X10013467Y-16966579D01*
X10013467Y-16966579D02*
X10022991Y-16947531D01*
X10022991Y-16947531D02*
X10032515Y-16938008D01*
X10032515Y-16938008D02*
X10051563Y-16928484D01*
X10242039Y-16928484D02*
X10261086Y-16928484D01*
X10261086Y-16928484D02*
X10280134Y-16938008D01*
X10280134Y-16938008D02*
X10289658Y-16947531D01*
X10289658Y-16947531D02*
X10299182Y-16966579D01*
X10299182Y-16966579D02*
X10308705Y-17004674D01*
X10308705Y-17004674D02*
X10308705Y-17052293D01*
X10308705Y-17052293D02*
X10299182Y-17090389D01*
X10299182Y-17090389D02*
X10289658Y-17109436D01*
X10289658Y-17109436D02*
X10280134Y-17118960D01*
X10280134Y-17118960D02*
X10261086Y-17128484D01*
X10261086Y-17128484D02*
X10242039Y-17128484D01*
X10242039Y-17128484D02*
X10222991Y-17118960D01*
X10222991Y-17118960D02*
X10213467Y-17109436D01*
X10213467Y-17109436D02*
X10203944Y-17090389D01*
X10203944Y-17090389D02*
X10194420Y-17052293D01*
X10194420Y-17052293D02*
X10194420Y-17004674D01*
X10194420Y-17004674D02*
X10203944Y-16966579D01*
X10203944Y-16966579D02*
X10213467Y-16947531D01*
X10213467Y-16947531D02*
X10222991Y-16938008D01*
X10222991Y-16938008D02*
X10242039Y-16928484D01*
X10394420Y-17128484D02*
X10394420Y-16995150D01*
X10394420Y-17014198D02*
X10403944Y-17004674D01*
X10403944Y-17004674D02*
X10422991Y-16995150D01*
X10422991Y-16995150D02*
X10451563Y-16995150D01*
X10451563Y-16995150D02*
X10470610Y-17004674D01*
X10470610Y-17004674D02*
X10480134Y-17023722D01*
X10480134Y-17023722D02*
X10480134Y-17128484D01*
X10480134Y-17023722D02*
X10489658Y-17004674D01*
X10489658Y-17004674D02*
X10508705Y-16995150D01*
X10508705Y-16995150D02*
X10537277Y-16995150D01*
X10537277Y-16995150D02*
X10556325Y-17004674D01*
X10556325Y-17004674D02*
X10565848Y-17023722D01*
X10565848Y-17023722D02*
X10565848Y-17128484D01*
X10661086Y-17128484D02*
X10661086Y-16995150D01*
X10661086Y-17014198D02*
X10670610Y-17004674D01*
X10670610Y-17004674D02*
X10689658Y-16995150D01*
X10689658Y-16995150D02*
X10718229Y-16995150D01*
X10718229Y-16995150D02*
X10737277Y-17004674D01*
X10737277Y-17004674D02*
X10746801Y-17023722D01*
X10746801Y-17023722D02*
X10746801Y-17128484D01*
X10746801Y-17023722D02*
X10756325Y-17004674D01*
X10756325Y-17004674D02*
X10775372Y-16995150D01*
X10775372Y-16995150D02*
X10803944Y-16995150D01*
X10803944Y-16995150D02*
X10822991Y-17004674D01*
X10822991Y-17004674D02*
X10832515Y-17023722D01*
X10832515Y-17023722D02*
X10832515Y-17128484D01*
X11222991Y-16918960D02*
X11051563Y-17176103D01*
X11480134Y-16928484D02*
X11499182Y-16928484D01*
X11499182Y-16928484D02*
X11518229Y-16938008D01*
X11518229Y-16938008D02*
X11527753Y-16947531D01*
X11527753Y-16947531D02*
X11537277Y-16966579D01*
X11537277Y-16966579D02*
X11546801Y-17004674D01*
X11546801Y-17004674D02*
X11546801Y-17052293D01*
X11546801Y-17052293D02*
X11537277Y-17090389D01*
X11537277Y-17090389D02*
X11527753Y-17109436D01*
X11527753Y-17109436D02*
X11518229Y-17118960D01*
X11518229Y-17118960D02*
X11499182Y-17128484D01*
X11499182Y-17128484D02*
X11480134Y-17128484D01*
X11480134Y-17128484D02*
X11461086Y-17118960D01*
X11461086Y-17118960D02*
X11451563Y-17109436D01*
X11451563Y-17109436D02*
X11442039Y-17090389D01*
X11442039Y-17090389D02*
X11432515Y-17052293D01*
X11432515Y-17052293D02*
X11432515Y-17004674D01*
X11432515Y-17004674D02*
X11442039Y-16966579D01*
X11442039Y-16966579D02*
X11451563Y-16947531D01*
X11451563Y-16947531D02*
X11461086Y-16938008D01*
X11461086Y-16938008D02*
X11480134Y-16928484D01*
X11632515Y-17109436D02*
X11642039Y-17118960D01*
X11642039Y-17118960D02*
X11632515Y-17128484D01*
X11632515Y-17128484D02*
X11622991Y-17118960D01*
X11622991Y-17118960D02*
X11632515Y-17109436D01*
X11632515Y-17109436D02*
X11632515Y-17128484D01*
X11765848Y-16928484D02*
X11784896Y-16928484D01*
X11784896Y-16928484D02*
X11803944Y-16938008D01*
X11803944Y-16938008D02*
X11813467Y-16947531D01*
X11813467Y-16947531D02*
X11822991Y-16966579D01*
X11822991Y-16966579D02*
X11832515Y-17004674D01*
X11832515Y-17004674D02*
X11832515Y-17052293D01*
X11832515Y-17052293D02*
X11822991Y-17090389D01*
X11822991Y-17090389D02*
X11813467Y-17109436D01*
X11813467Y-17109436D02*
X11803944Y-17118960D01*
X11803944Y-17118960D02*
X11784896Y-17128484D01*
X11784896Y-17128484D02*
X11765848Y-17128484D01*
X11765848Y-17128484D02*
X11746801Y-17118960D01*
X11746801Y-17118960D02*
X11737277Y-17109436D01*
X11737277Y-17109436D02*
X11727753Y-17090389D01*
X11727753Y-17090389D02*
X11718229Y-17052293D01*
X11718229Y-17052293D02*
X11718229Y-17004674D01*
X11718229Y-17004674D02*
X11727753Y-16966579D01*
X11727753Y-16966579D02*
X11737277Y-16947531D01*
X11737277Y-16947531D02*
X11746801Y-16938008D01*
X11746801Y-16938008D02*
X11765848Y-16928484D01*
X11899182Y-16928484D02*
X12022991Y-16928484D01*
X12022991Y-16928484D02*
X11956325Y-17004674D01*
X11956325Y-17004674D02*
X11984896Y-17004674D01*
X11984896Y-17004674D02*
X12003944Y-17014198D01*
X12003944Y-17014198D02*
X12013467Y-17023722D01*
X12013467Y-17023722D02*
X12022991Y-17042770D01*
X12022991Y-17042770D02*
X12022991Y-17090389D01*
X12022991Y-17090389D02*
X12013467Y-17109436D01*
X12013467Y-17109436D02*
X12003944Y-17118960D01*
X12003944Y-17118960D02*
X11984896Y-17128484D01*
X11984896Y-17128484D02*
X11927753Y-17128484D01*
X11927753Y-17128484D02*
X11908706Y-17118960D01*
X11908706Y-17118960D02*
X11899182Y-17109436D01*
X12118229Y-17128484D02*
X12156325Y-17128484D01*
X12156325Y-17128484D02*
X12175372Y-17118960D01*
X12175372Y-17118960D02*
X12184896Y-17109436D01*
X12184896Y-17109436D02*
X12203944Y-17080865D01*
X12203944Y-17080865D02*
X12213467Y-17042770D01*
X12213467Y-17042770D02*
X12213467Y-16966579D01*
X12213467Y-16966579D02*
X12203944Y-16947531D01*
X12203944Y-16947531D02*
X12194420Y-16938008D01*
X12194420Y-16938008D02*
X12175372Y-16928484D01*
X12175372Y-16928484D02*
X12137277Y-16928484D01*
X12137277Y-16928484D02*
X12118229Y-16938008D01*
X12118229Y-16938008D02*
X12108706Y-16947531D01*
X12108706Y-16947531D02*
X12099182Y-16966579D01*
X12099182Y-16966579D02*
X12099182Y-17014198D01*
X12099182Y-17014198D02*
X12108706Y-17033246D01*
X12108706Y-17033246D02*
X12118229Y-17042770D01*
X12118229Y-17042770D02*
X12137277Y-17052293D01*
X12137277Y-17052293D02*
X12175372Y-17052293D01*
X12175372Y-17052293D02*
X12194420Y-17042770D01*
X12194420Y-17042770D02*
X12203944Y-17033246D01*
X12203944Y-17033246D02*
X12213467Y-17014198D01*
X12384896Y-16995150D02*
X12384896Y-17128484D01*
X12337277Y-16918960D02*
X12289658Y-17061817D01*
X12289658Y-17061817D02*
X12413467Y-17061817D01*
X12480134Y-16928484D02*
X12480134Y-16966579D01*
X12556325Y-16928484D02*
X12556325Y-16966579D01*
X12851563Y-17204674D02*
X12842039Y-17195150D01*
X12842039Y-17195150D02*
X12822991Y-17166579D01*
X12822991Y-17166579D02*
X12813468Y-17147531D01*
X12813468Y-17147531D02*
X12803944Y-17118960D01*
X12803944Y-17118960D02*
X12794420Y-17071341D01*
X12794420Y-17071341D02*
X12794420Y-17033246D01*
X12794420Y-17033246D02*
X12803944Y-16985627D01*
X12803944Y-16985627D02*
X12813468Y-16957055D01*
X12813468Y-16957055D02*
X12822991Y-16938008D01*
X12822991Y-16938008D02*
X12842039Y-16909436D01*
X12842039Y-16909436D02*
X12851563Y-16899912D01*
X13022991Y-16928484D02*
X12927753Y-16928484D01*
X12927753Y-16928484D02*
X12918229Y-17023722D01*
X12918229Y-17023722D02*
X12927753Y-17014198D01*
X12927753Y-17014198D02*
X12946801Y-17004674D01*
X12946801Y-17004674D02*
X12994420Y-17004674D01*
X12994420Y-17004674D02*
X13013468Y-17014198D01*
X13013468Y-17014198D02*
X13022991Y-17023722D01*
X13022991Y-17023722D02*
X13032515Y-17042770D01*
X13032515Y-17042770D02*
X13032515Y-17090389D01*
X13032515Y-17090389D02*
X13022991Y-17109436D01*
X13022991Y-17109436D02*
X13013468Y-17118960D01*
X13013468Y-17118960D02*
X12994420Y-17128484D01*
X12994420Y-17128484D02*
X12946801Y-17128484D01*
X12946801Y-17128484D02*
X12927753Y-17118960D01*
X12927753Y-17118960D02*
X12918229Y-17109436D01*
X13213468Y-16928484D02*
X13118229Y-16928484D01*
X13118229Y-16928484D02*
X13108706Y-17023722D01*
X13108706Y-17023722D02*
X13118229Y-17014198D01*
X13118229Y-17014198D02*
X13137277Y-17004674D01*
X13137277Y-17004674D02*
X13184896Y-17004674D01*
X13184896Y-17004674D02*
X13203944Y-17014198D01*
X13203944Y-17014198D02*
X13213468Y-17023722D01*
X13213468Y-17023722D02*
X13222991Y-17042770D01*
X13222991Y-17042770D02*
X13222991Y-17090389D01*
X13222991Y-17090389D02*
X13213468Y-17109436D01*
X13213468Y-17109436D02*
X13203944Y-17118960D01*
X13203944Y-17118960D02*
X13184896Y-17128484D01*
X13184896Y-17128484D02*
X13137277Y-17128484D01*
X13137277Y-17128484D02*
X13118229Y-17118960D01*
X13118229Y-17118960D02*
X13108706Y-17109436D01*
X13461087Y-17128484D02*
X13461087Y-16928484D01*
X13546801Y-17128484D02*
X13546801Y-17023722D01*
X13546801Y-17023722D02*
X13537277Y-17004674D01*
X13537277Y-17004674D02*
X13518230Y-16995150D01*
X13518230Y-16995150D02*
X13489658Y-16995150D01*
X13489658Y-16995150D02*
X13470610Y-17004674D01*
X13470610Y-17004674D02*
X13461087Y-17014198D01*
X13670610Y-17128484D02*
X13651563Y-17118960D01*
X13651563Y-17118960D02*
X13642039Y-17109436D01*
X13642039Y-17109436D02*
X13632515Y-17090389D01*
X13632515Y-17090389D02*
X13632515Y-17033246D01*
X13632515Y-17033246D02*
X13642039Y-17014198D01*
X13642039Y-17014198D02*
X13651563Y-17004674D01*
X13651563Y-17004674D02*
X13670610Y-16995150D01*
X13670610Y-16995150D02*
X13699182Y-16995150D01*
X13699182Y-16995150D02*
X13718230Y-17004674D01*
X13718230Y-17004674D02*
X13727753Y-17014198D01*
X13727753Y-17014198D02*
X13737277Y-17033246D01*
X13737277Y-17033246D02*
X13737277Y-17090389D01*
X13737277Y-17090389D02*
X13727753Y-17109436D01*
X13727753Y-17109436D02*
X13718230Y-17118960D01*
X13718230Y-17118960D02*
X13699182Y-17128484D01*
X13699182Y-17128484D02*
X13670610Y-17128484D01*
X13851563Y-17128484D02*
X13832515Y-17118960D01*
X13832515Y-17118960D02*
X13822991Y-17099912D01*
X13822991Y-17099912D02*
X13822991Y-16928484D01*
X14003944Y-17118960D02*
X13984896Y-17128484D01*
X13984896Y-17128484D02*
X13946801Y-17128484D01*
X13946801Y-17128484D02*
X13927753Y-17118960D01*
X13927753Y-17118960D02*
X13918230Y-17099912D01*
X13918230Y-17099912D02*
X13918230Y-17023722D01*
X13918230Y-17023722D02*
X13927753Y-17004674D01*
X13927753Y-17004674D02*
X13946801Y-16995150D01*
X13946801Y-16995150D02*
X13984896Y-16995150D01*
X13984896Y-16995150D02*
X14003944Y-17004674D01*
X14003944Y-17004674D02*
X14013468Y-17023722D01*
X14013468Y-17023722D02*
X14013468Y-17042770D01*
X14013468Y-17042770D02*
X13918230Y-17061817D01*
X14089658Y-17118960D02*
X14108706Y-17128484D01*
X14108706Y-17128484D02*
X14146801Y-17128484D01*
X14146801Y-17128484D02*
X14165849Y-17118960D01*
X14165849Y-17118960D02*
X14175372Y-17099912D01*
X14175372Y-17099912D02*
X14175372Y-17090389D01*
X14175372Y-17090389D02*
X14165849Y-17071341D01*
X14165849Y-17071341D02*
X14146801Y-17061817D01*
X14146801Y-17061817D02*
X14118230Y-17061817D01*
X14118230Y-17061817D02*
X14099182Y-17052293D01*
X14099182Y-17052293D02*
X14089658Y-17033246D01*
X14089658Y-17033246D02*
X14089658Y-17023722D01*
X14089658Y-17023722D02*
X14099182Y-17004674D01*
X14099182Y-17004674D02*
X14118230Y-16995150D01*
X14118230Y-16995150D02*
X14146801Y-16995150D01*
X14146801Y-16995150D02*
X14165849Y-17004674D01*
X14242039Y-17204674D02*
X14251563Y-17195150D01*
X14251563Y-17195150D02*
X14270611Y-17166579D01*
X14270611Y-17166579D02*
X14280134Y-17147531D01*
X14280134Y-17147531D02*
X14289658Y-17118960D01*
X14289658Y-17118960D02*
X14299182Y-17071341D01*
X14299182Y-17071341D02*
X14299182Y-17033246D01*
X14299182Y-17033246D02*
X14289658Y-16985627D01*
X14289658Y-16985627D02*
X14280134Y-16957055D01*
X14280134Y-16957055D02*
X14270611Y-16938008D01*
X14270611Y-16938008D02*
X14251563Y-16909436D01*
X14251563Y-16909436D02*
X14242039Y-16899912D01*
D12*
X9174500Y-17250000D02*
X9276500Y-17352000D01*
X9276500Y-17250000D02*
X9174500Y-17352000D01*
X9276500Y-17301000D02*
G75*
G02*
X9174500Y-17301000I-51000J0D01*
G01*
X9174500Y-17301000D02*
G75*
G02*
X9276500Y-17301000I51000J0D01*
G01*
D11*
X9642039Y-17392484D02*
X9527753Y-17392484D01*
X9584896Y-17392484D02*
X9584896Y-17192484D01*
X9584896Y-17192484D02*
X9565848Y-17221055D01*
X9565848Y-17221055D02*
X9546801Y-17240103D01*
X9546801Y-17240103D02*
X9527753Y-17249627D01*
X9727753Y-17373436D02*
X9737277Y-17382960D01*
X9737277Y-17382960D02*
X9727753Y-17392484D01*
X9727753Y-17392484D02*
X9718229Y-17382960D01*
X9718229Y-17382960D02*
X9727753Y-17373436D01*
X9727753Y-17373436D02*
X9727753Y-17392484D01*
X9861086Y-17192484D02*
X9880134Y-17192484D01*
X9880134Y-17192484D02*
X9899182Y-17202008D01*
X9899182Y-17202008D02*
X9908705Y-17211531D01*
X9908705Y-17211531D02*
X9918229Y-17230579D01*
X9918229Y-17230579D02*
X9927753Y-17268674D01*
X9927753Y-17268674D02*
X9927753Y-17316293D01*
X9927753Y-17316293D02*
X9918229Y-17354389D01*
X9918229Y-17354389D02*
X9908705Y-17373436D01*
X9908705Y-17373436D02*
X9899182Y-17382960D01*
X9899182Y-17382960D02*
X9880134Y-17392484D01*
X9880134Y-17392484D02*
X9861086Y-17392484D01*
X9861086Y-17392484D02*
X9842039Y-17382960D01*
X9842039Y-17382960D02*
X9832515Y-17373436D01*
X9832515Y-17373436D02*
X9822991Y-17354389D01*
X9822991Y-17354389D02*
X9813467Y-17316293D01*
X9813467Y-17316293D02*
X9813467Y-17268674D01*
X9813467Y-17268674D02*
X9822991Y-17230579D01*
X9822991Y-17230579D02*
X9832515Y-17211531D01*
X9832515Y-17211531D02*
X9842039Y-17202008D01*
X9842039Y-17202008D02*
X9861086Y-17192484D01*
X10003944Y-17211531D02*
X10013467Y-17202008D01*
X10013467Y-17202008D02*
X10032515Y-17192484D01*
X10032515Y-17192484D02*
X10080134Y-17192484D01*
X10080134Y-17192484D02*
X10099182Y-17202008D01*
X10099182Y-17202008D02*
X10108705Y-17211531D01*
X10108705Y-17211531D02*
X10118229Y-17230579D01*
X10118229Y-17230579D02*
X10118229Y-17249627D01*
X10118229Y-17249627D02*
X10108705Y-17278198D01*
X10108705Y-17278198D02*
X9994420Y-17392484D01*
X9994420Y-17392484D02*
X10118229Y-17392484D01*
X10242039Y-17192484D02*
X10261086Y-17192484D01*
X10261086Y-17192484D02*
X10280134Y-17202008D01*
X10280134Y-17202008D02*
X10289658Y-17211531D01*
X10289658Y-17211531D02*
X10299182Y-17230579D01*
X10299182Y-17230579D02*
X10308705Y-17268674D01*
X10308705Y-17268674D02*
X10308705Y-17316293D01*
X10308705Y-17316293D02*
X10299182Y-17354389D01*
X10299182Y-17354389D02*
X10289658Y-17373436D01*
X10289658Y-17373436D02*
X10280134Y-17382960D01*
X10280134Y-17382960D02*
X10261086Y-17392484D01*
X10261086Y-17392484D02*
X10242039Y-17392484D01*
X10242039Y-17392484D02*
X10222991Y-17382960D01*
X10222991Y-17382960D02*
X10213467Y-17373436D01*
X10213467Y-17373436D02*
X10203944Y-17354389D01*
X10203944Y-17354389D02*
X10194420Y-17316293D01*
X10194420Y-17316293D02*
X10194420Y-17268674D01*
X10194420Y-17268674D02*
X10203944Y-17230579D01*
X10203944Y-17230579D02*
X10213467Y-17211531D01*
X10213467Y-17211531D02*
X10222991Y-17202008D01*
X10222991Y-17202008D02*
X10242039Y-17192484D01*
X10394420Y-17392484D02*
X10394420Y-17259150D01*
X10394420Y-17278198D02*
X10403944Y-17268674D01*
X10403944Y-17268674D02*
X10422991Y-17259150D01*
X10422991Y-17259150D02*
X10451563Y-17259150D01*
X10451563Y-17259150D02*
X10470610Y-17268674D01*
X10470610Y-17268674D02*
X10480134Y-17287722D01*
X10480134Y-17287722D02*
X10480134Y-17392484D01*
X10480134Y-17287722D02*
X10489658Y-17268674D01*
X10489658Y-17268674D02*
X10508705Y-17259150D01*
X10508705Y-17259150D02*
X10537277Y-17259150D01*
X10537277Y-17259150D02*
X10556325Y-17268674D01*
X10556325Y-17268674D02*
X10565848Y-17287722D01*
X10565848Y-17287722D02*
X10565848Y-17392484D01*
X10661086Y-17392484D02*
X10661086Y-17259150D01*
X10661086Y-17278198D02*
X10670610Y-17268674D01*
X10670610Y-17268674D02*
X10689658Y-17259150D01*
X10689658Y-17259150D02*
X10718229Y-17259150D01*
X10718229Y-17259150D02*
X10737277Y-17268674D01*
X10737277Y-17268674D02*
X10746801Y-17287722D01*
X10746801Y-17287722D02*
X10746801Y-17392484D01*
X10746801Y-17287722D02*
X10756325Y-17268674D01*
X10756325Y-17268674D02*
X10775372Y-17259150D01*
X10775372Y-17259150D02*
X10803944Y-17259150D01*
X10803944Y-17259150D02*
X10822991Y-17268674D01*
X10822991Y-17268674D02*
X10832515Y-17287722D01*
X10832515Y-17287722D02*
X10832515Y-17392484D01*
X11222991Y-17182960D02*
X11051563Y-17440103D01*
X11480134Y-17192484D02*
X11499182Y-17192484D01*
X11499182Y-17192484D02*
X11518229Y-17202008D01*
X11518229Y-17202008D02*
X11527753Y-17211531D01*
X11527753Y-17211531D02*
X11537277Y-17230579D01*
X11537277Y-17230579D02*
X11546801Y-17268674D01*
X11546801Y-17268674D02*
X11546801Y-17316293D01*
X11546801Y-17316293D02*
X11537277Y-17354389D01*
X11537277Y-17354389D02*
X11527753Y-17373436D01*
X11527753Y-17373436D02*
X11518229Y-17382960D01*
X11518229Y-17382960D02*
X11499182Y-17392484D01*
X11499182Y-17392484D02*
X11480134Y-17392484D01*
X11480134Y-17392484D02*
X11461086Y-17382960D01*
X11461086Y-17382960D02*
X11451563Y-17373436D01*
X11451563Y-17373436D02*
X11442039Y-17354389D01*
X11442039Y-17354389D02*
X11432515Y-17316293D01*
X11432515Y-17316293D02*
X11432515Y-17268674D01*
X11432515Y-17268674D02*
X11442039Y-17230579D01*
X11442039Y-17230579D02*
X11451563Y-17211531D01*
X11451563Y-17211531D02*
X11461086Y-17202008D01*
X11461086Y-17202008D02*
X11480134Y-17192484D01*
X11632515Y-17373436D02*
X11642039Y-17382960D01*
X11642039Y-17382960D02*
X11632515Y-17392484D01*
X11632515Y-17392484D02*
X11622991Y-17382960D01*
X11622991Y-17382960D02*
X11632515Y-17373436D01*
X11632515Y-17373436D02*
X11632515Y-17392484D01*
X11765848Y-17192484D02*
X11784896Y-17192484D01*
X11784896Y-17192484D02*
X11803944Y-17202008D01*
X11803944Y-17202008D02*
X11813467Y-17211531D01*
X11813467Y-17211531D02*
X11822991Y-17230579D01*
X11822991Y-17230579D02*
X11832515Y-17268674D01*
X11832515Y-17268674D02*
X11832515Y-17316293D01*
X11832515Y-17316293D02*
X11822991Y-17354389D01*
X11822991Y-17354389D02*
X11813467Y-17373436D01*
X11813467Y-17373436D02*
X11803944Y-17382960D01*
X11803944Y-17382960D02*
X11784896Y-17392484D01*
X11784896Y-17392484D02*
X11765848Y-17392484D01*
X11765848Y-17392484D02*
X11746801Y-17382960D01*
X11746801Y-17382960D02*
X11737277Y-17373436D01*
X11737277Y-17373436D02*
X11727753Y-17354389D01*
X11727753Y-17354389D02*
X11718229Y-17316293D01*
X11718229Y-17316293D02*
X11718229Y-17268674D01*
X11718229Y-17268674D02*
X11727753Y-17230579D01*
X11727753Y-17230579D02*
X11737277Y-17211531D01*
X11737277Y-17211531D02*
X11746801Y-17202008D01*
X11746801Y-17202008D02*
X11765848Y-17192484D01*
X12003944Y-17259150D02*
X12003944Y-17392484D01*
X11956325Y-17182960D02*
X11908706Y-17325817D01*
X11908706Y-17325817D02*
X12032515Y-17325817D01*
X12146801Y-17192484D02*
X12165848Y-17192484D01*
X12165848Y-17192484D02*
X12184896Y-17202008D01*
X12184896Y-17202008D02*
X12194420Y-17211531D01*
X12194420Y-17211531D02*
X12203944Y-17230579D01*
X12203944Y-17230579D02*
X12213467Y-17268674D01*
X12213467Y-17268674D02*
X12213467Y-17316293D01*
X12213467Y-17316293D02*
X12203944Y-17354389D01*
X12203944Y-17354389D02*
X12194420Y-17373436D01*
X12194420Y-17373436D02*
X12184896Y-17382960D01*
X12184896Y-17382960D02*
X12165848Y-17392484D01*
X12165848Y-17392484D02*
X12146801Y-17392484D01*
X12146801Y-17392484D02*
X12127753Y-17382960D01*
X12127753Y-17382960D02*
X12118229Y-17373436D01*
X12118229Y-17373436D02*
X12108706Y-17354389D01*
X12108706Y-17354389D02*
X12099182Y-17316293D01*
X12099182Y-17316293D02*
X12099182Y-17268674D01*
X12099182Y-17268674D02*
X12108706Y-17230579D01*
X12108706Y-17230579D02*
X12118229Y-17211531D01*
X12118229Y-17211531D02*
X12127753Y-17202008D01*
X12127753Y-17202008D02*
X12146801Y-17192484D01*
X12289658Y-17211531D02*
X12299182Y-17202008D01*
X12299182Y-17202008D02*
X12318229Y-17192484D01*
X12318229Y-17192484D02*
X12365848Y-17192484D01*
X12365848Y-17192484D02*
X12384896Y-17202008D01*
X12384896Y-17202008D02*
X12394420Y-17211531D01*
X12394420Y-17211531D02*
X12403944Y-17230579D01*
X12403944Y-17230579D02*
X12403944Y-17249627D01*
X12403944Y-17249627D02*
X12394420Y-17278198D01*
X12394420Y-17278198D02*
X12280134Y-17392484D01*
X12280134Y-17392484D02*
X12403944Y-17392484D01*
X12480134Y-17192484D02*
X12480134Y-17230579D01*
X12556325Y-17192484D02*
X12556325Y-17230579D01*
X12851563Y-17468674D02*
X12842039Y-17459150D01*
X12842039Y-17459150D02*
X12822991Y-17430579D01*
X12822991Y-17430579D02*
X12813468Y-17411531D01*
X12813468Y-17411531D02*
X12803944Y-17382960D01*
X12803944Y-17382960D02*
X12794420Y-17335341D01*
X12794420Y-17335341D02*
X12794420Y-17297246D01*
X12794420Y-17297246D02*
X12803944Y-17249627D01*
X12803944Y-17249627D02*
X12813468Y-17221055D01*
X12813468Y-17221055D02*
X12822991Y-17202008D01*
X12822991Y-17202008D02*
X12842039Y-17173436D01*
X12842039Y-17173436D02*
X12851563Y-17163912D01*
X13013468Y-17259150D02*
X13013468Y-17392484D01*
X12965848Y-17182960D02*
X12918229Y-17325817D01*
X12918229Y-17325817D02*
X13042039Y-17325817D01*
X13099182Y-17192484D02*
X13222991Y-17192484D01*
X13222991Y-17192484D02*
X13156325Y-17268674D01*
X13156325Y-17268674D02*
X13184896Y-17268674D01*
X13184896Y-17268674D02*
X13203944Y-17278198D01*
X13203944Y-17278198D02*
X13213468Y-17287722D01*
X13213468Y-17287722D02*
X13222991Y-17306770D01*
X13222991Y-17306770D02*
X13222991Y-17354389D01*
X13222991Y-17354389D02*
X13213468Y-17373436D01*
X13213468Y-17373436D02*
X13203944Y-17382960D01*
X13203944Y-17382960D02*
X13184896Y-17392484D01*
X13184896Y-17392484D02*
X13127753Y-17392484D01*
X13127753Y-17392484D02*
X13108706Y-17382960D01*
X13108706Y-17382960D02*
X13099182Y-17373436D01*
X13461087Y-17392484D02*
X13461087Y-17192484D01*
X13546801Y-17392484D02*
X13546801Y-17287722D01*
X13546801Y-17287722D02*
X13537277Y-17268674D01*
X13537277Y-17268674D02*
X13518230Y-17259150D01*
X13518230Y-17259150D02*
X13489658Y-17259150D01*
X13489658Y-17259150D02*
X13470610Y-17268674D01*
X13470610Y-17268674D02*
X13461087Y-17278198D01*
X13670610Y-17392484D02*
X13651563Y-17382960D01*
X13651563Y-17382960D02*
X13642039Y-17373436D01*
X13642039Y-17373436D02*
X13632515Y-17354389D01*
X13632515Y-17354389D02*
X13632515Y-17297246D01*
X13632515Y-17297246D02*
X13642039Y-17278198D01*
X13642039Y-17278198D02*
X13651563Y-17268674D01*
X13651563Y-17268674D02*
X13670610Y-17259150D01*
X13670610Y-17259150D02*
X13699182Y-17259150D01*
X13699182Y-17259150D02*
X13718230Y-17268674D01*
X13718230Y-17268674D02*
X13727753Y-17278198D01*
X13727753Y-17278198D02*
X13737277Y-17297246D01*
X13737277Y-17297246D02*
X13737277Y-17354389D01*
X13737277Y-17354389D02*
X13727753Y-17373436D01*
X13727753Y-17373436D02*
X13718230Y-17382960D01*
X13718230Y-17382960D02*
X13699182Y-17392484D01*
X13699182Y-17392484D02*
X13670610Y-17392484D01*
X13851563Y-17392484D02*
X13832515Y-17382960D01*
X13832515Y-17382960D02*
X13822991Y-17363912D01*
X13822991Y-17363912D02*
X13822991Y-17192484D01*
X14003944Y-17382960D02*
X13984896Y-17392484D01*
X13984896Y-17392484D02*
X13946801Y-17392484D01*
X13946801Y-17392484D02*
X13927753Y-17382960D01*
X13927753Y-17382960D02*
X13918230Y-17363912D01*
X13918230Y-17363912D02*
X13918230Y-17287722D01*
X13918230Y-17287722D02*
X13927753Y-17268674D01*
X13927753Y-17268674D02*
X13946801Y-17259150D01*
X13946801Y-17259150D02*
X13984896Y-17259150D01*
X13984896Y-17259150D02*
X14003944Y-17268674D01*
X14003944Y-17268674D02*
X14013468Y-17287722D01*
X14013468Y-17287722D02*
X14013468Y-17306770D01*
X14013468Y-17306770D02*
X13918230Y-17325817D01*
X14089658Y-17382960D02*
X14108706Y-17392484D01*
X14108706Y-17392484D02*
X14146801Y-17392484D01*
X14146801Y-17392484D02*
X14165849Y-17382960D01*
X14165849Y-17382960D02*
X14175372Y-17363912D01*
X14175372Y-17363912D02*
X14175372Y-17354389D01*
X14175372Y-17354389D02*
X14165849Y-17335341D01*
X14165849Y-17335341D02*
X14146801Y-17325817D01*
X14146801Y-17325817D02*
X14118230Y-17325817D01*
X14118230Y-17325817D02*
X14099182Y-17316293D01*
X14099182Y-17316293D02*
X14089658Y-17297246D01*
X14089658Y-17297246D02*
X14089658Y-17287722D01*
X14089658Y-17287722D02*
X14099182Y-17268674D01*
X14099182Y-17268674D02*
X14118230Y-17259150D01*
X14118230Y-17259150D02*
X14146801Y-17259150D01*
X14146801Y-17259150D02*
X14165849Y-17268674D01*
X14242039Y-17468674D02*
X14251563Y-17459150D01*
X14251563Y-17459150D02*
X14270611Y-17430579D01*
X14270611Y-17430579D02*
X14280134Y-17411531D01*
X14280134Y-17411531D02*
X14289658Y-17382960D01*
X14289658Y-17382960D02*
X14299182Y-17335341D01*
X14299182Y-17335341D02*
X14299182Y-17297246D01*
X14299182Y-17297246D02*
X14289658Y-17249627D01*
X14289658Y-17249627D02*
X14280134Y-17221055D01*
X14280134Y-17221055D02*
X14270611Y-17202008D01*
X14270611Y-17202008D02*
X14251563Y-17173436D01*
X14251563Y-17173436D02*
X14242039Y-17163912D01*
D13*
X9166500Y-17510000D02*
X9276500Y-17620000D01*
X9276500Y-17510000D02*
X9166500Y-17620000D01*
X9221500Y-17510000D02*
X9221500Y-17620000D01*
X9166500Y-17565000D02*
X9276500Y-17565000D01*
D11*
X9642039Y-17656484D02*
X9527753Y-17656484D01*
X9584896Y-17656484D02*
X9584896Y-17456484D01*
X9584896Y-17456484D02*
X9565848Y-17485055D01*
X9565848Y-17485055D02*
X9546801Y-17504103D01*
X9546801Y-17504103D02*
X9527753Y-17513627D01*
X9727753Y-17637436D02*
X9737277Y-17646960D01*
X9737277Y-17646960D02*
X9727753Y-17656484D01*
X9727753Y-17656484D02*
X9718229Y-17646960D01*
X9718229Y-17646960D02*
X9727753Y-17637436D01*
X9727753Y-17637436D02*
X9727753Y-17656484D01*
X9927753Y-17656484D02*
X9813467Y-17656484D01*
X9870610Y-17656484D02*
X9870610Y-17456484D01*
X9870610Y-17456484D02*
X9851563Y-17485055D01*
X9851563Y-17485055D02*
X9832515Y-17504103D01*
X9832515Y-17504103D02*
X9813467Y-17513627D01*
X10051563Y-17456484D02*
X10070610Y-17456484D01*
X10070610Y-17456484D02*
X10089658Y-17466008D01*
X10089658Y-17466008D02*
X10099182Y-17475531D01*
X10099182Y-17475531D02*
X10108705Y-17494579D01*
X10108705Y-17494579D02*
X10118229Y-17532674D01*
X10118229Y-17532674D02*
X10118229Y-17580293D01*
X10118229Y-17580293D02*
X10108705Y-17618389D01*
X10108705Y-17618389D02*
X10099182Y-17637436D01*
X10099182Y-17637436D02*
X10089658Y-17646960D01*
X10089658Y-17646960D02*
X10070610Y-17656484D01*
X10070610Y-17656484D02*
X10051563Y-17656484D01*
X10051563Y-17656484D02*
X10032515Y-17646960D01*
X10032515Y-17646960D02*
X10022991Y-17637436D01*
X10022991Y-17637436D02*
X10013467Y-17618389D01*
X10013467Y-17618389D02*
X10003944Y-17580293D01*
X10003944Y-17580293D02*
X10003944Y-17532674D01*
X10003944Y-17532674D02*
X10013467Y-17494579D01*
X10013467Y-17494579D02*
X10022991Y-17475531D01*
X10022991Y-17475531D02*
X10032515Y-17466008D01*
X10032515Y-17466008D02*
X10051563Y-17456484D01*
X10242039Y-17456484D02*
X10261086Y-17456484D01*
X10261086Y-17456484D02*
X10280134Y-17466008D01*
X10280134Y-17466008D02*
X10289658Y-17475531D01*
X10289658Y-17475531D02*
X10299182Y-17494579D01*
X10299182Y-17494579D02*
X10308705Y-17532674D01*
X10308705Y-17532674D02*
X10308705Y-17580293D01*
X10308705Y-17580293D02*
X10299182Y-17618389D01*
X10299182Y-17618389D02*
X10289658Y-17637436D01*
X10289658Y-17637436D02*
X10280134Y-17646960D01*
X10280134Y-17646960D02*
X10261086Y-17656484D01*
X10261086Y-17656484D02*
X10242039Y-17656484D01*
X10242039Y-17656484D02*
X10222991Y-17646960D01*
X10222991Y-17646960D02*
X10213467Y-17637436D01*
X10213467Y-17637436D02*
X10203944Y-17618389D01*
X10203944Y-17618389D02*
X10194420Y-17580293D01*
X10194420Y-17580293D02*
X10194420Y-17532674D01*
X10194420Y-17532674D02*
X10203944Y-17494579D01*
X10203944Y-17494579D02*
X10213467Y-17475531D01*
X10213467Y-17475531D02*
X10222991Y-17466008D01*
X10222991Y-17466008D02*
X10242039Y-17456484D01*
X10394420Y-17656484D02*
X10394420Y-17523150D01*
X10394420Y-17542198D02*
X10403944Y-17532674D01*
X10403944Y-17532674D02*
X10422991Y-17523150D01*
X10422991Y-17523150D02*
X10451563Y-17523150D01*
X10451563Y-17523150D02*
X10470610Y-17532674D01*
X10470610Y-17532674D02*
X10480134Y-17551722D01*
X10480134Y-17551722D02*
X10480134Y-17656484D01*
X10480134Y-17551722D02*
X10489658Y-17532674D01*
X10489658Y-17532674D02*
X10508705Y-17523150D01*
X10508705Y-17523150D02*
X10537277Y-17523150D01*
X10537277Y-17523150D02*
X10556325Y-17532674D01*
X10556325Y-17532674D02*
X10565848Y-17551722D01*
X10565848Y-17551722D02*
X10565848Y-17656484D01*
X10661086Y-17656484D02*
X10661086Y-17523150D01*
X10661086Y-17542198D02*
X10670610Y-17532674D01*
X10670610Y-17532674D02*
X10689658Y-17523150D01*
X10689658Y-17523150D02*
X10718229Y-17523150D01*
X10718229Y-17523150D02*
X10737277Y-17532674D01*
X10737277Y-17532674D02*
X10746801Y-17551722D01*
X10746801Y-17551722D02*
X10746801Y-17656484D01*
X10746801Y-17551722D02*
X10756325Y-17532674D01*
X10756325Y-17532674D02*
X10775372Y-17523150D01*
X10775372Y-17523150D02*
X10803944Y-17523150D01*
X10803944Y-17523150D02*
X10822991Y-17532674D01*
X10822991Y-17532674D02*
X10832515Y-17551722D01*
X10832515Y-17551722D02*
X10832515Y-17656484D01*
X11222991Y-17446960D02*
X11051563Y-17704103D01*
X11480134Y-17456484D02*
X11499182Y-17456484D01*
X11499182Y-17456484D02*
X11518229Y-17466008D01*
X11518229Y-17466008D02*
X11527753Y-17475531D01*
X11527753Y-17475531D02*
X11537277Y-17494579D01*
X11537277Y-17494579D02*
X11546801Y-17532674D01*
X11546801Y-17532674D02*
X11546801Y-17580293D01*
X11546801Y-17580293D02*
X11537277Y-17618389D01*
X11537277Y-17618389D02*
X11527753Y-17637436D01*
X11527753Y-17637436D02*
X11518229Y-17646960D01*
X11518229Y-17646960D02*
X11499182Y-17656484D01*
X11499182Y-17656484D02*
X11480134Y-17656484D01*
X11480134Y-17656484D02*
X11461086Y-17646960D01*
X11461086Y-17646960D02*
X11451563Y-17637436D01*
X11451563Y-17637436D02*
X11442039Y-17618389D01*
X11442039Y-17618389D02*
X11432515Y-17580293D01*
X11432515Y-17580293D02*
X11432515Y-17532674D01*
X11432515Y-17532674D02*
X11442039Y-17494579D01*
X11442039Y-17494579D02*
X11451563Y-17475531D01*
X11451563Y-17475531D02*
X11461086Y-17466008D01*
X11461086Y-17466008D02*
X11480134Y-17456484D01*
X11632515Y-17637436D02*
X11642039Y-17646960D01*
X11642039Y-17646960D02*
X11632515Y-17656484D01*
X11632515Y-17656484D02*
X11622991Y-17646960D01*
X11622991Y-17646960D02*
X11632515Y-17637436D01*
X11632515Y-17637436D02*
X11632515Y-17656484D01*
X11765848Y-17456484D02*
X11784896Y-17456484D01*
X11784896Y-17456484D02*
X11803944Y-17466008D01*
X11803944Y-17466008D02*
X11813467Y-17475531D01*
X11813467Y-17475531D02*
X11822991Y-17494579D01*
X11822991Y-17494579D02*
X11832515Y-17532674D01*
X11832515Y-17532674D02*
X11832515Y-17580293D01*
X11832515Y-17580293D02*
X11822991Y-17618389D01*
X11822991Y-17618389D02*
X11813467Y-17637436D01*
X11813467Y-17637436D02*
X11803944Y-17646960D01*
X11803944Y-17646960D02*
X11784896Y-17656484D01*
X11784896Y-17656484D02*
X11765848Y-17656484D01*
X11765848Y-17656484D02*
X11746801Y-17646960D01*
X11746801Y-17646960D02*
X11737277Y-17637436D01*
X11737277Y-17637436D02*
X11727753Y-17618389D01*
X11727753Y-17618389D02*
X11718229Y-17580293D01*
X11718229Y-17580293D02*
X11718229Y-17532674D01*
X11718229Y-17532674D02*
X11727753Y-17494579D01*
X11727753Y-17494579D02*
X11737277Y-17475531D01*
X11737277Y-17475531D02*
X11746801Y-17466008D01*
X11746801Y-17466008D02*
X11765848Y-17456484D01*
X12003944Y-17523150D02*
X12003944Y-17656484D01*
X11956325Y-17446960D02*
X11908706Y-17589817D01*
X11908706Y-17589817D02*
X12032515Y-17589817D01*
X12089658Y-17456484D02*
X12213467Y-17456484D01*
X12213467Y-17456484D02*
X12146801Y-17532674D01*
X12146801Y-17532674D02*
X12175372Y-17532674D01*
X12175372Y-17532674D02*
X12194420Y-17542198D01*
X12194420Y-17542198D02*
X12203944Y-17551722D01*
X12203944Y-17551722D02*
X12213467Y-17570770D01*
X12213467Y-17570770D02*
X12213467Y-17618389D01*
X12213467Y-17618389D02*
X12203944Y-17637436D01*
X12203944Y-17637436D02*
X12194420Y-17646960D01*
X12194420Y-17646960D02*
X12175372Y-17656484D01*
X12175372Y-17656484D02*
X12118229Y-17656484D01*
X12118229Y-17656484D02*
X12099182Y-17646960D01*
X12099182Y-17646960D02*
X12089658Y-17637436D01*
X12280134Y-17456484D02*
X12403944Y-17456484D01*
X12403944Y-17456484D02*
X12337277Y-17532674D01*
X12337277Y-17532674D02*
X12365848Y-17532674D01*
X12365848Y-17532674D02*
X12384896Y-17542198D01*
X12384896Y-17542198D02*
X12394420Y-17551722D01*
X12394420Y-17551722D02*
X12403944Y-17570770D01*
X12403944Y-17570770D02*
X12403944Y-17618389D01*
X12403944Y-17618389D02*
X12394420Y-17637436D01*
X12394420Y-17637436D02*
X12384896Y-17646960D01*
X12384896Y-17646960D02*
X12365848Y-17656484D01*
X12365848Y-17656484D02*
X12308706Y-17656484D01*
X12308706Y-17656484D02*
X12289658Y-17646960D01*
X12289658Y-17646960D02*
X12280134Y-17637436D01*
X12480134Y-17456484D02*
X12480134Y-17494579D01*
X12556325Y-17456484D02*
X12556325Y-17494579D01*
X12851563Y-17732674D02*
X12842039Y-17723150D01*
X12842039Y-17723150D02*
X12822991Y-17694579D01*
X12822991Y-17694579D02*
X12813468Y-17675531D01*
X12813468Y-17675531D02*
X12803944Y-17646960D01*
X12803944Y-17646960D02*
X12794420Y-17599341D01*
X12794420Y-17599341D02*
X12794420Y-17561246D01*
X12794420Y-17561246D02*
X12803944Y-17513627D01*
X12803944Y-17513627D02*
X12813468Y-17485055D01*
X12813468Y-17485055D02*
X12822991Y-17466008D01*
X12822991Y-17466008D02*
X12842039Y-17437436D01*
X12842039Y-17437436D02*
X12851563Y-17427912D01*
X13013468Y-17523150D02*
X13013468Y-17656484D01*
X12965848Y-17446960D02*
X12918229Y-17589817D01*
X12918229Y-17589817D02*
X13042039Y-17589817D01*
X13270610Y-17656484D02*
X13270610Y-17456484D01*
X13356325Y-17656484D02*
X13356325Y-17551722D01*
X13356325Y-17551722D02*
X13346801Y-17532674D01*
X13346801Y-17532674D02*
X13327753Y-17523150D01*
X13327753Y-17523150D02*
X13299182Y-17523150D01*
X13299182Y-17523150D02*
X13280134Y-17532674D01*
X13280134Y-17532674D02*
X13270610Y-17542198D01*
X13480134Y-17656484D02*
X13461087Y-17646960D01*
X13461087Y-17646960D02*
X13451563Y-17637436D01*
X13451563Y-17637436D02*
X13442039Y-17618389D01*
X13442039Y-17618389D02*
X13442039Y-17561246D01*
X13442039Y-17561246D02*
X13451563Y-17542198D01*
X13451563Y-17542198D02*
X13461087Y-17532674D01*
X13461087Y-17532674D02*
X13480134Y-17523150D01*
X13480134Y-17523150D02*
X13508706Y-17523150D01*
X13508706Y-17523150D02*
X13527753Y-17532674D01*
X13527753Y-17532674D02*
X13537277Y-17542198D01*
X13537277Y-17542198D02*
X13546801Y-17561246D01*
X13546801Y-17561246D02*
X13546801Y-17618389D01*
X13546801Y-17618389D02*
X13537277Y-17637436D01*
X13537277Y-17637436D02*
X13527753Y-17646960D01*
X13527753Y-17646960D02*
X13508706Y-17656484D01*
X13508706Y-17656484D02*
X13480134Y-17656484D01*
X13661087Y-17656484D02*
X13642039Y-17646960D01*
X13642039Y-17646960D02*
X13632515Y-17627912D01*
X13632515Y-17627912D02*
X13632515Y-17456484D01*
X13813468Y-17646960D02*
X13794420Y-17656484D01*
X13794420Y-17656484D02*
X13756325Y-17656484D01*
X13756325Y-17656484D02*
X13737277Y-17646960D01*
X13737277Y-17646960D02*
X13727753Y-17627912D01*
X13727753Y-17627912D02*
X13727753Y-17551722D01*
X13727753Y-17551722D02*
X13737277Y-17532674D01*
X13737277Y-17532674D02*
X13756325Y-17523150D01*
X13756325Y-17523150D02*
X13794420Y-17523150D01*
X13794420Y-17523150D02*
X13813468Y-17532674D01*
X13813468Y-17532674D02*
X13822991Y-17551722D01*
X13822991Y-17551722D02*
X13822991Y-17570770D01*
X13822991Y-17570770D02*
X13727753Y-17589817D01*
X13899182Y-17646960D02*
X13918230Y-17656484D01*
X13918230Y-17656484D02*
X13956325Y-17656484D01*
X13956325Y-17656484D02*
X13975372Y-17646960D01*
X13975372Y-17646960D02*
X13984896Y-17627912D01*
X13984896Y-17627912D02*
X13984896Y-17618389D01*
X13984896Y-17618389D02*
X13975372Y-17599341D01*
X13975372Y-17599341D02*
X13956325Y-17589817D01*
X13956325Y-17589817D02*
X13927753Y-17589817D01*
X13927753Y-17589817D02*
X13908706Y-17580293D01*
X13908706Y-17580293D02*
X13899182Y-17561246D01*
X13899182Y-17561246D02*
X13899182Y-17551722D01*
X13899182Y-17551722D02*
X13908706Y-17532674D01*
X13908706Y-17532674D02*
X13927753Y-17523150D01*
X13927753Y-17523150D02*
X13956325Y-17523150D01*
X13956325Y-17523150D02*
X13975372Y-17532674D01*
X14051563Y-17732674D02*
X14061087Y-17723150D01*
X14061087Y-17723150D02*
X14080134Y-17694579D01*
X14080134Y-17694579D02*
X14089658Y-17675531D01*
X14089658Y-17675531D02*
X14099182Y-17646960D01*
X14099182Y-17646960D02*
X14108706Y-17599341D01*
X14108706Y-17599341D02*
X14108706Y-17561246D01*
X14108706Y-17561246D02*
X14099182Y-17513627D01*
X14099182Y-17513627D02*
X14089658Y-17485055D01*
X14089658Y-17485055D02*
X14080134Y-17466008D01*
X14080134Y-17466008D02*
X14061087Y-17437436D01*
X14061087Y-17437436D02*
X14051563Y-17427912D01*
D14*
X9126500Y-17754000D02*
X9276500Y-17904000D01*
X9276500Y-17754000D02*
X9126500Y-17904000D01*
X9254534Y-17882034D02*
X9254534Y-17775967D01*
X9148467Y-17775967D01*
X9148467Y-17882034D01*
X9254534Y-17882034D01*
D11*
X9642039Y-17920484D02*
X9527753Y-17920484D01*
X9584896Y-17920484D02*
X9584896Y-17720484D01*
X9584896Y-17720484D02*
X9565848Y-17749055D01*
X9565848Y-17749055D02*
X9546801Y-17768103D01*
X9546801Y-17768103D02*
X9527753Y-17777627D01*
X9727753Y-17901436D02*
X9737277Y-17910960D01*
X9737277Y-17910960D02*
X9727753Y-17920484D01*
X9727753Y-17920484D02*
X9718229Y-17910960D01*
X9718229Y-17910960D02*
X9727753Y-17901436D01*
X9727753Y-17901436D02*
X9727753Y-17920484D01*
X9918229Y-17720484D02*
X9822991Y-17720484D01*
X9822991Y-17720484D02*
X9813467Y-17815722D01*
X9813467Y-17815722D02*
X9822991Y-17806198D01*
X9822991Y-17806198D02*
X9842039Y-17796674D01*
X9842039Y-17796674D02*
X9889658Y-17796674D01*
X9889658Y-17796674D02*
X9908705Y-17806198D01*
X9908705Y-17806198D02*
X9918229Y-17815722D01*
X9918229Y-17815722D02*
X9927753Y-17834770D01*
X9927753Y-17834770D02*
X9927753Y-17882389D01*
X9927753Y-17882389D02*
X9918229Y-17901436D01*
X9918229Y-17901436D02*
X9908705Y-17910960D01*
X9908705Y-17910960D02*
X9889658Y-17920484D01*
X9889658Y-17920484D02*
X9842039Y-17920484D01*
X9842039Y-17920484D02*
X9822991Y-17910960D01*
X9822991Y-17910960D02*
X9813467Y-17901436D01*
X10051563Y-17720484D02*
X10070610Y-17720484D01*
X10070610Y-17720484D02*
X10089658Y-17730008D01*
X10089658Y-17730008D02*
X10099182Y-17739531D01*
X10099182Y-17739531D02*
X10108705Y-17758579D01*
X10108705Y-17758579D02*
X10118229Y-17796674D01*
X10118229Y-17796674D02*
X10118229Y-17844293D01*
X10118229Y-17844293D02*
X10108705Y-17882389D01*
X10108705Y-17882389D02*
X10099182Y-17901436D01*
X10099182Y-17901436D02*
X10089658Y-17910960D01*
X10089658Y-17910960D02*
X10070610Y-17920484D01*
X10070610Y-17920484D02*
X10051563Y-17920484D01*
X10051563Y-17920484D02*
X10032515Y-17910960D01*
X10032515Y-17910960D02*
X10022991Y-17901436D01*
X10022991Y-17901436D02*
X10013467Y-17882389D01*
X10013467Y-17882389D02*
X10003944Y-17844293D01*
X10003944Y-17844293D02*
X10003944Y-17796674D01*
X10003944Y-17796674D02*
X10013467Y-17758579D01*
X10013467Y-17758579D02*
X10022991Y-17739531D01*
X10022991Y-17739531D02*
X10032515Y-17730008D01*
X10032515Y-17730008D02*
X10051563Y-17720484D01*
X10242039Y-17720484D02*
X10261086Y-17720484D01*
X10261086Y-17720484D02*
X10280134Y-17730008D01*
X10280134Y-17730008D02*
X10289658Y-17739531D01*
X10289658Y-17739531D02*
X10299182Y-17758579D01*
X10299182Y-17758579D02*
X10308705Y-17796674D01*
X10308705Y-17796674D02*
X10308705Y-17844293D01*
X10308705Y-17844293D02*
X10299182Y-17882389D01*
X10299182Y-17882389D02*
X10289658Y-17901436D01*
X10289658Y-17901436D02*
X10280134Y-17910960D01*
X10280134Y-17910960D02*
X10261086Y-17920484D01*
X10261086Y-17920484D02*
X10242039Y-17920484D01*
X10242039Y-17920484D02*
X10222991Y-17910960D01*
X10222991Y-17910960D02*
X10213467Y-17901436D01*
X10213467Y-17901436D02*
X10203944Y-17882389D01*
X10203944Y-17882389D02*
X10194420Y-17844293D01*
X10194420Y-17844293D02*
X10194420Y-17796674D01*
X10194420Y-17796674D02*
X10203944Y-17758579D01*
X10203944Y-17758579D02*
X10213467Y-17739531D01*
X10213467Y-17739531D02*
X10222991Y-17730008D01*
X10222991Y-17730008D02*
X10242039Y-17720484D01*
X10394420Y-17920484D02*
X10394420Y-17787150D01*
X10394420Y-17806198D02*
X10403944Y-17796674D01*
X10403944Y-17796674D02*
X10422991Y-17787150D01*
X10422991Y-17787150D02*
X10451563Y-17787150D01*
X10451563Y-17787150D02*
X10470610Y-17796674D01*
X10470610Y-17796674D02*
X10480134Y-17815722D01*
X10480134Y-17815722D02*
X10480134Y-17920484D01*
X10480134Y-17815722D02*
X10489658Y-17796674D01*
X10489658Y-17796674D02*
X10508705Y-17787150D01*
X10508705Y-17787150D02*
X10537277Y-17787150D01*
X10537277Y-17787150D02*
X10556325Y-17796674D01*
X10556325Y-17796674D02*
X10565848Y-17815722D01*
X10565848Y-17815722D02*
X10565848Y-17920484D01*
X10661086Y-17920484D02*
X10661086Y-17787150D01*
X10661086Y-17806198D02*
X10670610Y-17796674D01*
X10670610Y-17796674D02*
X10689658Y-17787150D01*
X10689658Y-17787150D02*
X10718229Y-17787150D01*
X10718229Y-17787150D02*
X10737277Y-17796674D01*
X10737277Y-17796674D02*
X10746801Y-17815722D01*
X10746801Y-17815722D02*
X10746801Y-17920484D01*
X10746801Y-17815722D02*
X10756325Y-17796674D01*
X10756325Y-17796674D02*
X10775372Y-17787150D01*
X10775372Y-17787150D02*
X10803944Y-17787150D01*
X10803944Y-17787150D02*
X10822991Y-17796674D01*
X10822991Y-17796674D02*
X10832515Y-17815722D01*
X10832515Y-17815722D02*
X10832515Y-17920484D01*
X11222991Y-17710960D02*
X11051563Y-17968103D01*
X11480134Y-17720484D02*
X11499182Y-17720484D01*
X11499182Y-17720484D02*
X11518229Y-17730008D01*
X11518229Y-17730008D02*
X11527753Y-17739531D01*
X11527753Y-17739531D02*
X11537277Y-17758579D01*
X11537277Y-17758579D02*
X11546801Y-17796674D01*
X11546801Y-17796674D02*
X11546801Y-17844293D01*
X11546801Y-17844293D02*
X11537277Y-17882389D01*
X11537277Y-17882389D02*
X11527753Y-17901436D01*
X11527753Y-17901436D02*
X11518229Y-17910960D01*
X11518229Y-17910960D02*
X11499182Y-17920484D01*
X11499182Y-17920484D02*
X11480134Y-17920484D01*
X11480134Y-17920484D02*
X11461086Y-17910960D01*
X11461086Y-17910960D02*
X11451563Y-17901436D01*
X11451563Y-17901436D02*
X11442039Y-17882389D01*
X11442039Y-17882389D02*
X11432515Y-17844293D01*
X11432515Y-17844293D02*
X11432515Y-17796674D01*
X11432515Y-17796674D02*
X11442039Y-17758579D01*
X11442039Y-17758579D02*
X11451563Y-17739531D01*
X11451563Y-17739531D02*
X11461086Y-17730008D01*
X11461086Y-17730008D02*
X11480134Y-17720484D01*
X11632515Y-17901436D02*
X11642039Y-17910960D01*
X11642039Y-17910960D02*
X11632515Y-17920484D01*
X11632515Y-17920484D02*
X11622991Y-17910960D01*
X11622991Y-17910960D02*
X11632515Y-17901436D01*
X11632515Y-17901436D02*
X11632515Y-17920484D01*
X11765848Y-17720484D02*
X11784896Y-17720484D01*
X11784896Y-17720484D02*
X11803944Y-17730008D01*
X11803944Y-17730008D02*
X11813467Y-17739531D01*
X11813467Y-17739531D02*
X11822991Y-17758579D01*
X11822991Y-17758579D02*
X11832515Y-17796674D01*
X11832515Y-17796674D02*
X11832515Y-17844293D01*
X11832515Y-17844293D02*
X11822991Y-17882389D01*
X11822991Y-17882389D02*
X11813467Y-17901436D01*
X11813467Y-17901436D02*
X11803944Y-17910960D01*
X11803944Y-17910960D02*
X11784896Y-17920484D01*
X11784896Y-17920484D02*
X11765848Y-17920484D01*
X11765848Y-17920484D02*
X11746801Y-17910960D01*
X11746801Y-17910960D02*
X11737277Y-17901436D01*
X11737277Y-17901436D02*
X11727753Y-17882389D01*
X11727753Y-17882389D02*
X11718229Y-17844293D01*
X11718229Y-17844293D02*
X11718229Y-17796674D01*
X11718229Y-17796674D02*
X11727753Y-17758579D01*
X11727753Y-17758579D02*
X11737277Y-17739531D01*
X11737277Y-17739531D02*
X11746801Y-17730008D01*
X11746801Y-17730008D02*
X11765848Y-17720484D01*
X12013467Y-17720484D02*
X11918229Y-17720484D01*
X11918229Y-17720484D02*
X11908706Y-17815722D01*
X11908706Y-17815722D02*
X11918229Y-17806198D01*
X11918229Y-17806198D02*
X11937277Y-17796674D01*
X11937277Y-17796674D02*
X11984896Y-17796674D01*
X11984896Y-17796674D02*
X12003944Y-17806198D01*
X12003944Y-17806198D02*
X12013467Y-17815722D01*
X12013467Y-17815722D02*
X12022991Y-17834770D01*
X12022991Y-17834770D02*
X12022991Y-17882389D01*
X12022991Y-17882389D02*
X12013467Y-17901436D01*
X12013467Y-17901436D02*
X12003944Y-17910960D01*
X12003944Y-17910960D02*
X11984896Y-17920484D01*
X11984896Y-17920484D02*
X11937277Y-17920484D01*
X11937277Y-17920484D02*
X11918229Y-17910960D01*
X11918229Y-17910960D02*
X11908706Y-17901436D01*
X12118229Y-17920484D02*
X12156325Y-17920484D01*
X12156325Y-17920484D02*
X12175372Y-17910960D01*
X12175372Y-17910960D02*
X12184896Y-17901436D01*
X12184896Y-17901436D02*
X12203944Y-17872865D01*
X12203944Y-17872865D02*
X12213467Y-17834770D01*
X12213467Y-17834770D02*
X12213467Y-17758579D01*
X12213467Y-17758579D02*
X12203944Y-17739531D01*
X12203944Y-17739531D02*
X12194420Y-17730008D01*
X12194420Y-17730008D02*
X12175372Y-17720484D01*
X12175372Y-17720484D02*
X12137277Y-17720484D01*
X12137277Y-17720484D02*
X12118229Y-17730008D01*
X12118229Y-17730008D02*
X12108706Y-17739531D01*
X12108706Y-17739531D02*
X12099182Y-17758579D01*
X12099182Y-17758579D02*
X12099182Y-17806198D01*
X12099182Y-17806198D02*
X12108706Y-17825246D01*
X12108706Y-17825246D02*
X12118229Y-17834770D01*
X12118229Y-17834770D02*
X12137277Y-17844293D01*
X12137277Y-17844293D02*
X12175372Y-17844293D01*
X12175372Y-17844293D02*
X12194420Y-17834770D01*
X12194420Y-17834770D02*
X12203944Y-17825246D01*
X12203944Y-17825246D02*
X12213467Y-17806198D01*
X12403944Y-17920484D02*
X12289658Y-17920484D01*
X12346801Y-17920484D02*
X12346801Y-17720484D01*
X12346801Y-17720484D02*
X12327753Y-17749055D01*
X12327753Y-17749055D02*
X12308706Y-17768103D01*
X12308706Y-17768103D02*
X12289658Y-17777627D01*
X12480134Y-17720484D02*
X12480134Y-17758579D01*
X12556325Y-17720484D02*
X12556325Y-17758579D01*
X12851563Y-17996674D02*
X12842039Y-17987150D01*
X12842039Y-17987150D02*
X12822991Y-17958579D01*
X12822991Y-17958579D02*
X12813468Y-17939531D01*
X12813468Y-17939531D02*
X12803944Y-17910960D01*
X12803944Y-17910960D02*
X12794420Y-17863341D01*
X12794420Y-17863341D02*
X12794420Y-17825246D01*
X12794420Y-17825246D02*
X12803944Y-17777627D01*
X12803944Y-17777627D02*
X12813468Y-17749055D01*
X12813468Y-17749055D02*
X12822991Y-17730008D01*
X12822991Y-17730008D02*
X12842039Y-17701436D01*
X12842039Y-17701436D02*
X12851563Y-17691912D01*
X12918229Y-17739531D02*
X12927753Y-17730008D01*
X12927753Y-17730008D02*
X12946801Y-17720484D01*
X12946801Y-17720484D02*
X12994420Y-17720484D01*
X12994420Y-17720484D02*
X13013468Y-17730008D01*
X13013468Y-17730008D02*
X13022991Y-17739531D01*
X13022991Y-17739531D02*
X13032515Y-17758579D01*
X13032515Y-17758579D02*
X13032515Y-17777627D01*
X13032515Y-17777627D02*
X13022991Y-17806198D01*
X13022991Y-17806198D02*
X12908706Y-17920484D01*
X12908706Y-17920484D02*
X13032515Y-17920484D01*
X13270610Y-17920484D02*
X13270610Y-17720484D01*
X13356325Y-17920484D02*
X13356325Y-17815722D01*
X13356325Y-17815722D02*
X13346801Y-17796674D01*
X13346801Y-17796674D02*
X13327753Y-17787150D01*
X13327753Y-17787150D02*
X13299182Y-17787150D01*
X13299182Y-17787150D02*
X13280134Y-17796674D01*
X13280134Y-17796674D02*
X13270610Y-17806198D01*
X13480134Y-17920484D02*
X13461087Y-17910960D01*
X13461087Y-17910960D02*
X13451563Y-17901436D01*
X13451563Y-17901436D02*
X13442039Y-17882389D01*
X13442039Y-17882389D02*
X13442039Y-17825246D01*
X13442039Y-17825246D02*
X13451563Y-17806198D01*
X13451563Y-17806198D02*
X13461087Y-17796674D01*
X13461087Y-17796674D02*
X13480134Y-17787150D01*
X13480134Y-17787150D02*
X13508706Y-17787150D01*
X13508706Y-17787150D02*
X13527753Y-17796674D01*
X13527753Y-17796674D02*
X13537277Y-17806198D01*
X13537277Y-17806198D02*
X13546801Y-17825246D01*
X13546801Y-17825246D02*
X13546801Y-17882389D01*
X13546801Y-17882389D02*
X13537277Y-17901436D01*
X13537277Y-17901436D02*
X13527753Y-17910960D01*
X13527753Y-17910960D02*
X13508706Y-17920484D01*
X13508706Y-17920484D02*
X13480134Y-17920484D01*
X13661087Y-17920484D02*
X13642039Y-17910960D01*
X13642039Y-17910960D02*
X13632515Y-17891912D01*
X13632515Y-17891912D02*
X13632515Y-17720484D01*
X13813468Y-17910960D02*
X13794420Y-17920484D01*
X13794420Y-17920484D02*
X13756325Y-17920484D01*
X13756325Y-17920484D02*
X13737277Y-17910960D01*
X13737277Y-17910960D02*
X13727753Y-17891912D01*
X13727753Y-17891912D02*
X13727753Y-17815722D01*
X13727753Y-17815722D02*
X13737277Y-17796674D01*
X13737277Y-17796674D02*
X13756325Y-17787150D01*
X13756325Y-17787150D02*
X13794420Y-17787150D01*
X13794420Y-17787150D02*
X13813468Y-17796674D01*
X13813468Y-17796674D02*
X13822991Y-17815722D01*
X13822991Y-17815722D02*
X13822991Y-17834770D01*
X13822991Y-17834770D02*
X13727753Y-17853817D01*
X13899182Y-17910960D02*
X13918230Y-17920484D01*
X13918230Y-17920484D02*
X13956325Y-17920484D01*
X13956325Y-17920484D02*
X13975372Y-17910960D01*
X13975372Y-17910960D02*
X13984896Y-17891912D01*
X13984896Y-17891912D02*
X13984896Y-17882389D01*
X13984896Y-17882389D02*
X13975372Y-17863341D01*
X13975372Y-17863341D02*
X13956325Y-17853817D01*
X13956325Y-17853817D02*
X13927753Y-17853817D01*
X13927753Y-17853817D02*
X13908706Y-17844293D01*
X13908706Y-17844293D02*
X13899182Y-17825246D01*
X13899182Y-17825246D02*
X13899182Y-17815722D01*
X13899182Y-17815722D02*
X13908706Y-17796674D01*
X13908706Y-17796674D02*
X13927753Y-17787150D01*
X13927753Y-17787150D02*
X13956325Y-17787150D01*
X13956325Y-17787150D02*
X13975372Y-17796674D01*
X14051563Y-17996674D02*
X14061087Y-17987150D01*
X14061087Y-17987150D02*
X14080134Y-17958579D01*
X14080134Y-17958579D02*
X14089658Y-17939531D01*
X14089658Y-17939531D02*
X14099182Y-17910960D01*
X14099182Y-17910960D02*
X14108706Y-17863341D01*
X14108706Y-17863341D02*
X14108706Y-17825246D01*
X14108706Y-17825246D02*
X14099182Y-17777627D01*
X14099182Y-17777627D02*
X14089658Y-17749055D01*
X14089658Y-17749055D02*
X14080134Y-17730008D01*
X14080134Y-17730008D02*
X14061087Y-17701436D01*
X14061087Y-17701436D02*
X14051563Y-17691912D01*
M02*
