%TF.GenerationSoftware,KiCad,Pcbnew,8.0.2*%
%TF.CreationDate,2024-09-20T16:54:18+02:00*%
%TF.ProjectId,liberocan1,6c696265-726f-4636-916e-312e6b696361,v1.2*%
%TF.SameCoordinates,Original*%
%TF.FileFunction,Soldermask,Top*%
%TF.FilePolarity,Negative*%
%FSLAX46Y46*%
G04 Gerber Fmt 4.6, Leading zero omitted, Abs format (unit mm)*
G04 Created by KiCad (PCBNEW 8.0.2) date 2024-09-20 16:54:18*
%MOMM*%
%LPD*%
G01*
G04 APERTURE LIST*
%ADD10R,1.700000X1.700000*%
%ADD11O,1.700000X1.700000*%
%ADD12C,1.400000*%
%ADD13O,1.400000X1.400000*%
%ADD14R,2.200000X2.200000*%
%ADD15O,2.200000X2.200000*%
%ADD16C,3.000000*%
%ADD17O,1.800000X1.800000*%
%ADD18O,1.500000X1.500000*%
%ADD19R,3.500000X1.700000*%
%ADD20R,1.700000X3.500000*%
%ADD21R,3.000000X3.000000*%
%ADD22R,1.600000X1.600000*%
%ADD23O,1.600000X1.600000*%
%ADD24R,1.350000X1.350000*%
%ADD25O,1.350000X1.350000*%
%ADD26C,1.000000*%
%ADD27C,1.600000*%
G04 APERTURE END LIST*
D10*
%TO.C,J2*%
X122555000Y-124460000D03*
D11*
X122555000Y-127000000D03*
X122555000Y-129540000D03*
%TD*%
D10*
%TO.C,U2*%
X122925000Y-141315000D03*
D11*
X122925000Y-138775000D03*
X122925000Y-136235000D03*
%TD*%
D10*
%TO.C,U6*%
X127000000Y-78450000D03*
D11*
X127000000Y-80990000D03*
X127000000Y-83530000D03*
X127000000Y-86070000D03*
X127000000Y-88610000D03*
X127000000Y-91150000D03*
X127000000Y-93690000D03*
X127000000Y-96230000D03*
%TD*%
D10*
%TO.C,U1*%
X127000000Y-115095000D03*
D11*
X127000000Y-112555000D03*
X127000000Y-110015000D03*
X127000000Y-107475000D03*
%TD*%
D12*
%TO.C,R3*%
X131445000Y-139065000D03*
D13*
X126365000Y-139065000D03*
%TD*%
D10*
%TO.C,MainBT1*%
X181610000Y-142240000D03*
D11*
X181610000Y-139700000D03*
%TD*%
D14*
%TO.C,D2*%
X170815000Y-135600000D03*
D15*
X178435000Y-135600000D03*
%TD*%
D10*
%TO.C,SmallM3*%
X206980000Y-93345000D03*
D11*
X204440000Y-93345000D03*
X201900000Y-93345000D03*
%TD*%
D16*
%TO.C,REF\u002A\u002A*%
X193675000Y-130810000D03*
%TD*%
D10*
%TO.C,U9*%
X170815000Y-131426000D03*
X188595000Y-131426000D03*
X188595000Y-91294000D03*
X170815000Y-91294000D03*
%TD*%
%TO.C,J1*%
X117905000Y-124460000D03*
D11*
X117905000Y-127000000D03*
X117905000Y-129540000D03*
%TD*%
D17*
%TO.C,U5*%
X154860000Y-144995000D03*
D18*
X154560000Y-141965000D03*
X149710000Y-141965000D03*
D17*
X149410000Y-144995000D03*
D11*
X161025000Y-145125000D03*
D19*
X161925000Y-145125000D03*
D11*
X161025000Y-142585000D03*
D19*
X161925000Y-142585000D03*
D10*
X161025000Y-140045000D03*
D19*
X161925000Y-140045000D03*
D11*
X161025000Y-137505000D03*
D19*
X161925000Y-137505000D03*
D11*
X161025000Y-134965000D03*
D19*
X161925000Y-134965000D03*
D11*
X161025000Y-132425000D03*
D19*
X161925000Y-132425000D03*
D11*
X161025000Y-129885000D03*
D19*
X161925000Y-129885000D03*
D10*
X161025000Y-127345000D03*
D19*
X161925000Y-127345000D03*
D11*
X161025000Y-124805000D03*
D19*
X161925000Y-124805000D03*
D11*
X161025000Y-122265000D03*
D19*
X161925000Y-122265000D03*
D11*
X161025000Y-119725000D03*
D19*
X161925000Y-119725000D03*
D11*
X161025000Y-117185000D03*
D19*
X161925000Y-117185000D03*
D10*
X161025000Y-114645000D03*
D19*
X161925000Y-114645000D03*
D11*
X161025000Y-112105000D03*
D19*
X161925000Y-112105000D03*
D11*
X161025000Y-109565000D03*
D19*
X161925000Y-109565000D03*
D11*
X161025000Y-107025000D03*
D19*
X161925000Y-107025000D03*
D11*
X161025000Y-104485000D03*
D19*
X161925000Y-104485000D03*
D10*
X161025000Y-101945000D03*
D19*
X161925000Y-101945000D03*
D11*
X161025000Y-99405000D03*
D19*
X161925000Y-99405000D03*
D11*
X161025000Y-96865000D03*
D19*
X161925000Y-96865000D03*
D11*
X143245000Y-96865000D03*
D19*
X142345000Y-96865000D03*
D11*
X143245000Y-99405000D03*
D19*
X142345000Y-99405000D03*
D10*
X143245000Y-101945000D03*
D19*
X142345000Y-101945000D03*
D11*
X143245000Y-104485000D03*
D19*
X142345000Y-104485000D03*
D11*
X143245000Y-107025000D03*
D19*
X142345000Y-107025000D03*
D11*
X143245000Y-109565000D03*
D19*
X142345000Y-109565000D03*
D11*
X143245000Y-112105000D03*
D19*
X142345000Y-112105000D03*
D10*
X143245000Y-114645000D03*
D19*
X142345000Y-114645000D03*
D11*
X143245000Y-117185000D03*
D19*
X142345000Y-117185000D03*
D11*
X143245000Y-119725000D03*
D19*
X142345000Y-119725000D03*
D11*
X143245000Y-122265000D03*
D19*
X142345000Y-122265000D03*
D11*
X143245000Y-124805000D03*
D19*
X142345000Y-124805000D03*
D10*
X143245000Y-127345000D03*
D19*
X142345000Y-127345000D03*
D11*
X143245000Y-129885000D03*
D19*
X142345000Y-129885000D03*
D11*
X143245000Y-132425000D03*
D19*
X142345000Y-132425000D03*
D11*
X143245000Y-134965000D03*
D19*
X142345000Y-134965000D03*
D11*
X143245000Y-137505000D03*
D19*
X142345000Y-137505000D03*
D10*
X143245000Y-140045000D03*
D19*
X142345000Y-140045000D03*
D11*
X143245000Y-142585000D03*
D19*
X142345000Y-142585000D03*
D11*
X143245000Y-145125000D03*
D19*
X142345000Y-145125000D03*
D11*
X154675000Y-97095000D03*
D20*
X154675000Y-96195000D03*
D10*
X152135000Y-97095000D03*
D20*
X152135000Y-96195000D03*
D11*
X149595000Y-97095000D03*
D20*
X149595000Y-96195000D03*
%TD*%
D21*
%TO.C,CellBT1*%
X173910000Y-47970001D03*
D16*
X153420000Y-47970001D03*
%TD*%
D22*
%TO.C,U3*%
X187960000Y-50520000D03*
D23*
X185420000Y-50520000D03*
X182880000Y-50520000D03*
X180340000Y-50520000D03*
X180340000Y-58140000D03*
X182880000Y-58140000D03*
X185420000Y-58140000D03*
X187960000Y-58140000D03*
%TD*%
D10*
%TO.C,BigM1*%
X200395000Y-114630000D03*
D11*
X200395000Y-112090000D03*
X200395000Y-109550000D03*
%TD*%
D16*
%TO.C,REF\u002A\u002A*%
X109855000Y-57690000D03*
%TD*%
%TO.C,REF\u002A\u002A*%
X193675000Y-57690000D03*
%TD*%
D10*
%TO.C,SmallM2*%
X207010000Y-86995000D03*
D11*
X204470000Y-86995000D03*
X201930000Y-86995000D03*
%TD*%
D24*
%TO.C,U4*%
X125520000Y-65955000D03*
D25*
X127520000Y-65955000D03*
X129520000Y-65955000D03*
X131520000Y-65955000D03*
X133520000Y-65955000D03*
X135520000Y-65955000D03*
X137520000Y-65955000D03*
X139520000Y-65955000D03*
X141520000Y-65955000D03*
X143520000Y-65955000D03*
X143520000Y-43955000D03*
X141520000Y-43955000D03*
X139520000Y-43955000D03*
X137520000Y-43955000D03*
X135520000Y-43955000D03*
X133520000Y-43955000D03*
X131520000Y-43955000D03*
X129520000Y-43955000D03*
X127520000Y-43955000D03*
X125520000Y-43955000D03*
%TD*%
D26*
%TO.C,Y1*%
X180340000Y-45720000D03*
X182240000Y-45720000D03*
%TD*%
D12*
%TO.C,R2*%
X187325000Y-99695000D03*
D13*
X182245000Y-99695000D03*
%TD*%
D12*
%TO.C,R4*%
X126365000Y-142875000D03*
D13*
X131445000Y-142875000D03*
%TD*%
D10*
%TO.C,SmallM1*%
X200395000Y-102565000D03*
D11*
X200395000Y-100025000D03*
X200395000Y-97485000D03*
%TD*%
D22*
%TO.C,SW1*%
X177495000Y-139832500D03*
D27*
X177495000Y-142332500D03*
X177495000Y-144832500D03*
X174295000Y-139832500D03*
X174295000Y-142332500D03*
X174295000Y-144832500D03*
%TD*%
D10*
%TO.C,U7*%
X185710000Y-63190000D03*
D11*
X185710000Y-65730000D03*
X185710000Y-68270000D03*
X185710000Y-70810000D03*
X185710000Y-73350000D03*
X185710000Y-75890000D03*
X185710000Y-78430000D03*
X185710000Y-80970000D03*
%TD*%
D12*
%TO.C,R1*%
X177165000Y-99695000D03*
D13*
X172085000Y-99695000D03*
%TD*%
D10*
%TO.C,U8*%
X155985000Y-75175000D03*
D11*
X158525000Y-75175000D03*
X161065000Y-75175000D03*
X163605000Y-75175000D03*
X166145000Y-75175000D03*
X168685000Y-75175000D03*
X171225000Y-75175000D03*
X173765000Y-75175000D03*
%TD*%
D14*
%TO.C,D1*%
X172005000Y-86360000D03*
D15*
X179625000Y-86360000D03*
%TD*%
D16*
%TO.C,REF\u002A\u002A*%
X109855000Y-130810000D03*
%TD*%
M02*
