M48
; DRILL file {KiCad 7.0.9} date Thu 23 Nov 2023 05:14:11 PM CET
; FORMAT={-:-/ absolute / inch / decimal}
; #@! TF.CreationDate,2023-11-23T17:14:11+01:00
; #@! TF.GenerationSoftware,Kicad,Pcbnew,7.0.9
; #@! TF.FileFunction,Plated,1,2,PTH
FMAT,2
INCH
; #@! TA.AperFunction,Plated,PTH,ViaDrill
T1C0.0157
; #@! TA.AperFunction,Plated,PTH,ComponentDrill
T2C0.0197
; #@! TA.AperFunction,Plated,PTH,ComponentDrill
T3C0.0315
; #@! TA.AperFunction,Plated,PTH,ComponentDrill
T4C0.0394
; #@! TA.AperFunction,Plated,PTH,ComponentDrill
T5C0.0402
; #@! TA.AperFunction,Plated,PTH,ComponentDrill
T6C0.0433
; #@! TA.AperFunction,Plated,PTH,ComponentDrill
T7C0.0591
%
G90
G05
T1
X5.0646Y-3.3886
X5.0646Y-3.4886
X5.0896Y-3.9386
X5.1896Y-4.0386
X5.1896Y-5.1386
X5.2396Y-4.1386
X5.3896Y-3.8386
X5.3896Y-3.9386
X5.3896Y-5.0386
X5.4146Y-4.4136
X5.6896Y-3.0386
X5.7296Y-3.0386
X5.7896Y-3.9386
X5.8Y-3.15
X5.8069Y-3.9963
X5.8296Y-3.9186
X5.85Y-3.2
X5.8646Y-4.3386
X6.0Y-2.4
X6.011Y-4.2414
X6.0396Y-4.5136
X6.0646Y-4.0886
X6.175Y-3.325
X6.175Y-3.5
X6.225Y-3.45
X6.2646Y-4.7136
X6.35Y-3.5
X6.4646Y-3.1636
X6.5Y-4.25
X6.5146Y-3.1921
X6.525Y-4.375
X6.5285Y-3.6
X6.5396Y-3.0386
X6.5521Y-3.1011
X6.5896Y-5.1136
X6.6181Y-5.1886
X6.648Y-4.914
X6.7396Y-3.2886
X6.9396Y-3.1386
X7.075Y-5.075
X7.5646Y-3.8386
X7.6146Y-3.5136
X7.6646Y-3.3886
X7.6646Y-3.6636
T2
X4.7541Y-4.2976
X4.7541Y-4.3369
X4.7541Y-4.3763
X4.7541Y-4.4157
X7.1022Y-1.7636
X7.177Y-1.7636
T3
X4.9417Y-1.7305
X4.9417Y-2.5967
X5.0205Y-1.7305
X5.0205Y-2.5967
X5.0992Y-1.7305
X5.0992Y-2.5967
X5.178Y-1.7305
X5.178Y-2.5967
X5.2567Y-1.7305
X5.2567Y-2.5967
X5.3354Y-1.7305
X5.3354Y-2.5967
X5.4142Y-1.7305
X5.4142Y-2.5967
X5.4929Y-1.7305
X5.4929Y-2.5967
X5.5717Y-1.7305
X5.5717Y-2.5967
X5.6504Y-1.7305
X5.6504Y-2.5967
X6.9Y-5.5188
X6.9Y-5.6172
X6.9Y-5.7156
X7.026Y-5.5188
X7.026Y-5.6172
X7.026Y-5.7156
X7.1142Y-1.989
X7.1142Y-2.289
X7.2142Y-1.989
X7.2142Y-2.289
X7.3142Y-1.989
X7.3142Y-2.289
X7.4142Y-1.989
X7.4142Y-2.289
T4
X4.8396Y-5.3636
X4.8396Y-5.4636
X4.8396Y-5.5636
X4.9646Y-3.0886
X4.9646Y-3.1886
X4.9646Y-3.2886
X4.9646Y-3.3886
X4.9646Y-3.4886
X4.9646Y-3.5886
X4.9646Y-3.6886
X4.9646Y-3.7886
X6.1411Y-2.9596
X6.2411Y-2.9596
X6.3411Y-2.9596
X6.4411Y-2.9596
X6.5411Y-2.9596
X6.6411Y-2.9596
X6.725Y-3.5943
X6.725Y-5.1743
X6.7411Y-2.9596
X6.8411Y-2.9596
X7.2896Y-5.3888
X7.2896Y-5.4888
X7.3114Y-2.4878
X7.3114Y-2.5878
X7.3114Y-2.6878
X7.3114Y-2.7878
X7.3114Y-2.8878
X7.3114Y-2.9878
X7.3114Y-3.0878
X7.3114Y-3.1878
X7.425Y-3.5943
X7.425Y-5.1743
X7.8896Y-3.838
X7.8896Y-3.938
X7.8896Y-4.038
X7.8896Y-4.313
X7.8896Y-4.413
X7.8896Y-4.513
T5
X5.6396Y-3.8136
X5.6396Y-3.9136
X5.6396Y-4.0136
X5.6396Y-4.1136
X5.6396Y-4.2136
X5.6396Y-4.3136
X5.6396Y-4.4136
X5.6396Y-4.5136
X5.6396Y-4.6136
X5.6396Y-4.7136
X5.6396Y-4.8136
X5.6396Y-4.9136
X5.6396Y-5.0136
X5.6396Y-5.1136
X5.6396Y-5.2136
X5.6396Y-5.3136
X5.6396Y-5.4136
X5.6396Y-5.5136
X5.6396Y-5.6136
X5.6396Y-5.7136
X5.8896Y-3.8226
X5.9896Y-3.8226
X6.0896Y-3.8226
X6.3396Y-3.8136
X6.3396Y-3.9136
X6.3396Y-4.0136
X6.3396Y-4.1136
X6.3396Y-4.2136
X6.3396Y-4.3136
X6.3396Y-4.4136
X6.3396Y-4.5136
X6.3396Y-4.6136
X6.3396Y-4.7136
X6.3396Y-4.8136
X6.3396Y-4.9136
X6.3396Y-5.0136
X6.3396Y-5.1136
X6.3396Y-5.2136
X6.3396Y-5.3136
X6.3396Y-5.4136
X6.3396Y-5.5136
X6.3396Y-5.6136
X6.3396Y-5.7136
T6
X6.725Y-5.3386
X6.7719Y-3.4
X7.025Y-5.3386
X7.0719Y-3.4
T7
X6.0402Y-1.8886
X6.8469Y-1.8886
T0
M30
