%TF.GenerationSoftware,KiCad,Pcbnew,7.0.9*%
%TF.CreationDate,2023-11-24T00:14:20+01:00*%
%TF.ProjectId,astrasat1,61737472-6173-4617-9431-2e6b69636164,v1*%
%TF.SameCoordinates,Original*%
%TF.FileFunction,Drillmap*%
%TF.FilePolarity,Positive*%
%FSLAX45Y45*%
G04 Gerber Fmt 4.5, Leading zero omitted, Abs format (unit mm)*
G04 Created by KiCad (PCBNEW 7.0.9) date 2023-11-24 00:14:20*
%MOMM*%
%LPD*%
G01*
G04 APERTURE LIST*
%ADD10C,0.100000*%
%ADD11C,0.200000*%
%ADD12C,0.102000*%
%ADD13C,0.110000*%
%ADD14C,0.150000*%
G04 APERTURE END LIST*
D10*
X21181500Y-9436000D02*
G75*
G03*
X21181500Y-9436000I-6000000J0D01*
G01*
D11*
D10*
X12844000Y-8587000D02*
X12884000Y-8627000D01*
X12884000Y-8587000D02*
X12844000Y-8627000D01*
X12844000Y-8841000D02*
X12884000Y-8881000D01*
X12884000Y-8841000D02*
X12844000Y-8881000D01*
X12907500Y-9984000D02*
X12947500Y-10024000D01*
X12947500Y-9984000D02*
X12907500Y-10024000D01*
X13161500Y-10238000D02*
X13201500Y-10278000D01*
X13201500Y-10238000D02*
X13161500Y-10278000D01*
X13161500Y-13032000D02*
X13201500Y-13072000D01*
X13201500Y-13032000D02*
X13161500Y-13072000D01*
X13288500Y-10492000D02*
X13328500Y-10532000D01*
X13328500Y-10492000D02*
X13288500Y-10532000D01*
X13669500Y-9730000D02*
X13709500Y-9770000D01*
X13709500Y-9730000D02*
X13669500Y-9770000D01*
X13669500Y-9984000D02*
X13709500Y-10024000D01*
X13709500Y-9984000D02*
X13669500Y-10024000D01*
X13669500Y-12778000D02*
X13709500Y-12818000D01*
X13709500Y-12778000D02*
X13669500Y-12818000D01*
X13733000Y-11190500D02*
X13773000Y-11230500D01*
X13773000Y-11190500D02*
X13733000Y-11230500D01*
X14431500Y-7698000D02*
X14471500Y-7738000D01*
X14471500Y-7698000D02*
X14431500Y-7738000D01*
X14533100Y-7698000D02*
X14573100Y-7738000D01*
X14573100Y-7698000D02*
X14533100Y-7738000D01*
X14685500Y-9984000D02*
X14725500Y-10024000D01*
X14725500Y-9984000D02*
X14685500Y-10024000D01*
X14712000Y-7981000D02*
X14752000Y-8021000D01*
X14752000Y-7981000D02*
X14712000Y-8021000D01*
X14729520Y-10130480D02*
X14769520Y-10170480D01*
X14769520Y-10130480D02*
X14729520Y-10170480D01*
X14787100Y-9933200D02*
X14827100Y-9973200D01*
X14827100Y-9933200D02*
X14787100Y-9973200D01*
X14839000Y-8108000D02*
X14879000Y-8148000D01*
X14879000Y-8108000D02*
X14839000Y-8148000D01*
X14876000Y-11000000D02*
X14916000Y-11040000D01*
X14916000Y-11000000D02*
X14876000Y-11040000D01*
X15220000Y-6076000D02*
X15260000Y-6116000D01*
X15260000Y-6076000D02*
X15220000Y-6116000D01*
X15248050Y-10753210D02*
X15288050Y-10793210D01*
X15288050Y-10753210D02*
X15248050Y-10793210D01*
X15320500Y-11444500D02*
X15360500Y-11484500D01*
X15360500Y-11444500D02*
X15320500Y-11484500D01*
X15384000Y-10365000D02*
X15424000Y-10405000D01*
X15424000Y-10365000D02*
X15384000Y-10405000D01*
X15664500Y-8425500D02*
X15704500Y-8465500D01*
X15704500Y-8425500D02*
X15664500Y-8465500D01*
X15664500Y-8870000D02*
X15704500Y-8910000D01*
X15704500Y-8870000D02*
X15664500Y-8910000D01*
X15791500Y-8743000D02*
X15831500Y-8783000D01*
X15831500Y-8743000D02*
X15791500Y-8783000D01*
X15892000Y-11952500D02*
X15932000Y-11992500D01*
X15932000Y-11952500D02*
X15892000Y-11992500D01*
X16109000Y-8870000D02*
X16149000Y-8910000D01*
X16149000Y-8870000D02*
X16109000Y-8910000D01*
X16400000Y-8015500D02*
X16440000Y-8055500D01*
X16440000Y-8015500D02*
X16400000Y-8055500D01*
X16490000Y-10775000D02*
X16530000Y-10815000D01*
X16530000Y-10775000D02*
X16490000Y-10815000D01*
X16527000Y-8087950D02*
X16567000Y-8127950D01*
X16567000Y-8087950D02*
X16527000Y-8127950D01*
X16553500Y-11092500D02*
X16593500Y-11132500D01*
X16593500Y-11092500D02*
X16553500Y-11132500D01*
X16562450Y-9124000D02*
X16602450Y-9164000D01*
X16602450Y-9124000D02*
X16562450Y-9164000D01*
X16590500Y-7698000D02*
X16630500Y-7738000D01*
X16630500Y-7698000D02*
X16590500Y-7738000D01*
X16622250Y-7856750D02*
X16662250Y-7896750D01*
X16662250Y-7856750D02*
X16622250Y-7896750D01*
X16717500Y-12968500D02*
X16757500Y-13008500D01*
X16757500Y-12968500D02*
X16717500Y-13008500D01*
X16789950Y-13159000D02*
X16829950Y-13199000D01*
X16829950Y-13159000D02*
X16789950Y-13199000D01*
X16865920Y-12461560D02*
X16905920Y-12501560D01*
X16905920Y-12461560D02*
X16865920Y-12501560D01*
X17098500Y-8333000D02*
X17138500Y-8373000D01*
X17138500Y-8333000D02*
X17098500Y-8373000D01*
X17606500Y-7952000D02*
X17646500Y-7992000D01*
X17646500Y-7952000D02*
X17606500Y-7992000D01*
X17950500Y-12870500D02*
X17990500Y-12910500D01*
X17990500Y-12870500D02*
X17950500Y-12910500D01*
X19194000Y-9730000D02*
X19234000Y-9770000D01*
X19234000Y-9730000D02*
X19194000Y-9770000D01*
X19321000Y-8904500D02*
X19361000Y-8944500D01*
X19361000Y-8904500D02*
X19321000Y-8944500D01*
X19448000Y-8587000D02*
X19488000Y-8627000D01*
X19488000Y-8587000D02*
X19448000Y-8627000D01*
X19448000Y-9285500D02*
X19488000Y-9325500D01*
X19488000Y-9285500D02*
X19448000Y-9325500D01*
X12100500Y-10915800D02*
G75*
G03*
X12100500Y-10915800I-25000J0D01*
G01*
X12100500Y-11015800D02*
G75*
G03*
X12100500Y-11015800I-25000J0D01*
G01*
X12100500Y-11115800D02*
G75*
G03*
X12100500Y-11115800I-25000J0D01*
G01*
X12100500Y-11215800D02*
G75*
G03*
X12100500Y-11215800I-25000J0D01*
G01*
X18064500Y-4479500D02*
G75*
G03*
X18064500Y-4479500I-25000J0D01*
G01*
X18254500Y-4479500D02*
G75*
G03*
X18254500Y-4479500I-25000J0D01*
G01*
X12552000Y-4355500D02*
X12552000Y-4435500D01*
X12512000Y-4395500D02*
X12592000Y-4395500D01*
X12552000Y-6555500D02*
X12552000Y-6635500D01*
X12512000Y-6595500D02*
X12592000Y-6595500D01*
X12752000Y-4355500D02*
X12752000Y-4435500D01*
X12712000Y-4395500D02*
X12792000Y-4395500D01*
X12752000Y-6555500D02*
X12752000Y-6635500D01*
X12712000Y-6595500D02*
X12792000Y-6595500D01*
X12952000Y-4355500D02*
X12952000Y-4435500D01*
X12912000Y-4395500D02*
X12992000Y-4395500D01*
X12952000Y-6555500D02*
X12952000Y-6635500D01*
X12912000Y-6595500D02*
X12992000Y-6595500D01*
X13152000Y-4355500D02*
X13152000Y-4435500D01*
X13112000Y-4395500D02*
X13192000Y-4395500D01*
X13152000Y-6555500D02*
X13152000Y-6635500D01*
X13112000Y-6595500D02*
X13192000Y-6595500D01*
X13352000Y-4355500D02*
X13352000Y-4435500D01*
X13312000Y-4395500D02*
X13392000Y-4395500D01*
X13352000Y-6555500D02*
X13352000Y-6635500D01*
X13312000Y-6595500D02*
X13392000Y-6595500D01*
X13552000Y-4355500D02*
X13552000Y-4435500D01*
X13512000Y-4395500D02*
X13592000Y-4395500D01*
X13552000Y-6555500D02*
X13552000Y-6635500D01*
X13512000Y-6595500D02*
X13592000Y-6595500D01*
X13752000Y-4355500D02*
X13752000Y-4435500D01*
X13712000Y-4395500D02*
X13792000Y-4395500D01*
X13752000Y-6555500D02*
X13752000Y-6635500D01*
X13712000Y-6595500D02*
X13792000Y-6595500D01*
X13952000Y-4355500D02*
X13952000Y-4435500D01*
X13912000Y-4395500D02*
X13992000Y-4395500D01*
X13952000Y-6555500D02*
X13952000Y-6635500D01*
X13912000Y-6595500D02*
X13992000Y-6595500D01*
X14152000Y-4355500D02*
X14152000Y-4435500D01*
X14112000Y-4395500D02*
X14192000Y-4395500D01*
X14152000Y-6555500D02*
X14152000Y-6635500D01*
X14112000Y-6595500D02*
X14192000Y-6595500D01*
X14352000Y-4355500D02*
X14352000Y-4435500D01*
X14312000Y-4395500D02*
X14392000Y-4395500D01*
X14352000Y-6555500D02*
X14352000Y-6635500D01*
X14312000Y-6595500D02*
X14392000Y-6595500D01*
X17526000Y-13977750D02*
X17526000Y-14057750D01*
X17486000Y-14017750D02*
X17566000Y-14017750D01*
X17526000Y-14227750D02*
X17526000Y-14307750D01*
X17486000Y-14267750D02*
X17566000Y-14267750D01*
X17526000Y-14477750D02*
X17526000Y-14557750D01*
X17486000Y-14517750D02*
X17566000Y-14517750D01*
X17846000Y-13977750D02*
X17846000Y-14057750D01*
X17806000Y-14017750D02*
X17886000Y-14017750D01*
X17846000Y-14227750D02*
X17846000Y-14307750D01*
X17806000Y-14267750D02*
X17886000Y-14267750D01*
X17846000Y-14477750D02*
X17846000Y-14557750D01*
X17806000Y-14517750D02*
X17886000Y-14517750D01*
X18070000Y-5012000D02*
X18070000Y-5092000D01*
X18030000Y-5052000D02*
X18110000Y-5052000D01*
X18070000Y-5774000D02*
X18070000Y-5854000D01*
X18030000Y-5814000D02*
X18110000Y-5814000D01*
X18324000Y-5012000D02*
X18324000Y-5092000D01*
X18284000Y-5052000D02*
X18364000Y-5052000D01*
X18324000Y-5774000D02*
X18324000Y-5854000D01*
X18284000Y-5814000D02*
X18364000Y-5814000D01*
X18578000Y-5012000D02*
X18578000Y-5092000D01*
X18538000Y-5052000D02*
X18618000Y-5052000D01*
X18578000Y-5774000D02*
X18578000Y-5854000D01*
X18538000Y-5814000D02*
X18618000Y-5814000D01*
X18832000Y-5012000D02*
X18832000Y-5092000D01*
X18792000Y-5052000D02*
X18872000Y-5052000D01*
X18832000Y-5774000D02*
X18832000Y-5854000D01*
X18792000Y-5814000D02*
X18872000Y-5814000D01*
X12327856Y-13658856D02*
X12327856Y-13588144D01*
X12257144Y-13588144D01*
X12257144Y-13658856D01*
X12327856Y-13658856D01*
X12327856Y-13912856D02*
X12327856Y-13842144D01*
X12257144Y-13842144D01*
X12257144Y-13912856D01*
X12327856Y-13912856D01*
X12327856Y-14166856D02*
X12327856Y-14096144D01*
X12257144Y-14096144D01*
X12257144Y-14166856D01*
X12327856Y-14166856D01*
X12645356Y-7880356D02*
X12645356Y-7809644D01*
X12574644Y-7809644D01*
X12574644Y-7880356D01*
X12645356Y-7880356D01*
X12645356Y-8134356D02*
X12645356Y-8063644D01*
X12574644Y-8063644D01*
X12574644Y-8134356D01*
X12645356Y-8134356D01*
X12645356Y-8388356D02*
X12645356Y-8317644D01*
X12574644Y-8317644D01*
X12574644Y-8388356D01*
X12645356Y-8388356D01*
X12645356Y-8642356D02*
X12645356Y-8571644D01*
X12574644Y-8571644D01*
X12574644Y-8642356D01*
X12645356Y-8642356D01*
X12645356Y-8896356D02*
X12645356Y-8825644D01*
X12574644Y-8825644D01*
X12574644Y-8896356D01*
X12645356Y-8896356D01*
X12645356Y-9150356D02*
X12645356Y-9079644D01*
X12574644Y-9079644D01*
X12574644Y-9150356D01*
X12645356Y-9150356D01*
X12645356Y-9404356D02*
X12645356Y-9333644D01*
X12574644Y-9333644D01*
X12574644Y-9404356D01*
X12645356Y-9404356D01*
X12645356Y-9658356D02*
X12645356Y-9587644D01*
X12574644Y-9587644D01*
X12574644Y-9658356D01*
X12645356Y-9658356D01*
X15633856Y-7552856D02*
X15633856Y-7482144D01*
X15563144Y-7482144D01*
X15563144Y-7552856D01*
X15633856Y-7552856D01*
X15887856Y-7552856D02*
X15887856Y-7482144D01*
X15817144Y-7482144D01*
X15817144Y-7552856D01*
X15887856Y-7552856D01*
X16141856Y-7552856D02*
X16141856Y-7482144D01*
X16071144Y-7482144D01*
X16071144Y-7552856D01*
X16141856Y-7552856D01*
X16395856Y-7552856D02*
X16395856Y-7482144D01*
X16325144Y-7482144D01*
X16325144Y-7552856D01*
X16395856Y-7552856D01*
X16649856Y-7552856D02*
X16649856Y-7482144D01*
X16579144Y-7482144D01*
X16579144Y-7552856D01*
X16649856Y-7552856D01*
X16903856Y-7552856D02*
X16903856Y-7482144D01*
X16833144Y-7482144D01*
X16833144Y-7552856D01*
X16903856Y-7552856D01*
X17116856Y-9164756D02*
X17116856Y-9094044D01*
X17046144Y-9094044D01*
X17046144Y-9164756D01*
X17116856Y-9164756D01*
X17116856Y-13177956D02*
X17116856Y-13107244D01*
X17046144Y-13107244D01*
X17046144Y-13177956D01*
X17116856Y-13177956D01*
X17157856Y-7552856D02*
X17157856Y-7482144D01*
X17087144Y-7482144D01*
X17087144Y-7552856D01*
X17157856Y-7552856D01*
X17411856Y-7552856D02*
X17411856Y-7482144D01*
X17341144Y-7482144D01*
X17341144Y-7552856D01*
X17411856Y-7552856D01*
X18550856Y-13722856D02*
X18550856Y-13652144D01*
X18480144Y-13652144D01*
X18480144Y-13722856D01*
X18550856Y-13722856D01*
X18550856Y-13976856D02*
X18550856Y-13906144D01*
X18480144Y-13906144D01*
X18480144Y-13976856D01*
X18550856Y-13976856D01*
X18606356Y-6354356D02*
X18606356Y-6283644D01*
X18535644Y-6283644D01*
X18535644Y-6354356D01*
X18606356Y-6354356D01*
X18606356Y-6608356D02*
X18606356Y-6537644D01*
X18535644Y-6537644D01*
X18535644Y-6608356D01*
X18606356Y-6608356D01*
X18606356Y-6862356D02*
X18606356Y-6791644D01*
X18535644Y-6791644D01*
X18535644Y-6862356D01*
X18606356Y-6862356D01*
X18606356Y-7116356D02*
X18606356Y-7045644D01*
X18535644Y-7045644D01*
X18535644Y-7116356D01*
X18606356Y-7116356D01*
X18606356Y-7370356D02*
X18606356Y-7299644D01*
X18535644Y-7299644D01*
X18535644Y-7370356D01*
X18606356Y-7370356D01*
X18606356Y-7624356D02*
X18606356Y-7553644D01*
X18535644Y-7553644D01*
X18535644Y-7624356D01*
X18606356Y-7624356D01*
X18606356Y-7878356D02*
X18606356Y-7807644D01*
X18535644Y-7807644D01*
X18535644Y-7878356D01*
X18606356Y-7878356D01*
X18606356Y-8132356D02*
X18606356Y-8061644D01*
X18535644Y-8061644D01*
X18535644Y-8132356D01*
X18606356Y-8132356D01*
X18894856Y-9164756D02*
X18894856Y-9094044D01*
X18824144Y-9094044D01*
X18824144Y-9164756D01*
X18894856Y-9164756D01*
X18894856Y-13177956D02*
X18894856Y-13107244D01*
X18824144Y-13107244D01*
X18824144Y-13177956D01*
X18894856Y-13177956D01*
X20074856Y-9783856D02*
X20074856Y-9713144D01*
X20004144Y-9713144D01*
X20004144Y-9783856D01*
X20074856Y-9783856D01*
X20074856Y-10037856D02*
X20074856Y-9967144D01*
X20004144Y-9967144D01*
X20004144Y-10037856D01*
X20074856Y-10037856D01*
X20074856Y-10291856D02*
X20074856Y-10221144D01*
X20004144Y-10221144D01*
X20004144Y-10291856D01*
X20074856Y-10291856D01*
X20074856Y-10990356D02*
X20074856Y-10919644D01*
X20004144Y-10919644D01*
X20004144Y-10990356D01*
X20074856Y-10990356D01*
X20074856Y-11244356D02*
X20074856Y-11173644D01*
X20004144Y-11173644D01*
X20004144Y-11244356D01*
X20074856Y-11244356D01*
X20074856Y-11498356D02*
X20074856Y-11427644D01*
X20004144Y-11427644D01*
X20004144Y-11498356D01*
X20074856Y-11498356D01*
D12*
X14324500Y-9737500D02*
X14375500Y-9686500D01*
X14324500Y-9635500D01*
X14273500Y-9686500D01*
X14324500Y-9737500D01*
X14324500Y-9991500D02*
X14375500Y-9940500D01*
X14324500Y-9889500D01*
X14273500Y-9940500D01*
X14324500Y-9991500D01*
X14324500Y-10245500D02*
X14375500Y-10194500D01*
X14324500Y-10143500D01*
X14273500Y-10194500D01*
X14324500Y-10245500D01*
X14324500Y-10499500D02*
X14375500Y-10448500D01*
X14324500Y-10397500D01*
X14273500Y-10448500D01*
X14324500Y-10499500D01*
X14324500Y-10753500D02*
X14375500Y-10702500D01*
X14324500Y-10651500D01*
X14273500Y-10702500D01*
X14324500Y-10753500D01*
X14324500Y-11007500D02*
X14375500Y-10956500D01*
X14324500Y-10905500D01*
X14273500Y-10956500D01*
X14324500Y-11007500D01*
X14324500Y-11261500D02*
X14375500Y-11210500D01*
X14324500Y-11159500D01*
X14273500Y-11210500D01*
X14324500Y-11261500D01*
X14324500Y-11515500D02*
X14375500Y-11464500D01*
X14324500Y-11413500D01*
X14273500Y-11464500D01*
X14324500Y-11515500D01*
X14324500Y-11769500D02*
X14375500Y-11718500D01*
X14324500Y-11667500D01*
X14273500Y-11718500D01*
X14324500Y-11769500D01*
X14324500Y-12023500D02*
X14375500Y-11972500D01*
X14324500Y-11921500D01*
X14273500Y-11972500D01*
X14324500Y-12023500D01*
X14324500Y-12277500D02*
X14375500Y-12226500D01*
X14324500Y-12175500D01*
X14273500Y-12226500D01*
X14324500Y-12277500D01*
X14324500Y-12531500D02*
X14375500Y-12480500D01*
X14324500Y-12429500D01*
X14273500Y-12480500D01*
X14324500Y-12531500D01*
X14324500Y-12785500D02*
X14375500Y-12734500D01*
X14324500Y-12683500D01*
X14273500Y-12734500D01*
X14324500Y-12785500D01*
X14324500Y-13039500D02*
X14375500Y-12988500D01*
X14324500Y-12937500D01*
X14273500Y-12988500D01*
X14324500Y-13039500D01*
X14324500Y-13293500D02*
X14375500Y-13242500D01*
X14324500Y-13191500D01*
X14273500Y-13242500D01*
X14324500Y-13293500D01*
X14324500Y-13547500D02*
X14375500Y-13496500D01*
X14324500Y-13445500D01*
X14273500Y-13496500D01*
X14324500Y-13547500D01*
X14324500Y-13801500D02*
X14375500Y-13750500D01*
X14324500Y-13699500D01*
X14273500Y-13750500D01*
X14324500Y-13801500D01*
X14324500Y-14055500D02*
X14375500Y-14004500D01*
X14324500Y-13953500D01*
X14273500Y-14004500D01*
X14324500Y-14055500D01*
X14324500Y-14309500D02*
X14375500Y-14258500D01*
X14324500Y-14207500D01*
X14273500Y-14258500D01*
X14324500Y-14309500D01*
X14324500Y-14563500D02*
X14375500Y-14512500D01*
X14324500Y-14461500D01*
X14273500Y-14512500D01*
X14324500Y-14563500D01*
X14959500Y-9760500D02*
X15010500Y-9709500D01*
X14959500Y-9658500D01*
X14908500Y-9709500D01*
X14959500Y-9760500D01*
X15213500Y-9760500D02*
X15264500Y-9709500D01*
X15213500Y-9658500D01*
X15162500Y-9709500D01*
X15213500Y-9760500D01*
X15467500Y-9760500D02*
X15518500Y-9709500D01*
X15467500Y-9658500D01*
X15416500Y-9709500D01*
X15467500Y-9760500D01*
X16102500Y-9737500D02*
X16153500Y-9686500D01*
X16102500Y-9635500D01*
X16051500Y-9686500D01*
X16102500Y-9737500D01*
X16102500Y-9991500D02*
X16153500Y-9940500D01*
X16102500Y-9889500D01*
X16051500Y-9940500D01*
X16102500Y-9991500D01*
X16102500Y-10245500D02*
X16153500Y-10194500D01*
X16102500Y-10143500D01*
X16051500Y-10194500D01*
X16102500Y-10245500D01*
X16102500Y-10499500D02*
X16153500Y-10448500D01*
X16102500Y-10397500D01*
X16051500Y-10448500D01*
X16102500Y-10499500D01*
X16102500Y-10753500D02*
X16153500Y-10702500D01*
X16102500Y-10651500D01*
X16051500Y-10702500D01*
X16102500Y-10753500D01*
X16102500Y-11007500D02*
X16153500Y-10956500D01*
X16102500Y-10905500D01*
X16051500Y-10956500D01*
X16102500Y-11007500D01*
X16102500Y-11261500D02*
X16153500Y-11210500D01*
X16102500Y-11159500D01*
X16051500Y-11210500D01*
X16102500Y-11261500D01*
X16102500Y-11515500D02*
X16153500Y-11464500D01*
X16102500Y-11413500D01*
X16051500Y-11464500D01*
X16102500Y-11515500D01*
X16102500Y-11769500D02*
X16153500Y-11718500D01*
X16102500Y-11667500D01*
X16051500Y-11718500D01*
X16102500Y-11769500D01*
X16102500Y-12023500D02*
X16153500Y-11972500D01*
X16102500Y-11921500D01*
X16051500Y-11972500D01*
X16102500Y-12023500D01*
X16102500Y-12277500D02*
X16153500Y-12226500D01*
X16102500Y-12175500D01*
X16051500Y-12226500D01*
X16102500Y-12277500D01*
X16102500Y-12531500D02*
X16153500Y-12480500D01*
X16102500Y-12429500D01*
X16051500Y-12480500D01*
X16102500Y-12531500D01*
X16102500Y-12785500D02*
X16153500Y-12734500D01*
X16102500Y-12683500D01*
X16051500Y-12734500D01*
X16102500Y-12785500D01*
X16102500Y-13039500D02*
X16153500Y-12988500D01*
X16102500Y-12937500D01*
X16051500Y-12988500D01*
X16102500Y-13039500D01*
X16102500Y-13293500D02*
X16153500Y-13242500D01*
X16102500Y-13191500D01*
X16051500Y-13242500D01*
X16102500Y-13293500D01*
X16102500Y-13547500D02*
X16153500Y-13496500D01*
X16102500Y-13445500D01*
X16051500Y-13496500D01*
X16102500Y-13547500D01*
X16102500Y-13801500D02*
X16153500Y-13750500D01*
X16102500Y-13699500D01*
X16051500Y-13750500D01*
X16102500Y-13801500D01*
X16102500Y-14055500D02*
X16153500Y-14004500D01*
X16102500Y-13953500D01*
X16051500Y-14004500D01*
X16102500Y-14055500D01*
X16102500Y-14309500D02*
X16153500Y-14258500D01*
X16102500Y-14207500D01*
X16051500Y-14258500D01*
X16102500Y-14309500D01*
X16102500Y-14563500D02*
X16153500Y-14512500D01*
X16102500Y-14461500D01*
X16051500Y-14512500D01*
X16102500Y-14563500D01*
D13*
X17026500Y-13505000D02*
X17136500Y-13615000D01*
X17136500Y-13505000D02*
X17026500Y-13615000D01*
X17136500Y-13560000D02*
G75*
G03*
X17136500Y-13560000I-55000J0D01*
G01*
X17145500Y-8581000D02*
X17255500Y-8691000D01*
X17255500Y-8581000D02*
X17145500Y-8691000D01*
X17255500Y-8636000D02*
G75*
G03*
X17255500Y-8636000I-55000J0D01*
G01*
X17788500Y-13505000D02*
X17898500Y-13615000D01*
X17898500Y-13505000D02*
X17788500Y-13615000D01*
X17898500Y-13560000D02*
G75*
G03*
X17898500Y-13560000I-55000J0D01*
G01*
X17907500Y-8581000D02*
X18017500Y-8691000D01*
X18017500Y-8581000D02*
X17907500Y-8691000D01*
X18017500Y-8636000D02*
G75*
G03*
X18017500Y-8636000I-55000J0D01*
G01*
D14*
X15267000Y-4722000D02*
X15417000Y-4872000D01*
X15417000Y-4722000D02*
X15267000Y-4872000D01*
X15342000Y-4722000D02*
X15342000Y-4872000D01*
X15267000Y-4797000D02*
X15417000Y-4797000D01*
X17316000Y-4722000D02*
X17466000Y-4872000D01*
X17466000Y-4722000D02*
X17316000Y-4872000D01*
X17391000Y-4722000D02*
X17391000Y-4872000D01*
X17316000Y-4797000D02*
X17466000Y-4797000D01*
D11*
X9437277Y-15752484D02*
X9437277Y-15552484D01*
X9437277Y-15552484D02*
X9484896Y-15552484D01*
X9484896Y-15552484D02*
X9513467Y-15562008D01*
X9513467Y-15562008D02*
X9532515Y-15581055D01*
X9532515Y-15581055D02*
X9542039Y-15600103D01*
X9542039Y-15600103D02*
X9551563Y-15638198D01*
X9551563Y-15638198D02*
X9551563Y-15666769D01*
X9551563Y-15666769D02*
X9542039Y-15704865D01*
X9542039Y-15704865D02*
X9532515Y-15723912D01*
X9532515Y-15723912D02*
X9513467Y-15742960D01*
X9513467Y-15742960D02*
X9484896Y-15752484D01*
X9484896Y-15752484D02*
X9437277Y-15752484D01*
X9637277Y-15752484D02*
X9637277Y-15619150D01*
X9637277Y-15657246D02*
X9646801Y-15638198D01*
X9646801Y-15638198D02*
X9656324Y-15628674D01*
X9656324Y-15628674D02*
X9675372Y-15619150D01*
X9675372Y-15619150D02*
X9694420Y-15619150D01*
X9761086Y-15752484D02*
X9761086Y-15619150D01*
X9761086Y-15552484D02*
X9751563Y-15562008D01*
X9751563Y-15562008D02*
X9761086Y-15571531D01*
X9761086Y-15571531D02*
X9770610Y-15562008D01*
X9770610Y-15562008D02*
X9761086Y-15552484D01*
X9761086Y-15552484D02*
X9761086Y-15571531D01*
X9884896Y-15752484D02*
X9865848Y-15742960D01*
X9865848Y-15742960D02*
X9856324Y-15723912D01*
X9856324Y-15723912D02*
X9856324Y-15552484D01*
X9989658Y-15752484D02*
X9970610Y-15742960D01*
X9970610Y-15742960D02*
X9961086Y-15723912D01*
X9961086Y-15723912D02*
X9961086Y-15552484D01*
X10218229Y-15752484D02*
X10218229Y-15552484D01*
X10218229Y-15552484D02*
X10284896Y-15695341D01*
X10284896Y-15695341D02*
X10351563Y-15552484D01*
X10351563Y-15552484D02*
X10351563Y-15752484D01*
X10532515Y-15752484D02*
X10532515Y-15647722D01*
X10532515Y-15647722D02*
X10522991Y-15628674D01*
X10522991Y-15628674D02*
X10503944Y-15619150D01*
X10503944Y-15619150D02*
X10465848Y-15619150D01*
X10465848Y-15619150D02*
X10446801Y-15628674D01*
X10532515Y-15742960D02*
X10513467Y-15752484D01*
X10513467Y-15752484D02*
X10465848Y-15752484D01*
X10465848Y-15752484D02*
X10446801Y-15742960D01*
X10446801Y-15742960D02*
X10437277Y-15723912D01*
X10437277Y-15723912D02*
X10437277Y-15704865D01*
X10437277Y-15704865D02*
X10446801Y-15685817D01*
X10446801Y-15685817D02*
X10465848Y-15676293D01*
X10465848Y-15676293D02*
X10513467Y-15676293D01*
X10513467Y-15676293D02*
X10532515Y-15666769D01*
X10627753Y-15619150D02*
X10627753Y-15819150D01*
X10627753Y-15628674D02*
X10646801Y-15619150D01*
X10646801Y-15619150D02*
X10684896Y-15619150D01*
X10684896Y-15619150D02*
X10703944Y-15628674D01*
X10703944Y-15628674D02*
X10713467Y-15638198D01*
X10713467Y-15638198D02*
X10722991Y-15657246D01*
X10722991Y-15657246D02*
X10722991Y-15714388D01*
X10722991Y-15714388D02*
X10713467Y-15733436D01*
X10713467Y-15733436D02*
X10703944Y-15742960D01*
X10703944Y-15742960D02*
X10684896Y-15752484D01*
X10684896Y-15752484D02*
X10646801Y-15752484D01*
X10646801Y-15752484D02*
X10627753Y-15742960D01*
X10808705Y-15733436D02*
X10818229Y-15742960D01*
X10818229Y-15742960D02*
X10808705Y-15752484D01*
X10808705Y-15752484D02*
X10799182Y-15742960D01*
X10799182Y-15742960D02*
X10808705Y-15733436D01*
X10808705Y-15733436D02*
X10808705Y-15752484D01*
X10808705Y-15628674D02*
X10818229Y-15638198D01*
X10818229Y-15638198D02*
X10808705Y-15647722D01*
X10808705Y-15647722D02*
X10799182Y-15638198D01*
X10799182Y-15638198D02*
X10808705Y-15628674D01*
X10808705Y-15628674D02*
X10808705Y-15647722D01*
D10*
X9136500Y-16061000D02*
X9176500Y-16101000D01*
X9176500Y-16061000D02*
X9136500Y-16101000D01*
D11*
X9475372Y-15972484D02*
X9494420Y-15972484D01*
X9494420Y-15972484D02*
X9513467Y-15982008D01*
X9513467Y-15982008D02*
X9522991Y-15991531D01*
X9522991Y-15991531D02*
X9532515Y-16010579D01*
X9532515Y-16010579D02*
X9542039Y-16048674D01*
X9542039Y-16048674D02*
X9542039Y-16096293D01*
X9542039Y-16096293D02*
X9532515Y-16134388D01*
X9532515Y-16134388D02*
X9522991Y-16153436D01*
X9522991Y-16153436D02*
X9513467Y-16162960D01*
X9513467Y-16162960D02*
X9494420Y-16172484D01*
X9494420Y-16172484D02*
X9475372Y-16172484D01*
X9475372Y-16172484D02*
X9456324Y-16162960D01*
X9456324Y-16162960D02*
X9446801Y-16153436D01*
X9446801Y-16153436D02*
X9437277Y-16134388D01*
X9437277Y-16134388D02*
X9427753Y-16096293D01*
X9427753Y-16096293D02*
X9427753Y-16048674D01*
X9427753Y-16048674D02*
X9437277Y-16010579D01*
X9437277Y-16010579D02*
X9446801Y-15991531D01*
X9446801Y-15991531D02*
X9456324Y-15982008D01*
X9456324Y-15982008D02*
X9475372Y-15972484D01*
X9627753Y-16153436D02*
X9637277Y-16162960D01*
X9637277Y-16162960D02*
X9627753Y-16172484D01*
X9627753Y-16172484D02*
X9618229Y-16162960D01*
X9618229Y-16162960D02*
X9627753Y-16153436D01*
X9627753Y-16153436D02*
X9627753Y-16172484D01*
X9808705Y-16039150D02*
X9808705Y-16172484D01*
X9761086Y-15962960D02*
X9713467Y-16105817D01*
X9713467Y-16105817D02*
X9837277Y-16105817D01*
X9951563Y-15972484D02*
X9970610Y-15972484D01*
X9970610Y-15972484D02*
X9989658Y-15982008D01*
X9989658Y-15982008D02*
X9999182Y-15991531D01*
X9999182Y-15991531D02*
X10008705Y-16010579D01*
X10008705Y-16010579D02*
X10018229Y-16048674D01*
X10018229Y-16048674D02*
X10018229Y-16096293D01*
X10018229Y-16096293D02*
X10008705Y-16134388D01*
X10008705Y-16134388D02*
X9999182Y-16153436D01*
X9999182Y-16153436D02*
X9989658Y-16162960D01*
X9989658Y-16162960D02*
X9970610Y-16172484D01*
X9970610Y-16172484D02*
X9951563Y-16172484D01*
X9951563Y-16172484D02*
X9932515Y-16162960D01*
X9932515Y-16162960D02*
X9922991Y-16153436D01*
X9922991Y-16153436D02*
X9913467Y-16134388D01*
X9913467Y-16134388D02*
X9903944Y-16096293D01*
X9903944Y-16096293D02*
X9903944Y-16048674D01*
X9903944Y-16048674D02*
X9913467Y-16010579D01*
X9913467Y-16010579D02*
X9922991Y-15991531D01*
X9922991Y-15991531D02*
X9932515Y-15982008D01*
X9932515Y-15982008D02*
X9951563Y-15972484D01*
X10142039Y-15972484D02*
X10161086Y-15972484D01*
X10161086Y-15972484D02*
X10180134Y-15982008D01*
X10180134Y-15982008D02*
X10189658Y-15991531D01*
X10189658Y-15991531D02*
X10199182Y-16010579D01*
X10199182Y-16010579D02*
X10208705Y-16048674D01*
X10208705Y-16048674D02*
X10208705Y-16096293D01*
X10208705Y-16096293D02*
X10199182Y-16134388D01*
X10199182Y-16134388D02*
X10189658Y-16153436D01*
X10189658Y-16153436D02*
X10180134Y-16162960D01*
X10180134Y-16162960D02*
X10161086Y-16172484D01*
X10161086Y-16172484D02*
X10142039Y-16172484D01*
X10142039Y-16172484D02*
X10122991Y-16162960D01*
X10122991Y-16162960D02*
X10113467Y-16153436D01*
X10113467Y-16153436D02*
X10103944Y-16134388D01*
X10103944Y-16134388D02*
X10094420Y-16096293D01*
X10094420Y-16096293D02*
X10094420Y-16048674D01*
X10094420Y-16048674D02*
X10103944Y-16010579D01*
X10103944Y-16010579D02*
X10113467Y-15991531D01*
X10113467Y-15991531D02*
X10122991Y-15982008D01*
X10122991Y-15982008D02*
X10142039Y-15972484D01*
X10294420Y-16172484D02*
X10294420Y-16039150D01*
X10294420Y-16058198D02*
X10303944Y-16048674D01*
X10303944Y-16048674D02*
X10322991Y-16039150D01*
X10322991Y-16039150D02*
X10351563Y-16039150D01*
X10351563Y-16039150D02*
X10370610Y-16048674D01*
X10370610Y-16048674D02*
X10380134Y-16067722D01*
X10380134Y-16067722D02*
X10380134Y-16172484D01*
X10380134Y-16067722D02*
X10389658Y-16048674D01*
X10389658Y-16048674D02*
X10408705Y-16039150D01*
X10408705Y-16039150D02*
X10437277Y-16039150D01*
X10437277Y-16039150D02*
X10456325Y-16048674D01*
X10456325Y-16048674D02*
X10465848Y-16067722D01*
X10465848Y-16067722D02*
X10465848Y-16172484D01*
X10561086Y-16172484D02*
X10561086Y-16039150D01*
X10561086Y-16058198D02*
X10570610Y-16048674D01*
X10570610Y-16048674D02*
X10589658Y-16039150D01*
X10589658Y-16039150D02*
X10618229Y-16039150D01*
X10618229Y-16039150D02*
X10637277Y-16048674D01*
X10637277Y-16048674D02*
X10646801Y-16067722D01*
X10646801Y-16067722D02*
X10646801Y-16172484D01*
X10646801Y-16067722D02*
X10656325Y-16048674D01*
X10656325Y-16048674D02*
X10675372Y-16039150D01*
X10675372Y-16039150D02*
X10703944Y-16039150D01*
X10703944Y-16039150D02*
X10722991Y-16048674D01*
X10722991Y-16048674D02*
X10732515Y-16067722D01*
X10732515Y-16067722D02*
X10732515Y-16172484D01*
X11122991Y-15962960D02*
X10951563Y-16220103D01*
X11380134Y-15972484D02*
X11399182Y-15972484D01*
X11399182Y-15972484D02*
X11418229Y-15982008D01*
X11418229Y-15982008D02*
X11427753Y-15991531D01*
X11427753Y-15991531D02*
X11437277Y-16010579D01*
X11437277Y-16010579D02*
X11446801Y-16048674D01*
X11446801Y-16048674D02*
X11446801Y-16096293D01*
X11446801Y-16096293D02*
X11437277Y-16134388D01*
X11437277Y-16134388D02*
X11427753Y-16153436D01*
X11427753Y-16153436D02*
X11418229Y-16162960D01*
X11418229Y-16162960D02*
X11399182Y-16172484D01*
X11399182Y-16172484D02*
X11380134Y-16172484D01*
X11380134Y-16172484D02*
X11361086Y-16162960D01*
X11361086Y-16162960D02*
X11351563Y-16153436D01*
X11351563Y-16153436D02*
X11342039Y-16134388D01*
X11342039Y-16134388D02*
X11332515Y-16096293D01*
X11332515Y-16096293D02*
X11332515Y-16048674D01*
X11332515Y-16048674D02*
X11342039Y-16010579D01*
X11342039Y-16010579D02*
X11351563Y-15991531D01*
X11351563Y-15991531D02*
X11361086Y-15982008D01*
X11361086Y-15982008D02*
X11380134Y-15972484D01*
X11532515Y-16153436D02*
X11542039Y-16162960D01*
X11542039Y-16162960D02*
X11532515Y-16172484D01*
X11532515Y-16172484D02*
X11522991Y-16162960D01*
X11522991Y-16162960D02*
X11532515Y-16153436D01*
X11532515Y-16153436D02*
X11532515Y-16172484D01*
X11665848Y-15972484D02*
X11684896Y-15972484D01*
X11684896Y-15972484D02*
X11703944Y-15982008D01*
X11703944Y-15982008D02*
X11713467Y-15991531D01*
X11713467Y-15991531D02*
X11722991Y-16010579D01*
X11722991Y-16010579D02*
X11732515Y-16048674D01*
X11732515Y-16048674D02*
X11732515Y-16096293D01*
X11732515Y-16096293D02*
X11722991Y-16134388D01*
X11722991Y-16134388D02*
X11713467Y-16153436D01*
X11713467Y-16153436D02*
X11703944Y-16162960D01*
X11703944Y-16162960D02*
X11684896Y-16172484D01*
X11684896Y-16172484D02*
X11665848Y-16172484D01*
X11665848Y-16172484D02*
X11646801Y-16162960D01*
X11646801Y-16162960D02*
X11637277Y-16153436D01*
X11637277Y-16153436D02*
X11627753Y-16134388D01*
X11627753Y-16134388D02*
X11618229Y-16096293D01*
X11618229Y-16096293D02*
X11618229Y-16048674D01*
X11618229Y-16048674D02*
X11627753Y-16010579D01*
X11627753Y-16010579D02*
X11637277Y-15991531D01*
X11637277Y-15991531D02*
X11646801Y-15982008D01*
X11646801Y-15982008D02*
X11665848Y-15972484D01*
X11922991Y-16172484D02*
X11808706Y-16172484D01*
X11865848Y-16172484D02*
X11865848Y-15972484D01*
X11865848Y-15972484D02*
X11846801Y-16001055D01*
X11846801Y-16001055D02*
X11827753Y-16020103D01*
X11827753Y-16020103D02*
X11808706Y-16029627D01*
X12103944Y-15972484D02*
X12008706Y-15972484D01*
X12008706Y-15972484D02*
X11999182Y-16067722D01*
X11999182Y-16067722D02*
X12008706Y-16058198D01*
X12008706Y-16058198D02*
X12027753Y-16048674D01*
X12027753Y-16048674D02*
X12075372Y-16048674D01*
X12075372Y-16048674D02*
X12094420Y-16058198D01*
X12094420Y-16058198D02*
X12103944Y-16067722D01*
X12103944Y-16067722D02*
X12113467Y-16086769D01*
X12113467Y-16086769D02*
X12113467Y-16134388D01*
X12113467Y-16134388D02*
X12103944Y-16153436D01*
X12103944Y-16153436D02*
X12094420Y-16162960D01*
X12094420Y-16162960D02*
X12075372Y-16172484D01*
X12075372Y-16172484D02*
X12027753Y-16172484D01*
X12027753Y-16172484D02*
X12008706Y-16162960D01*
X12008706Y-16162960D02*
X11999182Y-16153436D01*
X12180134Y-15972484D02*
X12313467Y-15972484D01*
X12313467Y-15972484D02*
X12227753Y-16172484D01*
X12380134Y-15972484D02*
X12380134Y-16010579D01*
X12456325Y-15972484D02*
X12456325Y-16010579D01*
X12751563Y-16248674D02*
X12742039Y-16239150D01*
X12742039Y-16239150D02*
X12722991Y-16210579D01*
X12722991Y-16210579D02*
X12713468Y-16191531D01*
X12713468Y-16191531D02*
X12703944Y-16162960D01*
X12703944Y-16162960D02*
X12694420Y-16115341D01*
X12694420Y-16115341D02*
X12694420Y-16077246D01*
X12694420Y-16077246D02*
X12703944Y-16029627D01*
X12703944Y-16029627D02*
X12713468Y-16001055D01*
X12713468Y-16001055D02*
X12722991Y-15982008D01*
X12722991Y-15982008D02*
X12742039Y-15953436D01*
X12742039Y-15953436D02*
X12751563Y-15943912D01*
X12913468Y-16039150D02*
X12913468Y-16172484D01*
X12865848Y-15962960D02*
X12818229Y-16105817D01*
X12818229Y-16105817D02*
X12942039Y-16105817D01*
X13103944Y-16039150D02*
X13103944Y-16172484D01*
X13056325Y-15962960D02*
X13008706Y-16105817D01*
X13008706Y-16105817D02*
X13132515Y-16105817D01*
X13361087Y-16172484D02*
X13361087Y-15972484D01*
X13446801Y-16172484D02*
X13446801Y-16067722D01*
X13446801Y-16067722D02*
X13437277Y-16048674D01*
X13437277Y-16048674D02*
X13418230Y-16039150D01*
X13418230Y-16039150D02*
X13389658Y-16039150D01*
X13389658Y-16039150D02*
X13370610Y-16048674D01*
X13370610Y-16048674D02*
X13361087Y-16058198D01*
X13570610Y-16172484D02*
X13551563Y-16162960D01*
X13551563Y-16162960D02*
X13542039Y-16153436D01*
X13542039Y-16153436D02*
X13532515Y-16134388D01*
X13532515Y-16134388D02*
X13532515Y-16077246D01*
X13532515Y-16077246D02*
X13542039Y-16058198D01*
X13542039Y-16058198D02*
X13551563Y-16048674D01*
X13551563Y-16048674D02*
X13570610Y-16039150D01*
X13570610Y-16039150D02*
X13599182Y-16039150D01*
X13599182Y-16039150D02*
X13618230Y-16048674D01*
X13618230Y-16048674D02*
X13627753Y-16058198D01*
X13627753Y-16058198D02*
X13637277Y-16077246D01*
X13637277Y-16077246D02*
X13637277Y-16134388D01*
X13637277Y-16134388D02*
X13627753Y-16153436D01*
X13627753Y-16153436D02*
X13618230Y-16162960D01*
X13618230Y-16162960D02*
X13599182Y-16172484D01*
X13599182Y-16172484D02*
X13570610Y-16172484D01*
X13751563Y-16172484D02*
X13732515Y-16162960D01*
X13732515Y-16162960D02*
X13722991Y-16143912D01*
X13722991Y-16143912D02*
X13722991Y-15972484D01*
X13903944Y-16162960D02*
X13884896Y-16172484D01*
X13884896Y-16172484D02*
X13846801Y-16172484D01*
X13846801Y-16172484D02*
X13827753Y-16162960D01*
X13827753Y-16162960D02*
X13818230Y-16143912D01*
X13818230Y-16143912D02*
X13818230Y-16067722D01*
X13818230Y-16067722D02*
X13827753Y-16048674D01*
X13827753Y-16048674D02*
X13846801Y-16039150D01*
X13846801Y-16039150D02*
X13884896Y-16039150D01*
X13884896Y-16039150D02*
X13903944Y-16048674D01*
X13903944Y-16048674D02*
X13913468Y-16067722D01*
X13913468Y-16067722D02*
X13913468Y-16086769D01*
X13913468Y-16086769D02*
X13818230Y-16105817D01*
X13989658Y-16162960D02*
X14008706Y-16172484D01*
X14008706Y-16172484D02*
X14046801Y-16172484D01*
X14046801Y-16172484D02*
X14065849Y-16162960D01*
X14065849Y-16162960D02*
X14075372Y-16143912D01*
X14075372Y-16143912D02*
X14075372Y-16134388D01*
X14075372Y-16134388D02*
X14065849Y-16115341D01*
X14065849Y-16115341D02*
X14046801Y-16105817D01*
X14046801Y-16105817D02*
X14018230Y-16105817D01*
X14018230Y-16105817D02*
X13999182Y-16096293D01*
X13999182Y-16096293D02*
X13989658Y-16077246D01*
X13989658Y-16077246D02*
X13989658Y-16067722D01*
X13989658Y-16067722D02*
X13999182Y-16048674D01*
X13999182Y-16048674D02*
X14018230Y-16039150D01*
X14018230Y-16039150D02*
X14046801Y-16039150D01*
X14046801Y-16039150D02*
X14065849Y-16048674D01*
X14142039Y-16248674D02*
X14151563Y-16239150D01*
X14151563Y-16239150D02*
X14170611Y-16210579D01*
X14170611Y-16210579D02*
X14180134Y-16191531D01*
X14180134Y-16191531D02*
X14189658Y-16162960D01*
X14189658Y-16162960D02*
X14199182Y-16115341D01*
X14199182Y-16115341D02*
X14199182Y-16077246D01*
X14199182Y-16077246D02*
X14189658Y-16029627D01*
X14189658Y-16029627D02*
X14180134Y-16001055D01*
X14180134Y-16001055D02*
X14170611Y-15982008D01*
X14170611Y-15982008D02*
X14151563Y-15953436D01*
X14151563Y-15953436D02*
X14142039Y-15943912D01*
D10*
X9176500Y-16345000D02*
G75*
G03*
X9176500Y-16345000I-25000J0D01*
G01*
D11*
X9475372Y-16236484D02*
X9494420Y-16236484D01*
X9494420Y-16236484D02*
X9513467Y-16246008D01*
X9513467Y-16246008D02*
X9522991Y-16255531D01*
X9522991Y-16255531D02*
X9532515Y-16274579D01*
X9532515Y-16274579D02*
X9542039Y-16312674D01*
X9542039Y-16312674D02*
X9542039Y-16360293D01*
X9542039Y-16360293D02*
X9532515Y-16398388D01*
X9532515Y-16398388D02*
X9522991Y-16417436D01*
X9522991Y-16417436D02*
X9513467Y-16426960D01*
X9513467Y-16426960D02*
X9494420Y-16436484D01*
X9494420Y-16436484D02*
X9475372Y-16436484D01*
X9475372Y-16436484D02*
X9456324Y-16426960D01*
X9456324Y-16426960D02*
X9446801Y-16417436D01*
X9446801Y-16417436D02*
X9437277Y-16398388D01*
X9437277Y-16398388D02*
X9427753Y-16360293D01*
X9427753Y-16360293D02*
X9427753Y-16312674D01*
X9427753Y-16312674D02*
X9437277Y-16274579D01*
X9437277Y-16274579D02*
X9446801Y-16255531D01*
X9446801Y-16255531D02*
X9456324Y-16246008D01*
X9456324Y-16246008D02*
X9475372Y-16236484D01*
X9627753Y-16417436D02*
X9637277Y-16426960D01*
X9637277Y-16426960D02*
X9627753Y-16436484D01*
X9627753Y-16436484D02*
X9618229Y-16426960D01*
X9618229Y-16426960D02*
X9627753Y-16417436D01*
X9627753Y-16417436D02*
X9627753Y-16436484D01*
X9818229Y-16236484D02*
X9722991Y-16236484D01*
X9722991Y-16236484D02*
X9713467Y-16331722D01*
X9713467Y-16331722D02*
X9722991Y-16322198D01*
X9722991Y-16322198D02*
X9742039Y-16312674D01*
X9742039Y-16312674D02*
X9789658Y-16312674D01*
X9789658Y-16312674D02*
X9808705Y-16322198D01*
X9808705Y-16322198D02*
X9818229Y-16331722D01*
X9818229Y-16331722D02*
X9827753Y-16350769D01*
X9827753Y-16350769D02*
X9827753Y-16398388D01*
X9827753Y-16398388D02*
X9818229Y-16417436D01*
X9818229Y-16417436D02*
X9808705Y-16426960D01*
X9808705Y-16426960D02*
X9789658Y-16436484D01*
X9789658Y-16436484D02*
X9742039Y-16436484D01*
X9742039Y-16436484D02*
X9722991Y-16426960D01*
X9722991Y-16426960D02*
X9713467Y-16417436D01*
X9951563Y-16236484D02*
X9970610Y-16236484D01*
X9970610Y-16236484D02*
X9989658Y-16246008D01*
X9989658Y-16246008D02*
X9999182Y-16255531D01*
X9999182Y-16255531D02*
X10008705Y-16274579D01*
X10008705Y-16274579D02*
X10018229Y-16312674D01*
X10018229Y-16312674D02*
X10018229Y-16360293D01*
X10018229Y-16360293D02*
X10008705Y-16398388D01*
X10008705Y-16398388D02*
X9999182Y-16417436D01*
X9999182Y-16417436D02*
X9989658Y-16426960D01*
X9989658Y-16426960D02*
X9970610Y-16436484D01*
X9970610Y-16436484D02*
X9951563Y-16436484D01*
X9951563Y-16436484D02*
X9932515Y-16426960D01*
X9932515Y-16426960D02*
X9922991Y-16417436D01*
X9922991Y-16417436D02*
X9913467Y-16398388D01*
X9913467Y-16398388D02*
X9903944Y-16360293D01*
X9903944Y-16360293D02*
X9903944Y-16312674D01*
X9903944Y-16312674D02*
X9913467Y-16274579D01*
X9913467Y-16274579D02*
X9922991Y-16255531D01*
X9922991Y-16255531D02*
X9932515Y-16246008D01*
X9932515Y-16246008D02*
X9951563Y-16236484D01*
X10142039Y-16236484D02*
X10161086Y-16236484D01*
X10161086Y-16236484D02*
X10180134Y-16246008D01*
X10180134Y-16246008D02*
X10189658Y-16255531D01*
X10189658Y-16255531D02*
X10199182Y-16274579D01*
X10199182Y-16274579D02*
X10208705Y-16312674D01*
X10208705Y-16312674D02*
X10208705Y-16360293D01*
X10208705Y-16360293D02*
X10199182Y-16398388D01*
X10199182Y-16398388D02*
X10189658Y-16417436D01*
X10189658Y-16417436D02*
X10180134Y-16426960D01*
X10180134Y-16426960D02*
X10161086Y-16436484D01*
X10161086Y-16436484D02*
X10142039Y-16436484D01*
X10142039Y-16436484D02*
X10122991Y-16426960D01*
X10122991Y-16426960D02*
X10113467Y-16417436D01*
X10113467Y-16417436D02*
X10103944Y-16398388D01*
X10103944Y-16398388D02*
X10094420Y-16360293D01*
X10094420Y-16360293D02*
X10094420Y-16312674D01*
X10094420Y-16312674D02*
X10103944Y-16274579D01*
X10103944Y-16274579D02*
X10113467Y-16255531D01*
X10113467Y-16255531D02*
X10122991Y-16246008D01*
X10122991Y-16246008D02*
X10142039Y-16236484D01*
X10294420Y-16436484D02*
X10294420Y-16303150D01*
X10294420Y-16322198D02*
X10303944Y-16312674D01*
X10303944Y-16312674D02*
X10322991Y-16303150D01*
X10322991Y-16303150D02*
X10351563Y-16303150D01*
X10351563Y-16303150D02*
X10370610Y-16312674D01*
X10370610Y-16312674D02*
X10380134Y-16331722D01*
X10380134Y-16331722D02*
X10380134Y-16436484D01*
X10380134Y-16331722D02*
X10389658Y-16312674D01*
X10389658Y-16312674D02*
X10408705Y-16303150D01*
X10408705Y-16303150D02*
X10437277Y-16303150D01*
X10437277Y-16303150D02*
X10456325Y-16312674D01*
X10456325Y-16312674D02*
X10465848Y-16331722D01*
X10465848Y-16331722D02*
X10465848Y-16436484D01*
X10561086Y-16436484D02*
X10561086Y-16303150D01*
X10561086Y-16322198D02*
X10570610Y-16312674D01*
X10570610Y-16312674D02*
X10589658Y-16303150D01*
X10589658Y-16303150D02*
X10618229Y-16303150D01*
X10618229Y-16303150D02*
X10637277Y-16312674D01*
X10637277Y-16312674D02*
X10646801Y-16331722D01*
X10646801Y-16331722D02*
X10646801Y-16436484D01*
X10646801Y-16331722D02*
X10656325Y-16312674D01*
X10656325Y-16312674D02*
X10675372Y-16303150D01*
X10675372Y-16303150D02*
X10703944Y-16303150D01*
X10703944Y-16303150D02*
X10722991Y-16312674D01*
X10722991Y-16312674D02*
X10732515Y-16331722D01*
X10732515Y-16331722D02*
X10732515Y-16436484D01*
X11122991Y-16226960D02*
X10951563Y-16484103D01*
X11380134Y-16236484D02*
X11399182Y-16236484D01*
X11399182Y-16236484D02*
X11418229Y-16246008D01*
X11418229Y-16246008D02*
X11427753Y-16255531D01*
X11427753Y-16255531D02*
X11437277Y-16274579D01*
X11437277Y-16274579D02*
X11446801Y-16312674D01*
X11446801Y-16312674D02*
X11446801Y-16360293D01*
X11446801Y-16360293D02*
X11437277Y-16398388D01*
X11437277Y-16398388D02*
X11427753Y-16417436D01*
X11427753Y-16417436D02*
X11418229Y-16426960D01*
X11418229Y-16426960D02*
X11399182Y-16436484D01*
X11399182Y-16436484D02*
X11380134Y-16436484D01*
X11380134Y-16436484D02*
X11361086Y-16426960D01*
X11361086Y-16426960D02*
X11351563Y-16417436D01*
X11351563Y-16417436D02*
X11342039Y-16398388D01*
X11342039Y-16398388D02*
X11332515Y-16360293D01*
X11332515Y-16360293D02*
X11332515Y-16312674D01*
X11332515Y-16312674D02*
X11342039Y-16274579D01*
X11342039Y-16274579D02*
X11351563Y-16255531D01*
X11351563Y-16255531D02*
X11361086Y-16246008D01*
X11361086Y-16246008D02*
X11380134Y-16236484D01*
X11532515Y-16417436D02*
X11542039Y-16426960D01*
X11542039Y-16426960D02*
X11532515Y-16436484D01*
X11532515Y-16436484D02*
X11522991Y-16426960D01*
X11522991Y-16426960D02*
X11532515Y-16417436D01*
X11532515Y-16417436D02*
X11532515Y-16436484D01*
X11665848Y-16236484D02*
X11684896Y-16236484D01*
X11684896Y-16236484D02*
X11703944Y-16246008D01*
X11703944Y-16246008D02*
X11713467Y-16255531D01*
X11713467Y-16255531D02*
X11722991Y-16274579D01*
X11722991Y-16274579D02*
X11732515Y-16312674D01*
X11732515Y-16312674D02*
X11732515Y-16360293D01*
X11732515Y-16360293D02*
X11722991Y-16398388D01*
X11722991Y-16398388D02*
X11713467Y-16417436D01*
X11713467Y-16417436D02*
X11703944Y-16426960D01*
X11703944Y-16426960D02*
X11684896Y-16436484D01*
X11684896Y-16436484D02*
X11665848Y-16436484D01*
X11665848Y-16436484D02*
X11646801Y-16426960D01*
X11646801Y-16426960D02*
X11637277Y-16417436D01*
X11637277Y-16417436D02*
X11627753Y-16398388D01*
X11627753Y-16398388D02*
X11618229Y-16360293D01*
X11618229Y-16360293D02*
X11618229Y-16312674D01*
X11618229Y-16312674D02*
X11627753Y-16274579D01*
X11627753Y-16274579D02*
X11637277Y-16255531D01*
X11637277Y-16255531D02*
X11646801Y-16246008D01*
X11646801Y-16246008D02*
X11665848Y-16236484D01*
X11922991Y-16436484D02*
X11808706Y-16436484D01*
X11865848Y-16436484D02*
X11865848Y-16236484D01*
X11865848Y-16236484D02*
X11846801Y-16265055D01*
X11846801Y-16265055D02*
X11827753Y-16284103D01*
X11827753Y-16284103D02*
X11808706Y-16293627D01*
X12018229Y-16436484D02*
X12056325Y-16436484D01*
X12056325Y-16436484D02*
X12075372Y-16426960D01*
X12075372Y-16426960D02*
X12084896Y-16417436D01*
X12084896Y-16417436D02*
X12103944Y-16388865D01*
X12103944Y-16388865D02*
X12113467Y-16350769D01*
X12113467Y-16350769D02*
X12113467Y-16274579D01*
X12113467Y-16274579D02*
X12103944Y-16255531D01*
X12103944Y-16255531D02*
X12094420Y-16246008D01*
X12094420Y-16246008D02*
X12075372Y-16236484D01*
X12075372Y-16236484D02*
X12037277Y-16236484D01*
X12037277Y-16236484D02*
X12018229Y-16246008D01*
X12018229Y-16246008D02*
X12008706Y-16255531D01*
X12008706Y-16255531D02*
X11999182Y-16274579D01*
X11999182Y-16274579D02*
X11999182Y-16322198D01*
X11999182Y-16322198D02*
X12008706Y-16341246D01*
X12008706Y-16341246D02*
X12018229Y-16350769D01*
X12018229Y-16350769D02*
X12037277Y-16360293D01*
X12037277Y-16360293D02*
X12075372Y-16360293D01*
X12075372Y-16360293D02*
X12094420Y-16350769D01*
X12094420Y-16350769D02*
X12103944Y-16341246D01*
X12103944Y-16341246D02*
X12113467Y-16322198D01*
X12180134Y-16236484D02*
X12313467Y-16236484D01*
X12313467Y-16236484D02*
X12227753Y-16436484D01*
X12380134Y-16236484D02*
X12380134Y-16274579D01*
X12456325Y-16236484D02*
X12456325Y-16274579D01*
X12751563Y-16512674D02*
X12742039Y-16503150D01*
X12742039Y-16503150D02*
X12722991Y-16474579D01*
X12722991Y-16474579D02*
X12713468Y-16455531D01*
X12713468Y-16455531D02*
X12703944Y-16426960D01*
X12703944Y-16426960D02*
X12694420Y-16379341D01*
X12694420Y-16379341D02*
X12694420Y-16341246D01*
X12694420Y-16341246D02*
X12703944Y-16293627D01*
X12703944Y-16293627D02*
X12713468Y-16265055D01*
X12713468Y-16265055D02*
X12722991Y-16246008D01*
X12722991Y-16246008D02*
X12742039Y-16217436D01*
X12742039Y-16217436D02*
X12751563Y-16207912D01*
X12913468Y-16236484D02*
X12875372Y-16236484D01*
X12875372Y-16236484D02*
X12856325Y-16246008D01*
X12856325Y-16246008D02*
X12846801Y-16255531D01*
X12846801Y-16255531D02*
X12827753Y-16284103D01*
X12827753Y-16284103D02*
X12818229Y-16322198D01*
X12818229Y-16322198D02*
X12818229Y-16398388D01*
X12818229Y-16398388D02*
X12827753Y-16417436D01*
X12827753Y-16417436D02*
X12837277Y-16426960D01*
X12837277Y-16426960D02*
X12856325Y-16436484D01*
X12856325Y-16436484D02*
X12894420Y-16436484D01*
X12894420Y-16436484D02*
X12913468Y-16426960D01*
X12913468Y-16426960D02*
X12922991Y-16417436D01*
X12922991Y-16417436D02*
X12932515Y-16398388D01*
X12932515Y-16398388D02*
X12932515Y-16350769D01*
X12932515Y-16350769D02*
X12922991Y-16331722D01*
X12922991Y-16331722D02*
X12913468Y-16322198D01*
X12913468Y-16322198D02*
X12894420Y-16312674D01*
X12894420Y-16312674D02*
X12856325Y-16312674D01*
X12856325Y-16312674D02*
X12837277Y-16322198D01*
X12837277Y-16322198D02*
X12827753Y-16331722D01*
X12827753Y-16331722D02*
X12818229Y-16350769D01*
X13170610Y-16436484D02*
X13170610Y-16236484D01*
X13256325Y-16436484D02*
X13256325Y-16331722D01*
X13256325Y-16331722D02*
X13246801Y-16312674D01*
X13246801Y-16312674D02*
X13227753Y-16303150D01*
X13227753Y-16303150D02*
X13199182Y-16303150D01*
X13199182Y-16303150D02*
X13180134Y-16312674D01*
X13180134Y-16312674D02*
X13170610Y-16322198D01*
X13380134Y-16436484D02*
X13361087Y-16426960D01*
X13361087Y-16426960D02*
X13351563Y-16417436D01*
X13351563Y-16417436D02*
X13342039Y-16398388D01*
X13342039Y-16398388D02*
X13342039Y-16341246D01*
X13342039Y-16341246D02*
X13351563Y-16322198D01*
X13351563Y-16322198D02*
X13361087Y-16312674D01*
X13361087Y-16312674D02*
X13380134Y-16303150D01*
X13380134Y-16303150D02*
X13408706Y-16303150D01*
X13408706Y-16303150D02*
X13427753Y-16312674D01*
X13427753Y-16312674D02*
X13437277Y-16322198D01*
X13437277Y-16322198D02*
X13446801Y-16341246D01*
X13446801Y-16341246D02*
X13446801Y-16398388D01*
X13446801Y-16398388D02*
X13437277Y-16417436D01*
X13437277Y-16417436D02*
X13427753Y-16426960D01*
X13427753Y-16426960D02*
X13408706Y-16436484D01*
X13408706Y-16436484D02*
X13380134Y-16436484D01*
X13561087Y-16436484D02*
X13542039Y-16426960D01*
X13542039Y-16426960D02*
X13532515Y-16407912D01*
X13532515Y-16407912D02*
X13532515Y-16236484D01*
X13713468Y-16426960D02*
X13694420Y-16436484D01*
X13694420Y-16436484D02*
X13656325Y-16436484D01*
X13656325Y-16436484D02*
X13637277Y-16426960D01*
X13637277Y-16426960D02*
X13627753Y-16407912D01*
X13627753Y-16407912D02*
X13627753Y-16331722D01*
X13627753Y-16331722D02*
X13637277Y-16312674D01*
X13637277Y-16312674D02*
X13656325Y-16303150D01*
X13656325Y-16303150D02*
X13694420Y-16303150D01*
X13694420Y-16303150D02*
X13713468Y-16312674D01*
X13713468Y-16312674D02*
X13722991Y-16331722D01*
X13722991Y-16331722D02*
X13722991Y-16350769D01*
X13722991Y-16350769D02*
X13627753Y-16369817D01*
X13799182Y-16426960D02*
X13818230Y-16436484D01*
X13818230Y-16436484D02*
X13856325Y-16436484D01*
X13856325Y-16436484D02*
X13875372Y-16426960D01*
X13875372Y-16426960D02*
X13884896Y-16407912D01*
X13884896Y-16407912D02*
X13884896Y-16398388D01*
X13884896Y-16398388D02*
X13875372Y-16379341D01*
X13875372Y-16379341D02*
X13856325Y-16369817D01*
X13856325Y-16369817D02*
X13827753Y-16369817D01*
X13827753Y-16369817D02*
X13808706Y-16360293D01*
X13808706Y-16360293D02*
X13799182Y-16341246D01*
X13799182Y-16341246D02*
X13799182Y-16331722D01*
X13799182Y-16331722D02*
X13808706Y-16312674D01*
X13808706Y-16312674D02*
X13827753Y-16303150D01*
X13827753Y-16303150D02*
X13856325Y-16303150D01*
X13856325Y-16303150D02*
X13875372Y-16312674D01*
X13951563Y-16512674D02*
X13961087Y-16503150D01*
X13961087Y-16503150D02*
X13980134Y-16474579D01*
X13980134Y-16474579D02*
X13989658Y-16455531D01*
X13989658Y-16455531D02*
X13999182Y-16426960D01*
X13999182Y-16426960D02*
X14008706Y-16379341D01*
X14008706Y-16379341D02*
X14008706Y-16341246D01*
X14008706Y-16341246D02*
X13999182Y-16293627D01*
X13999182Y-16293627D02*
X13989658Y-16265055D01*
X13989658Y-16265055D02*
X13980134Y-16246008D01*
X13980134Y-16246008D02*
X13961087Y-16217436D01*
X13961087Y-16217436D02*
X13951563Y-16207912D01*
D10*
X9136500Y-16569000D02*
X9136500Y-16649000D01*
X9096500Y-16609000D02*
X9176500Y-16609000D01*
D11*
X9475372Y-16500484D02*
X9494420Y-16500484D01*
X9494420Y-16500484D02*
X9513467Y-16510008D01*
X9513467Y-16510008D02*
X9522991Y-16519531D01*
X9522991Y-16519531D02*
X9532515Y-16538579D01*
X9532515Y-16538579D02*
X9542039Y-16576674D01*
X9542039Y-16576674D02*
X9542039Y-16624293D01*
X9542039Y-16624293D02*
X9532515Y-16662388D01*
X9532515Y-16662388D02*
X9522991Y-16681436D01*
X9522991Y-16681436D02*
X9513467Y-16690960D01*
X9513467Y-16690960D02*
X9494420Y-16700484D01*
X9494420Y-16700484D02*
X9475372Y-16700484D01*
X9475372Y-16700484D02*
X9456324Y-16690960D01*
X9456324Y-16690960D02*
X9446801Y-16681436D01*
X9446801Y-16681436D02*
X9437277Y-16662388D01*
X9437277Y-16662388D02*
X9427753Y-16624293D01*
X9427753Y-16624293D02*
X9427753Y-16576674D01*
X9427753Y-16576674D02*
X9437277Y-16538579D01*
X9437277Y-16538579D02*
X9446801Y-16519531D01*
X9446801Y-16519531D02*
X9456324Y-16510008D01*
X9456324Y-16510008D02*
X9475372Y-16500484D01*
X9627753Y-16681436D02*
X9637277Y-16690960D01*
X9637277Y-16690960D02*
X9627753Y-16700484D01*
X9627753Y-16700484D02*
X9618229Y-16690960D01*
X9618229Y-16690960D02*
X9627753Y-16681436D01*
X9627753Y-16681436D02*
X9627753Y-16700484D01*
X9751563Y-16586198D02*
X9732515Y-16576674D01*
X9732515Y-16576674D02*
X9722991Y-16567150D01*
X9722991Y-16567150D02*
X9713467Y-16548103D01*
X9713467Y-16548103D02*
X9713467Y-16538579D01*
X9713467Y-16538579D02*
X9722991Y-16519531D01*
X9722991Y-16519531D02*
X9732515Y-16510008D01*
X9732515Y-16510008D02*
X9751563Y-16500484D01*
X9751563Y-16500484D02*
X9789658Y-16500484D01*
X9789658Y-16500484D02*
X9808705Y-16510008D01*
X9808705Y-16510008D02*
X9818229Y-16519531D01*
X9818229Y-16519531D02*
X9827753Y-16538579D01*
X9827753Y-16538579D02*
X9827753Y-16548103D01*
X9827753Y-16548103D02*
X9818229Y-16567150D01*
X9818229Y-16567150D02*
X9808705Y-16576674D01*
X9808705Y-16576674D02*
X9789658Y-16586198D01*
X9789658Y-16586198D02*
X9751563Y-16586198D01*
X9751563Y-16586198D02*
X9732515Y-16595722D01*
X9732515Y-16595722D02*
X9722991Y-16605246D01*
X9722991Y-16605246D02*
X9713467Y-16624293D01*
X9713467Y-16624293D02*
X9713467Y-16662388D01*
X9713467Y-16662388D02*
X9722991Y-16681436D01*
X9722991Y-16681436D02*
X9732515Y-16690960D01*
X9732515Y-16690960D02*
X9751563Y-16700484D01*
X9751563Y-16700484D02*
X9789658Y-16700484D01*
X9789658Y-16700484D02*
X9808705Y-16690960D01*
X9808705Y-16690960D02*
X9818229Y-16681436D01*
X9818229Y-16681436D02*
X9827753Y-16662388D01*
X9827753Y-16662388D02*
X9827753Y-16624293D01*
X9827753Y-16624293D02*
X9818229Y-16605246D01*
X9818229Y-16605246D02*
X9808705Y-16595722D01*
X9808705Y-16595722D02*
X9789658Y-16586198D01*
X9951563Y-16500484D02*
X9970610Y-16500484D01*
X9970610Y-16500484D02*
X9989658Y-16510008D01*
X9989658Y-16510008D02*
X9999182Y-16519531D01*
X9999182Y-16519531D02*
X10008705Y-16538579D01*
X10008705Y-16538579D02*
X10018229Y-16576674D01*
X10018229Y-16576674D02*
X10018229Y-16624293D01*
X10018229Y-16624293D02*
X10008705Y-16662388D01*
X10008705Y-16662388D02*
X9999182Y-16681436D01*
X9999182Y-16681436D02*
X9989658Y-16690960D01*
X9989658Y-16690960D02*
X9970610Y-16700484D01*
X9970610Y-16700484D02*
X9951563Y-16700484D01*
X9951563Y-16700484D02*
X9932515Y-16690960D01*
X9932515Y-16690960D02*
X9922991Y-16681436D01*
X9922991Y-16681436D02*
X9913467Y-16662388D01*
X9913467Y-16662388D02*
X9903944Y-16624293D01*
X9903944Y-16624293D02*
X9903944Y-16576674D01*
X9903944Y-16576674D02*
X9913467Y-16538579D01*
X9913467Y-16538579D02*
X9922991Y-16519531D01*
X9922991Y-16519531D02*
X9932515Y-16510008D01*
X9932515Y-16510008D02*
X9951563Y-16500484D01*
X10142039Y-16500484D02*
X10161086Y-16500484D01*
X10161086Y-16500484D02*
X10180134Y-16510008D01*
X10180134Y-16510008D02*
X10189658Y-16519531D01*
X10189658Y-16519531D02*
X10199182Y-16538579D01*
X10199182Y-16538579D02*
X10208705Y-16576674D01*
X10208705Y-16576674D02*
X10208705Y-16624293D01*
X10208705Y-16624293D02*
X10199182Y-16662388D01*
X10199182Y-16662388D02*
X10189658Y-16681436D01*
X10189658Y-16681436D02*
X10180134Y-16690960D01*
X10180134Y-16690960D02*
X10161086Y-16700484D01*
X10161086Y-16700484D02*
X10142039Y-16700484D01*
X10142039Y-16700484D02*
X10122991Y-16690960D01*
X10122991Y-16690960D02*
X10113467Y-16681436D01*
X10113467Y-16681436D02*
X10103944Y-16662388D01*
X10103944Y-16662388D02*
X10094420Y-16624293D01*
X10094420Y-16624293D02*
X10094420Y-16576674D01*
X10094420Y-16576674D02*
X10103944Y-16538579D01*
X10103944Y-16538579D02*
X10113467Y-16519531D01*
X10113467Y-16519531D02*
X10122991Y-16510008D01*
X10122991Y-16510008D02*
X10142039Y-16500484D01*
X10294420Y-16700484D02*
X10294420Y-16567150D01*
X10294420Y-16586198D02*
X10303944Y-16576674D01*
X10303944Y-16576674D02*
X10322991Y-16567150D01*
X10322991Y-16567150D02*
X10351563Y-16567150D01*
X10351563Y-16567150D02*
X10370610Y-16576674D01*
X10370610Y-16576674D02*
X10380134Y-16595722D01*
X10380134Y-16595722D02*
X10380134Y-16700484D01*
X10380134Y-16595722D02*
X10389658Y-16576674D01*
X10389658Y-16576674D02*
X10408705Y-16567150D01*
X10408705Y-16567150D02*
X10437277Y-16567150D01*
X10437277Y-16567150D02*
X10456325Y-16576674D01*
X10456325Y-16576674D02*
X10465848Y-16595722D01*
X10465848Y-16595722D02*
X10465848Y-16700484D01*
X10561086Y-16700484D02*
X10561086Y-16567150D01*
X10561086Y-16586198D02*
X10570610Y-16576674D01*
X10570610Y-16576674D02*
X10589658Y-16567150D01*
X10589658Y-16567150D02*
X10618229Y-16567150D01*
X10618229Y-16567150D02*
X10637277Y-16576674D01*
X10637277Y-16576674D02*
X10646801Y-16595722D01*
X10646801Y-16595722D02*
X10646801Y-16700484D01*
X10646801Y-16595722D02*
X10656325Y-16576674D01*
X10656325Y-16576674D02*
X10675372Y-16567150D01*
X10675372Y-16567150D02*
X10703944Y-16567150D01*
X10703944Y-16567150D02*
X10722991Y-16576674D01*
X10722991Y-16576674D02*
X10732515Y-16595722D01*
X10732515Y-16595722D02*
X10732515Y-16700484D01*
X11122991Y-16490960D02*
X10951563Y-16748103D01*
X11380134Y-16500484D02*
X11399182Y-16500484D01*
X11399182Y-16500484D02*
X11418229Y-16510008D01*
X11418229Y-16510008D02*
X11427753Y-16519531D01*
X11427753Y-16519531D02*
X11437277Y-16538579D01*
X11437277Y-16538579D02*
X11446801Y-16576674D01*
X11446801Y-16576674D02*
X11446801Y-16624293D01*
X11446801Y-16624293D02*
X11437277Y-16662388D01*
X11437277Y-16662388D02*
X11427753Y-16681436D01*
X11427753Y-16681436D02*
X11418229Y-16690960D01*
X11418229Y-16690960D02*
X11399182Y-16700484D01*
X11399182Y-16700484D02*
X11380134Y-16700484D01*
X11380134Y-16700484D02*
X11361086Y-16690960D01*
X11361086Y-16690960D02*
X11351563Y-16681436D01*
X11351563Y-16681436D02*
X11342039Y-16662388D01*
X11342039Y-16662388D02*
X11332515Y-16624293D01*
X11332515Y-16624293D02*
X11332515Y-16576674D01*
X11332515Y-16576674D02*
X11342039Y-16538579D01*
X11342039Y-16538579D02*
X11351563Y-16519531D01*
X11351563Y-16519531D02*
X11361086Y-16510008D01*
X11361086Y-16510008D02*
X11380134Y-16500484D01*
X11532515Y-16681436D02*
X11542039Y-16690960D01*
X11542039Y-16690960D02*
X11532515Y-16700484D01*
X11532515Y-16700484D02*
X11522991Y-16690960D01*
X11522991Y-16690960D02*
X11532515Y-16681436D01*
X11532515Y-16681436D02*
X11532515Y-16700484D01*
X11665848Y-16500484D02*
X11684896Y-16500484D01*
X11684896Y-16500484D02*
X11703944Y-16510008D01*
X11703944Y-16510008D02*
X11713467Y-16519531D01*
X11713467Y-16519531D02*
X11722991Y-16538579D01*
X11722991Y-16538579D02*
X11732515Y-16576674D01*
X11732515Y-16576674D02*
X11732515Y-16624293D01*
X11732515Y-16624293D02*
X11722991Y-16662388D01*
X11722991Y-16662388D02*
X11713467Y-16681436D01*
X11713467Y-16681436D02*
X11703944Y-16690960D01*
X11703944Y-16690960D02*
X11684896Y-16700484D01*
X11684896Y-16700484D02*
X11665848Y-16700484D01*
X11665848Y-16700484D02*
X11646801Y-16690960D01*
X11646801Y-16690960D02*
X11637277Y-16681436D01*
X11637277Y-16681436D02*
X11627753Y-16662388D01*
X11627753Y-16662388D02*
X11618229Y-16624293D01*
X11618229Y-16624293D02*
X11618229Y-16576674D01*
X11618229Y-16576674D02*
X11627753Y-16538579D01*
X11627753Y-16538579D02*
X11637277Y-16519531D01*
X11637277Y-16519531D02*
X11646801Y-16510008D01*
X11646801Y-16510008D02*
X11665848Y-16500484D01*
X11799182Y-16500484D02*
X11922991Y-16500484D01*
X11922991Y-16500484D02*
X11856325Y-16576674D01*
X11856325Y-16576674D02*
X11884896Y-16576674D01*
X11884896Y-16576674D02*
X11903944Y-16586198D01*
X11903944Y-16586198D02*
X11913467Y-16595722D01*
X11913467Y-16595722D02*
X11922991Y-16614769D01*
X11922991Y-16614769D02*
X11922991Y-16662388D01*
X11922991Y-16662388D02*
X11913467Y-16681436D01*
X11913467Y-16681436D02*
X11903944Y-16690960D01*
X11903944Y-16690960D02*
X11884896Y-16700484D01*
X11884896Y-16700484D02*
X11827753Y-16700484D01*
X11827753Y-16700484D02*
X11808706Y-16690960D01*
X11808706Y-16690960D02*
X11799182Y-16681436D01*
X12113467Y-16700484D02*
X11999182Y-16700484D01*
X12056325Y-16700484D02*
X12056325Y-16500484D01*
X12056325Y-16500484D02*
X12037277Y-16529055D01*
X12037277Y-16529055D02*
X12018229Y-16548103D01*
X12018229Y-16548103D02*
X11999182Y-16557627D01*
X12294420Y-16500484D02*
X12199182Y-16500484D01*
X12199182Y-16500484D02*
X12189658Y-16595722D01*
X12189658Y-16595722D02*
X12199182Y-16586198D01*
X12199182Y-16586198D02*
X12218229Y-16576674D01*
X12218229Y-16576674D02*
X12265848Y-16576674D01*
X12265848Y-16576674D02*
X12284896Y-16586198D01*
X12284896Y-16586198D02*
X12294420Y-16595722D01*
X12294420Y-16595722D02*
X12303944Y-16614769D01*
X12303944Y-16614769D02*
X12303944Y-16662388D01*
X12303944Y-16662388D02*
X12294420Y-16681436D01*
X12294420Y-16681436D02*
X12284896Y-16690960D01*
X12284896Y-16690960D02*
X12265848Y-16700484D01*
X12265848Y-16700484D02*
X12218229Y-16700484D01*
X12218229Y-16700484D02*
X12199182Y-16690960D01*
X12199182Y-16690960D02*
X12189658Y-16681436D01*
X12380134Y-16500484D02*
X12380134Y-16538579D01*
X12456325Y-16500484D02*
X12456325Y-16538579D01*
X12751563Y-16776674D02*
X12742039Y-16767150D01*
X12742039Y-16767150D02*
X12722991Y-16738579D01*
X12722991Y-16738579D02*
X12713468Y-16719531D01*
X12713468Y-16719531D02*
X12703944Y-16690960D01*
X12703944Y-16690960D02*
X12694420Y-16643341D01*
X12694420Y-16643341D02*
X12694420Y-16605246D01*
X12694420Y-16605246D02*
X12703944Y-16557627D01*
X12703944Y-16557627D02*
X12713468Y-16529055D01*
X12713468Y-16529055D02*
X12722991Y-16510008D01*
X12722991Y-16510008D02*
X12742039Y-16481436D01*
X12742039Y-16481436D02*
X12751563Y-16471912D01*
X12808706Y-16500484D02*
X12932515Y-16500484D01*
X12932515Y-16500484D02*
X12865848Y-16576674D01*
X12865848Y-16576674D02*
X12894420Y-16576674D01*
X12894420Y-16576674D02*
X12913468Y-16586198D01*
X12913468Y-16586198D02*
X12922991Y-16595722D01*
X12922991Y-16595722D02*
X12932515Y-16614769D01*
X12932515Y-16614769D02*
X12932515Y-16662388D01*
X12932515Y-16662388D02*
X12922991Y-16681436D01*
X12922991Y-16681436D02*
X12913468Y-16690960D01*
X12913468Y-16690960D02*
X12894420Y-16700484D01*
X12894420Y-16700484D02*
X12837277Y-16700484D01*
X12837277Y-16700484D02*
X12818229Y-16690960D01*
X12818229Y-16690960D02*
X12808706Y-16681436D01*
X13103944Y-16567150D02*
X13103944Y-16700484D01*
X13056325Y-16490960D02*
X13008706Y-16633817D01*
X13008706Y-16633817D02*
X13132515Y-16633817D01*
X13361087Y-16700484D02*
X13361087Y-16500484D01*
X13446801Y-16700484D02*
X13446801Y-16595722D01*
X13446801Y-16595722D02*
X13437277Y-16576674D01*
X13437277Y-16576674D02*
X13418230Y-16567150D01*
X13418230Y-16567150D02*
X13389658Y-16567150D01*
X13389658Y-16567150D02*
X13370610Y-16576674D01*
X13370610Y-16576674D02*
X13361087Y-16586198D01*
X13570610Y-16700484D02*
X13551563Y-16690960D01*
X13551563Y-16690960D02*
X13542039Y-16681436D01*
X13542039Y-16681436D02*
X13532515Y-16662388D01*
X13532515Y-16662388D02*
X13532515Y-16605246D01*
X13532515Y-16605246D02*
X13542039Y-16586198D01*
X13542039Y-16586198D02*
X13551563Y-16576674D01*
X13551563Y-16576674D02*
X13570610Y-16567150D01*
X13570610Y-16567150D02*
X13599182Y-16567150D01*
X13599182Y-16567150D02*
X13618230Y-16576674D01*
X13618230Y-16576674D02*
X13627753Y-16586198D01*
X13627753Y-16586198D02*
X13637277Y-16605246D01*
X13637277Y-16605246D02*
X13637277Y-16662388D01*
X13637277Y-16662388D02*
X13627753Y-16681436D01*
X13627753Y-16681436D02*
X13618230Y-16690960D01*
X13618230Y-16690960D02*
X13599182Y-16700484D01*
X13599182Y-16700484D02*
X13570610Y-16700484D01*
X13751563Y-16700484D02*
X13732515Y-16690960D01*
X13732515Y-16690960D02*
X13722991Y-16671912D01*
X13722991Y-16671912D02*
X13722991Y-16500484D01*
X13903944Y-16690960D02*
X13884896Y-16700484D01*
X13884896Y-16700484D02*
X13846801Y-16700484D01*
X13846801Y-16700484D02*
X13827753Y-16690960D01*
X13827753Y-16690960D02*
X13818230Y-16671912D01*
X13818230Y-16671912D02*
X13818230Y-16595722D01*
X13818230Y-16595722D02*
X13827753Y-16576674D01*
X13827753Y-16576674D02*
X13846801Y-16567150D01*
X13846801Y-16567150D02*
X13884896Y-16567150D01*
X13884896Y-16567150D02*
X13903944Y-16576674D01*
X13903944Y-16576674D02*
X13913468Y-16595722D01*
X13913468Y-16595722D02*
X13913468Y-16614769D01*
X13913468Y-16614769D02*
X13818230Y-16633817D01*
X13989658Y-16690960D02*
X14008706Y-16700484D01*
X14008706Y-16700484D02*
X14046801Y-16700484D01*
X14046801Y-16700484D02*
X14065849Y-16690960D01*
X14065849Y-16690960D02*
X14075372Y-16671912D01*
X14075372Y-16671912D02*
X14075372Y-16662388D01*
X14075372Y-16662388D02*
X14065849Y-16643341D01*
X14065849Y-16643341D02*
X14046801Y-16633817D01*
X14046801Y-16633817D02*
X14018230Y-16633817D01*
X14018230Y-16633817D02*
X13999182Y-16624293D01*
X13999182Y-16624293D02*
X13989658Y-16605246D01*
X13989658Y-16605246D02*
X13989658Y-16595722D01*
X13989658Y-16595722D02*
X13999182Y-16576674D01*
X13999182Y-16576674D02*
X14018230Y-16567150D01*
X14018230Y-16567150D02*
X14046801Y-16567150D01*
X14046801Y-16567150D02*
X14065849Y-16576674D01*
X14142039Y-16776674D02*
X14151563Y-16767150D01*
X14151563Y-16767150D02*
X14170611Y-16738579D01*
X14170611Y-16738579D02*
X14180134Y-16719531D01*
X14180134Y-16719531D02*
X14189658Y-16690960D01*
X14189658Y-16690960D02*
X14199182Y-16643341D01*
X14199182Y-16643341D02*
X14199182Y-16605246D01*
X14199182Y-16605246D02*
X14189658Y-16557627D01*
X14189658Y-16557627D02*
X14180134Y-16529055D01*
X14180134Y-16529055D02*
X14170611Y-16510008D01*
X14170611Y-16510008D02*
X14151563Y-16481436D01*
X14151563Y-16481436D02*
X14142039Y-16471912D01*
D10*
X9161856Y-16908356D02*
X9161856Y-16837644D01*
X9091144Y-16837644D01*
X9091144Y-16908356D01*
X9161856Y-16908356D01*
D11*
X9542039Y-16964484D02*
X9427753Y-16964484D01*
X9484896Y-16964484D02*
X9484896Y-16764484D01*
X9484896Y-16764484D02*
X9465848Y-16793055D01*
X9465848Y-16793055D02*
X9446801Y-16812103D01*
X9446801Y-16812103D02*
X9427753Y-16821627D01*
X9627753Y-16945436D02*
X9637277Y-16954960D01*
X9637277Y-16954960D02*
X9627753Y-16964484D01*
X9627753Y-16964484D02*
X9618229Y-16954960D01*
X9618229Y-16954960D02*
X9627753Y-16945436D01*
X9627753Y-16945436D02*
X9627753Y-16964484D01*
X9761086Y-16764484D02*
X9780134Y-16764484D01*
X9780134Y-16764484D02*
X9799182Y-16774008D01*
X9799182Y-16774008D02*
X9808705Y-16783531D01*
X9808705Y-16783531D02*
X9818229Y-16802579D01*
X9818229Y-16802579D02*
X9827753Y-16840674D01*
X9827753Y-16840674D02*
X9827753Y-16888293D01*
X9827753Y-16888293D02*
X9818229Y-16926389D01*
X9818229Y-16926389D02*
X9808705Y-16945436D01*
X9808705Y-16945436D02*
X9799182Y-16954960D01*
X9799182Y-16954960D02*
X9780134Y-16964484D01*
X9780134Y-16964484D02*
X9761086Y-16964484D01*
X9761086Y-16964484D02*
X9742039Y-16954960D01*
X9742039Y-16954960D02*
X9732515Y-16945436D01*
X9732515Y-16945436D02*
X9722991Y-16926389D01*
X9722991Y-16926389D02*
X9713467Y-16888293D01*
X9713467Y-16888293D02*
X9713467Y-16840674D01*
X9713467Y-16840674D02*
X9722991Y-16802579D01*
X9722991Y-16802579D02*
X9732515Y-16783531D01*
X9732515Y-16783531D02*
X9742039Y-16774008D01*
X9742039Y-16774008D02*
X9761086Y-16764484D01*
X9951563Y-16764484D02*
X9970610Y-16764484D01*
X9970610Y-16764484D02*
X9989658Y-16774008D01*
X9989658Y-16774008D02*
X9999182Y-16783531D01*
X9999182Y-16783531D02*
X10008705Y-16802579D01*
X10008705Y-16802579D02*
X10018229Y-16840674D01*
X10018229Y-16840674D02*
X10018229Y-16888293D01*
X10018229Y-16888293D02*
X10008705Y-16926389D01*
X10008705Y-16926389D02*
X9999182Y-16945436D01*
X9999182Y-16945436D02*
X9989658Y-16954960D01*
X9989658Y-16954960D02*
X9970610Y-16964484D01*
X9970610Y-16964484D02*
X9951563Y-16964484D01*
X9951563Y-16964484D02*
X9932515Y-16954960D01*
X9932515Y-16954960D02*
X9922991Y-16945436D01*
X9922991Y-16945436D02*
X9913467Y-16926389D01*
X9913467Y-16926389D02*
X9903944Y-16888293D01*
X9903944Y-16888293D02*
X9903944Y-16840674D01*
X9903944Y-16840674D02*
X9913467Y-16802579D01*
X9913467Y-16802579D02*
X9922991Y-16783531D01*
X9922991Y-16783531D02*
X9932515Y-16774008D01*
X9932515Y-16774008D02*
X9951563Y-16764484D01*
X10142039Y-16764484D02*
X10161086Y-16764484D01*
X10161086Y-16764484D02*
X10180134Y-16774008D01*
X10180134Y-16774008D02*
X10189658Y-16783531D01*
X10189658Y-16783531D02*
X10199182Y-16802579D01*
X10199182Y-16802579D02*
X10208705Y-16840674D01*
X10208705Y-16840674D02*
X10208705Y-16888293D01*
X10208705Y-16888293D02*
X10199182Y-16926389D01*
X10199182Y-16926389D02*
X10189658Y-16945436D01*
X10189658Y-16945436D02*
X10180134Y-16954960D01*
X10180134Y-16954960D02*
X10161086Y-16964484D01*
X10161086Y-16964484D02*
X10142039Y-16964484D01*
X10142039Y-16964484D02*
X10122991Y-16954960D01*
X10122991Y-16954960D02*
X10113467Y-16945436D01*
X10113467Y-16945436D02*
X10103944Y-16926389D01*
X10103944Y-16926389D02*
X10094420Y-16888293D01*
X10094420Y-16888293D02*
X10094420Y-16840674D01*
X10094420Y-16840674D02*
X10103944Y-16802579D01*
X10103944Y-16802579D02*
X10113467Y-16783531D01*
X10113467Y-16783531D02*
X10122991Y-16774008D01*
X10122991Y-16774008D02*
X10142039Y-16764484D01*
X10294420Y-16964484D02*
X10294420Y-16831150D01*
X10294420Y-16850198D02*
X10303944Y-16840674D01*
X10303944Y-16840674D02*
X10322991Y-16831150D01*
X10322991Y-16831150D02*
X10351563Y-16831150D01*
X10351563Y-16831150D02*
X10370610Y-16840674D01*
X10370610Y-16840674D02*
X10380134Y-16859722D01*
X10380134Y-16859722D02*
X10380134Y-16964484D01*
X10380134Y-16859722D02*
X10389658Y-16840674D01*
X10389658Y-16840674D02*
X10408705Y-16831150D01*
X10408705Y-16831150D02*
X10437277Y-16831150D01*
X10437277Y-16831150D02*
X10456325Y-16840674D01*
X10456325Y-16840674D02*
X10465848Y-16859722D01*
X10465848Y-16859722D02*
X10465848Y-16964484D01*
X10561086Y-16964484D02*
X10561086Y-16831150D01*
X10561086Y-16850198D02*
X10570610Y-16840674D01*
X10570610Y-16840674D02*
X10589658Y-16831150D01*
X10589658Y-16831150D02*
X10618229Y-16831150D01*
X10618229Y-16831150D02*
X10637277Y-16840674D01*
X10637277Y-16840674D02*
X10646801Y-16859722D01*
X10646801Y-16859722D02*
X10646801Y-16964484D01*
X10646801Y-16859722D02*
X10656325Y-16840674D01*
X10656325Y-16840674D02*
X10675372Y-16831150D01*
X10675372Y-16831150D02*
X10703944Y-16831150D01*
X10703944Y-16831150D02*
X10722991Y-16840674D01*
X10722991Y-16840674D02*
X10732515Y-16859722D01*
X10732515Y-16859722D02*
X10732515Y-16964484D01*
X11122991Y-16754960D02*
X10951563Y-17012103D01*
X11380134Y-16764484D02*
X11399182Y-16764484D01*
X11399182Y-16764484D02*
X11418229Y-16774008D01*
X11418229Y-16774008D02*
X11427753Y-16783531D01*
X11427753Y-16783531D02*
X11437277Y-16802579D01*
X11437277Y-16802579D02*
X11446801Y-16840674D01*
X11446801Y-16840674D02*
X11446801Y-16888293D01*
X11446801Y-16888293D02*
X11437277Y-16926389D01*
X11437277Y-16926389D02*
X11427753Y-16945436D01*
X11427753Y-16945436D02*
X11418229Y-16954960D01*
X11418229Y-16954960D02*
X11399182Y-16964484D01*
X11399182Y-16964484D02*
X11380134Y-16964484D01*
X11380134Y-16964484D02*
X11361086Y-16954960D01*
X11361086Y-16954960D02*
X11351563Y-16945436D01*
X11351563Y-16945436D02*
X11342039Y-16926389D01*
X11342039Y-16926389D02*
X11332515Y-16888293D01*
X11332515Y-16888293D02*
X11332515Y-16840674D01*
X11332515Y-16840674D02*
X11342039Y-16802579D01*
X11342039Y-16802579D02*
X11351563Y-16783531D01*
X11351563Y-16783531D02*
X11361086Y-16774008D01*
X11361086Y-16774008D02*
X11380134Y-16764484D01*
X11532515Y-16945436D02*
X11542039Y-16954960D01*
X11542039Y-16954960D02*
X11532515Y-16964484D01*
X11532515Y-16964484D02*
X11522991Y-16954960D01*
X11522991Y-16954960D02*
X11532515Y-16945436D01*
X11532515Y-16945436D02*
X11532515Y-16964484D01*
X11665848Y-16764484D02*
X11684896Y-16764484D01*
X11684896Y-16764484D02*
X11703944Y-16774008D01*
X11703944Y-16774008D02*
X11713467Y-16783531D01*
X11713467Y-16783531D02*
X11722991Y-16802579D01*
X11722991Y-16802579D02*
X11732515Y-16840674D01*
X11732515Y-16840674D02*
X11732515Y-16888293D01*
X11732515Y-16888293D02*
X11722991Y-16926389D01*
X11722991Y-16926389D02*
X11713467Y-16945436D01*
X11713467Y-16945436D02*
X11703944Y-16954960D01*
X11703944Y-16954960D02*
X11684896Y-16964484D01*
X11684896Y-16964484D02*
X11665848Y-16964484D01*
X11665848Y-16964484D02*
X11646801Y-16954960D01*
X11646801Y-16954960D02*
X11637277Y-16945436D01*
X11637277Y-16945436D02*
X11627753Y-16926389D01*
X11627753Y-16926389D02*
X11618229Y-16888293D01*
X11618229Y-16888293D02*
X11618229Y-16840674D01*
X11618229Y-16840674D02*
X11627753Y-16802579D01*
X11627753Y-16802579D02*
X11637277Y-16783531D01*
X11637277Y-16783531D02*
X11646801Y-16774008D01*
X11646801Y-16774008D02*
X11665848Y-16764484D01*
X11799182Y-16764484D02*
X11922991Y-16764484D01*
X11922991Y-16764484D02*
X11856325Y-16840674D01*
X11856325Y-16840674D02*
X11884896Y-16840674D01*
X11884896Y-16840674D02*
X11903944Y-16850198D01*
X11903944Y-16850198D02*
X11913467Y-16859722D01*
X11913467Y-16859722D02*
X11922991Y-16878770D01*
X11922991Y-16878770D02*
X11922991Y-16926389D01*
X11922991Y-16926389D02*
X11913467Y-16945436D01*
X11913467Y-16945436D02*
X11903944Y-16954960D01*
X11903944Y-16954960D02*
X11884896Y-16964484D01*
X11884896Y-16964484D02*
X11827753Y-16964484D01*
X11827753Y-16964484D02*
X11808706Y-16954960D01*
X11808706Y-16954960D02*
X11799182Y-16945436D01*
X12018229Y-16964484D02*
X12056325Y-16964484D01*
X12056325Y-16964484D02*
X12075372Y-16954960D01*
X12075372Y-16954960D02*
X12084896Y-16945436D01*
X12084896Y-16945436D02*
X12103944Y-16916865D01*
X12103944Y-16916865D02*
X12113467Y-16878770D01*
X12113467Y-16878770D02*
X12113467Y-16802579D01*
X12113467Y-16802579D02*
X12103944Y-16783531D01*
X12103944Y-16783531D02*
X12094420Y-16774008D01*
X12094420Y-16774008D02*
X12075372Y-16764484D01*
X12075372Y-16764484D02*
X12037277Y-16764484D01*
X12037277Y-16764484D02*
X12018229Y-16774008D01*
X12018229Y-16774008D02*
X12008706Y-16783531D01*
X12008706Y-16783531D02*
X11999182Y-16802579D01*
X11999182Y-16802579D02*
X11999182Y-16850198D01*
X11999182Y-16850198D02*
X12008706Y-16869246D01*
X12008706Y-16869246D02*
X12018229Y-16878770D01*
X12018229Y-16878770D02*
X12037277Y-16888293D01*
X12037277Y-16888293D02*
X12075372Y-16888293D01*
X12075372Y-16888293D02*
X12094420Y-16878770D01*
X12094420Y-16878770D02*
X12103944Y-16869246D01*
X12103944Y-16869246D02*
X12113467Y-16850198D01*
X12284896Y-16831150D02*
X12284896Y-16964484D01*
X12237277Y-16754960D02*
X12189658Y-16897817D01*
X12189658Y-16897817D02*
X12313467Y-16897817D01*
X12380134Y-16764484D02*
X12380134Y-16802579D01*
X12456325Y-16764484D02*
X12456325Y-16802579D01*
X12751563Y-17040674D02*
X12742039Y-17031150D01*
X12742039Y-17031150D02*
X12722991Y-17002579D01*
X12722991Y-17002579D02*
X12713468Y-16983531D01*
X12713468Y-16983531D02*
X12703944Y-16954960D01*
X12703944Y-16954960D02*
X12694420Y-16907341D01*
X12694420Y-16907341D02*
X12694420Y-16869246D01*
X12694420Y-16869246D02*
X12703944Y-16821627D01*
X12703944Y-16821627D02*
X12713468Y-16793055D01*
X12713468Y-16793055D02*
X12722991Y-16774008D01*
X12722991Y-16774008D02*
X12742039Y-16745436D01*
X12742039Y-16745436D02*
X12751563Y-16735912D01*
X12808706Y-16764484D02*
X12932515Y-16764484D01*
X12932515Y-16764484D02*
X12865848Y-16840674D01*
X12865848Y-16840674D02*
X12894420Y-16840674D01*
X12894420Y-16840674D02*
X12913468Y-16850198D01*
X12913468Y-16850198D02*
X12922991Y-16859722D01*
X12922991Y-16859722D02*
X12932515Y-16878770D01*
X12932515Y-16878770D02*
X12932515Y-16926389D01*
X12932515Y-16926389D02*
X12922991Y-16945436D01*
X12922991Y-16945436D02*
X12913468Y-16954960D01*
X12913468Y-16954960D02*
X12894420Y-16964484D01*
X12894420Y-16964484D02*
X12837277Y-16964484D01*
X12837277Y-16964484D02*
X12818229Y-16954960D01*
X12818229Y-16954960D02*
X12808706Y-16945436D01*
X13027753Y-16964484D02*
X13065848Y-16964484D01*
X13065848Y-16964484D02*
X13084896Y-16954960D01*
X13084896Y-16954960D02*
X13094420Y-16945436D01*
X13094420Y-16945436D02*
X13113468Y-16916865D01*
X13113468Y-16916865D02*
X13122991Y-16878770D01*
X13122991Y-16878770D02*
X13122991Y-16802579D01*
X13122991Y-16802579D02*
X13113468Y-16783531D01*
X13113468Y-16783531D02*
X13103944Y-16774008D01*
X13103944Y-16774008D02*
X13084896Y-16764484D01*
X13084896Y-16764484D02*
X13046801Y-16764484D01*
X13046801Y-16764484D02*
X13027753Y-16774008D01*
X13027753Y-16774008D02*
X13018229Y-16783531D01*
X13018229Y-16783531D02*
X13008706Y-16802579D01*
X13008706Y-16802579D02*
X13008706Y-16850198D01*
X13008706Y-16850198D02*
X13018229Y-16869246D01*
X13018229Y-16869246D02*
X13027753Y-16878770D01*
X13027753Y-16878770D02*
X13046801Y-16888293D01*
X13046801Y-16888293D02*
X13084896Y-16888293D01*
X13084896Y-16888293D02*
X13103944Y-16878770D01*
X13103944Y-16878770D02*
X13113468Y-16869246D01*
X13113468Y-16869246D02*
X13122991Y-16850198D01*
X13361087Y-16964484D02*
X13361087Y-16764484D01*
X13446801Y-16964484D02*
X13446801Y-16859722D01*
X13446801Y-16859722D02*
X13437277Y-16840674D01*
X13437277Y-16840674D02*
X13418230Y-16831150D01*
X13418230Y-16831150D02*
X13389658Y-16831150D01*
X13389658Y-16831150D02*
X13370610Y-16840674D01*
X13370610Y-16840674D02*
X13361087Y-16850198D01*
X13570610Y-16964484D02*
X13551563Y-16954960D01*
X13551563Y-16954960D02*
X13542039Y-16945436D01*
X13542039Y-16945436D02*
X13532515Y-16926389D01*
X13532515Y-16926389D02*
X13532515Y-16869246D01*
X13532515Y-16869246D02*
X13542039Y-16850198D01*
X13542039Y-16850198D02*
X13551563Y-16840674D01*
X13551563Y-16840674D02*
X13570610Y-16831150D01*
X13570610Y-16831150D02*
X13599182Y-16831150D01*
X13599182Y-16831150D02*
X13618230Y-16840674D01*
X13618230Y-16840674D02*
X13627753Y-16850198D01*
X13627753Y-16850198D02*
X13637277Y-16869246D01*
X13637277Y-16869246D02*
X13637277Y-16926389D01*
X13637277Y-16926389D02*
X13627753Y-16945436D01*
X13627753Y-16945436D02*
X13618230Y-16954960D01*
X13618230Y-16954960D02*
X13599182Y-16964484D01*
X13599182Y-16964484D02*
X13570610Y-16964484D01*
X13751563Y-16964484D02*
X13732515Y-16954960D01*
X13732515Y-16954960D02*
X13722991Y-16935912D01*
X13722991Y-16935912D02*
X13722991Y-16764484D01*
X13903944Y-16954960D02*
X13884896Y-16964484D01*
X13884896Y-16964484D02*
X13846801Y-16964484D01*
X13846801Y-16964484D02*
X13827753Y-16954960D01*
X13827753Y-16954960D02*
X13818230Y-16935912D01*
X13818230Y-16935912D02*
X13818230Y-16859722D01*
X13818230Y-16859722D02*
X13827753Y-16840674D01*
X13827753Y-16840674D02*
X13846801Y-16831150D01*
X13846801Y-16831150D02*
X13884896Y-16831150D01*
X13884896Y-16831150D02*
X13903944Y-16840674D01*
X13903944Y-16840674D02*
X13913468Y-16859722D01*
X13913468Y-16859722D02*
X13913468Y-16878770D01*
X13913468Y-16878770D02*
X13818230Y-16897817D01*
X13989658Y-16954960D02*
X14008706Y-16964484D01*
X14008706Y-16964484D02*
X14046801Y-16964484D01*
X14046801Y-16964484D02*
X14065849Y-16954960D01*
X14065849Y-16954960D02*
X14075372Y-16935912D01*
X14075372Y-16935912D02*
X14075372Y-16926389D01*
X14075372Y-16926389D02*
X14065849Y-16907341D01*
X14065849Y-16907341D02*
X14046801Y-16897817D01*
X14046801Y-16897817D02*
X14018230Y-16897817D01*
X14018230Y-16897817D02*
X13999182Y-16888293D01*
X13999182Y-16888293D02*
X13989658Y-16869246D01*
X13989658Y-16869246D02*
X13989658Y-16859722D01*
X13989658Y-16859722D02*
X13999182Y-16840674D01*
X13999182Y-16840674D02*
X14018230Y-16831150D01*
X14018230Y-16831150D02*
X14046801Y-16831150D01*
X14046801Y-16831150D02*
X14065849Y-16840674D01*
X14142039Y-17040674D02*
X14151563Y-17031150D01*
X14151563Y-17031150D02*
X14170611Y-17002579D01*
X14170611Y-17002579D02*
X14180134Y-16983531D01*
X14180134Y-16983531D02*
X14189658Y-16954960D01*
X14189658Y-16954960D02*
X14199182Y-16907341D01*
X14199182Y-16907341D02*
X14199182Y-16869246D01*
X14199182Y-16869246D02*
X14189658Y-16821627D01*
X14189658Y-16821627D02*
X14180134Y-16793055D01*
X14180134Y-16793055D02*
X14170611Y-16774008D01*
X14170611Y-16774008D02*
X14151563Y-16745436D01*
X14151563Y-16745436D02*
X14142039Y-16735912D01*
D12*
X9125500Y-17188000D02*
X9176500Y-17137000D01*
X9125500Y-17086000D01*
X9074500Y-17137000D01*
X9125500Y-17188000D01*
D11*
X9542039Y-17228484D02*
X9427753Y-17228484D01*
X9484896Y-17228484D02*
X9484896Y-17028484D01*
X9484896Y-17028484D02*
X9465848Y-17057055D01*
X9465848Y-17057055D02*
X9446801Y-17076103D01*
X9446801Y-17076103D02*
X9427753Y-17085627D01*
X9627753Y-17209436D02*
X9637277Y-17218960D01*
X9637277Y-17218960D02*
X9627753Y-17228484D01*
X9627753Y-17228484D02*
X9618229Y-17218960D01*
X9618229Y-17218960D02*
X9627753Y-17209436D01*
X9627753Y-17209436D02*
X9627753Y-17228484D01*
X9761086Y-17028484D02*
X9780134Y-17028484D01*
X9780134Y-17028484D02*
X9799182Y-17038008D01*
X9799182Y-17038008D02*
X9808705Y-17047531D01*
X9808705Y-17047531D02*
X9818229Y-17066579D01*
X9818229Y-17066579D02*
X9827753Y-17104674D01*
X9827753Y-17104674D02*
X9827753Y-17152293D01*
X9827753Y-17152293D02*
X9818229Y-17190389D01*
X9818229Y-17190389D02*
X9808705Y-17209436D01*
X9808705Y-17209436D02*
X9799182Y-17218960D01*
X9799182Y-17218960D02*
X9780134Y-17228484D01*
X9780134Y-17228484D02*
X9761086Y-17228484D01*
X9761086Y-17228484D02*
X9742039Y-17218960D01*
X9742039Y-17218960D02*
X9732515Y-17209436D01*
X9732515Y-17209436D02*
X9722991Y-17190389D01*
X9722991Y-17190389D02*
X9713467Y-17152293D01*
X9713467Y-17152293D02*
X9713467Y-17104674D01*
X9713467Y-17104674D02*
X9722991Y-17066579D01*
X9722991Y-17066579D02*
X9732515Y-17047531D01*
X9732515Y-17047531D02*
X9742039Y-17038008D01*
X9742039Y-17038008D02*
X9761086Y-17028484D01*
X9903944Y-17047531D02*
X9913467Y-17038008D01*
X9913467Y-17038008D02*
X9932515Y-17028484D01*
X9932515Y-17028484D02*
X9980134Y-17028484D01*
X9980134Y-17028484D02*
X9999182Y-17038008D01*
X9999182Y-17038008D02*
X10008705Y-17047531D01*
X10008705Y-17047531D02*
X10018229Y-17066579D01*
X10018229Y-17066579D02*
X10018229Y-17085627D01*
X10018229Y-17085627D02*
X10008705Y-17114198D01*
X10008705Y-17114198D02*
X9894420Y-17228484D01*
X9894420Y-17228484D02*
X10018229Y-17228484D01*
X10142039Y-17028484D02*
X10161086Y-17028484D01*
X10161086Y-17028484D02*
X10180134Y-17038008D01*
X10180134Y-17038008D02*
X10189658Y-17047531D01*
X10189658Y-17047531D02*
X10199182Y-17066579D01*
X10199182Y-17066579D02*
X10208705Y-17104674D01*
X10208705Y-17104674D02*
X10208705Y-17152293D01*
X10208705Y-17152293D02*
X10199182Y-17190389D01*
X10199182Y-17190389D02*
X10189658Y-17209436D01*
X10189658Y-17209436D02*
X10180134Y-17218960D01*
X10180134Y-17218960D02*
X10161086Y-17228484D01*
X10161086Y-17228484D02*
X10142039Y-17228484D01*
X10142039Y-17228484D02*
X10122991Y-17218960D01*
X10122991Y-17218960D02*
X10113467Y-17209436D01*
X10113467Y-17209436D02*
X10103944Y-17190389D01*
X10103944Y-17190389D02*
X10094420Y-17152293D01*
X10094420Y-17152293D02*
X10094420Y-17104674D01*
X10094420Y-17104674D02*
X10103944Y-17066579D01*
X10103944Y-17066579D02*
X10113467Y-17047531D01*
X10113467Y-17047531D02*
X10122991Y-17038008D01*
X10122991Y-17038008D02*
X10142039Y-17028484D01*
X10294420Y-17228484D02*
X10294420Y-17095150D01*
X10294420Y-17114198D02*
X10303944Y-17104674D01*
X10303944Y-17104674D02*
X10322991Y-17095150D01*
X10322991Y-17095150D02*
X10351563Y-17095150D01*
X10351563Y-17095150D02*
X10370610Y-17104674D01*
X10370610Y-17104674D02*
X10380134Y-17123722D01*
X10380134Y-17123722D02*
X10380134Y-17228484D01*
X10380134Y-17123722D02*
X10389658Y-17104674D01*
X10389658Y-17104674D02*
X10408705Y-17095150D01*
X10408705Y-17095150D02*
X10437277Y-17095150D01*
X10437277Y-17095150D02*
X10456325Y-17104674D01*
X10456325Y-17104674D02*
X10465848Y-17123722D01*
X10465848Y-17123722D02*
X10465848Y-17228484D01*
X10561086Y-17228484D02*
X10561086Y-17095150D01*
X10561086Y-17114198D02*
X10570610Y-17104674D01*
X10570610Y-17104674D02*
X10589658Y-17095150D01*
X10589658Y-17095150D02*
X10618229Y-17095150D01*
X10618229Y-17095150D02*
X10637277Y-17104674D01*
X10637277Y-17104674D02*
X10646801Y-17123722D01*
X10646801Y-17123722D02*
X10646801Y-17228484D01*
X10646801Y-17123722D02*
X10656325Y-17104674D01*
X10656325Y-17104674D02*
X10675372Y-17095150D01*
X10675372Y-17095150D02*
X10703944Y-17095150D01*
X10703944Y-17095150D02*
X10722991Y-17104674D01*
X10722991Y-17104674D02*
X10732515Y-17123722D01*
X10732515Y-17123722D02*
X10732515Y-17228484D01*
X11122991Y-17018960D02*
X10951563Y-17276103D01*
X11380134Y-17028484D02*
X11399182Y-17028484D01*
X11399182Y-17028484D02*
X11418229Y-17038008D01*
X11418229Y-17038008D02*
X11427753Y-17047531D01*
X11427753Y-17047531D02*
X11437277Y-17066579D01*
X11437277Y-17066579D02*
X11446801Y-17104674D01*
X11446801Y-17104674D02*
X11446801Y-17152293D01*
X11446801Y-17152293D02*
X11437277Y-17190389D01*
X11437277Y-17190389D02*
X11427753Y-17209436D01*
X11427753Y-17209436D02*
X11418229Y-17218960D01*
X11418229Y-17218960D02*
X11399182Y-17228484D01*
X11399182Y-17228484D02*
X11380134Y-17228484D01*
X11380134Y-17228484D02*
X11361086Y-17218960D01*
X11361086Y-17218960D02*
X11351563Y-17209436D01*
X11351563Y-17209436D02*
X11342039Y-17190389D01*
X11342039Y-17190389D02*
X11332515Y-17152293D01*
X11332515Y-17152293D02*
X11332515Y-17104674D01*
X11332515Y-17104674D02*
X11342039Y-17066579D01*
X11342039Y-17066579D02*
X11351563Y-17047531D01*
X11351563Y-17047531D02*
X11361086Y-17038008D01*
X11361086Y-17038008D02*
X11380134Y-17028484D01*
X11532515Y-17209436D02*
X11542039Y-17218960D01*
X11542039Y-17218960D02*
X11532515Y-17228484D01*
X11532515Y-17228484D02*
X11522991Y-17218960D01*
X11522991Y-17218960D02*
X11532515Y-17209436D01*
X11532515Y-17209436D02*
X11532515Y-17228484D01*
X11665848Y-17028484D02*
X11684896Y-17028484D01*
X11684896Y-17028484D02*
X11703944Y-17038008D01*
X11703944Y-17038008D02*
X11713467Y-17047531D01*
X11713467Y-17047531D02*
X11722991Y-17066579D01*
X11722991Y-17066579D02*
X11732515Y-17104674D01*
X11732515Y-17104674D02*
X11732515Y-17152293D01*
X11732515Y-17152293D02*
X11722991Y-17190389D01*
X11722991Y-17190389D02*
X11713467Y-17209436D01*
X11713467Y-17209436D02*
X11703944Y-17218960D01*
X11703944Y-17218960D02*
X11684896Y-17228484D01*
X11684896Y-17228484D02*
X11665848Y-17228484D01*
X11665848Y-17228484D02*
X11646801Y-17218960D01*
X11646801Y-17218960D02*
X11637277Y-17209436D01*
X11637277Y-17209436D02*
X11627753Y-17190389D01*
X11627753Y-17190389D02*
X11618229Y-17152293D01*
X11618229Y-17152293D02*
X11618229Y-17104674D01*
X11618229Y-17104674D02*
X11627753Y-17066579D01*
X11627753Y-17066579D02*
X11637277Y-17047531D01*
X11637277Y-17047531D02*
X11646801Y-17038008D01*
X11646801Y-17038008D02*
X11665848Y-17028484D01*
X11903944Y-17095150D02*
X11903944Y-17228484D01*
X11856325Y-17018960D02*
X11808706Y-17161817D01*
X11808706Y-17161817D02*
X11932515Y-17161817D01*
X12046801Y-17028484D02*
X12065848Y-17028484D01*
X12065848Y-17028484D02*
X12084896Y-17038008D01*
X12084896Y-17038008D02*
X12094420Y-17047531D01*
X12094420Y-17047531D02*
X12103944Y-17066579D01*
X12103944Y-17066579D02*
X12113467Y-17104674D01*
X12113467Y-17104674D02*
X12113467Y-17152293D01*
X12113467Y-17152293D02*
X12103944Y-17190389D01*
X12103944Y-17190389D02*
X12094420Y-17209436D01*
X12094420Y-17209436D02*
X12084896Y-17218960D01*
X12084896Y-17218960D02*
X12065848Y-17228484D01*
X12065848Y-17228484D02*
X12046801Y-17228484D01*
X12046801Y-17228484D02*
X12027753Y-17218960D01*
X12027753Y-17218960D02*
X12018229Y-17209436D01*
X12018229Y-17209436D02*
X12008706Y-17190389D01*
X12008706Y-17190389D02*
X11999182Y-17152293D01*
X11999182Y-17152293D02*
X11999182Y-17104674D01*
X11999182Y-17104674D02*
X12008706Y-17066579D01*
X12008706Y-17066579D02*
X12018229Y-17047531D01*
X12018229Y-17047531D02*
X12027753Y-17038008D01*
X12027753Y-17038008D02*
X12046801Y-17028484D01*
X12189658Y-17047531D02*
X12199182Y-17038008D01*
X12199182Y-17038008D02*
X12218229Y-17028484D01*
X12218229Y-17028484D02*
X12265848Y-17028484D01*
X12265848Y-17028484D02*
X12284896Y-17038008D01*
X12284896Y-17038008D02*
X12294420Y-17047531D01*
X12294420Y-17047531D02*
X12303944Y-17066579D01*
X12303944Y-17066579D02*
X12303944Y-17085627D01*
X12303944Y-17085627D02*
X12294420Y-17114198D01*
X12294420Y-17114198D02*
X12180134Y-17228484D01*
X12180134Y-17228484D02*
X12303944Y-17228484D01*
X12380134Y-17028484D02*
X12380134Y-17066579D01*
X12456325Y-17028484D02*
X12456325Y-17066579D01*
X12751563Y-17304674D02*
X12742039Y-17295150D01*
X12742039Y-17295150D02*
X12722991Y-17266579D01*
X12722991Y-17266579D02*
X12713468Y-17247531D01*
X12713468Y-17247531D02*
X12703944Y-17218960D01*
X12703944Y-17218960D02*
X12694420Y-17171341D01*
X12694420Y-17171341D02*
X12694420Y-17133246D01*
X12694420Y-17133246D02*
X12703944Y-17085627D01*
X12703944Y-17085627D02*
X12713468Y-17057055D01*
X12713468Y-17057055D02*
X12722991Y-17038008D01*
X12722991Y-17038008D02*
X12742039Y-17009436D01*
X12742039Y-17009436D02*
X12751563Y-16999912D01*
X12913468Y-17095150D02*
X12913468Y-17228484D01*
X12865848Y-17018960D02*
X12818229Y-17161817D01*
X12818229Y-17161817D02*
X12942039Y-17161817D01*
X12999182Y-17028484D02*
X13122991Y-17028484D01*
X13122991Y-17028484D02*
X13056325Y-17104674D01*
X13056325Y-17104674D02*
X13084896Y-17104674D01*
X13084896Y-17104674D02*
X13103944Y-17114198D01*
X13103944Y-17114198D02*
X13113468Y-17123722D01*
X13113468Y-17123722D02*
X13122991Y-17142770D01*
X13122991Y-17142770D02*
X13122991Y-17190389D01*
X13122991Y-17190389D02*
X13113468Y-17209436D01*
X13113468Y-17209436D02*
X13103944Y-17218960D01*
X13103944Y-17218960D02*
X13084896Y-17228484D01*
X13084896Y-17228484D02*
X13027753Y-17228484D01*
X13027753Y-17228484D02*
X13008706Y-17218960D01*
X13008706Y-17218960D02*
X12999182Y-17209436D01*
X13361087Y-17228484D02*
X13361087Y-17028484D01*
X13446801Y-17228484D02*
X13446801Y-17123722D01*
X13446801Y-17123722D02*
X13437277Y-17104674D01*
X13437277Y-17104674D02*
X13418230Y-17095150D01*
X13418230Y-17095150D02*
X13389658Y-17095150D01*
X13389658Y-17095150D02*
X13370610Y-17104674D01*
X13370610Y-17104674D02*
X13361087Y-17114198D01*
X13570610Y-17228484D02*
X13551563Y-17218960D01*
X13551563Y-17218960D02*
X13542039Y-17209436D01*
X13542039Y-17209436D02*
X13532515Y-17190389D01*
X13532515Y-17190389D02*
X13532515Y-17133246D01*
X13532515Y-17133246D02*
X13542039Y-17114198D01*
X13542039Y-17114198D02*
X13551563Y-17104674D01*
X13551563Y-17104674D02*
X13570610Y-17095150D01*
X13570610Y-17095150D02*
X13599182Y-17095150D01*
X13599182Y-17095150D02*
X13618230Y-17104674D01*
X13618230Y-17104674D02*
X13627753Y-17114198D01*
X13627753Y-17114198D02*
X13637277Y-17133246D01*
X13637277Y-17133246D02*
X13637277Y-17190389D01*
X13637277Y-17190389D02*
X13627753Y-17209436D01*
X13627753Y-17209436D02*
X13618230Y-17218960D01*
X13618230Y-17218960D02*
X13599182Y-17228484D01*
X13599182Y-17228484D02*
X13570610Y-17228484D01*
X13751563Y-17228484D02*
X13732515Y-17218960D01*
X13732515Y-17218960D02*
X13722991Y-17199912D01*
X13722991Y-17199912D02*
X13722991Y-17028484D01*
X13903944Y-17218960D02*
X13884896Y-17228484D01*
X13884896Y-17228484D02*
X13846801Y-17228484D01*
X13846801Y-17228484D02*
X13827753Y-17218960D01*
X13827753Y-17218960D02*
X13818230Y-17199912D01*
X13818230Y-17199912D02*
X13818230Y-17123722D01*
X13818230Y-17123722D02*
X13827753Y-17104674D01*
X13827753Y-17104674D02*
X13846801Y-17095150D01*
X13846801Y-17095150D02*
X13884896Y-17095150D01*
X13884896Y-17095150D02*
X13903944Y-17104674D01*
X13903944Y-17104674D02*
X13913468Y-17123722D01*
X13913468Y-17123722D02*
X13913468Y-17142770D01*
X13913468Y-17142770D02*
X13818230Y-17161817D01*
X13989658Y-17218960D02*
X14008706Y-17228484D01*
X14008706Y-17228484D02*
X14046801Y-17228484D01*
X14046801Y-17228484D02*
X14065849Y-17218960D01*
X14065849Y-17218960D02*
X14075372Y-17199912D01*
X14075372Y-17199912D02*
X14075372Y-17190389D01*
X14075372Y-17190389D02*
X14065849Y-17171341D01*
X14065849Y-17171341D02*
X14046801Y-17161817D01*
X14046801Y-17161817D02*
X14018230Y-17161817D01*
X14018230Y-17161817D02*
X13999182Y-17152293D01*
X13999182Y-17152293D02*
X13989658Y-17133246D01*
X13989658Y-17133246D02*
X13989658Y-17123722D01*
X13989658Y-17123722D02*
X13999182Y-17104674D01*
X13999182Y-17104674D02*
X14018230Y-17095150D01*
X14018230Y-17095150D02*
X14046801Y-17095150D01*
X14046801Y-17095150D02*
X14065849Y-17104674D01*
X14142039Y-17304674D02*
X14151563Y-17295150D01*
X14151563Y-17295150D02*
X14170611Y-17266579D01*
X14170611Y-17266579D02*
X14180134Y-17247531D01*
X14180134Y-17247531D02*
X14189658Y-17218960D01*
X14189658Y-17218960D02*
X14199182Y-17171341D01*
X14199182Y-17171341D02*
X14199182Y-17133246D01*
X14199182Y-17133246D02*
X14189658Y-17085627D01*
X14189658Y-17085627D02*
X14180134Y-17057055D01*
X14180134Y-17057055D02*
X14170611Y-17038008D01*
X14170611Y-17038008D02*
X14151563Y-17009436D01*
X14151563Y-17009436D02*
X14142039Y-16999912D01*
D13*
X9066500Y-17346000D02*
X9176500Y-17456000D01*
X9176500Y-17346000D02*
X9066500Y-17456000D01*
X9176500Y-17401000D02*
G75*
G03*
X9176500Y-17401000I-55000J0D01*
G01*
D11*
X9542039Y-17492484D02*
X9427753Y-17492484D01*
X9484896Y-17492484D02*
X9484896Y-17292484D01*
X9484896Y-17292484D02*
X9465848Y-17321055D01*
X9465848Y-17321055D02*
X9446801Y-17340103D01*
X9446801Y-17340103D02*
X9427753Y-17349627D01*
X9627753Y-17473436D02*
X9637277Y-17482960D01*
X9637277Y-17482960D02*
X9627753Y-17492484D01*
X9627753Y-17492484D02*
X9618229Y-17482960D01*
X9618229Y-17482960D02*
X9627753Y-17473436D01*
X9627753Y-17473436D02*
X9627753Y-17492484D01*
X9827753Y-17492484D02*
X9713467Y-17492484D01*
X9770610Y-17492484D02*
X9770610Y-17292484D01*
X9770610Y-17292484D02*
X9751563Y-17321055D01*
X9751563Y-17321055D02*
X9732515Y-17340103D01*
X9732515Y-17340103D02*
X9713467Y-17349627D01*
X9951563Y-17292484D02*
X9970610Y-17292484D01*
X9970610Y-17292484D02*
X9989658Y-17302008D01*
X9989658Y-17302008D02*
X9999182Y-17311531D01*
X9999182Y-17311531D02*
X10008705Y-17330579D01*
X10008705Y-17330579D02*
X10018229Y-17368674D01*
X10018229Y-17368674D02*
X10018229Y-17416293D01*
X10018229Y-17416293D02*
X10008705Y-17454389D01*
X10008705Y-17454389D02*
X9999182Y-17473436D01*
X9999182Y-17473436D02*
X9989658Y-17482960D01*
X9989658Y-17482960D02*
X9970610Y-17492484D01*
X9970610Y-17492484D02*
X9951563Y-17492484D01*
X9951563Y-17492484D02*
X9932515Y-17482960D01*
X9932515Y-17482960D02*
X9922991Y-17473436D01*
X9922991Y-17473436D02*
X9913467Y-17454389D01*
X9913467Y-17454389D02*
X9903944Y-17416293D01*
X9903944Y-17416293D02*
X9903944Y-17368674D01*
X9903944Y-17368674D02*
X9913467Y-17330579D01*
X9913467Y-17330579D02*
X9922991Y-17311531D01*
X9922991Y-17311531D02*
X9932515Y-17302008D01*
X9932515Y-17302008D02*
X9951563Y-17292484D01*
X10142039Y-17292484D02*
X10161086Y-17292484D01*
X10161086Y-17292484D02*
X10180134Y-17302008D01*
X10180134Y-17302008D02*
X10189658Y-17311531D01*
X10189658Y-17311531D02*
X10199182Y-17330579D01*
X10199182Y-17330579D02*
X10208705Y-17368674D01*
X10208705Y-17368674D02*
X10208705Y-17416293D01*
X10208705Y-17416293D02*
X10199182Y-17454389D01*
X10199182Y-17454389D02*
X10189658Y-17473436D01*
X10189658Y-17473436D02*
X10180134Y-17482960D01*
X10180134Y-17482960D02*
X10161086Y-17492484D01*
X10161086Y-17492484D02*
X10142039Y-17492484D01*
X10142039Y-17492484D02*
X10122991Y-17482960D01*
X10122991Y-17482960D02*
X10113467Y-17473436D01*
X10113467Y-17473436D02*
X10103944Y-17454389D01*
X10103944Y-17454389D02*
X10094420Y-17416293D01*
X10094420Y-17416293D02*
X10094420Y-17368674D01*
X10094420Y-17368674D02*
X10103944Y-17330579D01*
X10103944Y-17330579D02*
X10113467Y-17311531D01*
X10113467Y-17311531D02*
X10122991Y-17302008D01*
X10122991Y-17302008D02*
X10142039Y-17292484D01*
X10294420Y-17492484D02*
X10294420Y-17359150D01*
X10294420Y-17378198D02*
X10303944Y-17368674D01*
X10303944Y-17368674D02*
X10322991Y-17359150D01*
X10322991Y-17359150D02*
X10351563Y-17359150D01*
X10351563Y-17359150D02*
X10370610Y-17368674D01*
X10370610Y-17368674D02*
X10380134Y-17387722D01*
X10380134Y-17387722D02*
X10380134Y-17492484D01*
X10380134Y-17387722D02*
X10389658Y-17368674D01*
X10389658Y-17368674D02*
X10408705Y-17359150D01*
X10408705Y-17359150D02*
X10437277Y-17359150D01*
X10437277Y-17359150D02*
X10456325Y-17368674D01*
X10456325Y-17368674D02*
X10465848Y-17387722D01*
X10465848Y-17387722D02*
X10465848Y-17492484D01*
X10561086Y-17492484D02*
X10561086Y-17359150D01*
X10561086Y-17378198D02*
X10570610Y-17368674D01*
X10570610Y-17368674D02*
X10589658Y-17359150D01*
X10589658Y-17359150D02*
X10618229Y-17359150D01*
X10618229Y-17359150D02*
X10637277Y-17368674D01*
X10637277Y-17368674D02*
X10646801Y-17387722D01*
X10646801Y-17387722D02*
X10646801Y-17492484D01*
X10646801Y-17387722D02*
X10656325Y-17368674D01*
X10656325Y-17368674D02*
X10675372Y-17359150D01*
X10675372Y-17359150D02*
X10703944Y-17359150D01*
X10703944Y-17359150D02*
X10722991Y-17368674D01*
X10722991Y-17368674D02*
X10732515Y-17387722D01*
X10732515Y-17387722D02*
X10732515Y-17492484D01*
X11122991Y-17282960D02*
X10951563Y-17540103D01*
X11380134Y-17292484D02*
X11399182Y-17292484D01*
X11399182Y-17292484D02*
X11418229Y-17302008D01*
X11418229Y-17302008D02*
X11427753Y-17311531D01*
X11427753Y-17311531D02*
X11437277Y-17330579D01*
X11437277Y-17330579D02*
X11446801Y-17368674D01*
X11446801Y-17368674D02*
X11446801Y-17416293D01*
X11446801Y-17416293D02*
X11437277Y-17454389D01*
X11437277Y-17454389D02*
X11427753Y-17473436D01*
X11427753Y-17473436D02*
X11418229Y-17482960D01*
X11418229Y-17482960D02*
X11399182Y-17492484D01*
X11399182Y-17492484D02*
X11380134Y-17492484D01*
X11380134Y-17492484D02*
X11361086Y-17482960D01*
X11361086Y-17482960D02*
X11351563Y-17473436D01*
X11351563Y-17473436D02*
X11342039Y-17454389D01*
X11342039Y-17454389D02*
X11332515Y-17416293D01*
X11332515Y-17416293D02*
X11332515Y-17368674D01*
X11332515Y-17368674D02*
X11342039Y-17330579D01*
X11342039Y-17330579D02*
X11351563Y-17311531D01*
X11351563Y-17311531D02*
X11361086Y-17302008D01*
X11361086Y-17302008D02*
X11380134Y-17292484D01*
X11532515Y-17473436D02*
X11542039Y-17482960D01*
X11542039Y-17482960D02*
X11532515Y-17492484D01*
X11532515Y-17492484D02*
X11522991Y-17482960D01*
X11522991Y-17482960D02*
X11532515Y-17473436D01*
X11532515Y-17473436D02*
X11532515Y-17492484D01*
X11665848Y-17292484D02*
X11684896Y-17292484D01*
X11684896Y-17292484D02*
X11703944Y-17302008D01*
X11703944Y-17302008D02*
X11713467Y-17311531D01*
X11713467Y-17311531D02*
X11722991Y-17330579D01*
X11722991Y-17330579D02*
X11732515Y-17368674D01*
X11732515Y-17368674D02*
X11732515Y-17416293D01*
X11732515Y-17416293D02*
X11722991Y-17454389D01*
X11722991Y-17454389D02*
X11713467Y-17473436D01*
X11713467Y-17473436D02*
X11703944Y-17482960D01*
X11703944Y-17482960D02*
X11684896Y-17492484D01*
X11684896Y-17492484D02*
X11665848Y-17492484D01*
X11665848Y-17492484D02*
X11646801Y-17482960D01*
X11646801Y-17482960D02*
X11637277Y-17473436D01*
X11637277Y-17473436D02*
X11627753Y-17454389D01*
X11627753Y-17454389D02*
X11618229Y-17416293D01*
X11618229Y-17416293D02*
X11618229Y-17368674D01*
X11618229Y-17368674D02*
X11627753Y-17330579D01*
X11627753Y-17330579D02*
X11637277Y-17311531D01*
X11637277Y-17311531D02*
X11646801Y-17302008D01*
X11646801Y-17302008D02*
X11665848Y-17292484D01*
X11903944Y-17359150D02*
X11903944Y-17492484D01*
X11856325Y-17282960D02*
X11808706Y-17425817D01*
X11808706Y-17425817D02*
X11932515Y-17425817D01*
X11989658Y-17292484D02*
X12113467Y-17292484D01*
X12113467Y-17292484D02*
X12046801Y-17368674D01*
X12046801Y-17368674D02*
X12075372Y-17368674D01*
X12075372Y-17368674D02*
X12094420Y-17378198D01*
X12094420Y-17378198D02*
X12103944Y-17387722D01*
X12103944Y-17387722D02*
X12113467Y-17406770D01*
X12113467Y-17406770D02*
X12113467Y-17454389D01*
X12113467Y-17454389D02*
X12103944Y-17473436D01*
X12103944Y-17473436D02*
X12094420Y-17482960D01*
X12094420Y-17482960D02*
X12075372Y-17492484D01*
X12075372Y-17492484D02*
X12018229Y-17492484D01*
X12018229Y-17492484D02*
X11999182Y-17482960D01*
X11999182Y-17482960D02*
X11989658Y-17473436D01*
X12180134Y-17292484D02*
X12303944Y-17292484D01*
X12303944Y-17292484D02*
X12237277Y-17368674D01*
X12237277Y-17368674D02*
X12265848Y-17368674D01*
X12265848Y-17368674D02*
X12284896Y-17378198D01*
X12284896Y-17378198D02*
X12294420Y-17387722D01*
X12294420Y-17387722D02*
X12303944Y-17406770D01*
X12303944Y-17406770D02*
X12303944Y-17454389D01*
X12303944Y-17454389D02*
X12294420Y-17473436D01*
X12294420Y-17473436D02*
X12284896Y-17482960D01*
X12284896Y-17482960D02*
X12265848Y-17492484D01*
X12265848Y-17492484D02*
X12208706Y-17492484D01*
X12208706Y-17492484D02*
X12189658Y-17482960D01*
X12189658Y-17482960D02*
X12180134Y-17473436D01*
X12380134Y-17292484D02*
X12380134Y-17330579D01*
X12456325Y-17292484D02*
X12456325Y-17330579D01*
X12751563Y-17568674D02*
X12742039Y-17559150D01*
X12742039Y-17559150D02*
X12722991Y-17530579D01*
X12722991Y-17530579D02*
X12713468Y-17511531D01*
X12713468Y-17511531D02*
X12703944Y-17482960D01*
X12703944Y-17482960D02*
X12694420Y-17435341D01*
X12694420Y-17435341D02*
X12694420Y-17397246D01*
X12694420Y-17397246D02*
X12703944Y-17349627D01*
X12703944Y-17349627D02*
X12713468Y-17321055D01*
X12713468Y-17321055D02*
X12722991Y-17302008D01*
X12722991Y-17302008D02*
X12742039Y-17273436D01*
X12742039Y-17273436D02*
X12751563Y-17263912D01*
X12913468Y-17359150D02*
X12913468Y-17492484D01*
X12865848Y-17282960D02*
X12818229Y-17425817D01*
X12818229Y-17425817D02*
X12942039Y-17425817D01*
X13170610Y-17492484D02*
X13170610Y-17292484D01*
X13256325Y-17492484D02*
X13256325Y-17387722D01*
X13256325Y-17387722D02*
X13246801Y-17368674D01*
X13246801Y-17368674D02*
X13227753Y-17359150D01*
X13227753Y-17359150D02*
X13199182Y-17359150D01*
X13199182Y-17359150D02*
X13180134Y-17368674D01*
X13180134Y-17368674D02*
X13170610Y-17378198D01*
X13380134Y-17492484D02*
X13361087Y-17482960D01*
X13361087Y-17482960D02*
X13351563Y-17473436D01*
X13351563Y-17473436D02*
X13342039Y-17454389D01*
X13342039Y-17454389D02*
X13342039Y-17397246D01*
X13342039Y-17397246D02*
X13351563Y-17378198D01*
X13351563Y-17378198D02*
X13361087Y-17368674D01*
X13361087Y-17368674D02*
X13380134Y-17359150D01*
X13380134Y-17359150D02*
X13408706Y-17359150D01*
X13408706Y-17359150D02*
X13427753Y-17368674D01*
X13427753Y-17368674D02*
X13437277Y-17378198D01*
X13437277Y-17378198D02*
X13446801Y-17397246D01*
X13446801Y-17397246D02*
X13446801Y-17454389D01*
X13446801Y-17454389D02*
X13437277Y-17473436D01*
X13437277Y-17473436D02*
X13427753Y-17482960D01*
X13427753Y-17482960D02*
X13408706Y-17492484D01*
X13408706Y-17492484D02*
X13380134Y-17492484D01*
X13561087Y-17492484D02*
X13542039Y-17482960D01*
X13542039Y-17482960D02*
X13532515Y-17463912D01*
X13532515Y-17463912D02*
X13532515Y-17292484D01*
X13713468Y-17482960D02*
X13694420Y-17492484D01*
X13694420Y-17492484D02*
X13656325Y-17492484D01*
X13656325Y-17492484D02*
X13637277Y-17482960D01*
X13637277Y-17482960D02*
X13627753Y-17463912D01*
X13627753Y-17463912D02*
X13627753Y-17387722D01*
X13627753Y-17387722D02*
X13637277Y-17368674D01*
X13637277Y-17368674D02*
X13656325Y-17359150D01*
X13656325Y-17359150D02*
X13694420Y-17359150D01*
X13694420Y-17359150D02*
X13713468Y-17368674D01*
X13713468Y-17368674D02*
X13722991Y-17387722D01*
X13722991Y-17387722D02*
X13722991Y-17406770D01*
X13722991Y-17406770D02*
X13627753Y-17425817D01*
X13799182Y-17482960D02*
X13818230Y-17492484D01*
X13818230Y-17492484D02*
X13856325Y-17492484D01*
X13856325Y-17492484D02*
X13875372Y-17482960D01*
X13875372Y-17482960D02*
X13884896Y-17463912D01*
X13884896Y-17463912D02*
X13884896Y-17454389D01*
X13884896Y-17454389D02*
X13875372Y-17435341D01*
X13875372Y-17435341D02*
X13856325Y-17425817D01*
X13856325Y-17425817D02*
X13827753Y-17425817D01*
X13827753Y-17425817D02*
X13808706Y-17416293D01*
X13808706Y-17416293D02*
X13799182Y-17397246D01*
X13799182Y-17397246D02*
X13799182Y-17387722D01*
X13799182Y-17387722D02*
X13808706Y-17368674D01*
X13808706Y-17368674D02*
X13827753Y-17359150D01*
X13827753Y-17359150D02*
X13856325Y-17359150D01*
X13856325Y-17359150D02*
X13875372Y-17368674D01*
X13951563Y-17568674D02*
X13961087Y-17559150D01*
X13961087Y-17559150D02*
X13980134Y-17530579D01*
X13980134Y-17530579D02*
X13989658Y-17511531D01*
X13989658Y-17511531D02*
X13999182Y-17482960D01*
X13999182Y-17482960D02*
X14008706Y-17435341D01*
X14008706Y-17435341D02*
X14008706Y-17397246D01*
X14008706Y-17397246D02*
X13999182Y-17349627D01*
X13999182Y-17349627D02*
X13989658Y-17321055D01*
X13989658Y-17321055D02*
X13980134Y-17302008D01*
X13980134Y-17302008D02*
X13961087Y-17273436D01*
X13961087Y-17273436D02*
X13951563Y-17263912D01*
D14*
X9026500Y-17590000D02*
X9176500Y-17740000D01*
X9176500Y-17590000D02*
X9026500Y-17740000D01*
X9101500Y-17590000D02*
X9101500Y-17740000D01*
X9026500Y-17665000D02*
X9176500Y-17665000D01*
D11*
X9542039Y-17756484D02*
X9427753Y-17756484D01*
X9484896Y-17756484D02*
X9484896Y-17556484D01*
X9484896Y-17556484D02*
X9465848Y-17585055D01*
X9465848Y-17585055D02*
X9446801Y-17604103D01*
X9446801Y-17604103D02*
X9427753Y-17613627D01*
X9627753Y-17737436D02*
X9637277Y-17746960D01*
X9637277Y-17746960D02*
X9627753Y-17756484D01*
X9627753Y-17756484D02*
X9618229Y-17746960D01*
X9618229Y-17746960D02*
X9627753Y-17737436D01*
X9627753Y-17737436D02*
X9627753Y-17756484D01*
X9818229Y-17556484D02*
X9722991Y-17556484D01*
X9722991Y-17556484D02*
X9713467Y-17651722D01*
X9713467Y-17651722D02*
X9722991Y-17642198D01*
X9722991Y-17642198D02*
X9742039Y-17632674D01*
X9742039Y-17632674D02*
X9789658Y-17632674D01*
X9789658Y-17632674D02*
X9808705Y-17642198D01*
X9808705Y-17642198D02*
X9818229Y-17651722D01*
X9818229Y-17651722D02*
X9827753Y-17670770D01*
X9827753Y-17670770D02*
X9827753Y-17718389D01*
X9827753Y-17718389D02*
X9818229Y-17737436D01*
X9818229Y-17737436D02*
X9808705Y-17746960D01*
X9808705Y-17746960D02*
X9789658Y-17756484D01*
X9789658Y-17756484D02*
X9742039Y-17756484D01*
X9742039Y-17756484D02*
X9722991Y-17746960D01*
X9722991Y-17746960D02*
X9713467Y-17737436D01*
X9951563Y-17556484D02*
X9970610Y-17556484D01*
X9970610Y-17556484D02*
X9989658Y-17566008D01*
X9989658Y-17566008D02*
X9999182Y-17575531D01*
X9999182Y-17575531D02*
X10008705Y-17594579D01*
X10008705Y-17594579D02*
X10018229Y-17632674D01*
X10018229Y-17632674D02*
X10018229Y-17680293D01*
X10018229Y-17680293D02*
X10008705Y-17718389D01*
X10008705Y-17718389D02*
X9999182Y-17737436D01*
X9999182Y-17737436D02*
X9989658Y-17746960D01*
X9989658Y-17746960D02*
X9970610Y-17756484D01*
X9970610Y-17756484D02*
X9951563Y-17756484D01*
X9951563Y-17756484D02*
X9932515Y-17746960D01*
X9932515Y-17746960D02*
X9922991Y-17737436D01*
X9922991Y-17737436D02*
X9913467Y-17718389D01*
X9913467Y-17718389D02*
X9903944Y-17680293D01*
X9903944Y-17680293D02*
X9903944Y-17632674D01*
X9903944Y-17632674D02*
X9913467Y-17594579D01*
X9913467Y-17594579D02*
X9922991Y-17575531D01*
X9922991Y-17575531D02*
X9932515Y-17566008D01*
X9932515Y-17566008D02*
X9951563Y-17556484D01*
X10142039Y-17556484D02*
X10161086Y-17556484D01*
X10161086Y-17556484D02*
X10180134Y-17566008D01*
X10180134Y-17566008D02*
X10189658Y-17575531D01*
X10189658Y-17575531D02*
X10199182Y-17594579D01*
X10199182Y-17594579D02*
X10208705Y-17632674D01*
X10208705Y-17632674D02*
X10208705Y-17680293D01*
X10208705Y-17680293D02*
X10199182Y-17718389D01*
X10199182Y-17718389D02*
X10189658Y-17737436D01*
X10189658Y-17737436D02*
X10180134Y-17746960D01*
X10180134Y-17746960D02*
X10161086Y-17756484D01*
X10161086Y-17756484D02*
X10142039Y-17756484D01*
X10142039Y-17756484D02*
X10122991Y-17746960D01*
X10122991Y-17746960D02*
X10113467Y-17737436D01*
X10113467Y-17737436D02*
X10103944Y-17718389D01*
X10103944Y-17718389D02*
X10094420Y-17680293D01*
X10094420Y-17680293D02*
X10094420Y-17632674D01*
X10094420Y-17632674D02*
X10103944Y-17594579D01*
X10103944Y-17594579D02*
X10113467Y-17575531D01*
X10113467Y-17575531D02*
X10122991Y-17566008D01*
X10122991Y-17566008D02*
X10142039Y-17556484D01*
X10294420Y-17756484D02*
X10294420Y-17623150D01*
X10294420Y-17642198D02*
X10303944Y-17632674D01*
X10303944Y-17632674D02*
X10322991Y-17623150D01*
X10322991Y-17623150D02*
X10351563Y-17623150D01*
X10351563Y-17623150D02*
X10370610Y-17632674D01*
X10370610Y-17632674D02*
X10380134Y-17651722D01*
X10380134Y-17651722D02*
X10380134Y-17756484D01*
X10380134Y-17651722D02*
X10389658Y-17632674D01*
X10389658Y-17632674D02*
X10408705Y-17623150D01*
X10408705Y-17623150D02*
X10437277Y-17623150D01*
X10437277Y-17623150D02*
X10456325Y-17632674D01*
X10456325Y-17632674D02*
X10465848Y-17651722D01*
X10465848Y-17651722D02*
X10465848Y-17756484D01*
X10561086Y-17756484D02*
X10561086Y-17623150D01*
X10561086Y-17642198D02*
X10570610Y-17632674D01*
X10570610Y-17632674D02*
X10589658Y-17623150D01*
X10589658Y-17623150D02*
X10618229Y-17623150D01*
X10618229Y-17623150D02*
X10637277Y-17632674D01*
X10637277Y-17632674D02*
X10646801Y-17651722D01*
X10646801Y-17651722D02*
X10646801Y-17756484D01*
X10646801Y-17651722D02*
X10656325Y-17632674D01*
X10656325Y-17632674D02*
X10675372Y-17623150D01*
X10675372Y-17623150D02*
X10703944Y-17623150D01*
X10703944Y-17623150D02*
X10722991Y-17632674D01*
X10722991Y-17632674D02*
X10732515Y-17651722D01*
X10732515Y-17651722D02*
X10732515Y-17756484D01*
X11122991Y-17546960D02*
X10951563Y-17804103D01*
X11380134Y-17556484D02*
X11399182Y-17556484D01*
X11399182Y-17556484D02*
X11418229Y-17566008D01*
X11418229Y-17566008D02*
X11427753Y-17575531D01*
X11427753Y-17575531D02*
X11437277Y-17594579D01*
X11437277Y-17594579D02*
X11446801Y-17632674D01*
X11446801Y-17632674D02*
X11446801Y-17680293D01*
X11446801Y-17680293D02*
X11437277Y-17718389D01*
X11437277Y-17718389D02*
X11427753Y-17737436D01*
X11427753Y-17737436D02*
X11418229Y-17746960D01*
X11418229Y-17746960D02*
X11399182Y-17756484D01*
X11399182Y-17756484D02*
X11380134Y-17756484D01*
X11380134Y-17756484D02*
X11361086Y-17746960D01*
X11361086Y-17746960D02*
X11351563Y-17737436D01*
X11351563Y-17737436D02*
X11342039Y-17718389D01*
X11342039Y-17718389D02*
X11332515Y-17680293D01*
X11332515Y-17680293D02*
X11332515Y-17632674D01*
X11332515Y-17632674D02*
X11342039Y-17594579D01*
X11342039Y-17594579D02*
X11351563Y-17575531D01*
X11351563Y-17575531D02*
X11361086Y-17566008D01*
X11361086Y-17566008D02*
X11380134Y-17556484D01*
X11532515Y-17737436D02*
X11542039Y-17746960D01*
X11542039Y-17746960D02*
X11532515Y-17756484D01*
X11532515Y-17756484D02*
X11522991Y-17746960D01*
X11522991Y-17746960D02*
X11532515Y-17737436D01*
X11532515Y-17737436D02*
X11532515Y-17756484D01*
X11665848Y-17556484D02*
X11684896Y-17556484D01*
X11684896Y-17556484D02*
X11703944Y-17566008D01*
X11703944Y-17566008D02*
X11713467Y-17575531D01*
X11713467Y-17575531D02*
X11722991Y-17594579D01*
X11722991Y-17594579D02*
X11732515Y-17632674D01*
X11732515Y-17632674D02*
X11732515Y-17680293D01*
X11732515Y-17680293D02*
X11722991Y-17718389D01*
X11722991Y-17718389D02*
X11713467Y-17737436D01*
X11713467Y-17737436D02*
X11703944Y-17746960D01*
X11703944Y-17746960D02*
X11684896Y-17756484D01*
X11684896Y-17756484D02*
X11665848Y-17756484D01*
X11665848Y-17756484D02*
X11646801Y-17746960D01*
X11646801Y-17746960D02*
X11637277Y-17737436D01*
X11637277Y-17737436D02*
X11627753Y-17718389D01*
X11627753Y-17718389D02*
X11618229Y-17680293D01*
X11618229Y-17680293D02*
X11618229Y-17632674D01*
X11618229Y-17632674D02*
X11627753Y-17594579D01*
X11627753Y-17594579D02*
X11637277Y-17575531D01*
X11637277Y-17575531D02*
X11646801Y-17566008D01*
X11646801Y-17566008D02*
X11665848Y-17556484D01*
X11913467Y-17556484D02*
X11818229Y-17556484D01*
X11818229Y-17556484D02*
X11808706Y-17651722D01*
X11808706Y-17651722D02*
X11818229Y-17642198D01*
X11818229Y-17642198D02*
X11837277Y-17632674D01*
X11837277Y-17632674D02*
X11884896Y-17632674D01*
X11884896Y-17632674D02*
X11903944Y-17642198D01*
X11903944Y-17642198D02*
X11913467Y-17651722D01*
X11913467Y-17651722D02*
X11922991Y-17670770D01*
X11922991Y-17670770D02*
X11922991Y-17718389D01*
X11922991Y-17718389D02*
X11913467Y-17737436D01*
X11913467Y-17737436D02*
X11903944Y-17746960D01*
X11903944Y-17746960D02*
X11884896Y-17756484D01*
X11884896Y-17756484D02*
X11837277Y-17756484D01*
X11837277Y-17756484D02*
X11818229Y-17746960D01*
X11818229Y-17746960D02*
X11808706Y-17737436D01*
X12018229Y-17756484D02*
X12056325Y-17756484D01*
X12056325Y-17756484D02*
X12075372Y-17746960D01*
X12075372Y-17746960D02*
X12084896Y-17737436D01*
X12084896Y-17737436D02*
X12103944Y-17708865D01*
X12103944Y-17708865D02*
X12113467Y-17670770D01*
X12113467Y-17670770D02*
X12113467Y-17594579D01*
X12113467Y-17594579D02*
X12103944Y-17575531D01*
X12103944Y-17575531D02*
X12094420Y-17566008D01*
X12094420Y-17566008D02*
X12075372Y-17556484D01*
X12075372Y-17556484D02*
X12037277Y-17556484D01*
X12037277Y-17556484D02*
X12018229Y-17566008D01*
X12018229Y-17566008D02*
X12008706Y-17575531D01*
X12008706Y-17575531D02*
X11999182Y-17594579D01*
X11999182Y-17594579D02*
X11999182Y-17642198D01*
X11999182Y-17642198D02*
X12008706Y-17661246D01*
X12008706Y-17661246D02*
X12018229Y-17670770D01*
X12018229Y-17670770D02*
X12037277Y-17680293D01*
X12037277Y-17680293D02*
X12075372Y-17680293D01*
X12075372Y-17680293D02*
X12094420Y-17670770D01*
X12094420Y-17670770D02*
X12103944Y-17661246D01*
X12103944Y-17661246D02*
X12113467Y-17642198D01*
X12303944Y-17756484D02*
X12189658Y-17756484D01*
X12246801Y-17756484D02*
X12246801Y-17556484D01*
X12246801Y-17556484D02*
X12227753Y-17585055D01*
X12227753Y-17585055D02*
X12208706Y-17604103D01*
X12208706Y-17604103D02*
X12189658Y-17613627D01*
X12380134Y-17556484D02*
X12380134Y-17594579D01*
X12456325Y-17556484D02*
X12456325Y-17594579D01*
X12751563Y-17832674D02*
X12742039Y-17823150D01*
X12742039Y-17823150D02*
X12722991Y-17794579D01*
X12722991Y-17794579D02*
X12713468Y-17775531D01*
X12713468Y-17775531D02*
X12703944Y-17746960D01*
X12703944Y-17746960D02*
X12694420Y-17699341D01*
X12694420Y-17699341D02*
X12694420Y-17661246D01*
X12694420Y-17661246D02*
X12703944Y-17613627D01*
X12703944Y-17613627D02*
X12713468Y-17585055D01*
X12713468Y-17585055D02*
X12722991Y-17566008D01*
X12722991Y-17566008D02*
X12742039Y-17537436D01*
X12742039Y-17537436D02*
X12751563Y-17527912D01*
X12818229Y-17575531D02*
X12827753Y-17566008D01*
X12827753Y-17566008D02*
X12846801Y-17556484D01*
X12846801Y-17556484D02*
X12894420Y-17556484D01*
X12894420Y-17556484D02*
X12913468Y-17566008D01*
X12913468Y-17566008D02*
X12922991Y-17575531D01*
X12922991Y-17575531D02*
X12932515Y-17594579D01*
X12932515Y-17594579D02*
X12932515Y-17613627D01*
X12932515Y-17613627D02*
X12922991Y-17642198D01*
X12922991Y-17642198D02*
X12808706Y-17756484D01*
X12808706Y-17756484D02*
X12932515Y-17756484D01*
X13170610Y-17756484D02*
X13170610Y-17556484D01*
X13256325Y-17756484D02*
X13256325Y-17651722D01*
X13256325Y-17651722D02*
X13246801Y-17632674D01*
X13246801Y-17632674D02*
X13227753Y-17623150D01*
X13227753Y-17623150D02*
X13199182Y-17623150D01*
X13199182Y-17623150D02*
X13180134Y-17632674D01*
X13180134Y-17632674D02*
X13170610Y-17642198D01*
X13380134Y-17756484D02*
X13361087Y-17746960D01*
X13361087Y-17746960D02*
X13351563Y-17737436D01*
X13351563Y-17737436D02*
X13342039Y-17718389D01*
X13342039Y-17718389D02*
X13342039Y-17661246D01*
X13342039Y-17661246D02*
X13351563Y-17642198D01*
X13351563Y-17642198D02*
X13361087Y-17632674D01*
X13361087Y-17632674D02*
X13380134Y-17623150D01*
X13380134Y-17623150D02*
X13408706Y-17623150D01*
X13408706Y-17623150D02*
X13427753Y-17632674D01*
X13427753Y-17632674D02*
X13437277Y-17642198D01*
X13437277Y-17642198D02*
X13446801Y-17661246D01*
X13446801Y-17661246D02*
X13446801Y-17718389D01*
X13446801Y-17718389D02*
X13437277Y-17737436D01*
X13437277Y-17737436D02*
X13427753Y-17746960D01*
X13427753Y-17746960D02*
X13408706Y-17756484D01*
X13408706Y-17756484D02*
X13380134Y-17756484D01*
X13561087Y-17756484D02*
X13542039Y-17746960D01*
X13542039Y-17746960D02*
X13532515Y-17727912D01*
X13532515Y-17727912D02*
X13532515Y-17556484D01*
X13713468Y-17746960D02*
X13694420Y-17756484D01*
X13694420Y-17756484D02*
X13656325Y-17756484D01*
X13656325Y-17756484D02*
X13637277Y-17746960D01*
X13637277Y-17746960D02*
X13627753Y-17727912D01*
X13627753Y-17727912D02*
X13627753Y-17651722D01*
X13627753Y-17651722D02*
X13637277Y-17632674D01*
X13637277Y-17632674D02*
X13656325Y-17623150D01*
X13656325Y-17623150D02*
X13694420Y-17623150D01*
X13694420Y-17623150D02*
X13713468Y-17632674D01*
X13713468Y-17632674D02*
X13722991Y-17651722D01*
X13722991Y-17651722D02*
X13722991Y-17670770D01*
X13722991Y-17670770D02*
X13627753Y-17689817D01*
X13799182Y-17746960D02*
X13818230Y-17756484D01*
X13818230Y-17756484D02*
X13856325Y-17756484D01*
X13856325Y-17756484D02*
X13875372Y-17746960D01*
X13875372Y-17746960D02*
X13884896Y-17727912D01*
X13884896Y-17727912D02*
X13884896Y-17718389D01*
X13884896Y-17718389D02*
X13875372Y-17699341D01*
X13875372Y-17699341D02*
X13856325Y-17689817D01*
X13856325Y-17689817D02*
X13827753Y-17689817D01*
X13827753Y-17689817D02*
X13808706Y-17680293D01*
X13808706Y-17680293D02*
X13799182Y-17661246D01*
X13799182Y-17661246D02*
X13799182Y-17651722D01*
X13799182Y-17651722D02*
X13808706Y-17632674D01*
X13808706Y-17632674D02*
X13827753Y-17623150D01*
X13827753Y-17623150D02*
X13856325Y-17623150D01*
X13856325Y-17623150D02*
X13875372Y-17632674D01*
X13951563Y-17832674D02*
X13961087Y-17823150D01*
X13961087Y-17823150D02*
X13980134Y-17794579D01*
X13980134Y-17794579D02*
X13989658Y-17775531D01*
X13989658Y-17775531D02*
X13999182Y-17746960D01*
X13999182Y-17746960D02*
X14008706Y-17699341D01*
X14008706Y-17699341D02*
X14008706Y-17661246D01*
X14008706Y-17661246D02*
X13999182Y-17613627D01*
X13999182Y-17613627D02*
X13989658Y-17585055D01*
X13989658Y-17585055D02*
X13980134Y-17566008D01*
X13980134Y-17566008D02*
X13961087Y-17537436D01*
X13961087Y-17537436D02*
X13951563Y-17527912D01*
M02*
