%TF.GenerationSoftware,KiCad,Pcbnew,7.0.9*%
%TF.CreationDate,2023-11-24T18:00:13+01:00*%
%TF.ProjectId,astrasat1,61737472-6173-4617-9431-2e6b69636164,v1*%
%TF.SameCoordinates,Original*%
%TF.FileFunction,Drillmap*%
%TF.FilePolarity,Positive*%
%FSLAX45Y45*%
G04 Gerber Fmt 4.5, Leading zero omitted, Abs format (unit mm)*
G04 Created by KiCad (PCBNEW 7.0.9) date 2023-11-24 18:00:13*
%MOMM*%
%LPD*%
G01*
G04 APERTURE LIST*
%ADD10C,0.100000*%
%ADD11C,0.200000*%
%ADD12C,0.102000*%
%ADD13C,0.110000*%
%ADD14C,0.150000*%
G04 APERTURE END LIST*
D10*
X21081500Y-9436000D02*
G75*
G03*
X21081500Y-9436000I-5900000J0D01*
G01*
D11*
D10*
X12907500Y-9984000D02*
X12947500Y-10024000D01*
X12947500Y-9984000D02*
X12907500Y-10024000D01*
X12997500Y-8587000D02*
X13037500Y-8627000D01*
X13037500Y-8587000D02*
X12997500Y-8627000D01*
X12997500Y-8841000D02*
X13037500Y-8881000D01*
X13037500Y-8841000D02*
X12997500Y-8881000D01*
X13161500Y-10238000D02*
X13201500Y-10278000D01*
X13201500Y-10238000D02*
X13161500Y-10278000D01*
X13161500Y-13032000D02*
X13201500Y-13072000D01*
X13201500Y-13032000D02*
X13161500Y-13072000D01*
X13288500Y-10492000D02*
X13328500Y-10532000D01*
X13328500Y-10492000D02*
X13288500Y-10532000D01*
X13669500Y-9730000D02*
X13709500Y-9770000D01*
X13709500Y-9730000D02*
X13669500Y-9770000D01*
X13669500Y-9984000D02*
X13709500Y-10024000D01*
X13709500Y-9984000D02*
X13669500Y-10024000D01*
X13669500Y-12778000D02*
X13709500Y-12818000D01*
X13709500Y-12778000D02*
X13669500Y-12818000D01*
X13733000Y-11190500D02*
X13773000Y-11230500D01*
X13773000Y-11190500D02*
X13733000Y-11230500D01*
X14431500Y-7698000D02*
X14471500Y-7738000D01*
X14471500Y-7698000D02*
X14431500Y-7738000D01*
X14533100Y-7698000D02*
X14573100Y-7738000D01*
X14573100Y-7698000D02*
X14533100Y-7738000D01*
X14685500Y-9984000D02*
X14725500Y-10024000D01*
X14725500Y-9984000D02*
X14685500Y-10024000D01*
X14712000Y-7981000D02*
X14752000Y-8021000D01*
X14752000Y-7981000D02*
X14712000Y-8021000D01*
X14729520Y-10130480D02*
X14769520Y-10170480D01*
X14769520Y-10130480D02*
X14729520Y-10170480D01*
X14787100Y-9933200D02*
X14827100Y-9973200D01*
X14827100Y-9933200D02*
X14787100Y-9973200D01*
X14839000Y-8108000D02*
X14879000Y-8148000D01*
X14879000Y-8108000D02*
X14839000Y-8148000D01*
X14876000Y-11000000D02*
X14916000Y-11040000D01*
X14916000Y-11000000D02*
X14876000Y-11040000D01*
X15220000Y-6076000D02*
X15260000Y-6116000D01*
X15260000Y-6076000D02*
X15220000Y-6116000D01*
X15248050Y-10753210D02*
X15288050Y-10793210D01*
X15288050Y-10753210D02*
X15248050Y-10793210D01*
X15320500Y-11444500D02*
X15360500Y-11484500D01*
X15360500Y-11444500D02*
X15320500Y-11484500D01*
X15384000Y-10365000D02*
X15424000Y-10405000D01*
X15424000Y-10365000D02*
X15384000Y-10405000D01*
X15664500Y-8425500D02*
X15704500Y-8465500D01*
X15704500Y-8425500D02*
X15664500Y-8465500D01*
X15664500Y-8870000D02*
X15704500Y-8910000D01*
X15704500Y-8870000D02*
X15664500Y-8910000D01*
X15791500Y-8743000D02*
X15831500Y-8783000D01*
X15831500Y-8743000D02*
X15791500Y-8783000D01*
X15892000Y-11952500D02*
X15932000Y-11992500D01*
X15932000Y-11952500D02*
X15892000Y-11992500D01*
X16109000Y-8870000D02*
X16149000Y-8910000D01*
X16149000Y-8870000D02*
X16109000Y-8910000D01*
X16400000Y-8015500D02*
X16440000Y-8055500D01*
X16440000Y-8015500D02*
X16400000Y-8055500D01*
X16490000Y-10775000D02*
X16530000Y-10815000D01*
X16530000Y-10775000D02*
X16490000Y-10815000D01*
X16527000Y-8087950D02*
X16567000Y-8127950D01*
X16567000Y-8087950D02*
X16527000Y-8127950D01*
X16553500Y-11092500D02*
X16593500Y-11132500D01*
X16593500Y-11092500D02*
X16553500Y-11132500D01*
X16562450Y-9124000D02*
X16602450Y-9164000D01*
X16602450Y-9124000D02*
X16562450Y-9164000D01*
X16590500Y-7698000D02*
X16630500Y-7738000D01*
X16630500Y-7698000D02*
X16590500Y-7738000D01*
X16622250Y-7856750D02*
X16662250Y-7896750D01*
X16662250Y-7856750D02*
X16622250Y-7896750D01*
X16717500Y-12968500D02*
X16757500Y-13008500D01*
X16757500Y-12968500D02*
X16717500Y-13008500D01*
X16789950Y-13159000D02*
X16829950Y-13199000D01*
X16829950Y-13159000D02*
X16789950Y-13199000D01*
X16865920Y-12461560D02*
X16905920Y-12501560D01*
X16905920Y-12461560D02*
X16865920Y-12501560D01*
X17098500Y-8333000D02*
X17138500Y-8373000D01*
X17138500Y-8333000D02*
X17098500Y-8373000D01*
X17606500Y-7952000D02*
X17646500Y-7992000D01*
X17646500Y-7952000D02*
X17606500Y-7992000D01*
X17950500Y-12870500D02*
X17990500Y-12910500D01*
X17990500Y-12870500D02*
X17950500Y-12910500D01*
X19194000Y-9730000D02*
X19234000Y-9770000D01*
X19234000Y-9730000D02*
X19194000Y-9770000D01*
X19321000Y-8904500D02*
X19361000Y-8944500D01*
X19361000Y-8904500D02*
X19321000Y-8944500D01*
X19448000Y-8587000D02*
X19488000Y-8627000D01*
X19488000Y-8587000D02*
X19448000Y-8627000D01*
X19448000Y-9285500D02*
X19488000Y-9325500D01*
X19488000Y-9285500D02*
X19448000Y-9325500D01*
X12100500Y-10915800D02*
G75*
G03*
X12100500Y-10915800I-25000J0D01*
G01*
X12100500Y-11015800D02*
G75*
G03*
X12100500Y-11015800I-25000J0D01*
G01*
X12100500Y-11115800D02*
G75*
G03*
X12100500Y-11115800I-25000J0D01*
G01*
X12100500Y-11215800D02*
G75*
G03*
X12100500Y-11215800I-25000J0D01*
G01*
X18059000Y-4572000D02*
G75*
G03*
X18059000Y-4572000I-25000J0D01*
G01*
X18249000Y-4572000D02*
G75*
G03*
X18249000Y-4572000I-25000J0D01*
G01*
X12552000Y-4355500D02*
X12552000Y-4435500D01*
X12512000Y-4395500D02*
X12592000Y-4395500D01*
X12552000Y-6555500D02*
X12552000Y-6635500D01*
X12512000Y-6595500D02*
X12592000Y-6595500D01*
X12752000Y-4355500D02*
X12752000Y-4435500D01*
X12712000Y-4395500D02*
X12792000Y-4395500D01*
X12752000Y-6555500D02*
X12752000Y-6635500D01*
X12712000Y-6595500D02*
X12792000Y-6595500D01*
X12952000Y-4355500D02*
X12952000Y-4435500D01*
X12912000Y-4395500D02*
X12992000Y-4395500D01*
X12952000Y-6555500D02*
X12952000Y-6635500D01*
X12912000Y-6595500D02*
X12992000Y-6595500D01*
X13152000Y-4355500D02*
X13152000Y-4435500D01*
X13112000Y-4395500D02*
X13192000Y-4395500D01*
X13152000Y-6555500D02*
X13152000Y-6635500D01*
X13112000Y-6595500D02*
X13192000Y-6595500D01*
X13352000Y-4355500D02*
X13352000Y-4435500D01*
X13312000Y-4395500D02*
X13392000Y-4395500D01*
X13352000Y-6555500D02*
X13352000Y-6635500D01*
X13312000Y-6595500D02*
X13392000Y-6595500D01*
X13552000Y-4355500D02*
X13552000Y-4435500D01*
X13512000Y-4395500D02*
X13592000Y-4395500D01*
X13552000Y-6555500D02*
X13552000Y-6635500D01*
X13512000Y-6595500D02*
X13592000Y-6595500D01*
X13752000Y-4355500D02*
X13752000Y-4435500D01*
X13712000Y-4395500D02*
X13792000Y-4395500D01*
X13752000Y-6555500D02*
X13752000Y-6635500D01*
X13712000Y-6595500D02*
X13792000Y-6595500D01*
X13952000Y-4355500D02*
X13952000Y-4435500D01*
X13912000Y-4395500D02*
X13992000Y-4395500D01*
X13952000Y-6555500D02*
X13952000Y-6635500D01*
X13912000Y-6595500D02*
X13992000Y-6595500D01*
X14152000Y-4355500D02*
X14152000Y-4435500D01*
X14112000Y-4395500D02*
X14192000Y-4395500D01*
X14152000Y-6555500D02*
X14152000Y-6635500D01*
X14112000Y-6595500D02*
X14192000Y-6595500D01*
X14352000Y-4355500D02*
X14352000Y-4435500D01*
X14312000Y-4395500D02*
X14392000Y-4395500D01*
X14352000Y-6555500D02*
X14352000Y-6635500D01*
X14312000Y-6595500D02*
X14392000Y-6595500D01*
X17526000Y-13930000D02*
X17526000Y-14010000D01*
X17486000Y-13970000D02*
X17566000Y-13970000D01*
X17526000Y-14180000D02*
X17526000Y-14260000D01*
X17486000Y-14220000D02*
X17566000Y-14220000D01*
X17526000Y-14430000D02*
X17526000Y-14510000D01*
X17486000Y-14470000D02*
X17566000Y-14470000D01*
X17846000Y-13930000D02*
X17846000Y-14010000D01*
X17806000Y-13970000D02*
X17886000Y-13970000D01*
X17846000Y-14180000D02*
X17846000Y-14260000D01*
X17806000Y-14220000D02*
X17886000Y-14220000D01*
X17846000Y-14430000D02*
X17846000Y-14510000D01*
X17806000Y-14470000D02*
X17886000Y-14470000D01*
X18034000Y-5012000D02*
X18034000Y-5092000D01*
X17994000Y-5052000D02*
X18074000Y-5052000D01*
X18034000Y-5774000D02*
X18034000Y-5854000D01*
X17994000Y-5814000D02*
X18074000Y-5814000D01*
X18288000Y-5012000D02*
X18288000Y-5092000D01*
X18248000Y-5052000D02*
X18328000Y-5052000D01*
X18288000Y-5774000D02*
X18288000Y-5854000D01*
X18248000Y-5814000D02*
X18328000Y-5814000D01*
X18542000Y-5012000D02*
X18542000Y-5092000D01*
X18502000Y-5052000D02*
X18582000Y-5052000D01*
X18542000Y-5774000D02*
X18542000Y-5854000D01*
X18502000Y-5814000D02*
X18582000Y-5814000D01*
X18796000Y-5012000D02*
X18796000Y-5092000D01*
X18756000Y-5052000D02*
X18836000Y-5052000D01*
X18796000Y-5774000D02*
X18796000Y-5854000D01*
X18756000Y-5814000D02*
X18836000Y-5814000D01*
X12327856Y-13658856D02*
X12327856Y-13588144D01*
X12257144Y-13588144D01*
X12257144Y-13658856D01*
X12327856Y-13658856D01*
X12327856Y-13912856D02*
X12327856Y-13842144D01*
X12257144Y-13842144D01*
X12257144Y-13912856D01*
X12327856Y-13912856D01*
X12327856Y-14166856D02*
X12327856Y-14096144D01*
X12257144Y-14096144D01*
X12257144Y-14166856D01*
X12327856Y-14166856D01*
X12735356Y-7880356D02*
X12735356Y-7809644D01*
X12664644Y-7809644D01*
X12664644Y-7880356D01*
X12735356Y-7880356D01*
X12735356Y-8134356D02*
X12735356Y-8063644D01*
X12664644Y-8063644D01*
X12664644Y-8134356D01*
X12735356Y-8134356D01*
X12735356Y-8388356D02*
X12735356Y-8317644D01*
X12664644Y-8317644D01*
X12664644Y-8388356D01*
X12735356Y-8388356D01*
X12735356Y-8642356D02*
X12735356Y-8571644D01*
X12664644Y-8571644D01*
X12664644Y-8642356D01*
X12735356Y-8642356D01*
X12735356Y-8896356D02*
X12735356Y-8825644D01*
X12664644Y-8825644D01*
X12664644Y-8896356D01*
X12735356Y-8896356D01*
X12735356Y-9150356D02*
X12735356Y-9079644D01*
X12664644Y-9079644D01*
X12664644Y-9150356D01*
X12735356Y-9150356D01*
X12735356Y-9404356D02*
X12735356Y-9333644D01*
X12664644Y-9333644D01*
X12664644Y-9404356D01*
X12735356Y-9404356D01*
X12735356Y-9658356D02*
X12735356Y-9587644D01*
X12664644Y-9587644D01*
X12664644Y-9658356D01*
X12735356Y-9658356D01*
X15633856Y-7552856D02*
X15633856Y-7482144D01*
X15563144Y-7482144D01*
X15563144Y-7552856D01*
X15633856Y-7552856D01*
X15887856Y-7552856D02*
X15887856Y-7482144D01*
X15817144Y-7482144D01*
X15817144Y-7552856D01*
X15887856Y-7552856D01*
X16141856Y-7552856D02*
X16141856Y-7482144D01*
X16071144Y-7482144D01*
X16071144Y-7552856D01*
X16141856Y-7552856D01*
X16395856Y-7552856D02*
X16395856Y-7482144D01*
X16325144Y-7482144D01*
X16325144Y-7552856D01*
X16395856Y-7552856D01*
X16649856Y-7552856D02*
X16649856Y-7482144D01*
X16579144Y-7482144D01*
X16579144Y-7552856D01*
X16649856Y-7552856D01*
X16903856Y-7552856D02*
X16903856Y-7482144D01*
X16833144Y-7482144D01*
X16833144Y-7552856D01*
X16903856Y-7552856D01*
X17116856Y-9164756D02*
X17116856Y-9094044D01*
X17046144Y-9094044D01*
X17046144Y-9164756D01*
X17116856Y-9164756D01*
X17116856Y-13177956D02*
X17116856Y-13107244D01*
X17046144Y-13107244D01*
X17046144Y-13177956D01*
X17116856Y-13177956D01*
X17157856Y-7552856D02*
X17157856Y-7482144D01*
X17087144Y-7482144D01*
X17087144Y-7552856D01*
X17157856Y-7552856D01*
X17411856Y-7552856D02*
X17411856Y-7482144D01*
X17341144Y-7482144D01*
X17341144Y-7552856D01*
X17411856Y-7552856D01*
X18196356Y-14005356D02*
X18196356Y-13934644D01*
X18125644Y-13934644D01*
X18125644Y-14005356D01*
X18196356Y-14005356D01*
X18196356Y-14259356D02*
X18196356Y-14188644D01*
X18125644Y-14188644D01*
X18125644Y-14259356D01*
X18196356Y-14259356D01*
X18606356Y-6354356D02*
X18606356Y-6283644D01*
X18535644Y-6283644D01*
X18535644Y-6354356D01*
X18606356Y-6354356D01*
X18606356Y-6608356D02*
X18606356Y-6537644D01*
X18535644Y-6537644D01*
X18535644Y-6608356D01*
X18606356Y-6608356D01*
X18606356Y-6862356D02*
X18606356Y-6791644D01*
X18535644Y-6791644D01*
X18535644Y-6862356D01*
X18606356Y-6862356D01*
X18606356Y-7116356D02*
X18606356Y-7045644D01*
X18535644Y-7045644D01*
X18535644Y-7116356D01*
X18606356Y-7116356D01*
X18606356Y-7370356D02*
X18606356Y-7299644D01*
X18535644Y-7299644D01*
X18535644Y-7370356D01*
X18606356Y-7370356D01*
X18606356Y-7624356D02*
X18606356Y-7553644D01*
X18535644Y-7553644D01*
X18535644Y-7624356D01*
X18606356Y-7624356D01*
X18606356Y-7878356D02*
X18606356Y-7807644D01*
X18535644Y-7807644D01*
X18535644Y-7878356D01*
X18606356Y-7878356D01*
X18606356Y-8132356D02*
X18606356Y-8061644D01*
X18535644Y-8061644D01*
X18535644Y-8132356D01*
X18606356Y-8132356D01*
X18894856Y-9164756D02*
X18894856Y-9094044D01*
X18824144Y-9094044D01*
X18824144Y-9164756D01*
X18894856Y-9164756D01*
X18894856Y-13177956D02*
X18894856Y-13107244D01*
X18824144Y-13107244D01*
X18824144Y-13177956D01*
X18894856Y-13177956D01*
X20074856Y-9783856D02*
X20074856Y-9713144D01*
X20004144Y-9713144D01*
X20004144Y-9783856D01*
X20074856Y-9783856D01*
X20074856Y-10037856D02*
X20074856Y-9967144D01*
X20004144Y-9967144D01*
X20004144Y-10037856D01*
X20074856Y-10037856D01*
X20074856Y-10291856D02*
X20074856Y-10221144D01*
X20004144Y-10221144D01*
X20004144Y-10291856D01*
X20074856Y-10291856D01*
X20074856Y-10990356D02*
X20074856Y-10919644D01*
X20004144Y-10919644D01*
X20004144Y-10990356D01*
X20074856Y-10990356D01*
X20074856Y-11244356D02*
X20074856Y-11173644D01*
X20004144Y-11173644D01*
X20004144Y-11244356D01*
X20074856Y-11244356D01*
X20074856Y-11498356D02*
X20074856Y-11427644D01*
X20004144Y-11427644D01*
X20004144Y-11498356D01*
X20074856Y-11498356D01*
D12*
X14324500Y-9737500D02*
X14375500Y-9686500D01*
X14324500Y-9635500D01*
X14273500Y-9686500D01*
X14324500Y-9737500D01*
X14324500Y-9991500D02*
X14375500Y-9940500D01*
X14324500Y-9889500D01*
X14273500Y-9940500D01*
X14324500Y-9991500D01*
X14324500Y-10245500D02*
X14375500Y-10194500D01*
X14324500Y-10143500D01*
X14273500Y-10194500D01*
X14324500Y-10245500D01*
X14324500Y-10499500D02*
X14375500Y-10448500D01*
X14324500Y-10397500D01*
X14273500Y-10448500D01*
X14324500Y-10499500D01*
X14324500Y-10753500D02*
X14375500Y-10702500D01*
X14324500Y-10651500D01*
X14273500Y-10702500D01*
X14324500Y-10753500D01*
X14324500Y-11007500D02*
X14375500Y-10956500D01*
X14324500Y-10905500D01*
X14273500Y-10956500D01*
X14324500Y-11007500D01*
X14324500Y-11261500D02*
X14375500Y-11210500D01*
X14324500Y-11159500D01*
X14273500Y-11210500D01*
X14324500Y-11261500D01*
X14324500Y-11515500D02*
X14375500Y-11464500D01*
X14324500Y-11413500D01*
X14273500Y-11464500D01*
X14324500Y-11515500D01*
X14324500Y-11769500D02*
X14375500Y-11718500D01*
X14324500Y-11667500D01*
X14273500Y-11718500D01*
X14324500Y-11769500D01*
X14324500Y-12023500D02*
X14375500Y-11972500D01*
X14324500Y-11921500D01*
X14273500Y-11972500D01*
X14324500Y-12023500D01*
X14324500Y-12277500D02*
X14375500Y-12226500D01*
X14324500Y-12175500D01*
X14273500Y-12226500D01*
X14324500Y-12277500D01*
X14324500Y-12531500D02*
X14375500Y-12480500D01*
X14324500Y-12429500D01*
X14273500Y-12480500D01*
X14324500Y-12531500D01*
X14324500Y-12785500D02*
X14375500Y-12734500D01*
X14324500Y-12683500D01*
X14273500Y-12734500D01*
X14324500Y-12785500D01*
X14324500Y-13039500D02*
X14375500Y-12988500D01*
X14324500Y-12937500D01*
X14273500Y-12988500D01*
X14324500Y-13039500D01*
X14324500Y-13293500D02*
X14375500Y-13242500D01*
X14324500Y-13191500D01*
X14273500Y-13242500D01*
X14324500Y-13293500D01*
X14324500Y-13547500D02*
X14375500Y-13496500D01*
X14324500Y-13445500D01*
X14273500Y-13496500D01*
X14324500Y-13547500D01*
X14324500Y-13801500D02*
X14375500Y-13750500D01*
X14324500Y-13699500D01*
X14273500Y-13750500D01*
X14324500Y-13801500D01*
X14324500Y-14055500D02*
X14375500Y-14004500D01*
X14324500Y-13953500D01*
X14273500Y-14004500D01*
X14324500Y-14055500D01*
X14324500Y-14309500D02*
X14375500Y-14258500D01*
X14324500Y-14207500D01*
X14273500Y-14258500D01*
X14324500Y-14309500D01*
X14324500Y-14563500D02*
X14375500Y-14512500D01*
X14324500Y-14461500D01*
X14273500Y-14512500D01*
X14324500Y-14563500D01*
X14959500Y-9760500D02*
X15010500Y-9709500D01*
X14959500Y-9658500D01*
X14908500Y-9709500D01*
X14959500Y-9760500D01*
X15213500Y-9760500D02*
X15264500Y-9709500D01*
X15213500Y-9658500D01*
X15162500Y-9709500D01*
X15213500Y-9760500D01*
X15467500Y-9760500D02*
X15518500Y-9709500D01*
X15467500Y-9658500D01*
X15416500Y-9709500D01*
X15467500Y-9760500D01*
X16102500Y-9737500D02*
X16153500Y-9686500D01*
X16102500Y-9635500D01*
X16051500Y-9686500D01*
X16102500Y-9737500D01*
X16102500Y-9991500D02*
X16153500Y-9940500D01*
X16102500Y-9889500D01*
X16051500Y-9940500D01*
X16102500Y-9991500D01*
X16102500Y-10245500D02*
X16153500Y-10194500D01*
X16102500Y-10143500D01*
X16051500Y-10194500D01*
X16102500Y-10245500D01*
X16102500Y-10499500D02*
X16153500Y-10448500D01*
X16102500Y-10397500D01*
X16051500Y-10448500D01*
X16102500Y-10499500D01*
X16102500Y-10753500D02*
X16153500Y-10702500D01*
X16102500Y-10651500D01*
X16051500Y-10702500D01*
X16102500Y-10753500D01*
X16102500Y-11007500D02*
X16153500Y-10956500D01*
X16102500Y-10905500D01*
X16051500Y-10956500D01*
X16102500Y-11007500D01*
X16102500Y-11261500D02*
X16153500Y-11210500D01*
X16102500Y-11159500D01*
X16051500Y-11210500D01*
X16102500Y-11261500D01*
X16102500Y-11515500D02*
X16153500Y-11464500D01*
X16102500Y-11413500D01*
X16051500Y-11464500D01*
X16102500Y-11515500D01*
X16102500Y-11769500D02*
X16153500Y-11718500D01*
X16102500Y-11667500D01*
X16051500Y-11718500D01*
X16102500Y-11769500D01*
X16102500Y-12023500D02*
X16153500Y-11972500D01*
X16102500Y-11921500D01*
X16051500Y-11972500D01*
X16102500Y-12023500D01*
X16102500Y-12277500D02*
X16153500Y-12226500D01*
X16102500Y-12175500D01*
X16051500Y-12226500D01*
X16102500Y-12277500D01*
X16102500Y-12531500D02*
X16153500Y-12480500D01*
X16102500Y-12429500D01*
X16051500Y-12480500D01*
X16102500Y-12531500D01*
X16102500Y-12785500D02*
X16153500Y-12734500D01*
X16102500Y-12683500D01*
X16051500Y-12734500D01*
X16102500Y-12785500D01*
X16102500Y-13039500D02*
X16153500Y-12988500D01*
X16102500Y-12937500D01*
X16051500Y-12988500D01*
X16102500Y-13039500D01*
X16102500Y-13293500D02*
X16153500Y-13242500D01*
X16102500Y-13191500D01*
X16051500Y-13242500D01*
X16102500Y-13293500D01*
X16102500Y-13547500D02*
X16153500Y-13496500D01*
X16102500Y-13445500D01*
X16051500Y-13496500D01*
X16102500Y-13547500D01*
X16102500Y-13801500D02*
X16153500Y-13750500D01*
X16102500Y-13699500D01*
X16051500Y-13750500D01*
X16102500Y-13801500D01*
X16102500Y-14055500D02*
X16153500Y-14004500D01*
X16102500Y-13953500D01*
X16051500Y-14004500D01*
X16102500Y-14055500D01*
X16102500Y-14309500D02*
X16153500Y-14258500D01*
X16102500Y-14207500D01*
X16051500Y-14258500D01*
X16102500Y-14309500D01*
X16102500Y-14563500D02*
X16153500Y-14512500D01*
X16102500Y-14461500D01*
X16051500Y-14512500D01*
X16102500Y-14563500D01*
D13*
X17026500Y-13505000D02*
X17136500Y-13615000D01*
X17136500Y-13505000D02*
X17026500Y-13615000D01*
X17136500Y-13560000D02*
G75*
G03*
X17136500Y-13560000I-55000J0D01*
G01*
X17145500Y-8581000D02*
X17255500Y-8691000D01*
X17255500Y-8581000D02*
X17145500Y-8691000D01*
X17255500Y-8636000D02*
G75*
G03*
X17255500Y-8636000I-55000J0D01*
G01*
X17788500Y-13505000D02*
X17898500Y-13615000D01*
X17898500Y-13505000D02*
X17788500Y-13615000D01*
X17898500Y-13560000D02*
G75*
G03*
X17898500Y-13560000I-55000J0D01*
G01*
X17907500Y-8581000D02*
X18017500Y-8691000D01*
X18017500Y-8581000D02*
X17907500Y-8691000D01*
X18017500Y-8636000D02*
G75*
G03*
X18017500Y-8636000I-55000J0D01*
G01*
D14*
X15267000Y-4722000D02*
X15417000Y-4872000D01*
X15417000Y-4722000D02*
X15267000Y-4872000D01*
X15342000Y-4722000D02*
X15342000Y-4872000D01*
X15267000Y-4797000D02*
X15417000Y-4797000D01*
X17316000Y-4722000D02*
X17466000Y-4872000D01*
X17466000Y-4722000D02*
X17316000Y-4872000D01*
X17391000Y-4722000D02*
X17391000Y-4872000D01*
X17316000Y-4797000D02*
X17466000Y-4797000D01*
D11*
X9537277Y-15652484D02*
X9537277Y-15452484D01*
X9537277Y-15452484D02*
X9584896Y-15452484D01*
X9584896Y-15452484D02*
X9613467Y-15462008D01*
X9613467Y-15462008D02*
X9632515Y-15481055D01*
X9632515Y-15481055D02*
X9642039Y-15500103D01*
X9642039Y-15500103D02*
X9651563Y-15538198D01*
X9651563Y-15538198D02*
X9651563Y-15566769D01*
X9651563Y-15566769D02*
X9642039Y-15604865D01*
X9642039Y-15604865D02*
X9632515Y-15623912D01*
X9632515Y-15623912D02*
X9613467Y-15642960D01*
X9613467Y-15642960D02*
X9584896Y-15652484D01*
X9584896Y-15652484D02*
X9537277Y-15652484D01*
X9737277Y-15652484D02*
X9737277Y-15519150D01*
X9737277Y-15557246D02*
X9746801Y-15538198D01*
X9746801Y-15538198D02*
X9756324Y-15528674D01*
X9756324Y-15528674D02*
X9775372Y-15519150D01*
X9775372Y-15519150D02*
X9794420Y-15519150D01*
X9861086Y-15652484D02*
X9861086Y-15519150D01*
X9861086Y-15452484D02*
X9851563Y-15462008D01*
X9851563Y-15462008D02*
X9861086Y-15471531D01*
X9861086Y-15471531D02*
X9870610Y-15462008D01*
X9870610Y-15462008D02*
X9861086Y-15452484D01*
X9861086Y-15452484D02*
X9861086Y-15471531D01*
X9984896Y-15652484D02*
X9965848Y-15642960D01*
X9965848Y-15642960D02*
X9956324Y-15623912D01*
X9956324Y-15623912D02*
X9956324Y-15452484D01*
X10089658Y-15652484D02*
X10070610Y-15642960D01*
X10070610Y-15642960D02*
X10061086Y-15623912D01*
X10061086Y-15623912D02*
X10061086Y-15452484D01*
X10318229Y-15652484D02*
X10318229Y-15452484D01*
X10318229Y-15452484D02*
X10384896Y-15595341D01*
X10384896Y-15595341D02*
X10451563Y-15452484D01*
X10451563Y-15452484D02*
X10451563Y-15652484D01*
X10632515Y-15652484D02*
X10632515Y-15547722D01*
X10632515Y-15547722D02*
X10622991Y-15528674D01*
X10622991Y-15528674D02*
X10603944Y-15519150D01*
X10603944Y-15519150D02*
X10565848Y-15519150D01*
X10565848Y-15519150D02*
X10546801Y-15528674D01*
X10632515Y-15642960D02*
X10613467Y-15652484D01*
X10613467Y-15652484D02*
X10565848Y-15652484D01*
X10565848Y-15652484D02*
X10546801Y-15642960D01*
X10546801Y-15642960D02*
X10537277Y-15623912D01*
X10537277Y-15623912D02*
X10537277Y-15604865D01*
X10537277Y-15604865D02*
X10546801Y-15585817D01*
X10546801Y-15585817D02*
X10565848Y-15576293D01*
X10565848Y-15576293D02*
X10613467Y-15576293D01*
X10613467Y-15576293D02*
X10632515Y-15566769D01*
X10727753Y-15519150D02*
X10727753Y-15719150D01*
X10727753Y-15528674D02*
X10746801Y-15519150D01*
X10746801Y-15519150D02*
X10784896Y-15519150D01*
X10784896Y-15519150D02*
X10803944Y-15528674D01*
X10803944Y-15528674D02*
X10813467Y-15538198D01*
X10813467Y-15538198D02*
X10822991Y-15557246D01*
X10822991Y-15557246D02*
X10822991Y-15614388D01*
X10822991Y-15614388D02*
X10813467Y-15633436D01*
X10813467Y-15633436D02*
X10803944Y-15642960D01*
X10803944Y-15642960D02*
X10784896Y-15652484D01*
X10784896Y-15652484D02*
X10746801Y-15652484D01*
X10746801Y-15652484D02*
X10727753Y-15642960D01*
X10908705Y-15633436D02*
X10918229Y-15642960D01*
X10918229Y-15642960D02*
X10908705Y-15652484D01*
X10908705Y-15652484D02*
X10899182Y-15642960D01*
X10899182Y-15642960D02*
X10908705Y-15633436D01*
X10908705Y-15633436D02*
X10908705Y-15652484D01*
X10908705Y-15528674D02*
X10918229Y-15538198D01*
X10918229Y-15538198D02*
X10908705Y-15547722D01*
X10908705Y-15547722D02*
X10899182Y-15538198D01*
X10899182Y-15538198D02*
X10908705Y-15528674D01*
X10908705Y-15528674D02*
X10908705Y-15547722D01*
D10*
X9236500Y-15961000D02*
X9276500Y-16001000D01*
X9276500Y-15961000D02*
X9236500Y-16001000D01*
D11*
X9575372Y-15872484D02*
X9594420Y-15872484D01*
X9594420Y-15872484D02*
X9613467Y-15882008D01*
X9613467Y-15882008D02*
X9622991Y-15891531D01*
X9622991Y-15891531D02*
X9632515Y-15910579D01*
X9632515Y-15910579D02*
X9642039Y-15948674D01*
X9642039Y-15948674D02*
X9642039Y-15996293D01*
X9642039Y-15996293D02*
X9632515Y-16034388D01*
X9632515Y-16034388D02*
X9622991Y-16053436D01*
X9622991Y-16053436D02*
X9613467Y-16062960D01*
X9613467Y-16062960D02*
X9594420Y-16072484D01*
X9594420Y-16072484D02*
X9575372Y-16072484D01*
X9575372Y-16072484D02*
X9556324Y-16062960D01*
X9556324Y-16062960D02*
X9546801Y-16053436D01*
X9546801Y-16053436D02*
X9537277Y-16034388D01*
X9537277Y-16034388D02*
X9527753Y-15996293D01*
X9527753Y-15996293D02*
X9527753Y-15948674D01*
X9527753Y-15948674D02*
X9537277Y-15910579D01*
X9537277Y-15910579D02*
X9546801Y-15891531D01*
X9546801Y-15891531D02*
X9556324Y-15882008D01*
X9556324Y-15882008D02*
X9575372Y-15872484D01*
X9727753Y-16053436D02*
X9737277Y-16062960D01*
X9737277Y-16062960D02*
X9727753Y-16072484D01*
X9727753Y-16072484D02*
X9718229Y-16062960D01*
X9718229Y-16062960D02*
X9727753Y-16053436D01*
X9727753Y-16053436D02*
X9727753Y-16072484D01*
X9908705Y-15939150D02*
X9908705Y-16072484D01*
X9861086Y-15862960D02*
X9813467Y-16005817D01*
X9813467Y-16005817D02*
X9937277Y-16005817D01*
X10051563Y-15872484D02*
X10070610Y-15872484D01*
X10070610Y-15872484D02*
X10089658Y-15882008D01*
X10089658Y-15882008D02*
X10099182Y-15891531D01*
X10099182Y-15891531D02*
X10108705Y-15910579D01*
X10108705Y-15910579D02*
X10118229Y-15948674D01*
X10118229Y-15948674D02*
X10118229Y-15996293D01*
X10118229Y-15996293D02*
X10108705Y-16034388D01*
X10108705Y-16034388D02*
X10099182Y-16053436D01*
X10099182Y-16053436D02*
X10089658Y-16062960D01*
X10089658Y-16062960D02*
X10070610Y-16072484D01*
X10070610Y-16072484D02*
X10051563Y-16072484D01*
X10051563Y-16072484D02*
X10032515Y-16062960D01*
X10032515Y-16062960D02*
X10022991Y-16053436D01*
X10022991Y-16053436D02*
X10013467Y-16034388D01*
X10013467Y-16034388D02*
X10003944Y-15996293D01*
X10003944Y-15996293D02*
X10003944Y-15948674D01*
X10003944Y-15948674D02*
X10013467Y-15910579D01*
X10013467Y-15910579D02*
X10022991Y-15891531D01*
X10022991Y-15891531D02*
X10032515Y-15882008D01*
X10032515Y-15882008D02*
X10051563Y-15872484D01*
X10242039Y-15872484D02*
X10261086Y-15872484D01*
X10261086Y-15872484D02*
X10280134Y-15882008D01*
X10280134Y-15882008D02*
X10289658Y-15891531D01*
X10289658Y-15891531D02*
X10299182Y-15910579D01*
X10299182Y-15910579D02*
X10308705Y-15948674D01*
X10308705Y-15948674D02*
X10308705Y-15996293D01*
X10308705Y-15996293D02*
X10299182Y-16034388D01*
X10299182Y-16034388D02*
X10289658Y-16053436D01*
X10289658Y-16053436D02*
X10280134Y-16062960D01*
X10280134Y-16062960D02*
X10261086Y-16072484D01*
X10261086Y-16072484D02*
X10242039Y-16072484D01*
X10242039Y-16072484D02*
X10222991Y-16062960D01*
X10222991Y-16062960D02*
X10213467Y-16053436D01*
X10213467Y-16053436D02*
X10203944Y-16034388D01*
X10203944Y-16034388D02*
X10194420Y-15996293D01*
X10194420Y-15996293D02*
X10194420Y-15948674D01*
X10194420Y-15948674D02*
X10203944Y-15910579D01*
X10203944Y-15910579D02*
X10213467Y-15891531D01*
X10213467Y-15891531D02*
X10222991Y-15882008D01*
X10222991Y-15882008D02*
X10242039Y-15872484D01*
X10394420Y-16072484D02*
X10394420Y-15939150D01*
X10394420Y-15958198D02*
X10403944Y-15948674D01*
X10403944Y-15948674D02*
X10422991Y-15939150D01*
X10422991Y-15939150D02*
X10451563Y-15939150D01*
X10451563Y-15939150D02*
X10470610Y-15948674D01*
X10470610Y-15948674D02*
X10480134Y-15967722D01*
X10480134Y-15967722D02*
X10480134Y-16072484D01*
X10480134Y-15967722D02*
X10489658Y-15948674D01*
X10489658Y-15948674D02*
X10508705Y-15939150D01*
X10508705Y-15939150D02*
X10537277Y-15939150D01*
X10537277Y-15939150D02*
X10556325Y-15948674D01*
X10556325Y-15948674D02*
X10565848Y-15967722D01*
X10565848Y-15967722D02*
X10565848Y-16072484D01*
X10661086Y-16072484D02*
X10661086Y-15939150D01*
X10661086Y-15958198D02*
X10670610Y-15948674D01*
X10670610Y-15948674D02*
X10689658Y-15939150D01*
X10689658Y-15939150D02*
X10718229Y-15939150D01*
X10718229Y-15939150D02*
X10737277Y-15948674D01*
X10737277Y-15948674D02*
X10746801Y-15967722D01*
X10746801Y-15967722D02*
X10746801Y-16072484D01*
X10746801Y-15967722D02*
X10756325Y-15948674D01*
X10756325Y-15948674D02*
X10775372Y-15939150D01*
X10775372Y-15939150D02*
X10803944Y-15939150D01*
X10803944Y-15939150D02*
X10822991Y-15948674D01*
X10822991Y-15948674D02*
X10832515Y-15967722D01*
X10832515Y-15967722D02*
X10832515Y-16072484D01*
X11222991Y-15862960D02*
X11051563Y-16120103D01*
X11480134Y-15872484D02*
X11499182Y-15872484D01*
X11499182Y-15872484D02*
X11518229Y-15882008D01*
X11518229Y-15882008D02*
X11527753Y-15891531D01*
X11527753Y-15891531D02*
X11537277Y-15910579D01*
X11537277Y-15910579D02*
X11546801Y-15948674D01*
X11546801Y-15948674D02*
X11546801Y-15996293D01*
X11546801Y-15996293D02*
X11537277Y-16034388D01*
X11537277Y-16034388D02*
X11527753Y-16053436D01*
X11527753Y-16053436D02*
X11518229Y-16062960D01*
X11518229Y-16062960D02*
X11499182Y-16072484D01*
X11499182Y-16072484D02*
X11480134Y-16072484D01*
X11480134Y-16072484D02*
X11461086Y-16062960D01*
X11461086Y-16062960D02*
X11451563Y-16053436D01*
X11451563Y-16053436D02*
X11442039Y-16034388D01*
X11442039Y-16034388D02*
X11432515Y-15996293D01*
X11432515Y-15996293D02*
X11432515Y-15948674D01*
X11432515Y-15948674D02*
X11442039Y-15910579D01*
X11442039Y-15910579D02*
X11451563Y-15891531D01*
X11451563Y-15891531D02*
X11461086Y-15882008D01*
X11461086Y-15882008D02*
X11480134Y-15872484D01*
X11632515Y-16053436D02*
X11642039Y-16062960D01*
X11642039Y-16062960D02*
X11632515Y-16072484D01*
X11632515Y-16072484D02*
X11622991Y-16062960D01*
X11622991Y-16062960D02*
X11632515Y-16053436D01*
X11632515Y-16053436D02*
X11632515Y-16072484D01*
X11765848Y-15872484D02*
X11784896Y-15872484D01*
X11784896Y-15872484D02*
X11803944Y-15882008D01*
X11803944Y-15882008D02*
X11813467Y-15891531D01*
X11813467Y-15891531D02*
X11822991Y-15910579D01*
X11822991Y-15910579D02*
X11832515Y-15948674D01*
X11832515Y-15948674D02*
X11832515Y-15996293D01*
X11832515Y-15996293D02*
X11822991Y-16034388D01*
X11822991Y-16034388D02*
X11813467Y-16053436D01*
X11813467Y-16053436D02*
X11803944Y-16062960D01*
X11803944Y-16062960D02*
X11784896Y-16072484D01*
X11784896Y-16072484D02*
X11765848Y-16072484D01*
X11765848Y-16072484D02*
X11746801Y-16062960D01*
X11746801Y-16062960D02*
X11737277Y-16053436D01*
X11737277Y-16053436D02*
X11727753Y-16034388D01*
X11727753Y-16034388D02*
X11718229Y-15996293D01*
X11718229Y-15996293D02*
X11718229Y-15948674D01*
X11718229Y-15948674D02*
X11727753Y-15910579D01*
X11727753Y-15910579D02*
X11737277Y-15891531D01*
X11737277Y-15891531D02*
X11746801Y-15882008D01*
X11746801Y-15882008D02*
X11765848Y-15872484D01*
X12022991Y-16072484D02*
X11908706Y-16072484D01*
X11965848Y-16072484D02*
X11965848Y-15872484D01*
X11965848Y-15872484D02*
X11946801Y-15901055D01*
X11946801Y-15901055D02*
X11927753Y-15920103D01*
X11927753Y-15920103D02*
X11908706Y-15929627D01*
X12203944Y-15872484D02*
X12108706Y-15872484D01*
X12108706Y-15872484D02*
X12099182Y-15967722D01*
X12099182Y-15967722D02*
X12108706Y-15958198D01*
X12108706Y-15958198D02*
X12127753Y-15948674D01*
X12127753Y-15948674D02*
X12175372Y-15948674D01*
X12175372Y-15948674D02*
X12194420Y-15958198D01*
X12194420Y-15958198D02*
X12203944Y-15967722D01*
X12203944Y-15967722D02*
X12213467Y-15986769D01*
X12213467Y-15986769D02*
X12213467Y-16034388D01*
X12213467Y-16034388D02*
X12203944Y-16053436D01*
X12203944Y-16053436D02*
X12194420Y-16062960D01*
X12194420Y-16062960D02*
X12175372Y-16072484D01*
X12175372Y-16072484D02*
X12127753Y-16072484D01*
X12127753Y-16072484D02*
X12108706Y-16062960D01*
X12108706Y-16062960D02*
X12099182Y-16053436D01*
X12280134Y-15872484D02*
X12413467Y-15872484D01*
X12413467Y-15872484D02*
X12327753Y-16072484D01*
X12480134Y-15872484D02*
X12480134Y-15910579D01*
X12556325Y-15872484D02*
X12556325Y-15910579D01*
X12851563Y-16148674D02*
X12842039Y-16139150D01*
X12842039Y-16139150D02*
X12822991Y-16110579D01*
X12822991Y-16110579D02*
X12813468Y-16091531D01*
X12813468Y-16091531D02*
X12803944Y-16062960D01*
X12803944Y-16062960D02*
X12794420Y-16015341D01*
X12794420Y-16015341D02*
X12794420Y-15977246D01*
X12794420Y-15977246D02*
X12803944Y-15929627D01*
X12803944Y-15929627D02*
X12813468Y-15901055D01*
X12813468Y-15901055D02*
X12822991Y-15882008D01*
X12822991Y-15882008D02*
X12842039Y-15853436D01*
X12842039Y-15853436D02*
X12851563Y-15843912D01*
X13013468Y-15939150D02*
X13013468Y-16072484D01*
X12965848Y-15862960D02*
X12918229Y-16005817D01*
X12918229Y-16005817D02*
X13042039Y-16005817D01*
X13203944Y-15939150D02*
X13203944Y-16072484D01*
X13156325Y-15862960D02*
X13108706Y-16005817D01*
X13108706Y-16005817D02*
X13232515Y-16005817D01*
X13461087Y-16072484D02*
X13461087Y-15872484D01*
X13546801Y-16072484D02*
X13546801Y-15967722D01*
X13546801Y-15967722D02*
X13537277Y-15948674D01*
X13537277Y-15948674D02*
X13518230Y-15939150D01*
X13518230Y-15939150D02*
X13489658Y-15939150D01*
X13489658Y-15939150D02*
X13470610Y-15948674D01*
X13470610Y-15948674D02*
X13461087Y-15958198D01*
X13670610Y-16072484D02*
X13651563Y-16062960D01*
X13651563Y-16062960D02*
X13642039Y-16053436D01*
X13642039Y-16053436D02*
X13632515Y-16034388D01*
X13632515Y-16034388D02*
X13632515Y-15977246D01*
X13632515Y-15977246D02*
X13642039Y-15958198D01*
X13642039Y-15958198D02*
X13651563Y-15948674D01*
X13651563Y-15948674D02*
X13670610Y-15939150D01*
X13670610Y-15939150D02*
X13699182Y-15939150D01*
X13699182Y-15939150D02*
X13718230Y-15948674D01*
X13718230Y-15948674D02*
X13727753Y-15958198D01*
X13727753Y-15958198D02*
X13737277Y-15977246D01*
X13737277Y-15977246D02*
X13737277Y-16034388D01*
X13737277Y-16034388D02*
X13727753Y-16053436D01*
X13727753Y-16053436D02*
X13718230Y-16062960D01*
X13718230Y-16062960D02*
X13699182Y-16072484D01*
X13699182Y-16072484D02*
X13670610Y-16072484D01*
X13851563Y-16072484D02*
X13832515Y-16062960D01*
X13832515Y-16062960D02*
X13822991Y-16043912D01*
X13822991Y-16043912D02*
X13822991Y-15872484D01*
X14003944Y-16062960D02*
X13984896Y-16072484D01*
X13984896Y-16072484D02*
X13946801Y-16072484D01*
X13946801Y-16072484D02*
X13927753Y-16062960D01*
X13927753Y-16062960D02*
X13918230Y-16043912D01*
X13918230Y-16043912D02*
X13918230Y-15967722D01*
X13918230Y-15967722D02*
X13927753Y-15948674D01*
X13927753Y-15948674D02*
X13946801Y-15939150D01*
X13946801Y-15939150D02*
X13984896Y-15939150D01*
X13984896Y-15939150D02*
X14003944Y-15948674D01*
X14003944Y-15948674D02*
X14013468Y-15967722D01*
X14013468Y-15967722D02*
X14013468Y-15986769D01*
X14013468Y-15986769D02*
X13918230Y-16005817D01*
X14089658Y-16062960D02*
X14108706Y-16072484D01*
X14108706Y-16072484D02*
X14146801Y-16072484D01*
X14146801Y-16072484D02*
X14165849Y-16062960D01*
X14165849Y-16062960D02*
X14175372Y-16043912D01*
X14175372Y-16043912D02*
X14175372Y-16034388D01*
X14175372Y-16034388D02*
X14165849Y-16015341D01*
X14165849Y-16015341D02*
X14146801Y-16005817D01*
X14146801Y-16005817D02*
X14118230Y-16005817D01*
X14118230Y-16005817D02*
X14099182Y-15996293D01*
X14099182Y-15996293D02*
X14089658Y-15977246D01*
X14089658Y-15977246D02*
X14089658Y-15967722D01*
X14089658Y-15967722D02*
X14099182Y-15948674D01*
X14099182Y-15948674D02*
X14118230Y-15939150D01*
X14118230Y-15939150D02*
X14146801Y-15939150D01*
X14146801Y-15939150D02*
X14165849Y-15948674D01*
X14242039Y-16148674D02*
X14251563Y-16139150D01*
X14251563Y-16139150D02*
X14270611Y-16110579D01*
X14270611Y-16110579D02*
X14280134Y-16091531D01*
X14280134Y-16091531D02*
X14289658Y-16062960D01*
X14289658Y-16062960D02*
X14299182Y-16015341D01*
X14299182Y-16015341D02*
X14299182Y-15977246D01*
X14299182Y-15977246D02*
X14289658Y-15929627D01*
X14289658Y-15929627D02*
X14280134Y-15901055D01*
X14280134Y-15901055D02*
X14270611Y-15882008D01*
X14270611Y-15882008D02*
X14251563Y-15853436D01*
X14251563Y-15853436D02*
X14242039Y-15843912D01*
D10*
X9276500Y-16245000D02*
G75*
G03*
X9276500Y-16245000I-25000J0D01*
G01*
D11*
X9575372Y-16136484D02*
X9594420Y-16136484D01*
X9594420Y-16136484D02*
X9613467Y-16146008D01*
X9613467Y-16146008D02*
X9622991Y-16155531D01*
X9622991Y-16155531D02*
X9632515Y-16174579D01*
X9632515Y-16174579D02*
X9642039Y-16212674D01*
X9642039Y-16212674D02*
X9642039Y-16260293D01*
X9642039Y-16260293D02*
X9632515Y-16298388D01*
X9632515Y-16298388D02*
X9622991Y-16317436D01*
X9622991Y-16317436D02*
X9613467Y-16326960D01*
X9613467Y-16326960D02*
X9594420Y-16336484D01*
X9594420Y-16336484D02*
X9575372Y-16336484D01*
X9575372Y-16336484D02*
X9556324Y-16326960D01*
X9556324Y-16326960D02*
X9546801Y-16317436D01*
X9546801Y-16317436D02*
X9537277Y-16298388D01*
X9537277Y-16298388D02*
X9527753Y-16260293D01*
X9527753Y-16260293D02*
X9527753Y-16212674D01*
X9527753Y-16212674D02*
X9537277Y-16174579D01*
X9537277Y-16174579D02*
X9546801Y-16155531D01*
X9546801Y-16155531D02*
X9556324Y-16146008D01*
X9556324Y-16146008D02*
X9575372Y-16136484D01*
X9727753Y-16317436D02*
X9737277Y-16326960D01*
X9737277Y-16326960D02*
X9727753Y-16336484D01*
X9727753Y-16336484D02*
X9718229Y-16326960D01*
X9718229Y-16326960D02*
X9727753Y-16317436D01*
X9727753Y-16317436D02*
X9727753Y-16336484D01*
X9918229Y-16136484D02*
X9822991Y-16136484D01*
X9822991Y-16136484D02*
X9813467Y-16231722D01*
X9813467Y-16231722D02*
X9822991Y-16222198D01*
X9822991Y-16222198D02*
X9842039Y-16212674D01*
X9842039Y-16212674D02*
X9889658Y-16212674D01*
X9889658Y-16212674D02*
X9908705Y-16222198D01*
X9908705Y-16222198D02*
X9918229Y-16231722D01*
X9918229Y-16231722D02*
X9927753Y-16250769D01*
X9927753Y-16250769D02*
X9927753Y-16298388D01*
X9927753Y-16298388D02*
X9918229Y-16317436D01*
X9918229Y-16317436D02*
X9908705Y-16326960D01*
X9908705Y-16326960D02*
X9889658Y-16336484D01*
X9889658Y-16336484D02*
X9842039Y-16336484D01*
X9842039Y-16336484D02*
X9822991Y-16326960D01*
X9822991Y-16326960D02*
X9813467Y-16317436D01*
X10051563Y-16136484D02*
X10070610Y-16136484D01*
X10070610Y-16136484D02*
X10089658Y-16146008D01*
X10089658Y-16146008D02*
X10099182Y-16155531D01*
X10099182Y-16155531D02*
X10108705Y-16174579D01*
X10108705Y-16174579D02*
X10118229Y-16212674D01*
X10118229Y-16212674D02*
X10118229Y-16260293D01*
X10118229Y-16260293D02*
X10108705Y-16298388D01*
X10108705Y-16298388D02*
X10099182Y-16317436D01*
X10099182Y-16317436D02*
X10089658Y-16326960D01*
X10089658Y-16326960D02*
X10070610Y-16336484D01*
X10070610Y-16336484D02*
X10051563Y-16336484D01*
X10051563Y-16336484D02*
X10032515Y-16326960D01*
X10032515Y-16326960D02*
X10022991Y-16317436D01*
X10022991Y-16317436D02*
X10013467Y-16298388D01*
X10013467Y-16298388D02*
X10003944Y-16260293D01*
X10003944Y-16260293D02*
X10003944Y-16212674D01*
X10003944Y-16212674D02*
X10013467Y-16174579D01*
X10013467Y-16174579D02*
X10022991Y-16155531D01*
X10022991Y-16155531D02*
X10032515Y-16146008D01*
X10032515Y-16146008D02*
X10051563Y-16136484D01*
X10242039Y-16136484D02*
X10261086Y-16136484D01*
X10261086Y-16136484D02*
X10280134Y-16146008D01*
X10280134Y-16146008D02*
X10289658Y-16155531D01*
X10289658Y-16155531D02*
X10299182Y-16174579D01*
X10299182Y-16174579D02*
X10308705Y-16212674D01*
X10308705Y-16212674D02*
X10308705Y-16260293D01*
X10308705Y-16260293D02*
X10299182Y-16298388D01*
X10299182Y-16298388D02*
X10289658Y-16317436D01*
X10289658Y-16317436D02*
X10280134Y-16326960D01*
X10280134Y-16326960D02*
X10261086Y-16336484D01*
X10261086Y-16336484D02*
X10242039Y-16336484D01*
X10242039Y-16336484D02*
X10222991Y-16326960D01*
X10222991Y-16326960D02*
X10213467Y-16317436D01*
X10213467Y-16317436D02*
X10203944Y-16298388D01*
X10203944Y-16298388D02*
X10194420Y-16260293D01*
X10194420Y-16260293D02*
X10194420Y-16212674D01*
X10194420Y-16212674D02*
X10203944Y-16174579D01*
X10203944Y-16174579D02*
X10213467Y-16155531D01*
X10213467Y-16155531D02*
X10222991Y-16146008D01*
X10222991Y-16146008D02*
X10242039Y-16136484D01*
X10394420Y-16336484D02*
X10394420Y-16203150D01*
X10394420Y-16222198D02*
X10403944Y-16212674D01*
X10403944Y-16212674D02*
X10422991Y-16203150D01*
X10422991Y-16203150D02*
X10451563Y-16203150D01*
X10451563Y-16203150D02*
X10470610Y-16212674D01*
X10470610Y-16212674D02*
X10480134Y-16231722D01*
X10480134Y-16231722D02*
X10480134Y-16336484D01*
X10480134Y-16231722D02*
X10489658Y-16212674D01*
X10489658Y-16212674D02*
X10508705Y-16203150D01*
X10508705Y-16203150D02*
X10537277Y-16203150D01*
X10537277Y-16203150D02*
X10556325Y-16212674D01*
X10556325Y-16212674D02*
X10565848Y-16231722D01*
X10565848Y-16231722D02*
X10565848Y-16336484D01*
X10661086Y-16336484D02*
X10661086Y-16203150D01*
X10661086Y-16222198D02*
X10670610Y-16212674D01*
X10670610Y-16212674D02*
X10689658Y-16203150D01*
X10689658Y-16203150D02*
X10718229Y-16203150D01*
X10718229Y-16203150D02*
X10737277Y-16212674D01*
X10737277Y-16212674D02*
X10746801Y-16231722D01*
X10746801Y-16231722D02*
X10746801Y-16336484D01*
X10746801Y-16231722D02*
X10756325Y-16212674D01*
X10756325Y-16212674D02*
X10775372Y-16203150D01*
X10775372Y-16203150D02*
X10803944Y-16203150D01*
X10803944Y-16203150D02*
X10822991Y-16212674D01*
X10822991Y-16212674D02*
X10832515Y-16231722D01*
X10832515Y-16231722D02*
X10832515Y-16336484D01*
X11222991Y-16126960D02*
X11051563Y-16384103D01*
X11480134Y-16136484D02*
X11499182Y-16136484D01*
X11499182Y-16136484D02*
X11518229Y-16146008D01*
X11518229Y-16146008D02*
X11527753Y-16155531D01*
X11527753Y-16155531D02*
X11537277Y-16174579D01*
X11537277Y-16174579D02*
X11546801Y-16212674D01*
X11546801Y-16212674D02*
X11546801Y-16260293D01*
X11546801Y-16260293D02*
X11537277Y-16298388D01*
X11537277Y-16298388D02*
X11527753Y-16317436D01*
X11527753Y-16317436D02*
X11518229Y-16326960D01*
X11518229Y-16326960D02*
X11499182Y-16336484D01*
X11499182Y-16336484D02*
X11480134Y-16336484D01*
X11480134Y-16336484D02*
X11461086Y-16326960D01*
X11461086Y-16326960D02*
X11451563Y-16317436D01*
X11451563Y-16317436D02*
X11442039Y-16298388D01*
X11442039Y-16298388D02*
X11432515Y-16260293D01*
X11432515Y-16260293D02*
X11432515Y-16212674D01*
X11432515Y-16212674D02*
X11442039Y-16174579D01*
X11442039Y-16174579D02*
X11451563Y-16155531D01*
X11451563Y-16155531D02*
X11461086Y-16146008D01*
X11461086Y-16146008D02*
X11480134Y-16136484D01*
X11632515Y-16317436D02*
X11642039Y-16326960D01*
X11642039Y-16326960D02*
X11632515Y-16336484D01*
X11632515Y-16336484D02*
X11622991Y-16326960D01*
X11622991Y-16326960D02*
X11632515Y-16317436D01*
X11632515Y-16317436D02*
X11632515Y-16336484D01*
X11765848Y-16136484D02*
X11784896Y-16136484D01*
X11784896Y-16136484D02*
X11803944Y-16146008D01*
X11803944Y-16146008D02*
X11813467Y-16155531D01*
X11813467Y-16155531D02*
X11822991Y-16174579D01*
X11822991Y-16174579D02*
X11832515Y-16212674D01*
X11832515Y-16212674D02*
X11832515Y-16260293D01*
X11832515Y-16260293D02*
X11822991Y-16298388D01*
X11822991Y-16298388D02*
X11813467Y-16317436D01*
X11813467Y-16317436D02*
X11803944Y-16326960D01*
X11803944Y-16326960D02*
X11784896Y-16336484D01*
X11784896Y-16336484D02*
X11765848Y-16336484D01*
X11765848Y-16336484D02*
X11746801Y-16326960D01*
X11746801Y-16326960D02*
X11737277Y-16317436D01*
X11737277Y-16317436D02*
X11727753Y-16298388D01*
X11727753Y-16298388D02*
X11718229Y-16260293D01*
X11718229Y-16260293D02*
X11718229Y-16212674D01*
X11718229Y-16212674D02*
X11727753Y-16174579D01*
X11727753Y-16174579D02*
X11737277Y-16155531D01*
X11737277Y-16155531D02*
X11746801Y-16146008D01*
X11746801Y-16146008D02*
X11765848Y-16136484D01*
X12022991Y-16336484D02*
X11908706Y-16336484D01*
X11965848Y-16336484D02*
X11965848Y-16136484D01*
X11965848Y-16136484D02*
X11946801Y-16165055D01*
X11946801Y-16165055D02*
X11927753Y-16184103D01*
X11927753Y-16184103D02*
X11908706Y-16193627D01*
X12118229Y-16336484D02*
X12156325Y-16336484D01*
X12156325Y-16336484D02*
X12175372Y-16326960D01*
X12175372Y-16326960D02*
X12184896Y-16317436D01*
X12184896Y-16317436D02*
X12203944Y-16288865D01*
X12203944Y-16288865D02*
X12213467Y-16250769D01*
X12213467Y-16250769D02*
X12213467Y-16174579D01*
X12213467Y-16174579D02*
X12203944Y-16155531D01*
X12203944Y-16155531D02*
X12194420Y-16146008D01*
X12194420Y-16146008D02*
X12175372Y-16136484D01*
X12175372Y-16136484D02*
X12137277Y-16136484D01*
X12137277Y-16136484D02*
X12118229Y-16146008D01*
X12118229Y-16146008D02*
X12108706Y-16155531D01*
X12108706Y-16155531D02*
X12099182Y-16174579D01*
X12099182Y-16174579D02*
X12099182Y-16222198D01*
X12099182Y-16222198D02*
X12108706Y-16241246D01*
X12108706Y-16241246D02*
X12118229Y-16250769D01*
X12118229Y-16250769D02*
X12137277Y-16260293D01*
X12137277Y-16260293D02*
X12175372Y-16260293D01*
X12175372Y-16260293D02*
X12194420Y-16250769D01*
X12194420Y-16250769D02*
X12203944Y-16241246D01*
X12203944Y-16241246D02*
X12213467Y-16222198D01*
X12280134Y-16136484D02*
X12413467Y-16136484D01*
X12413467Y-16136484D02*
X12327753Y-16336484D01*
X12480134Y-16136484D02*
X12480134Y-16174579D01*
X12556325Y-16136484D02*
X12556325Y-16174579D01*
X12851563Y-16412674D02*
X12842039Y-16403150D01*
X12842039Y-16403150D02*
X12822991Y-16374579D01*
X12822991Y-16374579D02*
X12813468Y-16355531D01*
X12813468Y-16355531D02*
X12803944Y-16326960D01*
X12803944Y-16326960D02*
X12794420Y-16279341D01*
X12794420Y-16279341D02*
X12794420Y-16241246D01*
X12794420Y-16241246D02*
X12803944Y-16193627D01*
X12803944Y-16193627D02*
X12813468Y-16165055D01*
X12813468Y-16165055D02*
X12822991Y-16146008D01*
X12822991Y-16146008D02*
X12842039Y-16117436D01*
X12842039Y-16117436D02*
X12851563Y-16107912D01*
X13013468Y-16136484D02*
X12975372Y-16136484D01*
X12975372Y-16136484D02*
X12956325Y-16146008D01*
X12956325Y-16146008D02*
X12946801Y-16155531D01*
X12946801Y-16155531D02*
X12927753Y-16184103D01*
X12927753Y-16184103D02*
X12918229Y-16222198D01*
X12918229Y-16222198D02*
X12918229Y-16298388D01*
X12918229Y-16298388D02*
X12927753Y-16317436D01*
X12927753Y-16317436D02*
X12937277Y-16326960D01*
X12937277Y-16326960D02*
X12956325Y-16336484D01*
X12956325Y-16336484D02*
X12994420Y-16336484D01*
X12994420Y-16336484D02*
X13013468Y-16326960D01*
X13013468Y-16326960D02*
X13022991Y-16317436D01*
X13022991Y-16317436D02*
X13032515Y-16298388D01*
X13032515Y-16298388D02*
X13032515Y-16250769D01*
X13032515Y-16250769D02*
X13022991Y-16231722D01*
X13022991Y-16231722D02*
X13013468Y-16222198D01*
X13013468Y-16222198D02*
X12994420Y-16212674D01*
X12994420Y-16212674D02*
X12956325Y-16212674D01*
X12956325Y-16212674D02*
X12937277Y-16222198D01*
X12937277Y-16222198D02*
X12927753Y-16231722D01*
X12927753Y-16231722D02*
X12918229Y-16250769D01*
X13270610Y-16336484D02*
X13270610Y-16136484D01*
X13356325Y-16336484D02*
X13356325Y-16231722D01*
X13356325Y-16231722D02*
X13346801Y-16212674D01*
X13346801Y-16212674D02*
X13327753Y-16203150D01*
X13327753Y-16203150D02*
X13299182Y-16203150D01*
X13299182Y-16203150D02*
X13280134Y-16212674D01*
X13280134Y-16212674D02*
X13270610Y-16222198D01*
X13480134Y-16336484D02*
X13461087Y-16326960D01*
X13461087Y-16326960D02*
X13451563Y-16317436D01*
X13451563Y-16317436D02*
X13442039Y-16298388D01*
X13442039Y-16298388D02*
X13442039Y-16241246D01*
X13442039Y-16241246D02*
X13451563Y-16222198D01*
X13451563Y-16222198D02*
X13461087Y-16212674D01*
X13461087Y-16212674D02*
X13480134Y-16203150D01*
X13480134Y-16203150D02*
X13508706Y-16203150D01*
X13508706Y-16203150D02*
X13527753Y-16212674D01*
X13527753Y-16212674D02*
X13537277Y-16222198D01*
X13537277Y-16222198D02*
X13546801Y-16241246D01*
X13546801Y-16241246D02*
X13546801Y-16298388D01*
X13546801Y-16298388D02*
X13537277Y-16317436D01*
X13537277Y-16317436D02*
X13527753Y-16326960D01*
X13527753Y-16326960D02*
X13508706Y-16336484D01*
X13508706Y-16336484D02*
X13480134Y-16336484D01*
X13661087Y-16336484D02*
X13642039Y-16326960D01*
X13642039Y-16326960D02*
X13632515Y-16307912D01*
X13632515Y-16307912D02*
X13632515Y-16136484D01*
X13813468Y-16326960D02*
X13794420Y-16336484D01*
X13794420Y-16336484D02*
X13756325Y-16336484D01*
X13756325Y-16336484D02*
X13737277Y-16326960D01*
X13737277Y-16326960D02*
X13727753Y-16307912D01*
X13727753Y-16307912D02*
X13727753Y-16231722D01*
X13727753Y-16231722D02*
X13737277Y-16212674D01*
X13737277Y-16212674D02*
X13756325Y-16203150D01*
X13756325Y-16203150D02*
X13794420Y-16203150D01*
X13794420Y-16203150D02*
X13813468Y-16212674D01*
X13813468Y-16212674D02*
X13822991Y-16231722D01*
X13822991Y-16231722D02*
X13822991Y-16250769D01*
X13822991Y-16250769D02*
X13727753Y-16269817D01*
X13899182Y-16326960D02*
X13918230Y-16336484D01*
X13918230Y-16336484D02*
X13956325Y-16336484D01*
X13956325Y-16336484D02*
X13975372Y-16326960D01*
X13975372Y-16326960D02*
X13984896Y-16307912D01*
X13984896Y-16307912D02*
X13984896Y-16298388D01*
X13984896Y-16298388D02*
X13975372Y-16279341D01*
X13975372Y-16279341D02*
X13956325Y-16269817D01*
X13956325Y-16269817D02*
X13927753Y-16269817D01*
X13927753Y-16269817D02*
X13908706Y-16260293D01*
X13908706Y-16260293D02*
X13899182Y-16241246D01*
X13899182Y-16241246D02*
X13899182Y-16231722D01*
X13899182Y-16231722D02*
X13908706Y-16212674D01*
X13908706Y-16212674D02*
X13927753Y-16203150D01*
X13927753Y-16203150D02*
X13956325Y-16203150D01*
X13956325Y-16203150D02*
X13975372Y-16212674D01*
X14051563Y-16412674D02*
X14061087Y-16403150D01*
X14061087Y-16403150D02*
X14080134Y-16374579D01*
X14080134Y-16374579D02*
X14089658Y-16355531D01*
X14089658Y-16355531D02*
X14099182Y-16326960D01*
X14099182Y-16326960D02*
X14108706Y-16279341D01*
X14108706Y-16279341D02*
X14108706Y-16241246D01*
X14108706Y-16241246D02*
X14099182Y-16193627D01*
X14099182Y-16193627D02*
X14089658Y-16165055D01*
X14089658Y-16165055D02*
X14080134Y-16146008D01*
X14080134Y-16146008D02*
X14061087Y-16117436D01*
X14061087Y-16117436D02*
X14051563Y-16107912D01*
D10*
X9236500Y-16469000D02*
X9236500Y-16549000D01*
X9196500Y-16509000D02*
X9276500Y-16509000D01*
D11*
X9575372Y-16400484D02*
X9594420Y-16400484D01*
X9594420Y-16400484D02*
X9613467Y-16410008D01*
X9613467Y-16410008D02*
X9622991Y-16419531D01*
X9622991Y-16419531D02*
X9632515Y-16438579D01*
X9632515Y-16438579D02*
X9642039Y-16476674D01*
X9642039Y-16476674D02*
X9642039Y-16524293D01*
X9642039Y-16524293D02*
X9632515Y-16562388D01*
X9632515Y-16562388D02*
X9622991Y-16581436D01*
X9622991Y-16581436D02*
X9613467Y-16590960D01*
X9613467Y-16590960D02*
X9594420Y-16600484D01*
X9594420Y-16600484D02*
X9575372Y-16600484D01*
X9575372Y-16600484D02*
X9556324Y-16590960D01*
X9556324Y-16590960D02*
X9546801Y-16581436D01*
X9546801Y-16581436D02*
X9537277Y-16562388D01*
X9537277Y-16562388D02*
X9527753Y-16524293D01*
X9527753Y-16524293D02*
X9527753Y-16476674D01*
X9527753Y-16476674D02*
X9537277Y-16438579D01*
X9537277Y-16438579D02*
X9546801Y-16419531D01*
X9546801Y-16419531D02*
X9556324Y-16410008D01*
X9556324Y-16410008D02*
X9575372Y-16400484D01*
X9727753Y-16581436D02*
X9737277Y-16590960D01*
X9737277Y-16590960D02*
X9727753Y-16600484D01*
X9727753Y-16600484D02*
X9718229Y-16590960D01*
X9718229Y-16590960D02*
X9727753Y-16581436D01*
X9727753Y-16581436D02*
X9727753Y-16600484D01*
X9851563Y-16486198D02*
X9832515Y-16476674D01*
X9832515Y-16476674D02*
X9822991Y-16467150D01*
X9822991Y-16467150D02*
X9813467Y-16448103D01*
X9813467Y-16448103D02*
X9813467Y-16438579D01*
X9813467Y-16438579D02*
X9822991Y-16419531D01*
X9822991Y-16419531D02*
X9832515Y-16410008D01*
X9832515Y-16410008D02*
X9851563Y-16400484D01*
X9851563Y-16400484D02*
X9889658Y-16400484D01*
X9889658Y-16400484D02*
X9908705Y-16410008D01*
X9908705Y-16410008D02*
X9918229Y-16419531D01*
X9918229Y-16419531D02*
X9927753Y-16438579D01*
X9927753Y-16438579D02*
X9927753Y-16448103D01*
X9927753Y-16448103D02*
X9918229Y-16467150D01*
X9918229Y-16467150D02*
X9908705Y-16476674D01*
X9908705Y-16476674D02*
X9889658Y-16486198D01*
X9889658Y-16486198D02*
X9851563Y-16486198D01*
X9851563Y-16486198D02*
X9832515Y-16495722D01*
X9832515Y-16495722D02*
X9822991Y-16505246D01*
X9822991Y-16505246D02*
X9813467Y-16524293D01*
X9813467Y-16524293D02*
X9813467Y-16562388D01*
X9813467Y-16562388D02*
X9822991Y-16581436D01*
X9822991Y-16581436D02*
X9832515Y-16590960D01*
X9832515Y-16590960D02*
X9851563Y-16600484D01*
X9851563Y-16600484D02*
X9889658Y-16600484D01*
X9889658Y-16600484D02*
X9908705Y-16590960D01*
X9908705Y-16590960D02*
X9918229Y-16581436D01*
X9918229Y-16581436D02*
X9927753Y-16562388D01*
X9927753Y-16562388D02*
X9927753Y-16524293D01*
X9927753Y-16524293D02*
X9918229Y-16505246D01*
X9918229Y-16505246D02*
X9908705Y-16495722D01*
X9908705Y-16495722D02*
X9889658Y-16486198D01*
X10051563Y-16400484D02*
X10070610Y-16400484D01*
X10070610Y-16400484D02*
X10089658Y-16410008D01*
X10089658Y-16410008D02*
X10099182Y-16419531D01*
X10099182Y-16419531D02*
X10108705Y-16438579D01*
X10108705Y-16438579D02*
X10118229Y-16476674D01*
X10118229Y-16476674D02*
X10118229Y-16524293D01*
X10118229Y-16524293D02*
X10108705Y-16562388D01*
X10108705Y-16562388D02*
X10099182Y-16581436D01*
X10099182Y-16581436D02*
X10089658Y-16590960D01*
X10089658Y-16590960D02*
X10070610Y-16600484D01*
X10070610Y-16600484D02*
X10051563Y-16600484D01*
X10051563Y-16600484D02*
X10032515Y-16590960D01*
X10032515Y-16590960D02*
X10022991Y-16581436D01*
X10022991Y-16581436D02*
X10013467Y-16562388D01*
X10013467Y-16562388D02*
X10003944Y-16524293D01*
X10003944Y-16524293D02*
X10003944Y-16476674D01*
X10003944Y-16476674D02*
X10013467Y-16438579D01*
X10013467Y-16438579D02*
X10022991Y-16419531D01*
X10022991Y-16419531D02*
X10032515Y-16410008D01*
X10032515Y-16410008D02*
X10051563Y-16400484D01*
X10242039Y-16400484D02*
X10261086Y-16400484D01*
X10261086Y-16400484D02*
X10280134Y-16410008D01*
X10280134Y-16410008D02*
X10289658Y-16419531D01*
X10289658Y-16419531D02*
X10299182Y-16438579D01*
X10299182Y-16438579D02*
X10308705Y-16476674D01*
X10308705Y-16476674D02*
X10308705Y-16524293D01*
X10308705Y-16524293D02*
X10299182Y-16562388D01*
X10299182Y-16562388D02*
X10289658Y-16581436D01*
X10289658Y-16581436D02*
X10280134Y-16590960D01*
X10280134Y-16590960D02*
X10261086Y-16600484D01*
X10261086Y-16600484D02*
X10242039Y-16600484D01*
X10242039Y-16600484D02*
X10222991Y-16590960D01*
X10222991Y-16590960D02*
X10213467Y-16581436D01*
X10213467Y-16581436D02*
X10203944Y-16562388D01*
X10203944Y-16562388D02*
X10194420Y-16524293D01*
X10194420Y-16524293D02*
X10194420Y-16476674D01*
X10194420Y-16476674D02*
X10203944Y-16438579D01*
X10203944Y-16438579D02*
X10213467Y-16419531D01*
X10213467Y-16419531D02*
X10222991Y-16410008D01*
X10222991Y-16410008D02*
X10242039Y-16400484D01*
X10394420Y-16600484D02*
X10394420Y-16467150D01*
X10394420Y-16486198D02*
X10403944Y-16476674D01*
X10403944Y-16476674D02*
X10422991Y-16467150D01*
X10422991Y-16467150D02*
X10451563Y-16467150D01*
X10451563Y-16467150D02*
X10470610Y-16476674D01*
X10470610Y-16476674D02*
X10480134Y-16495722D01*
X10480134Y-16495722D02*
X10480134Y-16600484D01*
X10480134Y-16495722D02*
X10489658Y-16476674D01*
X10489658Y-16476674D02*
X10508705Y-16467150D01*
X10508705Y-16467150D02*
X10537277Y-16467150D01*
X10537277Y-16467150D02*
X10556325Y-16476674D01*
X10556325Y-16476674D02*
X10565848Y-16495722D01*
X10565848Y-16495722D02*
X10565848Y-16600484D01*
X10661086Y-16600484D02*
X10661086Y-16467150D01*
X10661086Y-16486198D02*
X10670610Y-16476674D01*
X10670610Y-16476674D02*
X10689658Y-16467150D01*
X10689658Y-16467150D02*
X10718229Y-16467150D01*
X10718229Y-16467150D02*
X10737277Y-16476674D01*
X10737277Y-16476674D02*
X10746801Y-16495722D01*
X10746801Y-16495722D02*
X10746801Y-16600484D01*
X10746801Y-16495722D02*
X10756325Y-16476674D01*
X10756325Y-16476674D02*
X10775372Y-16467150D01*
X10775372Y-16467150D02*
X10803944Y-16467150D01*
X10803944Y-16467150D02*
X10822991Y-16476674D01*
X10822991Y-16476674D02*
X10832515Y-16495722D01*
X10832515Y-16495722D02*
X10832515Y-16600484D01*
X11222991Y-16390960D02*
X11051563Y-16648103D01*
X11480134Y-16400484D02*
X11499182Y-16400484D01*
X11499182Y-16400484D02*
X11518229Y-16410008D01*
X11518229Y-16410008D02*
X11527753Y-16419531D01*
X11527753Y-16419531D02*
X11537277Y-16438579D01*
X11537277Y-16438579D02*
X11546801Y-16476674D01*
X11546801Y-16476674D02*
X11546801Y-16524293D01*
X11546801Y-16524293D02*
X11537277Y-16562388D01*
X11537277Y-16562388D02*
X11527753Y-16581436D01*
X11527753Y-16581436D02*
X11518229Y-16590960D01*
X11518229Y-16590960D02*
X11499182Y-16600484D01*
X11499182Y-16600484D02*
X11480134Y-16600484D01*
X11480134Y-16600484D02*
X11461086Y-16590960D01*
X11461086Y-16590960D02*
X11451563Y-16581436D01*
X11451563Y-16581436D02*
X11442039Y-16562388D01*
X11442039Y-16562388D02*
X11432515Y-16524293D01*
X11432515Y-16524293D02*
X11432515Y-16476674D01*
X11432515Y-16476674D02*
X11442039Y-16438579D01*
X11442039Y-16438579D02*
X11451563Y-16419531D01*
X11451563Y-16419531D02*
X11461086Y-16410008D01*
X11461086Y-16410008D02*
X11480134Y-16400484D01*
X11632515Y-16581436D02*
X11642039Y-16590960D01*
X11642039Y-16590960D02*
X11632515Y-16600484D01*
X11632515Y-16600484D02*
X11622991Y-16590960D01*
X11622991Y-16590960D02*
X11632515Y-16581436D01*
X11632515Y-16581436D02*
X11632515Y-16600484D01*
X11765848Y-16400484D02*
X11784896Y-16400484D01*
X11784896Y-16400484D02*
X11803944Y-16410008D01*
X11803944Y-16410008D02*
X11813467Y-16419531D01*
X11813467Y-16419531D02*
X11822991Y-16438579D01*
X11822991Y-16438579D02*
X11832515Y-16476674D01*
X11832515Y-16476674D02*
X11832515Y-16524293D01*
X11832515Y-16524293D02*
X11822991Y-16562388D01*
X11822991Y-16562388D02*
X11813467Y-16581436D01*
X11813467Y-16581436D02*
X11803944Y-16590960D01*
X11803944Y-16590960D02*
X11784896Y-16600484D01*
X11784896Y-16600484D02*
X11765848Y-16600484D01*
X11765848Y-16600484D02*
X11746801Y-16590960D01*
X11746801Y-16590960D02*
X11737277Y-16581436D01*
X11737277Y-16581436D02*
X11727753Y-16562388D01*
X11727753Y-16562388D02*
X11718229Y-16524293D01*
X11718229Y-16524293D02*
X11718229Y-16476674D01*
X11718229Y-16476674D02*
X11727753Y-16438579D01*
X11727753Y-16438579D02*
X11737277Y-16419531D01*
X11737277Y-16419531D02*
X11746801Y-16410008D01*
X11746801Y-16410008D02*
X11765848Y-16400484D01*
X11899182Y-16400484D02*
X12022991Y-16400484D01*
X12022991Y-16400484D02*
X11956325Y-16476674D01*
X11956325Y-16476674D02*
X11984896Y-16476674D01*
X11984896Y-16476674D02*
X12003944Y-16486198D01*
X12003944Y-16486198D02*
X12013467Y-16495722D01*
X12013467Y-16495722D02*
X12022991Y-16514769D01*
X12022991Y-16514769D02*
X12022991Y-16562388D01*
X12022991Y-16562388D02*
X12013467Y-16581436D01*
X12013467Y-16581436D02*
X12003944Y-16590960D01*
X12003944Y-16590960D02*
X11984896Y-16600484D01*
X11984896Y-16600484D02*
X11927753Y-16600484D01*
X11927753Y-16600484D02*
X11908706Y-16590960D01*
X11908706Y-16590960D02*
X11899182Y-16581436D01*
X12213467Y-16600484D02*
X12099182Y-16600484D01*
X12156325Y-16600484D02*
X12156325Y-16400484D01*
X12156325Y-16400484D02*
X12137277Y-16429055D01*
X12137277Y-16429055D02*
X12118229Y-16448103D01*
X12118229Y-16448103D02*
X12099182Y-16457627D01*
X12394420Y-16400484D02*
X12299182Y-16400484D01*
X12299182Y-16400484D02*
X12289658Y-16495722D01*
X12289658Y-16495722D02*
X12299182Y-16486198D01*
X12299182Y-16486198D02*
X12318229Y-16476674D01*
X12318229Y-16476674D02*
X12365848Y-16476674D01*
X12365848Y-16476674D02*
X12384896Y-16486198D01*
X12384896Y-16486198D02*
X12394420Y-16495722D01*
X12394420Y-16495722D02*
X12403944Y-16514769D01*
X12403944Y-16514769D02*
X12403944Y-16562388D01*
X12403944Y-16562388D02*
X12394420Y-16581436D01*
X12394420Y-16581436D02*
X12384896Y-16590960D01*
X12384896Y-16590960D02*
X12365848Y-16600484D01*
X12365848Y-16600484D02*
X12318229Y-16600484D01*
X12318229Y-16600484D02*
X12299182Y-16590960D01*
X12299182Y-16590960D02*
X12289658Y-16581436D01*
X12480134Y-16400484D02*
X12480134Y-16438579D01*
X12556325Y-16400484D02*
X12556325Y-16438579D01*
X12851563Y-16676674D02*
X12842039Y-16667150D01*
X12842039Y-16667150D02*
X12822991Y-16638579D01*
X12822991Y-16638579D02*
X12813468Y-16619531D01*
X12813468Y-16619531D02*
X12803944Y-16590960D01*
X12803944Y-16590960D02*
X12794420Y-16543341D01*
X12794420Y-16543341D02*
X12794420Y-16505246D01*
X12794420Y-16505246D02*
X12803944Y-16457627D01*
X12803944Y-16457627D02*
X12813468Y-16429055D01*
X12813468Y-16429055D02*
X12822991Y-16410008D01*
X12822991Y-16410008D02*
X12842039Y-16381436D01*
X12842039Y-16381436D02*
X12851563Y-16371912D01*
X12908706Y-16400484D02*
X13032515Y-16400484D01*
X13032515Y-16400484D02*
X12965848Y-16476674D01*
X12965848Y-16476674D02*
X12994420Y-16476674D01*
X12994420Y-16476674D02*
X13013468Y-16486198D01*
X13013468Y-16486198D02*
X13022991Y-16495722D01*
X13022991Y-16495722D02*
X13032515Y-16514769D01*
X13032515Y-16514769D02*
X13032515Y-16562388D01*
X13032515Y-16562388D02*
X13022991Y-16581436D01*
X13022991Y-16581436D02*
X13013468Y-16590960D01*
X13013468Y-16590960D02*
X12994420Y-16600484D01*
X12994420Y-16600484D02*
X12937277Y-16600484D01*
X12937277Y-16600484D02*
X12918229Y-16590960D01*
X12918229Y-16590960D02*
X12908706Y-16581436D01*
X13203944Y-16467150D02*
X13203944Y-16600484D01*
X13156325Y-16390960D02*
X13108706Y-16533817D01*
X13108706Y-16533817D02*
X13232515Y-16533817D01*
X13461087Y-16600484D02*
X13461087Y-16400484D01*
X13546801Y-16600484D02*
X13546801Y-16495722D01*
X13546801Y-16495722D02*
X13537277Y-16476674D01*
X13537277Y-16476674D02*
X13518230Y-16467150D01*
X13518230Y-16467150D02*
X13489658Y-16467150D01*
X13489658Y-16467150D02*
X13470610Y-16476674D01*
X13470610Y-16476674D02*
X13461087Y-16486198D01*
X13670610Y-16600484D02*
X13651563Y-16590960D01*
X13651563Y-16590960D02*
X13642039Y-16581436D01*
X13642039Y-16581436D02*
X13632515Y-16562388D01*
X13632515Y-16562388D02*
X13632515Y-16505246D01*
X13632515Y-16505246D02*
X13642039Y-16486198D01*
X13642039Y-16486198D02*
X13651563Y-16476674D01*
X13651563Y-16476674D02*
X13670610Y-16467150D01*
X13670610Y-16467150D02*
X13699182Y-16467150D01*
X13699182Y-16467150D02*
X13718230Y-16476674D01*
X13718230Y-16476674D02*
X13727753Y-16486198D01*
X13727753Y-16486198D02*
X13737277Y-16505246D01*
X13737277Y-16505246D02*
X13737277Y-16562388D01*
X13737277Y-16562388D02*
X13727753Y-16581436D01*
X13727753Y-16581436D02*
X13718230Y-16590960D01*
X13718230Y-16590960D02*
X13699182Y-16600484D01*
X13699182Y-16600484D02*
X13670610Y-16600484D01*
X13851563Y-16600484D02*
X13832515Y-16590960D01*
X13832515Y-16590960D02*
X13822991Y-16571912D01*
X13822991Y-16571912D02*
X13822991Y-16400484D01*
X14003944Y-16590960D02*
X13984896Y-16600484D01*
X13984896Y-16600484D02*
X13946801Y-16600484D01*
X13946801Y-16600484D02*
X13927753Y-16590960D01*
X13927753Y-16590960D02*
X13918230Y-16571912D01*
X13918230Y-16571912D02*
X13918230Y-16495722D01*
X13918230Y-16495722D02*
X13927753Y-16476674D01*
X13927753Y-16476674D02*
X13946801Y-16467150D01*
X13946801Y-16467150D02*
X13984896Y-16467150D01*
X13984896Y-16467150D02*
X14003944Y-16476674D01*
X14003944Y-16476674D02*
X14013468Y-16495722D01*
X14013468Y-16495722D02*
X14013468Y-16514769D01*
X14013468Y-16514769D02*
X13918230Y-16533817D01*
X14089658Y-16590960D02*
X14108706Y-16600484D01*
X14108706Y-16600484D02*
X14146801Y-16600484D01*
X14146801Y-16600484D02*
X14165849Y-16590960D01*
X14165849Y-16590960D02*
X14175372Y-16571912D01*
X14175372Y-16571912D02*
X14175372Y-16562388D01*
X14175372Y-16562388D02*
X14165849Y-16543341D01*
X14165849Y-16543341D02*
X14146801Y-16533817D01*
X14146801Y-16533817D02*
X14118230Y-16533817D01*
X14118230Y-16533817D02*
X14099182Y-16524293D01*
X14099182Y-16524293D02*
X14089658Y-16505246D01*
X14089658Y-16505246D02*
X14089658Y-16495722D01*
X14089658Y-16495722D02*
X14099182Y-16476674D01*
X14099182Y-16476674D02*
X14118230Y-16467150D01*
X14118230Y-16467150D02*
X14146801Y-16467150D01*
X14146801Y-16467150D02*
X14165849Y-16476674D01*
X14242039Y-16676674D02*
X14251563Y-16667150D01*
X14251563Y-16667150D02*
X14270611Y-16638579D01*
X14270611Y-16638579D02*
X14280134Y-16619531D01*
X14280134Y-16619531D02*
X14289658Y-16590960D01*
X14289658Y-16590960D02*
X14299182Y-16543341D01*
X14299182Y-16543341D02*
X14299182Y-16505246D01*
X14299182Y-16505246D02*
X14289658Y-16457627D01*
X14289658Y-16457627D02*
X14280134Y-16429055D01*
X14280134Y-16429055D02*
X14270611Y-16410008D01*
X14270611Y-16410008D02*
X14251563Y-16381436D01*
X14251563Y-16381436D02*
X14242039Y-16371912D01*
D10*
X9261856Y-16808356D02*
X9261856Y-16737644D01*
X9191144Y-16737644D01*
X9191144Y-16808356D01*
X9261856Y-16808356D01*
D11*
X9642039Y-16864484D02*
X9527753Y-16864484D01*
X9584896Y-16864484D02*
X9584896Y-16664484D01*
X9584896Y-16664484D02*
X9565848Y-16693055D01*
X9565848Y-16693055D02*
X9546801Y-16712103D01*
X9546801Y-16712103D02*
X9527753Y-16721627D01*
X9727753Y-16845436D02*
X9737277Y-16854960D01*
X9737277Y-16854960D02*
X9727753Y-16864484D01*
X9727753Y-16864484D02*
X9718229Y-16854960D01*
X9718229Y-16854960D02*
X9727753Y-16845436D01*
X9727753Y-16845436D02*
X9727753Y-16864484D01*
X9861086Y-16664484D02*
X9880134Y-16664484D01*
X9880134Y-16664484D02*
X9899182Y-16674008D01*
X9899182Y-16674008D02*
X9908705Y-16683531D01*
X9908705Y-16683531D02*
X9918229Y-16702579D01*
X9918229Y-16702579D02*
X9927753Y-16740674D01*
X9927753Y-16740674D02*
X9927753Y-16788293D01*
X9927753Y-16788293D02*
X9918229Y-16826389D01*
X9918229Y-16826389D02*
X9908705Y-16845436D01*
X9908705Y-16845436D02*
X9899182Y-16854960D01*
X9899182Y-16854960D02*
X9880134Y-16864484D01*
X9880134Y-16864484D02*
X9861086Y-16864484D01*
X9861086Y-16864484D02*
X9842039Y-16854960D01*
X9842039Y-16854960D02*
X9832515Y-16845436D01*
X9832515Y-16845436D02*
X9822991Y-16826389D01*
X9822991Y-16826389D02*
X9813467Y-16788293D01*
X9813467Y-16788293D02*
X9813467Y-16740674D01*
X9813467Y-16740674D02*
X9822991Y-16702579D01*
X9822991Y-16702579D02*
X9832515Y-16683531D01*
X9832515Y-16683531D02*
X9842039Y-16674008D01*
X9842039Y-16674008D02*
X9861086Y-16664484D01*
X10051563Y-16664484D02*
X10070610Y-16664484D01*
X10070610Y-16664484D02*
X10089658Y-16674008D01*
X10089658Y-16674008D02*
X10099182Y-16683531D01*
X10099182Y-16683531D02*
X10108705Y-16702579D01*
X10108705Y-16702579D02*
X10118229Y-16740674D01*
X10118229Y-16740674D02*
X10118229Y-16788293D01*
X10118229Y-16788293D02*
X10108705Y-16826389D01*
X10108705Y-16826389D02*
X10099182Y-16845436D01*
X10099182Y-16845436D02*
X10089658Y-16854960D01*
X10089658Y-16854960D02*
X10070610Y-16864484D01*
X10070610Y-16864484D02*
X10051563Y-16864484D01*
X10051563Y-16864484D02*
X10032515Y-16854960D01*
X10032515Y-16854960D02*
X10022991Y-16845436D01*
X10022991Y-16845436D02*
X10013467Y-16826389D01*
X10013467Y-16826389D02*
X10003944Y-16788293D01*
X10003944Y-16788293D02*
X10003944Y-16740674D01*
X10003944Y-16740674D02*
X10013467Y-16702579D01*
X10013467Y-16702579D02*
X10022991Y-16683531D01*
X10022991Y-16683531D02*
X10032515Y-16674008D01*
X10032515Y-16674008D02*
X10051563Y-16664484D01*
X10242039Y-16664484D02*
X10261086Y-16664484D01*
X10261086Y-16664484D02*
X10280134Y-16674008D01*
X10280134Y-16674008D02*
X10289658Y-16683531D01*
X10289658Y-16683531D02*
X10299182Y-16702579D01*
X10299182Y-16702579D02*
X10308705Y-16740674D01*
X10308705Y-16740674D02*
X10308705Y-16788293D01*
X10308705Y-16788293D02*
X10299182Y-16826389D01*
X10299182Y-16826389D02*
X10289658Y-16845436D01*
X10289658Y-16845436D02*
X10280134Y-16854960D01*
X10280134Y-16854960D02*
X10261086Y-16864484D01*
X10261086Y-16864484D02*
X10242039Y-16864484D01*
X10242039Y-16864484D02*
X10222991Y-16854960D01*
X10222991Y-16854960D02*
X10213467Y-16845436D01*
X10213467Y-16845436D02*
X10203944Y-16826389D01*
X10203944Y-16826389D02*
X10194420Y-16788293D01*
X10194420Y-16788293D02*
X10194420Y-16740674D01*
X10194420Y-16740674D02*
X10203944Y-16702579D01*
X10203944Y-16702579D02*
X10213467Y-16683531D01*
X10213467Y-16683531D02*
X10222991Y-16674008D01*
X10222991Y-16674008D02*
X10242039Y-16664484D01*
X10394420Y-16864484D02*
X10394420Y-16731150D01*
X10394420Y-16750198D02*
X10403944Y-16740674D01*
X10403944Y-16740674D02*
X10422991Y-16731150D01*
X10422991Y-16731150D02*
X10451563Y-16731150D01*
X10451563Y-16731150D02*
X10470610Y-16740674D01*
X10470610Y-16740674D02*
X10480134Y-16759722D01*
X10480134Y-16759722D02*
X10480134Y-16864484D01*
X10480134Y-16759722D02*
X10489658Y-16740674D01*
X10489658Y-16740674D02*
X10508705Y-16731150D01*
X10508705Y-16731150D02*
X10537277Y-16731150D01*
X10537277Y-16731150D02*
X10556325Y-16740674D01*
X10556325Y-16740674D02*
X10565848Y-16759722D01*
X10565848Y-16759722D02*
X10565848Y-16864484D01*
X10661086Y-16864484D02*
X10661086Y-16731150D01*
X10661086Y-16750198D02*
X10670610Y-16740674D01*
X10670610Y-16740674D02*
X10689658Y-16731150D01*
X10689658Y-16731150D02*
X10718229Y-16731150D01*
X10718229Y-16731150D02*
X10737277Y-16740674D01*
X10737277Y-16740674D02*
X10746801Y-16759722D01*
X10746801Y-16759722D02*
X10746801Y-16864484D01*
X10746801Y-16759722D02*
X10756325Y-16740674D01*
X10756325Y-16740674D02*
X10775372Y-16731150D01*
X10775372Y-16731150D02*
X10803944Y-16731150D01*
X10803944Y-16731150D02*
X10822991Y-16740674D01*
X10822991Y-16740674D02*
X10832515Y-16759722D01*
X10832515Y-16759722D02*
X10832515Y-16864484D01*
X11222991Y-16654960D02*
X11051563Y-16912103D01*
X11480134Y-16664484D02*
X11499182Y-16664484D01*
X11499182Y-16664484D02*
X11518229Y-16674008D01*
X11518229Y-16674008D02*
X11527753Y-16683531D01*
X11527753Y-16683531D02*
X11537277Y-16702579D01*
X11537277Y-16702579D02*
X11546801Y-16740674D01*
X11546801Y-16740674D02*
X11546801Y-16788293D01*
X11546801Y-16788293D02*
X11537277Y-16826389D01*
X11537277Y-16826389D02*
X11527753Y-16845436D01*
X11527753Y-16845436D02*
X11518229Y-16854960D01*
X11518229Y-16854960D02*
X11499182Y-16864484D01*
X11499182Y-16864484D02*
X11480134Y-16864484D01*
X11480134Y-16864484D02*
X11461086Y-16854960D01*
X11461086Y-16854960D02*
X11451563Y-16845436D01*
X11451563Y-16845436D02*
X11442039Y-16826389D01*
X11442039Y-16826389D02*
X11432515Y-16788293D01*
X11432515Y-16788293D02*
X11432515Y-16740674D01*
X11432515Y-16740674D02*
X11442039Y-16702579D01*
X11442039Y-16702579D02*
X11451563Y-16683531D01*
X11451563Y-16683531D02*
X11461086Y-16674008D01*
X11461086Y-16674008D02*
X11480134Y-16664484D01*
X11632515Y-16845436D02*
X11642039Y-16854960D01*
X11642039Y-16854960D02*
X11632515Y-16864484D01*
X11632515Y-16864484D02*
X11622991Y-16854960D01*
X11622991Y-16854960D02*
X11632515Y-16845436D01*
X11632515Y-16845436D02*
X11632515Y-16864484D01*
X11765848Y-16664484D02*
X11784896Y-16664484D01*
X11784896Y-16664484D02*
X11803944Y-16674008D01*
X11803944Y-16674008D02*
X11813467Y-16683531D01*
X11813467Y-16683531D02*
X11822991Y-16702579D01*
X11822991Y-16702579D02*
X11832515Y-16740674D01*
X11832515Y-16740674D02*
X11832515Y-16788293D01*
X11832515Y-16788293D02*
X11822991Y-16826389D01*
X11822991Y-16826389D02*
X11813467Y-16845436D01*
X11813467Y-16845436D02*
X11803944Y-16854960D01*
X11803944Y-16854960D02*
X11784896Y-16864484D01*
X11784896Y-16864484D02*
X11765848Y-16864484D01*
X11765848Y-16864484D02*
X11746801Y-16854960D01*
X11746801Y-16854960D02*
X11737277Y-16845436D01*
X11737277Y-16845436D02*
X11727753Y-16826389D01*
X11727753Y-16826389D02*
X11718229Y-16788293D01*
X11718229Y-16788293D02*
X11718229Y-16740674D01*
X11718229Y-16740674D02*
X11727753Y-16702579D01*
X11727753Y-16702579D02*
X11737277Y-16683531D01*
X11737277Y-16683531D02*
X11746801Y-16674008D01*
X11746801Y-16674008D02*
X11765848Y-16664484D01*
X11899182Y-16664484D02*
X12022991Y-16664484D01*
X12022991Y-16664484D02*
X11956325Y-16740674D01*
X11956325Y-16740674D02*
X11984896Y-16740674D01*
X11984896Y-16740674D02*
X12003944Y-16750198D01*
X12003944Y-16750198D02*
X12013467Y-16759722D01*
X12013467Y-16759722D02*
X12022991Y-16778770D01*
X12022991Y-16778770D02*
X12022991Y-16826389D01*
X12022991Y-16826389D02*
X12013467Y-16845436D01*
X12013467Y-16845436D02*
X12003944Y-16854960D01*
X12003944Y-16854960D02*
X11984896Y-16864484D01*
X11984896Y-16864484D02*
X11927753Y-16864484D01*
X11927753Y-16864484D02*
X11908706Y-16854960D01*
X11908706Y-16854960D02*
X11899182Y-16845436D01*
X12118229Y-16864484D02*
X12156325Y-16864484D01*
X12156325Y-16864484D02*
X12175372Y-16854960D01*
X12175372Y-16854960D02*
X12184896Y-16845436D01*
X12184896Y-16845436D02*
X12203944Y-16816865D01*
X12203944Y-16816865D02*
X12213467Y-16778770D01*
X12213467Y-16778770D02*
X12213467Y-16702579D01*
X12213467Y-16702579D02*
X12203944Y-16683531D01*
X12203944Y-16683531D02*
X12194420Y-16674008D01*
X12194420Y-16674008D02*
X12175372Y-16664484D01*
X12175372Y-16664484D02*
X12137277Y-16664484D01*
X12137277Y-16664484D02*
X12118229Y-16674008D01*
X12118229Y-16674008D02*
X12108706Y-16683531D01*
X12108706Y-16683531D02*
X12099182Y-16702579D01*
X12099182Y-16702579D02*
X12099182Y-16750198D01*
X12099182Y-16750198D02*
X12108706Y-16769246D01*
X12108706Y-16769246D02*
X12118229Y-16778770D01*
X12118229Y-16778770D02*
X12137277Y-16788293D01*
X12137277Y-16788293D02*
X12175372Y-16788293D01*
X12175372Y-16788293D02*
X12194420Y-16778770D01*
X12194420Y-16778770D02*
X12203944Y-16769246D01*
X12203944Y-16769246D02*
X12213467Y-16750198D01*
X12384896Y-16731150D02*
X12384896Y-16864484D01*
X12337277Y-16654960D02*
X12289658Y-16797817D01*
X12289658Y-16797817D02*
X12413467Y-16797817D01*
X12480134Y-16664484D02*
X12480134Y-16702579D01*
X12556325Y-16664484D02*
X12556325Y-16702579D01*
X12851563Y-16940674D02*
X12842039Y-16931150D01*
X12842039Y-16931150D02*
X12822991Y-16902579D01*
X12822991Y-16902579D02*
X12813468Y-16883531D01*
X12813468Y-16883531D02*
X12803944Y-16854960D01*
X12803944Y-16854960D02*
X12794420Y-16807341D01*
X12794420Y-16807341D02*
X12794420Y-16769246D01*
X12794420Y-16769246D02*
X12803944Y-16721627D01*
X12803944Y-16721627D02*
X12813468Y-16693055D01*
X12813468Y-16693055D02*
X12822991Y-16674008D01*
X12822991Y-16674008D02*
X12842039Y-16645436D01*
X12842039Y-16645436D02*
X12851563Y-16635912D01*
X12908706Y-16664484D02*
X13032515Y-16664484D01*
X13032515Y-16664484D02*
X12965848Y-16740674D01*
X12965848Y-16740674D02*
X12994420Y-16740674D01*
X12994420Y-16740674D02*
X13013468Y-16750198D01*
X13013468Y-16750198D02*
X13022991Y-16759722D01*
X13022991Y-16759722D02*
X13032515Y-16778770D01*
X13032515Y-16778770D02*
X13032515Y-16826389D01*
X13032515Y-16826389D02*
X13022991Y-16845436D01*
X13022991Y-16845436D02*
X13013468Y-16854960D01*
X13013468Y-16854960D02*
X12994420Y-16864484D01*
X12994420Y-16864484D02*
X12937277Y-16864484D01*
X12937277Y-16864484D02*
X12918229Y-16854960D01*
X12918229Y-16854960D02*
X12908706Y-16845436D01*
X13127753Y-16864484D02*
X13165848Y-16864484D01*
X13165848Y-16864484D02*
X13184896Y-16854960D01*
X13184896Y-16854960D02*
X13194420Y-16845436D01*
X13194420Y-16845436D02*
X13213468Y-16816865D01*
X13213468Y-16816865D02*
X13222991Y-16778770D01*
X13222991Y-16778770D02*
X13222991Y-16702579D01*
X13222991Y-16702579D02*
X13213468Y-16683531D01*
X13213468Y-16683531D02*
X13203944Y-16674008D01*
X13203944Y-16674008D02*
X13184896Y-16664484D01*
X13184896Y-16664484D02*
X13146801Y-16664484D01*
X13146801Y-16664484D02*
X13127753Y-16674008D01*
X13127753Y-16674008D02*
X13118229Y-16683531D01*
X13118229Y-16683531D02*
X13108706Y-16702579D01*
X13108706Y-16702579D02*
X13108706Y-16750198D01*
X13108706Y-16750198D02*
X13118229Y-16769246D01*
X13118229Y-16769246D02*
X13127753Y-16778770D01*
X13127753Y-16778770D02*
X13146801Y-16788293D01*
X13146801Y-16788293D02*
X13184896Y-16788293D01*
X13184896Y-16788293D02*
X13203944Y-16778770D01*
X13203944Y-16778770D02*
X13213468Y-16769246D01*
X13213468Y-16769246D02*
X13222991Y-16750198D01*
X13461087Y-16864484D02*
X13461087Y-16664484D01*
X13546801Y-16864484D02*
X13546801Y-16759722D01*
X13546801Y-16759722D02*
X13537277Y-16740674D01*
X13537277Y-16740674D02*
X13518230Y-16731150D01*
X13518230Y-16731150D02*
X13489658Y-16731150D01*
X13489658Y-16731150D02*
X13470610Y-16740674D01*
X13470610Y-16740674D02*
X13461087Y-16750198D01*
X13670610Y-16864484D02*
X13651563Y-16854960D01*
X13651563Y-16854960D02*
X13642039Y-16845436D01*
X13642039Y-16845436D02*
X13632515Y-16826389D01*
X13632515Y-16826389D02*
X13632515Y-16769246D01*
X13632515Y-16769246D02*
X13642039Y-16750198D01*
X13642039Y-16750198D02*
X13651563Y-16740674D01*
X13651563Y-16740674D02*
X13670610Y-16731150D01*
X13670610Y-16731150D02*
X13699182Y-16731150D01*
X13699182Y-16731150D02*
X13718230Y-16740674D01*
X13718230Y-16740674D02*
X13727753Y-16750198D01*
X13727753Y-16750198D02*
X13737277Y-16769246D01*
X13737277Y-16769246D02*
X13737277Y-16826389D01*
X13737277Y-16826389D02*
X13727753Y-16845436D01*
X13727753Y-16845436D02*
X13718230Y-16854960D01*
X13718230Y-16854960D02*
X13699182Y-16864484D01*
X13699182Y-16864484D02*
X13670610Y-16864484D01*
X13851563Y-16864484D02*
X13832515Y-16854960D01*
X13832515Y-16854960D02*
X13822991Y-16835912D01*
X13822991Y-16835912D02*
X13822991Y-16664484D01*
X14003944Y-16854960D02*
X13984896Y-16864484D01*
X13984896Y-16864484D02*
X13946801Y-16864484D01*
X13946801Y-16864484D02*
X13927753Y-16854960D01*
X13927753Y-16854960D02*
X13918230Y-16835912D01*
X13918230Y-16835912D02*
X13918230Y-16759722D01*
X13918230Y-16759722D02*
X13927753Y-16740674D01*
X13927753Y-16740674D02*
X13946801Y-16731150D01*
X13946801Y-16731150D02*
X13984896Y-16731150D01*
X13984896Y-16731150D02*
X14003944Y-16740674D01*
X14003944Y-16740674D02*
X14013468Y-16759722D01*
X14013468Y-16759722D02*
X14013468Y-16778770D01*
X14013468Y-16778770D02*
X13918230Y-16797817D01*
X14089658Y-16854960D02*
X14108706Y-16864484D01*
X14108706Y-16864484D02*
X14146801Y-16864484D01*
X14146801Y-16864484D02*
X14165849Y-16854960D01*
X14165849Y-16854960D02*
X14175372Y-16835912D01*
X14175372Y-16835912D02*
X14175372Y-16826389D01*
X14175372Y-16826389D02*
X14165849Y-16807341D01*
X14165849Y-16807341D02*
X14146801Y-16797817D01*
X14146801Y-16797817D02*
X14118230Y-16797817D01*
X14118230Y-16797817D02*
X14099182Y-16788293D01*
X14099182Y-16788293D02*
X14089658Y-16769246D01*
X14089658Y-16769246D02*
X14089658Y-16759722D01*
X14089658Y-16759722D02*
X14099182Y-16740674D01*
X14099182Y-16740674D02*
X14118230Y-16731150D01*
X14118230Y-16731150D02*
X14146801Y-16731150D01*
X14146801Y-16731150D02*
X14165849Y-16740674D01*
X14242039Y-16940674D02*
X14251563Y-16931150D01*
X14251563Y-16931150D02*
X14270611Y-16902579D01*
X14270611Y-16902579D02*
X14280134Y-16883531D01*
X14280134Y-16883531D02*
X14289658Y-16854960D01*
X14289658Y-16854960D02*
X14299182Y-16807341D01*
X14299182Y-16807341D02*
X14299182Y-16769246D01*
X14299182Y-16769246D02*
X14289658Y-16721627D01*
X14289658Y-16721627D02*
X14280134Y-16693055D01*
X14280134Y-16693055D02*
X14270611Y-16674008D01*
X14270611Y-16674008D02*
X14251563Y-16645436D01*
X14251563Y-16645436D02*
X14242039Y-16635912D01*
D12*
X9225500Y-17088000D02*
X9276500Y-17037000D01*
X9225500Y-16986000D01*
X9174500Y-17037000D01*
X9225500Y-17088000D01*
D11*
X9642039Y-17128484D02*
X9527753Y-17128484D01*
X9584896Y-17128484D02*
X9584896Y-16928484D01*
X9584896Y-16928484D02*
X9565848Y-16957055D01*
X9565848Y-16957055D02*
X9546801Y-16976103D01*
X9546801Y-16976103D02*
X9527753Y-16985627D01*
X9727753Y-17109436D02*
X9737277Y-17118960D01*
X9737277Y-17118960D02*
X9727753Y-17128484D01*
X9727753Y-17128484D02*
X9718229Y-17118960D01*
X9718229Y-17118960D02*
X9727753Y-17109436D01*
X9727753Y-17109436D02*
X9727753Y-17128484D01*
X9861086Y-16928484D02*
X9880134Y-16928484D01*
X9880134Y-16928484D02*
X9899182Y-16938008D01*
X9899182Y-16938008D02*
X9908705Y-16947531D01*
X9908705Y-16947531D02*
X9918229Y-16966579D01*
X9918229Y-16966579D02*
X9927753Y-17004674D01*
X9927753Y-17004674D02*
X9927753Y-17052293D01*
X9927753Y-17052293D02*
X9918229Y-17090389D01*
X9918229Y-17090389D02*
X9908705Y-17109436D01*
X9908705Y-17109436D02*
X9899182Y-17118960D01*
X9899182Y-17118960D02*
X9880134Y-17128484D01*
X9880134Y-17128484D02*
X9861086Y-17128484D01*
X9861086Y-17128484D02*
X9842039Y-17118960D01*
X9842039Y-17118960D02*
X9832515Y-17109436D01*
X9832515Y-17109436D02*
X9822991Y-17090389D01*
X9822991Y-17090389D02*
X9813467Y-17052293D01*
X9813467Y-17052293D02*
X9813467Y-17004674D01*
X9813467Y-17004674D02*
X9822991Y-16966579D01*
X9822991Y-16966579D02*
X9832515Y-16947531D01*
X9832515Y-16947531D02*
X9842039Y-16938008D01*
X9842039Y-16938008D02*
X9861086Y-16928484D01*
X10003944Y-16947531D02*
X10013467Y-16938008D01*
X10013467Y-16938008D02*
X10032515Y-16928484D01*
X10032515Y-16928484D02*
X10080134Y-16928484D01*
X10080134Y-16928484D02*
X10099182Y-16938008D01*
X10099182Y-16938008D02*
X10108705Y-16947531D01*
X10108705Y-16947531D02*
X10118229Y-16966579D01*
X10118229Y-16966579D02*
X10118229Y-16985627D01*
X10118229Y-16985627D02*
X10108705Y-17014198D01*
X10108705Y-17014198D02*
X9994420Y-17128484D01*
X9994420Y-17128484D02*
X10118229Y-17128484D01*
X10242039Y-16928484D02*
X10261086Y-16928484D01*
X10261086Y-16928484D02*
X10280134Y-16938008D01*
X10280134Y-16938008D02*
X10289658Y-16947531D01*
X10289658Y-16947531D02*
X10299182Y-16966579D01*
X10299182Y-16966579D02*
X10308705Y-17004674D01*
X10308705Y-17004674D02*
X10308705Y-17052293D01*
X10308705Y-17052293D02*
X10299182Y-17090389D01*
X10299182Y-17090389D02*
X10289658Y-17109436D01*
X10289658Y-17109436D02*
X10280134Y-17118960D01*
X10280134Y-17118960D02*
X10261086Y-17128484D01*
X10261086Y-17128484D02*
X10242039Y-17128484D01*
X10242039Y-17128484D02*
X10222991Y-17118960D01*
X10222991Y-17118960D02*
X10213467Y-17109436D01*
X10213467Y-17109436D02*
X10203944Y-17090389D01*
X10203944Y-17090389D02*
X10194420Y-17052293D01*
X10194420Y-17052293D02*
X10194420Y-17004674D01*
X10194420Y-17004674D02*
X10203944Y-16966579D01*
X10203944Y-16966579D02*
X10213467Y-16947531D01*
X10213467Y-16947531D02*
X10222991Y-16938008D01*
X10222991Y-16938008D02*
X10242039Y-16928484D01*
X10394420Y-17128484D02*
X10394420Y-16995150D01*
X10394420Y-17014198D02*
X10403944Y-17004674D01*
X10403944Y-17004674D02*
X10422991Y-16995150D01*
X10422991Y-16995150D02*
X10451563Y-16995150D01*
X10451563Y-16995150D02*
X10470610Y-17004674D01*
X10470610Y-17004674D02*
X10480134Y-17023722D01*
X10480134Y-17023722D02*
X10480134Y-17128484D01*
X10480134Y-17023722D02*
X10489658Y-17004674D01*
X10489658Y-17004674D02*
X10508705Y-16995150D01*
X10508705Y-16995150D02*
X10537277Y-16995150D01*
X10537277Y-16995150D02*
X10556325Y-17004674D01*
X10556325Y-17004674D02*
X10565848Y-17023722D01*
X10565848Y-17023722D02*
X10565848Y-17128484D01*
X10661086Y-17128484D02*
X10661086Y-16995150D01*
X10661086Y-17014198D02*
X10670610Y-17004674D01*
X10670610Y-17004674D02*
X10689658Y-16995150D01*
X10689658Y-16995150D02*
X10718229Y-16995150D01*
X10718229Y-16995150D02*
X10737277Y-17004674D01*
X10737277Y-17004674D02*
X10746801Y-17023722D01*
X10746801Y-17023722D02*
X10746801Y-17128484D01*
X10746801Y-17023722D02*
X10756325Y-17004674D01*
X10756325Y-17004674D02*
X10775372Y-16995150D01*
X10775372Y-16995150D02*
X10803944Y-16995150D01*
X10803944Y-16995150D02*
X10822991Y-17004674D01*
X10822991Y-17004674D02*
X10832515Y-17023722D01*
X10832515Y-17023722D02*
X10832515Y-17128484D01*
X11222991Y-16918960D02*
X11051563Y-17176103D01*
X11480134Y-16928484D02*
X11499182Y-16928484D01*
X11499182Y-16928484D02*
X11518229Y-16938008D01*
X11518229Y-16938008D02*
X11527753Y-16947531D01*
X11527753Y-16947531D02*
X11537277Y-16966579D01*
X11537277Y-16966579D02*
X11546801Y-17004674D01*
X11546801Y-17004674D02*
X11546801Y-17052293D01*
X11546801Y-17052293D02*
X11537277Y-17090389D01*
X11537277Y-17090389D02*
X11527753Y-17109436D01*
X11527753Y-17109436D02*
X11518229Y-17118960D01*
X11518229Y-17118960D02*
X11499182Y-17128484D01*
X11499182Y-17128484D02*
X11480134Y-17128484D01*
X11480134Y-17128484D02*
X11461086Y-17118960D01*
X11461086Y-17118960D02*
X11451563Y-17109436D01*
X11451563Y-17109436D02*
X11442039Y-17090389D01*
X11442039Y-17090389D02*
X11432515Y-17052293D01*
X11432515Y-17052293D02*
X11432515Y-17004674D01*
X11432515Y-17004674D02*
X11442039Y-16966579D01*
X11442039Y-16966579D02*
X11451563Y-16947531D01*
X11451563Y-16947531D02*
X11461086Y-16938008D01*
X11461086Y-16938008D02*
X11480134Y-16928484D01*
X11632515Y-17109436D02*
X11642039Y-17118960D01*
X11642039Y-17118960D02*
X11632515Y-17128484D01*
X11632515Y-17128484D02*
X11622991Y-17118960D01*
X11622991Y-17118960D02*
X11632515Y-17109436D01*
X11632515Y-17109436D02*
X11632515Y-17128484D01*
X11765848Y-16928484D02*
X11784896Y-16928484D01*
X11784896Y-16928484D02*
X11803944Y-16938008D01*
X11803944Y-16938008D02*
X11813467Y-16947531D01*
X11813467Y-16947531D02*
X11822991Y-16966579D01*
X11822991Y-16966579D02*
X11832515Y-17004674D01*
X11832515Y-17004674D02*
X11832515Y-17052293D01*
X11832515Y-17052293D02*
X11822991Y-17090389D01*
X11822991Y-17090389D02*
X11813467Y-17109436D01*
X11813467Y-17109436D02*
X11803944Y-17118960D01*
X11803944Y-17118960D02*
X11784896Y-17128484D01*
X11784896Y-17128484D02*
X11765848Y-17128484D01*
X11765848Y-17128484D02*
X11746801Y-17118960D01*
X11746801Y-17118960D02*
X11737277Y-17109436D01*
X11737277Y-17109436D02*
X11727753Y-17090389D01*
X11727753Y-17090389D02*
X11718229Y-17052293D01*
X11718229Y-17052293D02*
X11718229Y-17004674D01*
X11718229Y-17004674D02*
X11727753Y-16966579D01*
X11727753Y-16966579D02*
X11737277Y-16947531D01*
X11737277Y-16947531D02*
X11746801Y-16938008D01*
X11746801Y-16938008D02*
X11765848Y-16928484D01*
X12003944Y-16995150D02*
X12003944Y-17128484D01*
X11956325Y-16918960D02*
X11908706Y-17061817D01*
X11908706Y-17061817D02*
X12032515Y-17061817D01*
X12146801Y-16928484D02*
X12165848Y-16928484D01*
X12165848Y-16928484D02*
X12184896Y-16938008D01*
X12184896Y-16938008D02*
X12194420Y-16947531D01*
X12194420Y-16947531D02*
X12203944Y-16966579D01*
X12203944Y-16966579D02*
X12213467Y-17004674D01*
X12213467Y-17004674D02*
X12213467Y-17052293D01*
X12213467Y-17052293D02*
X12203944Y-17090389D01*
X12203944Y-17090389D02*
X12194420Y-17109436D01*
X12194420Y-17109436D02*
X12184896Y-17118960D01*
X12184896Y-17118960D02*
X12165848Y-17128484D01*
X12165848Y-17128484D02*
X12146801Y-17128484D01*
X12146801Y-17128484D02*
X12127753Y-17118960D01*
X12127753Y-17118960D02*
X12118229Y-17109436D01*
X12118229Y-17109436D02*
X12108706Y-17090389D01*
X12108706Y-17090389D02*
X12099182Y-17052293D01*
X12099182Y-17052293D02*
X12099182Y-17004674D01*
X12099182Y-17004674D02*
X12108706Y-16966579D01*
X12108706Y-16966579D02*
X12118229Y-16947531D01*
X12118229Y-16947531D02*
X12127753Y-16938008D01*
X12127753Y-16938008D02*
X12146801Y-16928484D01*
X12289658Y-16947531D02*
X12299182Y-16938008D01*
X12299182Y-16938008D02*
X12318229Y-16928484D01*
X12318229Y-16928484D02*
X12365848Y-16928484D01*
X12365848Y-16928484D02*
X12384896Y-16938008D01*
X12384896Y-16938008D02*
X12394420Y-16947531D01*
X12394420Y-16947531D02*
X12403944Y-16966579D01*
X12403944Y-16966579D02*
X12403944Y-16985627D01*
X12403944Y-16985627D02*
X12394420Y-17014198D01*
X12394420Y-17014198D02*
X12280134Y-17128484D01*
X12280134Y-17128484D02*
X12403944Y-17128484D01*
X12480134Y-16928484D02*
X12480134Y-16966579D01*
X12556325Y-16928484D02*
X12556325Y-16966579D01*
X12851563Y-17204674D02*
X12842039Y-17195150D01*
X12842039Y-17195150D02*
X12822991Y-17166579D01*
X12822991Y-17166579D02*
X12813468Y-17147531D01*
X12813468Y-17147531D02*
X12803944Y-17118960D01*
X12803944Y-17118960D02*
X12794420Y-17071341D01*
X12794420Y-17071341D02*
X12794420Y-17033246D01*
X12794420Y-17033246D02*
X12803944Y-16985627D01*
X12803944Y-16985627D02*
X12813468Y-16957055D01*
X12813468Y-16957055D02*
X12822991Y-16938008D01*
X12822991Y-16938008D02*
X12842039Y-16909436D01*
X12842039Y-16909436D02*
X12851563Y-16899912D01*
X13013468Y-16995150D02*
X13013468Y-17128484D01*
X12965848Y-16918960D02*
X12918229Y-17061817D01*
X12918229Y-17061817D02*
X13042039Y-17061817D01*
X13099182Y-16928484D02*
X13222991Y-16928484D01*
X13222991Y-16928484D02*
X13156325Y-17004674D01*
X13156325Y-17004674D02*
X13184896Y-17004674D01*
X13184896Y-17004674D02*
X13203944Y-17014198D01*
X13203944Y-17014198D02*
X13213468Y-17023722D01*
X13213468Y-17023722D02*
X13222991Y-17042770D01*
X13222991Y-17042770D02*
X13222991Y-17090389D01*
X13222991Y-17090389D02*
X13213468Y-17109436D01*
X13213468Y-17109436D02*
X13203944Y-17118960D01*
X13203944Y-17118960D02*
X13184896Y-17128484D01*
X13184896Y-17128484D02*
X13127753Y-17128484D01*
X13127753Y-17128484D02*
X13108706Y-17118960D01*
X13108706Y-17118960D02*
X13099182Y-17109436D01*
X13461087Y-17128484D02*
X13461087Y-16928484D01*
X13546801Y-17128484D02*
X13546801Y-17023722D01*
X13546801Y-17023722D02*
X13537277Y-17004674D01*
X13537277Y-17004674D02*
X13518230Y-16995150D01*
X13518230Y-16995150D02*
X13489658Y-16995150D01*
X13489658Y-16995150D02*
X13470610Y-17004674D01*
X13470610Y-17004674D02*
X13461087Y-17014198D01*
X13670610Y-17128484D02*
X13651563Y-17118960D01*
X13651563Y-17118960D02*
X13642039Y-17109436D01*
X13642039Y-17109436D02*
X13632515Y-17090389D01*
X13632515Y-17090389D02*
X13632515Y-17033246D01*
X13632515Y-17033246D02*
X13642039Y-17014198D01*
X13642039Y-17014198D02*
X13651563Y-17004674D01*
X13651563Y-17004674D02*
X13670610Y-16995150D01*
X13670610Y-16995150D02*
X13699182Y-16995150D01*
X13699182Y-16995150D02*
X13718230Y-17004674D01*
X13718230Y-17004674D02*
X13727753Y-17014198D01*
X13727753Y-17014198D02*
X13737277Y-17033246D01*
X13737277Y-17033246D02*
X13737277Y-17090389D01*
X13737277Y-17090389D02*
X13727753Y-17109436D01*
X13727753Y-17109436D02*
X13718230Y-17118960D01*
X13718230Y-17118960D02*
X13699182Y-17128484D01*
X13699182Y-17128484D02*
X13670610Y-17128484D01*
X13851563Y-17128484D02*
X13832515Y-17118960D01*
X13832515Y-17118960D02*
X13822991Y-17099912D01*
X13822991Y-17099912D02*
X13822991Y-16928484D01*
X14003944Y-17118960D02*
X13984896Y-17128484D01*
X13984896Y-17128484D02*
X13946801Y-17128484D01*
X13946801Y-17128484D02*
X13927753Y-17118960D01*
X13927753Y-17118960D02*
X13918230Y-17099912D01*
X13918230Y-17099912D02*
X13918230Y-17023722D01*
X13918230Y-17023722D02*
X13927753Y-17004674D01*
X13927753Y-17004674D02*
X13946801Y-16995150D01*
X13946801Y-16995150D02*
X13984896Y-16995150D01*
X13984896Y-16995150D02*
X14003944Y-17004674D01*
X14003944Y-17004674D02*
X14013468Y-17023722D01*
X14013468Y-17023722D02*
X14013468Y-17042770D01*
X14013468Y-17042770D02*
X13918230Y-17061817D01*
X14089658Y-17118960D02*
X14108706Y-17128484D01*
X14108706Y-17128484D02*
X14146801Y-17128484D01*
X14146801Y-17128484D02*
X14165849Y-17118960D01*
X14165849Y-17118960D02*
X14175372Y-17099912D01*
X14175372Y-17099912D02*
X14175372Y-17090389D01*
X14175372Y-17090389D02*
X14165849Y-17071341D01*
X14165849Y-17071341D02*
X14146801Y-17061817D01*
X14146801Y-17061817D02*
X14118230Y-17061817D01*
X14118230Y-17061817D02*
X14099182Y-17052293D01*
X14099182Y-17052293D02*
X14089658Y-17033246D01*
X14089658Y-17033246D02*
X14089658Y-17023722D01*
X14089658Y-17023722D02*
X14099182Y-17004674D01*
X14099182Y-17004674D02*
X14118230Y-16995150D01*
X14118230Y-16995150D02*
X14146801Y-16995150D01*
X14146801Y-16995150D02*
X14165849Y-17004674D01*
X14242039Y-17204674D02*
X14251563Y-17195150D01*
X14251563Y-17195150D02*
X14270611Y-17166579D01*
X14270611Y-17166579D02*
X14280134Y-17147531D01*
X14280134Y-17147531D02*
X14289658Y-17118960D01*
X14289658Y-17118960D02*
X14299182Y-17071341D01*
X14299182Y-17071341D02*
X14299182Y-17033246D01*
X14299182Y-17033246D02*
X14289658Y-16985627D01*
X14289658Y-16985627D02*
X14280134Y-16957055D01*
X14280134Y-16957055D02*
X14270611Y-16938008D01*
X14270611Y-16938008D02*
X14251563Y-16909436D01*
X14251563Y-16909436D02*
X14242039Y-16899912D01*
D13*
X9166500Y-17246000D02*
X9276500Y-17356000D01*
X9276500Y-17246000D02*
X9166500Y-17356000D01*
X9276500Y-17301000D02*
G75*
G03*
X9276500Y-17301000I-55000J0D01*
G01*
D11*
X9642039Y-17392484D02*
X9527753Y-17392484D01*
X9584896Y-17392484D02*
X9584896Y-17192484D01*
X9584896Y-17192484D02*
X9565848Y-17221055D01*
X9565848Y-17221055D02*
X9546801Y-17240103D01*
X9546801Y-17240103D02*
X9527753Y-17249627D01*
X9727753Y-17373436D02*
X9737277Y-17382960D01*
X9737277Y-17382960D02*
X9727753Y-17392484D01*
X9727753Y-17392484D02*
X9718229Y-17382960D01*
X9718229Y-17382960D02*
X9727753Y-17373436D01*
X9727753Y-17373436D02*
X9727753Y-17392484D01*
X9927753Y-17392484D02*
X9813467Y-17392484D01*
X9870610Y-17392484D02*
X9870610Y-17192484D01*
X9870610Y-17192484D02*
X9851563Y-17221055D01*
X9851563Y-17221055D02*
X9832515Y-17240103D01*
X9832515Y-17240103D02*
X9813467Y-17249627D01*
X10051563Y-17192484D02*
X10070610Y-17192484D01*
X10070610Y-17192484D02*
X10089658Y-17202008D01*
X10089658Y-17202008D02*
X10099182Y-17211531D01*
X10099182Y-17211531D02*
X10108705Y-17230579D01*
X10108705Y-17230579D02*
X10118229Y-17268674D01*
X10118229Y-17268674D02*
X10118229Y-17316293D01*
X10118229Y-17316293D02*
X10108705Y-17354389D01*
X10108705Y-17354389D02*
X10099182Y-17373436D01*
X10099182Y-17373436D02*
X10089658Y-17382960D01*
X10089658Y-17382960D02*
X10070610Y-17392484D01*
X10070610Y-17392484D02*
X10051563Y-17392484D01*
X10051563Y-17392484D02*
X10032515Y-17382960D01*
X10032515Y-17382960D02*
X10022991Y-17373436D01*
X10022991Y-17373436D02*
X10013467Y-17354389D01*
X10013467Y-17354389D02*
X10003944Y-17316293D01*
X10003944Y-17316293D02*
X10003944Y-17268674D01*
X10003944Y-17268674D02*
X10013467Y-17230579D01*
X10013467Y-17230579D02*
X10022991Y-17211531D01*
X10022991Y-17211531D02*
X10032515Y-17202008D01*
X10032515Y-17202008D02*
X10051563Y-17192484D01*
X10242039Y-17192484D02*
X10261086Y-17192484D01*
X10261086Y-17192484D02*
X10280134Y-17202008D01*
X10280134Y-17202008D02*
X10289658Y-17211531D01*
X10289658Y-17211531D02*
X10299182Y-17230579D01*
X10299182Y-17230579D02*
X10308705Y-17268674D01*
X10308705Y-17268674D02*
X10308705Y-17316293D01*
X10308705Y-17316293D02*
X10299182Y-17354389D01*
X10299182Y-17354389D02*
X10289658Y-17373436D01*
X10289658Y-17373436D02*
X10280134Y-17382960D01*
X10280134Y-17382960D02*
X10261086Y-17392484D01*
X10261086Y-17392484D02*
X10242039Y-17392484D01*
X10242039Y-17392484D02*
X10222991Y-17382960D01*
X10222991Y-17382960D02*
X10213467Y-17373436D01*
X10213467Y-17373436D02*
X10203944Y-17354389D01*
X10203944Y-17354389D02*
X10194420Y-17316293D01*
X10194420Y-17316293D02*
X10194420Y-17268674D01*
X10194420Y-17268674D02*
X10203944Y-17230579D01*
X10203944Y-17230579D02*
X10213467Y-17211531D01*
X10213467Y-17211531D02*
X10222991Y-17202008D01*
X10222991Y-17202008D02*
X10242039Y-17192484D01*
X10394420Y-17392484D02*
X10394420Y-17259150D01*
X10394420Y-17278198D02*
X10403944Y-17268674D01*
X10403944Y-17268674D02*
X10422991Y-17259150D01*
X10422991Y-17259150D02*
X10451563Y-17259150D01*
X10451563Y-17259150D02*
X10470610Y-17268674D01*
X10470610Y-17268674D02*
X10480134Y-17287722D01*
X10480134Y-17287722D02*
X10480134Y-17392484D01*
X10480134Y-17287722D02*
X10489658Y-17268674D01*
X10489658Y-17268674D02*
X10508705Y-17259150D01*
X10508705Y-17259150D02*
X10537277Y-17259150D01*
X10537277Y-17259150D02*
X10556325Y-17268674D01*
X10556325Y-17268674D02*
X10565848Y-17287722D01*
X10565848Y-17287722D02*
X10565848Y-17392484D01*
X10661086Y-17392484D02*
X10661086Y-17259150D01*
X10661086Y-17278198D02*
X10670610Y-17268674D01*
X10670610Y-17268674D02*
X10689658Y-17259150D01*
X10689658Y-17259150D02*
X10718229Y-17259150D01*
X10718229Y-17259150D02*
X10737277Y-17268674D01*
X10737277Y-17268674D02*
X10746801Y-17287722D01*
X10746801Y-17287722D02*
X10746801Y-17392484D01*
X10746801Y-17287722D02*
X10756325Y-17268674D01*
X10756325Y-17268674D02*
X10775372Y-17259150D01*
X10775372Y-17259150D02*
X10803944Y-17259150D01*
X10803944Y-17259150D02*
X10822991Y-17268674D01*
X10822991Y-17268674D02*
X10832515Y-17287722D01*
X10832515Y-17287722D02*
X10832515Y-17392484D01*
X11222991Y-17182960D02*
X11051563Y-17440103D01*
X11480134Y-17192484D02*
X11499182Y-17192484D01*
X11499182Y-17192484D02*
X11518229Y-17202008D01*
X11518229Y-17202008D02*
X11527753Y-17211531D01*
X11527753Y-17211531D02*
X11537277Y-17230579D01*
X11537277Y-17230579D02*
X11546801Y-17268674D01*
X11546801Y-17268674D02*
X11546801Y-17316293D01*
X11546801Y-17316293D02*
X11537277Y-17354389D01*
X11537277Y-17354389D02*
X11527753Y-17373436D01*
X11527753Y-17373436D02*
X11518229Y-17382960D01*
X11518229Y-17382960D02*
X11499182Y-17392484D01*
X11499182Y-17392484D02*
X11480134Y-17392484D01*
X11480134Y-17392484D02*
X11461086Y-17382960D01*
X11461086Y-17382960D02*
X11451563Y-17373436D01*
X11451563Y-17373436D02*
X11442039Y-17354389D01*
X11442039Y-17354389D02*
X11432515Y-17316293D01*
X11432515Y-17316293D02*
X11432515Y-17268674D01*
X11432515Y-17268674D02*
X11442039Y-17230579D01*
X11442039Y-17230579D02*
X11451563Y-17211531D01*
X11451563Y-17211531D02*
X11461086Y-17202008D01*
X11461086Y-17202008D02*
X11480134Y-17192484D01*
X11632515Y-17373436D02*
X11642039Y-17382960D01*
X11642039Y-17382960D02*
X11632515Y-17392484D01*
X11632515Y-17392484D02*
X11622991Y-17382960D01*
X11622991Y-17382960D02*
X11632515Y-17373436D01*
X11632515Y-17373436D02*
X11632515Y-17392484D01*
X11765848Y-17192484D02*
X11784896Y-17192484D01*
X11784896Y-17192484D02*
X11803944Y-17202008D01*
X11803944Y-17202008D02*
X11813467Y-17211531D01*
X11813467Y-17211531D02*
X11822991Y-17230579D01*
X11822991Y-17230579D02*
X11832515Y-17268674D01*
X11832515Y-17268674D02*
X11832515Y-17316293D01*
X11832515Y-17316293D02*
X11822991Y-17354389D01*
X11822991Y-17354389D02*
X11813467Y-17373436D01*
X11813467Y-17373436D02*
X11803944Y-17382960D01*
X11803944Y-17382960D02*
X11784896Y-17392484D01*
X11784896Y-17392484D02*
X11765848Y-17392484D01*
X11765848Y-17392484D02*
X11746801Y-17382960D01*
X11746801Y-17382960D02*
X11737277Y-17373436D01*
X11737277Y-17373436D02*
X11727753Y-17354389D01*
X11727753Y-17354389D02*
X11718229Y-17316293D01*
X11718229Y-17316293D02*
X11718229Y-17268674D01*
X11718229Y-17268674D02*
X11727753Y-17230579D01*
X11727753Y-17230579D02*
X11737277Y-17211531D01*
X11737277Y-17211531D02*
X11746801Y-17202008D01*
X11746801Y-17202008D02*
X11765848Y-17192484D01*
X12003944Y-17259150D02*
X12003944Y-17392484D01*
X11956325Y-17182960D02*
X11908706Y-17325817D01*
X11908706Y-17325817D02*
X12032515Y-17325817D01*
X12089658Y-17192484D02*
X12213467Y-17192484D01*
X12213467Y-17192484D02*
X12146801Y-17268674D01*
X12146801Y-17268674D02*
X12175372Y-17268674D01*
X12175372Y-17268674D02*
X12194420Y-17278198D01*
X12194420Y-17278198D02*
X12203944Y-17287722D01*
X12203944Y-17287722D02*
X12213467Y-17306770D01*
X12213467Y-17306770D02*
X12213467Y-17354389D01*
X12213467Y-17354389D02*
X12203944Y-17373436D01*
X12203944Y-17373436D02*
X12194420Y-17382960D01*
X12194420Y-17382960D02*
X12175372Y-17392484D01*
X12175372Y-17392484D02*
X12118229Y-17392484D01*
X12118229Y-17392484D02*
X12099182Y-17382960D01*
X12099182Y-17382960D02*
X12089658Y-17373436D01*
X12280134Y-17192484D02*
X12403944Y-17192484D01*
X12403944Y-17192484D02*
X12337277Y-17268674D01*
X12337277Y-17268674D02*
X12365848Y-17268674D01*
X12365848Y-17268674D02*
X12384896Y-17278198D01*
X12384896Y-17278198D02*
X12394420Y-17287722D01*
X12394420Y-17287722D02*
X12403944Y-17306770D01*
X12403944Y-17306770D02*
X12403944Y-17354389D01*
X12403944Y-17354389D02*
X12394420Y-17373436D01*
X12394420Y-17373436D02*
X12384896Y-17382960D01*
X12384896Y-17382960D02*
X12365848Y-17392484D01*
X12365848Y-17392484D02*
X12308706Y-17392484D01*
X12308706Y-17392484D02*
X12289658Y-17382960D01*
X12289658Y-17382960D02*
X12280134Y-17373436D01*
X12480134Y-17192484D02*
X12480134Y-17230579D01*
X12556325Y-17192484D02*
X12556325Y-17230579D01*
X12851563Y-17468674D02*
X12842039Y-17459150D01*
X12842039Y-17459150D02*
X12822991Y-17430579D01*
X12822991Y-17430579D02*
X12813468Y-17411531D01*
X12813468Y-17411531D02*
X12803944Y-17382960D01*
X12803944Y-17382960D02*
X12794420Y-17335341D01*
X12794420Y-17335341D02*
X12794420Y-17297246D01*
X12794420Y-17297246D02*
X12803944Y-17249627D01*
X12803944Y-17249627D02*
X12813468Y-17221055D01*
X12813468Y-17221055D02*
X12822991Y-17202008D01*
X12822991Y-17202008D02*
X12842039Y-17173436D01*
X12842039Y-17173436D02*
X12851563Y-17163912D01*
X13013468Y-17259150D02*
X13013468Y-17392484D01*
X12965848Y-17182960D02*
X12918229Y-17325817D01*
X12918229Y-17325817D02*
X13042039Y-17325817D01*
X13270610Y-17392484D02*
X13270610Y-17192484D01*
X13356325Y-17392484D02*
X13356325Y-17287722D01*
X13356325Y-17287722D02*
X13346801Y-17268674D01*
X13346801Y-17268674D02*
X13327753Y-17259150D01*
X13327753Y-17259150D02*
X13299182Y-17259150D01*
X13299182Y-17259150D02*
X13280134Y-17268674D01*
X13280134Y-17268674D02*
X13270610Y-17278198D01*
X13480134Y-17392484D02*
X13461087Y-17382960D01*
X13461087Y-17382960D02*
X13451563Y-17373436D01*
X13451563Y-17373436D02*
X13442039Y-17354389D01*
X13442039Y-17354389D02*
X13442039Y-17297246D01*
X13442039Y-17297246D02*
X13451563Y-17278198D01*
X13451563Y-17278198D02*
X13461087Y-17268674D01*
X13461087Y-17268674D02*
X13480134Y-17259150D01*
X13480134Y-17259150D02*
X13508706Y-17259150D01*
X13508706Y-17259150D02*
X13527753Y-17268674D01*
X13527753Y-17268674D02*
X13537277Y-17278198D01*
X13537277Y-17278198D02*
X13546801Y-17297246D01*
X13546801Y-17297246D02*
X13546801Y-17354389D01*
X13546801Y-17354389D02*
X13537277Y-17373436D01*
X13537277Y-17373436D02*
X13527753Y-17382960D01*
X13527753Y-17382960D02*
X13508706Y-17392484D01*
X13508706Y-17392484D02*
X13480134Y-17392484D01*
X13661087Y-17392484D02*
X13642039Y-17382960D01*
X13642039Y-17382960D02*
X13632515Y-17363912D01*
X13632515Y-17363912D02*
X13632515Y-17192484D01*
X13813468Y-17382960D02*
X13794420Y-17392484D01*
X13794420Y-17392484D02*
X13756325Y-17392484D01*
X13756325Y-17392484D02*
X13737277Y-17382960D01*
X13737277Y-17382960D02*
X13727753Y-17363912D01*
X13727753Y-17363912D02*
X13727753Y-17287722D01*
X13727753Y-17287722D02*
X13737277Y-17268674D01*
X13737277Y-17268674D02*
X13756325Y-17259150D01*
X13756325Y-17259150D02*
X13794420Y-17259150D01*
X13794420Y-17259150D02*
X13813468Y-17268674D01*
X13813468Y-17268674D02*
X13822991Y-17287722D01*
X13822991Y-17287722D02*
X13822991Y-17306770D01*
X13822991Y-17306770D02*
X13727753Y-17325817D01*
X13899182Y-17382960D02*
X13918230Y-17392484D01*
X13918230Y-17392484D02*
X13956325Y-17392484D01*
X13956325Y-17392484D02*
X13975372Y-17382960D01*
X13975372Y-17382960D02*
X13984896Y-17363912D01*
X13984896Y-17363912D02*
X13984896Y-17354389D01*
X13984896Y-17354389D02*
X13975372Y-17335341D01*
X13975372Y-17335341D02*
X13956325Y-17325817D01*
X13956325Y-17325817D02*
X13927753Y-17325817D01*
X13927753Y-17325817D02*
X13908706Y-17316293D01*
X13908706Y-17316293D02*
X13899182Y-17297246D01*
X13899182Y-17297246D02*
X13899182Y-17287722D01*
X13899182Y-17287722D02*
X13908706Y-17268674D01*
X13908706Y-17268674D02*
X13927753Y-17259150D01*
X13927753Y-17259150D02*
X13956325Y-17259150D01*
X13956325Y-17259150D02*
X13975372Y-17268674D01*
X14051563Y-17468674D02*
X14061087Y-17459150D01*
X14061087Y-17459150D02*
X14080134Y-17430579D01*
X14080134Y-17430579D02*
X14089658Y-17411531D01*
X14089658Y-17411531D02*
X14099182Y-17382960D01*
X14099182Y-17382960D02*
X14108706Y-17335341D01*
X14108706Y-17335341D02*
X14108706Y-17297246D01*
X14108706Y-17297246D02*
X14099182Y-17249627D01*
X14099182Y-17249627D02*
X14089658Y-17221055D01*
X14089658Y-17221055D02*
X14080134Y-17202008D01*
X14080134Y-17202008D02*
X14061087Y-17173436D01*
X14061087Y-17173436D02*
X14051563Y-17163912D01*
D14*
X9126500Y-17490000D02*
X9276500Y-17640000D01*
X9276500Y-17490000D02*
X9126500Y-17640000D01*
X9201500Y-17490000D02*
X9201500Y-17640000D01*
X9126500Y-17565000D02*
X9276500Y-17565000D01*
D11*
X9642039Y-17656484D02*
X9527753Y-17656484D01*
X9584896Y-17656484D02*
X9584896Y-17456484D01*
X9584896Y-17456484D02*
X9565848Y-17485055D01*
X9565848Y-17485055D02*
X9546801Y-17504103D01*
X9546801Y-17504103D02*
X9527753Y-17513627D01*
X9727753Y-17637436D02*
X9737277Y-17646960D01*
X9737277Y-17646960D02*
X9727753Y-17656484D01*
X9727753Y-17656484D02*
X9718229Y-17646960D01*
X9718229Y-17646960D02*
X9727753Y-17637436D01*
X9727753Y-17637436D02*
X9727753Y-17656484D01*
X9918229Y-17456484D02*
X9822991Y-17456484D01*
X9822991Y-17456484D02*
X9813467Y-17551722D01*
X9813467Y-17551722D02*
X9822991Y-17542198D01*
X9822991Y-17542198D02*
X9842039Y-17532674D01*
X9842039Y-17532674D02*
X9889658Y-17532674D01*
X9889658Y-17532674D02*
X9908705Y-17542198D01*
X9908705Y-17542198D02*
X9918229Y-17551722D01*
X9918229Y-17551722D02*
X9927753Y-17570770D01*
X9927753Y-17570770D02*
X9927753Y-17618389D01*
X9927753Y-17618389D02*
X9918229Y-17637436D01*
X9918229Y-17637436D02*
X9908705Y-17646960D01*
X9908705Y-17646960D02*
X9889658Y-17656484D01*
X9889658Y-17656484D02*
X9842039Y-17656484D01*
X9842039Y-17656484D02*
X9822991Y-17646960D01*
X9822991Y-17646960D02*
X9813467Y-17637436D01*
X10051563Y-17456484D02*
X10070610Y-17456484D01*
X10070610Y-17456484D02*
X10089658Y-17466008D01*
X10089658Y-17466008D02*
X10099182Y-17475531D01*
X10099182Y-17475531D02*
X10108705Y-17494579D01*
X10108705Y-17494579D02*
X10118229Y-17532674D01*
X10118229Y-17532674D02*
X10118229Y-17580293D01*
X10118229Y-17580293D02*
X10108705Y-17618389D01*
X10108705Y-17618389D02*
X10099182Y-17637436D01*
X10099182Y-17637436D02*
X10089658Y-17646960D01*
X10089658Y-17646960D02*
X10070610Y-17656484D01*
X10070610Y-17656484D02*
X10051563Y-17656484D01*
X10051563Y-17656484D02*
X10032515Y-17646960D01*
X10032515Y-17646960D02*
X10022991Y-17637436D01*
X10022991Y-17637436D02*
X10013467Y-17618389D01*
X10013467Y-17618389D02*
X10003944Y-17580293D01*
X10003944Y-17580293D02*
X10003944Y-17532674D01*
X10003944Y-17532674D02*
X10013467Y-17494579D01*
X10013467Y-17494579D02*
X10022991Y-17475531D01*
X10022991Y-17475531D02*
X10032515Y-17466008D01*
X10032515Y-17466008D02*
X10051563Y-17456484D01*
X10242039Y-17456484D02*
X10261086Y-17456484D01*
X10261086Y-17456484D02*
X10280134Y-17466008D01*
X10280134Y-17466008D02*
X10289658Y-17475531D01*
X10289658Y-17475531D02*
X10299182Y-17494579D01*
X10299182Y-17494579D02*
X10308705Y-17532674D01*
X10308705Y-17532674D02*
X10308705Y-17580293D01*
X10308705Y-17580293D02*
X10299182Y-17618389D01*
X10299182Y-17618389D02*
X10289658Y-17637436D01*
X10289658Y-17637436D02*
X10280134Y-17646960D01*
X10280134Y-17646960D02*
X10261086Y-17656484D01*
X10261086Y-17656484D02*
X10242039Y-17656484D01*
X10242039Y-17656484D02*
X10222991Y-17646960D01*
X10222991Y-17646960D02*
X10213467Y-17637436D01*
X10213467Y-17637436D02*
X10203944Y-17618389D01*
X10203944Y-17618389D02*
X10194420Y-17580293D01*
X10194420Y-17580293D02*
X10194420Y-17532674D01*
X10194420Y-17532674D02*
X10203944Y-17494579D01*
X10203944Y-17494579D02*
X10213467Y-17475531D01*
X10213467Y-17475531D02*
X10222991Y-17466008D01*
X10222991Y-17466008D02*
X10242039Y-17456484D01*
X10394420Y-17656484D02*
X10394420Y-17523150D01*
X10394420Y-17542198D02*
X10403944Y-17532674D01*
X10403944Y-17532674D02*
X10422991Y-17523150D01*
X10422991Y-17523150D02*
X10451563Y-17523150D01*
X10451563Y-17523150D02*
X10470610Y-17532674D01*
X10470610Y-17532674D02*
X10480134Y-17551722D01*
X10480134Y-17551722D02*
X10480134Y-17656484D01*
X10480134Y-17551722D02*
X10489658Y-17532674D01*
X10489658Y-17532674D02*
X10508705Y-17523150D01*
X10508705Y-17523150D02*
X10537277Y-17523150D01*
X10537277Y-17523150D02*
X10556325Y-17532674D01*
X10556325Y-17532674D02*
X10565848Y-17551722D01*
X10565848Y-17551722D02*
X10565848Y-17656484D01*
X10661086Y-17656484D02*
X10661086Y-17523150D01*
X10661086Y-17542198D02*
X10670610Y-17532674D01*
X10670610Y-17532674D02*
X10689658Y-17523150D01*
X10689658Y-17523150D02*
X10718229Y-17523150D01*
X10718229Y-17523150D02*
X10737277Y-17532674D01*
X10737277Y-17532674D02*
X10746801Y-17551722D01*
X10746801Y-17551722D02*
X10746801Y-17656484D01*
X10746801Y-17551722D02*
X10756325Y-17532674D01*
X10756325Y-17532674D02*
X10775372Y-17523150D01*
X10775372Y-17523150D02*
X10803944Y-17523150D01*
X10803944Y-17523150D02*
X10822991Y-17532674D01*
X10822991Y-17532674D02*
X10832515Y-17551722D01*
X10832515Y-17551722D02*
X10832515Y-17656484D01*
X11222991Y-17446960D02*
X11051563Y-17704103D01*
X11480134Y-17456484D02*
X11499182Y-17456484D01*
X11499182Y-17456484D02*
X11518229Y-17466008D01*
X11518229Y-17466008D02*
X11527753Y-17475531D01*
X11527753Y-17475531D02*
X11537277Y-17494579D01*
X11537277Y-17494579D02*
X11546801Y-17532674D01*
X11546801Y-17532674D02*
X11546801Y-17580293D01*
X11546801Y-17580293D02*
X11537277Y-17618389D01*
X11537277Y-17618389D02*
X11527753Y-17637436D01*
X11527753Y-17637436D02*
X11518229Y-17646960D01*
X11518229Y-17646960D02*
X11499182Y-17656484D01*
X11499182Y-17656484D02*
X11480134Y-17656484D01*
X11480134Y-17656484D02*
X11461086Y-17646960D01*
X11461086Y-17646960D02*
X11451563Y-17637436D01*
X11451563Y-17637436D02*
X11442039Y-17618389D01*
X11442039Y-17618389D02*
X11432515Y-17580293D01*
X11432515Y-17580293D02*
X11432515Y-17532674D01*
X11432515Y-17532674D02*
X11442039Y-17494579D01*
X11442039Y-17494579D02*
X11451563Y-17475531D01*
X11451563Y-17475531D02*
X11461086Y-17466008D01*
X11461086Y-17466008D02*
X11480134Y-17456484D01*
X11632515Y-17637436D02*
X11642039Y-17646960D01*
X11642039Y-17646960D02*
X11632515Y-17656484D01*
X11632515Y-17656484D02*
X11622991Y-17646960D01*
X11622991Y-17646960D02*
X11632515Y-17637436D01*
X11632515Y-17637436D02*
X11632515Y-17656484D01*
X11765848Y-17456484D02*
X11784896Y-17456484D01*
X11784896Y-17456484D02*
X11803944Y-17466008D01*
X11803944Y-17466008D02*
X11813467Y-17475531D01*
X11813467Y-17475531D02*
X11822991Y-17494579D01*
X11822991Y-17494579D02*
X11832515Y-17532674D01*
X11832515Y-17532674D02*
X11832515Y-17580293D01*
X11832515Y-17580293D02*
X11822991Y-17618389D01*
X11822991Y-17618389D02*
X11813467Y-17637436D01*
X11813467Y-17637436D02*
X11803944Y-17646960D01*
X11803944Y-17646960D02*
X11784896Y-17656484D01*
X11784896Y-17656484D02*
X11765848Y-17656484D01*
X11765848Y-17656484D02*
X11746801Y-17646960D01*
X11746801Y-17646960D02*
X11737277Y-17637436D01*
X11737277Y-17637436D02*
X11727753Y-17618389D01*
X11727753Y-17618389D02*
X11718229Y-17580293D01*
X11718229Y-17580293D02*
X11718229Y-17532674D01*
X11718229Y-17532674D02*
X11727753Y-17494579D01*
X11727753Y-17494579D02*
X11737277Y-17475531D01*
X11737277Y-17475531D02*
X11746801Y-17466008D01*
X11746801Y-17466008D02*
X11765848Y-17456484D01*
X12013467Y-17456484D02*
X11918229Y-17456484D01*
X11918229Y-17456484D02*
X11908706Y-17551722D01*
X11908706Y-17551722D02*
X11918229Y-17542198D01*
X11918229Y-17542198D02*
X11937277Y-17532674D01*
X11937277Y-17532674D02*
X11984896Y-17532674D01*
X11984896Y-17532674D02*
X12003944Y-17542198D01*
X12003944Y-17542198D02*
X12013467Y-17551722D01*
X12013467Y-17551722D02*
X12022991Y-17570770D01*
X12022991Y-17570770D02*
X12022991Y-17618389D01*
X12022991Y-17618389D02*
X12013467Y-17637436D01*
X12013467Y-17637436D02*
X12003944Y-17646960D01*
X12003944Y-17646960D02*
X11984896Y-17656484D01*
X11984896Y-17656484D02*
X11937277Y-17656484D01*
X11937277Y-17656484D02*
X11918229Y-17646960D01*
X11918229Y-17646960D02*
X11908706Y-17637436D01*
X12118229Y-17656484D02*
X12156325Y-17656484D01*
X12156325Y-17656484D02*
X12175372Y-17646960D01*
X12175372Y-17646960D02*
X12184896Y-17637436D01*
X12184896Y-17637436D02*
X12203944Y-17608865D01*
X12203944Y-17608865D02*
X12213467Y-17570770D01*
X12213467Y-17570770D02*
X12213467Y-17494579D01*
X12213467Y-17494579D02*
X12203944Y-17475531D01*
X12203944Y-17475531D02*
X12194420Y-17466008D01*
X12194420Y-17466008D02*
X12175372Y-17456484D01*
X12175372Y-17456484D02*
X12137277Y-17456484D01*
X12137277Y-17456484D02*
X12118229Y-17466008D01*
X12118229Y-17466008D02*
X12108706Y-17475531D01*
X12108706Y-17475531D02*
X12099182Y-17494579D01*
X12099182Y-17494579D02*
X12099182Y-17542198D01*
X12099182Y-17542198D02*
X12108706Y-17561246D01*
X12108706Y-17561246D02*
X12118229Y-17570770D01*
X12118229Y-17570770D02*
X12137277Y-17580293D01*
X12137277Y-17580293D02*
X12175372Y-17580293D01*
X12175372Y-17580293D02*
X12194420Y-17570770D01*
X12194420Y-17570770D02*
X12203944Y-17561246D01*
X12203944Y-17561246D02*
X12213467Y-17542198D01*
X12403944Y-17656484D02*
X12289658Y-17656484D01*
X12346801Y-17656484D02*
X12346801Y-17456484D01*
X12346801Y-17456484D02*
X12327753Y-17485055D01*
X12327753Y-17485055D02*
X12308706Y-17504103D01*
X12308706Y-17504103D02*
X12289658Y-17513627D01*
X12480134Y-17456484D02*
X12480134Y-17494579D01*
X12556325Y-17456484D02*
X12556325Y-17494579D01*
X12851563Y-17732674D02*
X12842039Y-17723150D01*
X12842039Y-17723150D02*
X12822991Y-17694579D01*
X12822991Y-17694579D02*
X12813468Y-17675531D01*
X12813468Y-17675531D02*
X12803944Y-17646960D01*
X12803944Y-17646960D02*
X12794420Y-17599341D01*
X12794420Y-17599341D02*
X12794420Y-17561246D01*
X12794420Y-17561246D02*
X12803944Y-17513627D01*
X12803944Y-17513627D02*
X12813468Y-17485055D01*
X12813468Y-17485055D02*
X12822991Y-17466008D01*
X12822991Y-17466008D02*
X12842039Y-17437436D01*
X12842039Y-17437436D02*
X12851563Y-17427912D01*
X12918229Y-17475531D02*
X12927753Y-17466008D01*
X12927753Y-17466008D02*
X12946801Y-17456484D01*
X12946801Y-17456484D02*
X12994420Y-17456484D01*
X12994420Y-17456484D02*
X13013468Y-17466008D01*
X13013468Y-17466008D02*
X13022991Y-17475531D01*
X13022991Y-17475531D02*
X13032515Y-17494579D01*
X13032515Y-17494579D02*
X13032515Y-17513627D01*
X13032515Y-17513627D02*
X13022991Y-17542198D01*
X13022991Y-17542198D02*
X12908706Y-17656484D01*
X12908706Y-17656484D02*
X13032515Y-17656484D01*
X13270610Y-17656484D02*
X13270610Y-17456484D01*
X13356325Y-17656484D02*
X13356325Y-17551722D01*
X13356325Y-17551722D02*
X13346801Y-17532674D01*
X13346801Y-17532674D02*
X13327753Y-17523150D01*
X13327753Y-17523150D02*
X13299182Y-17523150D01*
X13299182Y-17523150D02*
X13280134Y-17532674D01*
X13280134Y-17532674D02*
X13270610Y-17542198D01*
X13480134Y-17656484D02*
X13461087Y-17646960D01*
X13461087Y-17646960D02*
X13451563Y-17637436D01*
X13451563Y-17637436D02*
X13442039Y-17618389D01*
X13442039Y-17618389D02*
X13442039Y-17561246D01*
X13442039Y-17561246D02*
X13451563Y-17542198D01*
X13451563Y-17542198D02*
X13461087Y-17532674D01*
X13461087Y-17532674D02*
X13480134Y-17523150D01*
X13480134Y-17523150D02*
X13508706Y-17523150D01*
X13508706Y-17523150D02*
X13527753Y-17532674D01*
X13527753Y-17532674D02*
X13537277Y-17542198D01*
X13537277Y-17542198D02*
X13546801Y-17561246D01*
X13546801Y-17561246D02*
X13546801Y-17618389D01*
X13546801Y-17618389D02*
X13537277Y-17637436D01*
X13537277Y-17637436D02*
X13527753Y-17646960D01*
X13527753Y-17646960D02*
X13508706Y-17656484D01*
X13508706Y-17656484D02*
X13480134Y-17656484D01*
X13661087Y-17656484D02*
X13642039Y-17646960D01*
X13642039Y-17646960D02*
X13632515Y-17627912D01*
X13632515Y-17627912D02*
X13632515Y-17456484D01*
X13813468Y-17646960D02*
X13794420Y-17656484D01*
X13794420Y-17656484D02*
X13756325Y-17656484D01*
X13756325Y-17656484D02*
X13737277Y-17646960D01*
X13737277Y-17646960D02*
X13727753Y-17627912D01*
X13727753Y-17627912D02*
X13727753Y-17551722D01*
X13727753Y-17551722D02*
X13737277Y-17532674D01*
X13737277Y-17532674D02*
X13756325Y-17523150D01*
X13756325Y-17523150D02*
X13794420Y-17523150D01*
X13794420Y-17523150D02*
X13813468Y-17532674D01*
X13813468Y-17532674D02*
X13822991Y-17551722D01*
X13822991Y-17551722D02*
X13822991Y-17570770D01*
X13822991Y-17570770D02*
X13727753Y-17589817D01*
X13899182Y-17646960D02*
X13918230Y-17656484D01*
X13918230Y-17656484D02*
X13956325Y-17656484D01*
X13956325Y-17656484D02*
X13975372Y-17646960D01*
X13975372Y-17646960D02*
X13984896Y-17627912D01*
X13984896Y-17627912D02*
X13984896Y-17618389D01*
X13984896Y-17618389D02*
X13975372Y-17599341D01*
X13975372Y-17599341D02*
X13956325Y-17589817D01*
X13956325Y-17589817D02*
X13927753Y-17589817D01*
X13927753Y-17589817D02*
X13908706Y-17580293D01*
X13908706Y-17580293D02*
X13899182Y-17561246D01*
X13899182Y-17561246D02*
X13899182Y-17551722D01*
X13899182Y-17551722D02*
X13908706Y-17532674D01*
X13908706Y-17532674D02*
X13927753Y-17523150D01*
X13927753Y-17523150D02*
X13956325Y-17523150D01*
X13956325Y-17523150D02*
X13975372Y-17532674D01*
X14051563Y-17732674D02*
X14061087Y-17723150D01*
X14061087Y-17723150D02*
X14080134Y-17694579D01*
X14080134Y-17694579D02*
X14089658Y-17675531D01*
X14089658Y-17675531D02*
X14099182Y-17646960D01*
X14099182Y-17646960D02*
X14108706Y-17599341D01*
X14108706Y-17599341D02*
X14108706Y-17561246D01*
X14108706Y-17561246D02*
X14099182Y-17513627D01*
X14099182Y-17513627D02*
X14089658Y-17485055D01*
X14089658Y-17485055D02*
X14080134Y-17466008D01*
X14080134Y-17466008D02*
X14061087Y-17437436D01*
X14061087Y-17437436D02*
X14051563Y-17427912D01*
M02*
