%TF.GenerationSoftware,KiCad,Pcbnew,7.0.9*%
%TF.CreationDate,2023-11-24T00:14:20+01:00*%
%TF.ProjectId,astrasat1,61737472-6173-4617-9431-2e6b69636164,v1*%
%TF.SameCoordinates,Original*%
%TF.FileFunction,Drillmap*%
%TF.FilePolarity,Positive*%
%FSLAX45Y45*%
G04 Gerber Fmt 4.5, Leading zero omitted, Abs format (unit mm)*
G04 Created by KiCad (PCBNEW 7.0.9) date 2023-11-24 00:14:20*
%MOMM*%
%LPD*%
G01*
G04 APERTURE LIST*
%ADD10C,0.100000*%
%ADD11C,0.200000*%
%ADD12C,0.150000*%
%ADD13C,0.180000*%
%ADD14C,0.300000*%
G04 APERTURE END LIST*
D10*
X21181500Y-9436000D02*
G75*
G03*
X21181500Y-9436000I-6000000J0D01*
G01*
D11*
D12*
X14896000Y-14121500D02*
X15046000Y-14271500D01*
X15046000Y-14121500D02*
X14896000Y-14271500D01*
X15381000Y-14121500D02*
X15531000Y-14271500D01*
X15531000Y-14121500D02*
X15381000Y-14271500D01*
D13*
X15031000Y-14499500D02*
G75*
G03*
X15031000Y-14499500I-90000J0D01*
G01*
X15576000Y-14499500D02*
G75*
G03*
X15576000Y-14499500I-90000J0D01*
G01*
D14*
X10922000Y-5619000D02*
X10922000Y-5919000D01*
X10772000Y-5769000D02*
X11072000Y-5769000D01*
X10922000Y-12931000D02*
X10922000Y-13231000D01*
X10772000Y-13081000D02*
X11072000Y-13081000D01*
X19400000Y-5619000D02*
X19400000Y-5919000D01*
X19250000Y-5769000D02*
X19550000Y-5769000D01*
X19400000Y-12931000D02*
X19400000Y-13231000D01*
X19250000Y-13081000D02*
X19550000Y-13081000D01*
D11*
X9437277Y-15752484D02*
X9437277Y-15552484D01*
X9437277Y-15552484D02*
X9484896Y-15552484D01*
X9484896Y-15552484D02*
X9513467Y-15562008D01*
X9513467Y-15562008D02*
X9532515Y-15581055D01*
X9532515Y-15581055D02*
X9542039Y-15600103D01*
X9542039Y-15600103D02*
X9551563Y-15638198D01*
X9551563Y-15638198D02*
X9551563Y-15666769D01*
X9551563Y-15666769D02*
X9542039Y-15704865D01*
X9542039Y-15704865D02*
X9532515Y-15723912D01*
X9532515Y-15723912D02*
X9513467Y-15742960D01*
X9513467Y-15742960D02*
X9484896Y-15752484D01*
X9484896Y-15752484D02*
X9437277Y-15752484D01*
X9637277Y-15752484D02*
X9637277Y-15619150D01*
X9637277Y-15657246D02*
X9646801Y-15638198D01*
X9646801Y-15638198D02*
X9656324Y-15628674D01*
X9656324Y-15628674D02*
X9675372Y-15619150D01*
X9675372Y-15619150D02*
X9694420Y-15619150D01*
X9761086Y-15752484D02*
X9761086Y-15619150D01*
X9761086Y-15552484D02*
X9751563Y-15562008D01*
X9751563Y-15562008D02*
X9761086Y-15571531D01*
X9761086Y-15571531D02*
X9770610Y-15562008D01*
X9770610Y-15562008D02*
X9761086Y-15552484D01*
X9761086Y-15552484D02*
X9761086Y-15571531D01*
X9884896Y-15752484D02*
X9865848Y-15742960D01*
X9865848Y-15742960D02*
X9856324Y-15723912D01*
X9856324Y-15723912D02*
X9856324Y-15552484D01*
X9989658Y-15752484D02*
X9970610Y-15742960D01*
X9970610Y-15742960D02*
X9961086Y-15723912D01*
X9961086Y-15723912D02*
X9961086Y-15552484D01*
X10218229Y-15752484D02*
X10218229Y-15552484D01*
X10218229Y-15552484D02*
X10284896Y-15695341D01*
X10284896Y-15695341D02*
X10351563Y-15552484D01*
X10351563Y-15552484D02*
X10351563Y-15752484D01*
X10532515Y-15752484D02*
X10532515Y-15647722D01*
X10532515Y-15647722D02*
X10522991Y-15628674D01*
X10522991Y-15628674D02*
X10503944Y-15619150D01*
X10503944Y-15619150D02*
X10465848Y-15619150D01*
X10465848Y-15619150D02*
X10446801Y-15628674D01*
X10532515Y-15742960D02*
X10513467Y-15752484D01*
X10513467Y-15752484D02*
X10465848Y-15752484D01*
X10465848Y-15752484D02*
X10446801Y-15742960D01*
X10446801Y-15742960D02*
X10437277Y-15723912D01*
X10437277Y-15723912D02*
X10437277Y-15704865D01*
X10437277Y-15704865D02*
X10446801Y-15685817D01*
X10446801Y-15685817D02*
X10465848Y-15676293D01*
X10465848Y-15676293D02*
X10513467Y-15676293D01*
X10513467Y-15676293D02*
X10532515Y-15666769D01*
X10627753Y-15619150D02*
X10627753Y-15819150D01*
X10627753Y-15628674D02*
X10646801Y-15619150D01*
X10646801Y-15619150D02*
X10684896Y-15619150D01*
X10684896Y-15619150D02*
X10703944Y-15628674D01*
X10703944Y-15628674D02*
X10713467Y-15638198D01*
X10713467Y-15638198D02*
X10722991Y-15657246D01*
X10722991Y-15657246D02*
X10722991Y-15714388D01*
X10722991Y-15714388D02*
X10713467Y-15733436D01*
X10713467Y-15733436D02*
X10703944Y-15742960D01*
X10703944Y-15742960D02*
X10684896Y-15752484D01*
X10684896Y-15752484D02*
X10646801Y-15752484D01*
X10646801Y-15752484D02*
X10627753Y-15742960D01*
X10808705Y-15733436D02*
X10818229Y-15742960D01*
X10818229Y-15742960D02*
X10808705Y-15752484D01*
X10808705Y-15752484D02*
X10799182Y-15742960D01*
X10799182Y-15742960D02*
X10808705Y-15733436D01*
X10808705Y-15733436D02*
X10808705Y-15752484D01*
X10808705Y-15628674D02*
X10818229Y-15638198D01*
X10818229Y-15638198D02*
X10808705Y-15647722D01*
X10808705Y-15647722D02*
X10799182Y-15638198D01*
X10799182Y-15638198D02*
X10808705Y-15628674D01*
X10808705Y-15628674D02*
X10808705Y-15647722D01*
D12*
X9026500Y-16006000D02*
X9176500Y-16156000D01*
X9176500Y-16006000D02*
X9026500Y-16156000D01*
D11*
X9542039Y-16172484D02*
X9427753Y-16172484D01*
X9484896Y-16172484D02*
X9484896Y-15972484D01*
X9484896Y-15972484D02*
X9465848Y-16001055D01*
X9465848Y-16001055D02*
X9446801Y-16020103D01*
X9446801Y-16020103D02*
X9427753Y-16029627D01*
X9627753Y-16153436D02*
X9637277Y-16162960D01*
X9637277Y-16162960D02*
X9627753Y-16172484D01*
X9627753Y-16172484D02*
X9618229Y-16162960D01*
X9618229Y-16162960D02*
X9627753Y-16153436D01*
X9627753Y-16153436D02*
X9627753Y-16172484D01*
X9818229Y-15972484D02*
X9722991Y-15972484D01*
X9722991Y-15972484D02*
X9713467Y-16067722D01*
X9713467Y-16067722D02*
X9722991Y-16058198D01*
X9722991Y-16058198D02*
X9742039Y-16048674D01*
X9742039Y-16048674D02*
X9789658Y-16048674D01*
X9789658Y-16048674D02*
X9808705Y-16058198D01*
X9808705Y-16058198D02*
X9818229Y-16067722D01*
X9818229Y-16067722D02*
X9827753Y-16086769D01*
X9827753Y-16086769D02*
X9827753Y-16134388D01*
X9827753Y-16134388D02*
X9818229Y-16153436D01*
X9818229Y-16153436D02*
X9808705Y-16162960D01*
X9808705Y-16162960D02*
X9789658Y-16172484D01*
X9789658Y-16172484D02*
X9742039Y-16172484D01*
X9742039Y-16172484D02*
X9722991Y-16162960D01*
X9722991Y-16162960D02*
X9713467Y-16153436D01*
X9951563Y-15972484D02*
X9970610Y-15972484D01*
X9970610Y-15972484D02*
X9989658Y-15982008D01*
X9989658Y-15982008D02*
X9999182Y-15991531D01*
X9999182Y-15991531D02*
X10008705Y-16010579D01*
X10008705Y-16010579D02*
X10018229Y-16048674D01*
X10018229Y-16048674D02*
X10018229Y-16096293D01*
X10018229Y-16096293D02*
X10008705Y-16134388D01*
X10008705Y-16134388D02*
X9999182Y-16153436D01*
X9999182Y-16153436D02*
X9989658Y-16162960D01*
X9989658Y-16162960D02*
X9970610Y-16172484D01*
X9970610Y-16172484D02*
X9951563Y-16172484D01*
X9951563Y-16172484D02*
X9932515Y-16162960D01*
X9932515Y-16162960D02*
X9922991Y-16153436D01*
X9922991Y-16153436D02*
X9913467Y-16134388D01*
X9913467Y-16134388D02*
X9903944Y-16096293D01*
X9903944Y-16096293D02*
X9903944Y-16048674D01*
X9903944Y-16048674D02*
X9913467Y-16010579D01*
X9913467Y-16010579D02*
X9922991Y-15991531D01*
X9922991Y-15991531D02*
X9932515Y-15982008D01*
X9932515Y-15982008D02*
X9951563Y-15972484D01*
X10142039Y-15972484D02*
X10161086Y-15972484D01*
X10161086Y-15972484D02*
X10180134Y-15982008D01*
X10180134Y-15982008D02*
X10189658Y-15991531D01*
X10189658Y-15991531D02*
X10199182Y-16010579D01*
X10199182Y-16010579D02*
X10208705Y-16048674D01*
X10208705Y-16048674D02*
X10208705Y-16096293D01*
X10208705Y-16096293D02*
X10199182Y-16134388D01*
X10199182Y-16134388D02*
X10189658Y-16153436D01*
X10189658Y-16153436D02*
X10180134Y-16162960D01*
X10180134Y-16162960D02*
X10161086Y-16172484D01*
X10161086Y-16172484D02*
X10142039Y-16172484D01*
X10142039Y-16172484D02*
X10122991Y-16162960D01*
X10122991Y-16162960D02*
X10113467Y-16153436D01*
X10113467Y-16153436D02*
X10103944Y-16134388D01*
X10103944Y-16134388D02*
X10094420Y-16096293D01*
X10094420Y-16096293D02*
X10094420Y-16048674D01*
X10094420Y-16048674D02*
X10103944Y-16010579D01*
X10103944Y-16010579D02*
X10113467Y-15991531D01*
X10113467Y-15991531D02*
X10122991Y-15982008D01*
X10122991Y-15982008D02*
X10142039Y-15972484D01*
X10294420Y-16172484D02*
X10294420Y-16039150D01*
X10294420Y-16058198D02*
X10303944Y-16048674D01*
X10303944Y-16048674D02*
X10322991Y-16039150D01*
X10322991Y-16039150D02*
X10351563Y-16039150D01*
X10351563Y-16039150D02*
X10370610Y-16048674D01*
X10370610Y-16048674D02*
X10380134Y-16067722D01*
X10380134Y-16067722D02*
X10380134Y-16172484D01*
X10380134Y-16067722D02*
X10389658Y-16048674D01*
X10389658Y-16048674D02*
X10408705Y-16039150D01*
X10408705Y-16039150D02*
X10437277Y-16039150D01*
X10437277Y-16039150D02*
X10456325Y-16048674D01*
X10456325Y-16048674D02*
X10465848Y-16067722D01*
X10465848Y-16067722D02*
X10465848Y-16172484D01*
X10561086Y-16172484D02*
X10561086Y-16039150D01*
X10561086Y-16058198D02*
X10570610Y-16048674D01*
X10570610Y-16048674D02*
X10589658Y-16039150D01*
X10589658Y-16039150D02*
X10618229Y-16039150D01*
X10618229Y-16039150D02*
X10637277Y-16048674D01*
X10637277Y-16048674D02*
X10646801Y-16067722D01*
X10646801Y-16067722D02*
X10646801Y-16172484D01*
X10646801Y-16067722D02*
X10656325Y-16048674D01*
X10656325Y-16048674D02*
X10675372Y-16039150D01*
X10675372Y-16039150D02*
X10703944Y-16039150D01*
X10703944Y-16039150D02*
X10722991Y-16048674D01*
X10722991Y-16048674D02*
X10732515Y-16067722D01*
X10732515Y-16067722D02*
X10732515Y-16172484D01*
X11122991Y-15962960D02*
X10951563Y-16220103D01*
X11380134Y-15972484D02*
X11399182Y-15972484D01*
X11399182Y-15972484D02*
X11418229Y-15982008D01*
X11418229Y-15982008D02*
X11427753Y-15991531D01*
X11427753Y-15991531D02*
X11437277Y-16010579D01*
X11437277Y-16010579D02*
X11446801Y-16048674D01*
X11446801Y-16048674D02*
X11446801Y-16096293D01*
X11446801Y-16096293D02*
X11437277Y-16134388D01*
X11437277Y-16134388D02*
X11427753Y-16153436D01*
X11427753Y-16153436D02*
X11418229Y-16162960D01*
X11418229Y-16162960D02*
X11399182Y-16172484D01*
X11399182Y-16172484D02*
X11380134Y-16172484D01*
X11380134Y-16172484D02*
X11361086Y-16162960D01*
X11361086Y-16162960D02*
X11351563Y-16153436D01*
X11351563Y-16153436D02*
X11342039Y-16134388D01*
X11342039Y-16134388D02*
X11332515Y-16096293D01*
X11332515Y-16096293D02*
X11332515Y-16048674D01*
X11332515Y-16048674D02*
X11342039Y-16010579D01*
X11342039Y-16010579D02*
X11351563Y-15991531D01*
X11351563Y-15991531D02*
X11361086Y-15982008D01*
X11361086Y-15982008D02*
X11380134Y-15972484D01*
X11532515Y-16153436D02*
X11542039Y-16162960D01*
X11542039Y-16162960D02*
X11532515Y-16172484D01*
X11532515Y-16172484D02*
X11522991Y-16162960D01*
X11522991Y-16162960D02*
X11532515Y-16153436D01*
X11532515Y-16153436D02*
X11532515Y-16172484D01*
X11665848Y-15972484D02*
X11684896Y-15972484D01*
X11684896Y-15972484D02*
X11703944Y-15982008D01*
X11703944Y-15982008D02*
X11713467Y-15991531D01*
X11713467Y-15991531D02*
X11722991Y-16010579D01*
X11722991Y-16010579D02*
X11732515Y-16048674D01*
X11732515Y-16048674D02*
X11732515Y-16096293D01*
X11732515Y-16096293D02*
X11722991Y-16134388D01*
X11722991Y-16134388D02*
X11713467Y-16153436D01*
X11713467Y-16153436D02*
X11703944Y-16162960D01*
X11703944Y-16162960D02*
X11684896Y-16172484D01*
X11684896Y-16172484D02*
X11665848Y-16172484D01*
X11665848Y-16172484D02*
X11646801Y-16162960D01*
X11646801Y-16162960D02*
X11637277Y-16153436D01*
X11637277Y-16153436D02*
X11627753Y-16134388D01*
X11627753Y-16134388D02*
X11618229Y-16096293D01*
X11618229Y-16096293D02*
X11618229Y-16048674D01*
X11618229Y-16048674D02*
X11627753Y-16010579D01*
X11627753Y-16010579D02*
X11637277Y-15991531D01*
X11637277Y-15991531D02*
X11646801Y-15982008D01*
X11646801Y-15982008D02*
X11665848Y-15972484D01*
X11913467Y-15972484D02*
X11818229Y-15972484D01*
X11818229Y-15972484D02*
X11808706Y-16067722D01*
X11808706Y-16067722D02*
X11818229Y-16058198D01*
X11818229Y-16058198D02*
X11837277Y-16048674D01*
X11837277Y-16048674D02*
X11884896Y-16048674D01*
X11884896Y-16048674D02*
X11903944Y-16058198D01*
X11903944Y-16058198D02*
X11913467Y-16067722D01*
X11913467Y-16067722D02*
X11922991Y-16086769D01*
X11922991Y-16086769D02*
X11922991Y-16134388D01*
X11922991Y-16134388D02*
X11913467Y-16153436D01*
X11913467Y-16153436D02*
X11903944Y-16162960D01*
X11903944Y-16162960D02*
X11884896Y-16172484D01*
X11884896Y-16172484D02*
X11837277Y-16172484D01*
X11837277Y-16172484D02*
X11818229Y-16162960D01*
X11818229Y-16162960D02*
X11808706Y-16153436D01*
X12018229Y-16172484D02*
X12056325Y-16172484D01*
X12056325Y-16172484D02*
X12075372Y-16162960D01*
X12075372Y-16162960D02*
X12084896Y-16153436D01*
X12084896Y-16153436D02*
X12103944Y-16124865D01*
X12103944Y-16124865D02*
X12113467Y-16086769D01*
X12113467Y-16086769D02*
X12113467Y-16010579D01*
X12113467Y-16010579D02*
X12103944Y-15991531D01*
X12103944Y-15991531D02*
X12094420Y-15982008D01*
X12094420Y-15982008D02*
X12075372Y-15972484D01*
X12075372Y-15972484D02*
X12037277Y-15972484D01*
X12037277Y-15972484D02*
X12018229Y-15982008D01*
X12018229Y-15982008D02*
X12008706Y-15991531D01*
X12008706Y-15991531D02*
X11999182Y-16010579D01*
X11999182Y-16010579D02*
X11999182Y-16058198D01*
X11999182Y-16058198D02*
X12008706Y-16077246D01*
X12008706Y-16077246D02*
X12018229Y-16086769D01*
X12018229Y-16086769D02*
X12037277Y-16096293D01*
X12037277Y-16096293D02*
X12075372Y-16096293D01*
X12075372Y-16096293D02*
X12094420Y-16086769D01*
X12094420Y-16086769D02*
X12103944Y-16077246D01*
X12103944Y-16077246D02*
X12113467Y-16058198D01*
X12303944Y-16172484D02*
X12189658Y-16172484D01*
X12246801Y-16172484D02*
X12246801Y-15972484D01*
X12246801Y-15972484D02*
X12227753Y-16001055D01*
X12227753Y-16001055D02*
X12208706Y-16020103D01*
X12208706Y-16020103D02*
X12189658Y-16029627D01*
X12380134Y-15972484D02*
X12380134Y-16010579D01*
X12456325Y-15972484D02*
X12456325Y-16010579D01*
X12751563Y-16248674D02*
X12742039Y-16239150D01*
X12742039Y-16239150D02*
X12722991Y-16210579D01*
X12722991Y-16210579D02*
X12713468Y-16191531D01*
X12713468Y-16191531D02*
X12703944Y-16162960D01*
X12703944Y-16162960D02*
X12694420Y-16115341D01*
X12694420Y-16115341D02*
X12694420Y-16077246D01*
X12694420Y-16077246D02*
X12703944Y-16029627D01*
X12703944Y-16029627D02*
X12713468Y-16001055D01*
X12713468Y-16001055D02*
X12722991Y-15982008D01*
X12722991Y-15982008D02*
X12742039Y-15953436D01*
X12742039Y-15953436D02*
X12751563Y-15943912D01*
X12818229Y-15991531D02*
X12827753Y-15982008D01*
X12827753Y-15982008D02*
X12846801Y-15972484D01*
X12846801Y-15972484D02*
X12894420Y-15972484D01*
X12894420Y-15972484D02*
X12913468Y-15982008D01*
X12913468Y-15982008D02*
X12922991Y-15991531D01*
X12922991Y-15991531D02*
X12932515Y-16010579D01*
X12932515Y-16010579D02*
X12932515Y-16029627D01*
X12932515Y-16029627D02*
X12922991Y-16058198D01*
X12922991Y-16058198D02*
X12808706Y-16172484D01*
X12808706Y-16172484D02*
X12932515Y-16172484D01*
X13170610Y-16172484D02*
X13170610Y-15972484D01*
X13256325Y-16172484D02*
X13256325Y-16067722D01*
X13256325Y-16067722D02*
X13246801Y-16048674D01*
X13246801Y-16048674D02*
X13227753Y-16039150D01*
X13227753Y-16039150D02*
X13199182Y-16039150D01*
X13199182Y-16039150D02*
X13180134Y-16048674D01*
X13180134Y-16048674D02*
X13170610Y-16058198D01*
X13380134Y-16172484D02*
X13361087Y-16162960D01*
X13361087Y-16162960D02*
X13351563Y-16153436D01*
X13351563Y-16153436D02*
X13342039Y-16134388D01*
X13342039Y-16134388D02*
X13342039Y-16077246D01*
X13342039Y-16077246D02*
X13351563Y-16058198D01*
X13351563Y-16058198D02*
X13361087Y-16048674D01*
X13361087Y-16048674D02*
X13380134Y-16039150D01*
X13380134Y-16039150D02*
X13408706Y-16039150D01*
X13408706Y-16039150D02*
X13427753Y-16048674D01*
X13427753Y-16048674D02*
X13437277Y-16058198D01*
X13437277Y-16058198D02*
X13446801Y-16077246D01*
X13446801Y-16077246D02*
X13446801Y-16134388D01*
X13446801Y-16134388D02*
X13437277Y-16153436D01*
X13437277Y-16153436D02*
X13427753Y-16162960D01*
X13427753Y-16162960D02*
X13408706Y-16172484D01*
X13408706Y-16172484D02*
X13380134Y-16172484D01*
X13561087Y-16172484D02*
X13542039Y-16162960D01*
X13542039Y-16162960D02*
X13532515Y-16143912D01*
X13532515Y-16143912D02*
X13532515Y-15972484D01*
X13713468Y-16162960D02*
X13694420Y-16172484D01*
X13694420Y-16172484D02*
X13656325Y-16172484D01*
X13656325Y-16172484D02*
X13637277Y-16162960D01*
X13637277Y-16162960D02*
X13627753Y-16143912D01*
X13627753Y-16143912D02*
X13627753Y-16067722D01*
X13627753Y-16067722D02*
X13637277Y-16048674D01*
X13637277Y-16048674D02*
X13656325Y-16039150D01*
X13656325Y-16039150D02*
X13694420Y-16039150D01*
X13694420Y-16039150D02*
X13713468Y-16048674D01*
X13713468Y-16048674D02*
X13722991Y-16067722D01*
X13722991Y-16067722D02*
X13722991Y-16086769D01*
X13722991Y-16086769D02*
X13627753Y-16105817D01*
X13799182Y-16162960D02*
X13818230Y-16172484D01*
X13818230Y-16172484D02*
X13856325Y-16172484D01*
X13856325Y-16172484D02*
X13875372Y-16162960D01*
X13875372Y-16162960D02*
X13884896Y-16143912D01*
X13884896Y-16143912D02*
X13884896Y-16134388D01*
X13884896Y-16134388D02*
X13875372Y-16115341D01*
X13875372Y-16115341D02*
X13856325Y-16105817D01*
X13856325Y-16105817D02*
X13827753Y-16105817D01*
X13827753Y-16105817D02*
X13808706Y-16096293D01*
X13808706Y-16096293D02*
X13799182Y-16077246D01*
X13799182Y-16077246D02*
X13799182Y-16067722D01*
X13799182Y-16067722D02*
X13808706Y-16048674D01*
X13808706Y-16048674D02*
X13827753Y-16039150D01*
X13827753Y-16039150D02*
X13856325Y-16039150D01*
X13856325Y-16039150D02*
X13875372Y-16048674D01*
X13951563Y-16248674D02*
X13961087Y-16239150D01*
X13961087Y-16239150D02*
X13980134Y-16210579D01*
X13980134Y-16210579D02*
X13989658Y-16191531D01*
X13989658Y-16191531D02*
X13999182Y-16162960D01*
X13999182Y-16162960D02*
X14008706Y-16115341D01*
X14008706Y-16115341D02*
X14008706Y-16077246D01*
X14008706Y-16077246D02*
X13999182Y-16029627D01*
X13999182Y-16029627D02*
X13989658Y-16001055D01*
X13989658Y-16001055D02*
X13980134Y-15982008D01*
X13980134Y-15982008D02*
X13961087Y-15953436D01*
X13961087Y-15953436D02*
X13951563Y-15943912D01*
X14313468Y-16248674D02*
X14303944Y-16239150D01*
X14303944Y-16239150D02*
X14284896Y-16210579D01*
X14284896Y-16210579D02*
X14275372Y-16191531D01*
X14275372Y-16191531D02*
X14265849Y-16162960D01*
X14265849Y-16162960D02*
X14256325Y-16115341D01*
X14256325Y-16115341D02*
X14256325Y-16077246D01*
X14256325Y-16077246D02*
X14265849Y-16029627D01*
X14265849Y-16029627D02*
X14275372Y-16001055D01*
X14275372Y-16001055D02*
X14284896Y-15982008D01*
X14284896Y-15982008D02*
X14303944Y-15953436D01*
X14303944Y-15953436D02*
X14313468Y-15943912D01*
X14389658Y-16039150D02*
X14389658Y-16172484D01*
X14389658Y-16058198D02*
X14399182Y-16048674D01*
X14399182Y-16048674D02*
X14418230Y-16039150D01*
X14418230Y-16039150D02*
X14446801Y-16039150D01*
X14446801Y-16039150D02*
X14465849Y-16048674D01*
X14465849Y-16048674D02*
X14475372Y-16067722D01*
X14475372Y-16067722D02*
X14475372Y-16172484D01*
X14599182Y-16172484D02*
X14580134Y-16162960D01*
X14580134Y-16162960D02*
X14570611Y-16153436D01*
X14570611Y-16153436D02*
X14561087Y-16134388D01*
X14561087Y-16134388D02*
X14561087Y-16077246D01*
X14561087Y-16077246D02*
X14570611Y-16058198D01*
X14570611Y-16058198D02*
X14580134Y-16048674D01*
X14580134Y-16048674D02*
X14599182Y-16039150D01*
X14599182Y-16039150D02*
X14627753Y-16039150D01*
X14627753Y-16039150D02*
X14646801Y-16048674D01*
X14646801Y-16048674D02*
X14656325Y-16058198D01*
X14656325Y-16058198D02*
X14665849Y-16077246D01*
X14665849Y-16077246D02*
X14665849Y-16134388D01*
X14665849Y-16134388D02*
X14656325Y-16153436D01*
X14656325Y-16153436D02*
X14646801Y-16162960D01*
X14646801Y-16162960D02*
X14627753Y-16172484D01*
X14627753Y-16172484D02*
X14599182Y-16172484D01*
X14722992Y-16039150D02*
X14799182Y-16039150D01*
X14751563Y-15972484D02*
X14751563Y-16143912D01*
X14751563Y-16143912D02*
X14761087Y-16162960D01*
X14761087Y-16162960D02*
X14780134Y-16172484D01*
X14780134Y-16172484D02*
X14799182Y-16172484D01*
X15018230Y-16039150D02*
X15018230Y-16239150D01*
X15018230Y-16048674D02*
X15037277Y-16039150D01*
X15037277Y-16039150D02*
X15075373Y-16039150D01*
X15075373Y-16039150D02*
X15094420Y-16048674D01*
X15094420Y-16048674D02*
X15103944Y-16058198D01*
X15103944Y-16058198D02*
X15113468Y-16077246D01*
X15113468Y-16077246D02*
X15113468Y-16134388D01*
X15113468Y-16134388D02*
X15103944Y-16153436D01*
X15103944Y-16153436D02*
X15094420Y-16162960D01*
X15094420Y-16162960D02*
X15075373Y-16172484D01*
X15075373Y-16172484D02*
X15037277Y-16172484D01*
X15037277Y-16172484D02*
X15018230Y-16162960D01*
X15227753Y-16172484D02*
X15208706Y-16162960D01*
X15208706Y-16162960D02*
X15199182Y-16143912D01*
X15199182Y-16143912D02*
X15199182Y-15972484D01*
X15389658Y-16172484D02*
X15389658Y-16067722D01*
X15389658Y-16067722D02*
X15380134Y-16048674D01*
X15380134Y-16048674D02*
X15361087Y-16039150D01*
X15361087Y-16039150D02*
X15322992Y-16039150D01*
X15322992Y-16039150D02*
X15303944Y-16048674D01*
X15389658Y-16162960D02*
X15370611Y-16172484D01*
X15370611Y-16172484D02*
X15322992Y-16172484D01*
X15322992Y-16172484D02*
X15303944Y-16162960D01*
X15303944Y-16162960D02*
X15294420Y-16143912D01*
X15294420Y-16143912D02*
X15294420Y-16124865D01*
X15294420Y-16124865D02*
X15303944Y-16105817D01*
X15303944Y-16105817D02*
X15322992Y-16096293D01*
X15322992Y-16096293D02*
X15370611Y-16096293D01*
X15370611Y-16096293D02*
X15389658Y-16086769D01*
X15456325Y-16039150D02*
X15532515Y-16039150D01*
X15484896Y-15972484D02*
X15484896Y-16143912D01*
X15484896Y-16143912D02*
X15494420Y-16162960D01*
X15494420Y-16162960D02*
X15513468Y-16172484D01*
X15513468Y-16172484D02*
X15532515Y-16172484D01*
X15675373Y-16162960D02*
X15656325Y-16172484D01*
X15656325Y-16172484D02*
X15618230Y-16172484D01*
X15618230Y-16172484D02*
X15599182Y-16162960D01*
X15599182Y-16162960D02*
X15589658Y-16143912D01*
X15589658Y-16143912D02*
X15589658Y-16067722D01*
X15589658Y-16067722D02*
X15599182Y-16048674D01*
X15599182Y-16048674D02*
X15618230Y-16039150D01*
X15618230Y-16039150D02*
X15656325Y-16039150D01*
X15656325Y-16039150D02*
X15675373Y-16048674D01*
X15675373Y-16048674D02*
X15684896Y-16067722D01*
X15684896Y-16067722D02*
X15684896Y-16086769D01*
X15684896Y-16086769D02*
X15589658Y-16105817D01*
X15856325Y-16172484D02*
X15856325Y-15972484D01*
X15856325Y-16162960D02*
X15837277Y-16172484D01*
X15837277Y-16172484D02*
X15799182Y-16172484D01*
X15799182Y-16172484D02*
X15780134Y-16162960D01*
X15780134Y-16162960D02*
X15770611Y-16153436D01*
X15770611Y-16153436D02*
X15761087Y-16134388D01*
X15761087Y-16134388D02*
X15761087Y-16077246D01*
X15761087Y-16077246D02*
X15770611Y-16058198D01*
X15770611Y-16058198D02*
X15780134Y-16048674D01*
X15780134Y-16048674D02*
X15799182Y-16039150D01*
X15799182Y-16039150D02*
X15837277Y-16039150D01*
X15837277Y-16039150D02*
X15856325Y-16048674D01*
X15932515Y-16248674D02*
X15942039Y-16239150D01*
X15942039Y-16239150D02*
X15961087Y-16210579D01*
X15961087Y-16210579D02*
X15970611Y-16191531D01*
X15970611Y-16191531D02*
X15980134Y-16162960D01*
X15980134Y-16162960D02*
X15989658Y-16115341D01*
X15989658Y-16115341D02*
X15989658Y-16077246D01*
X15989658Y-16077246D02*
X15980134Y-16029627D01*
X15980134Y-16029627D02*
X15970611Y-16001055D01*
X15970611Y-16001055D02*
X15961087Y-15982008D01*
X15961087Y-15982008D02*
X15942039Y-15953436D01*
X15942039Y-15953436D02*
X15932515Y-15943912D01*
D13*
X9176500Y-16351000D02*
G75*
G03*
X9176500Y-16351000I-90000J0D01*
G01*
D11*
X9542039Y-16442484D02*
X9427753Y-16442484D01*
X9484896Y-16442484D02*
X9484896Y-16242484D01*
X9484896Y-16242484D02*
X9465848Y-16271055D01*
X9465848Y-16271055D02*
X9446801Y-16290103D01*
X9446801Y-16290103D02*
X9427753Y-16299627D01*
X9627753Y-16423436D02*
X9637277Y-16432960D01*
X9637277Y-16432960D02*
X9627753Y-16442484D01*
X9627753Y-16442484D02*
X9618229Y-16432960D01*
X9618229Y-16432960D02*
X9627753Y-16423436D01*
X9627753Y-16423436D02*
X9627753Y-16442484D01*
X9751563Y-16328198D02*
X9732515Y-16318674D01*
X9732515Y-16318674D02*
X9722991Y-16309150D01*
X9722991Y-16309150D02*
X9713467Y-16290103D01*
X9713467Y-16290103D02*
X9713467Y-16280579D01*
X9713467Y-16280579D02*
X9722991Y-16261531D01*
X9722991Y-16261531D02*
X9732515Y-16252008D01*
X9732515Y-16252008D02*
X9751563Y-16242484D01*
X9751563Y-16242484D02*
X9789658Y-16242484D01*
X9789658Y-16242484D02*
X9808705Y-16252008D01*
X9808705Y-16252008D02*
X9818229Y-16261531D01*
X9818229Y-16261531D02*
X9827753Y-16280579D01*
X9827753Y-16280579D02*
X9827753Y-16290103D01*
X9827753Y-16290103D02*
X9818229Y-16309150D01*
X9818229Y-16309150D02*
X9808705Y-16318674D01*
X9808705Y-16318674D02*
X9789658Y-16328198D01*
X9789658Y-16328198D02*
X9751563Y-16328198D01*
X9751563Y-16328198D02*
X9732515Y-16337722D01*
X9732515Y-16337722D02*
X9722991Y-16347246D01*
X9722991Y-16347246D02*
X9713467Y-16366293D01*
X9713467Y-16366293D02*
X9713467Y-16404388D01*
X9713467Y-16404388D02*
X9722991Y-16423436D01*
X9722991Y-16423436D02*
X9732515Y-16432960D01*
X9732515Y-16432960D02*
X9751563Y-16442484D01*
X9751563Y-16442484D02*
X9789658Y-16442484D01*
X9789658Y-16442484D02*
X9808705Y-16432960D01*
X9808705Y-16432960D02*
X9818229Y-16423436D01*
X9818229Y-16423436D02*
X9827753Y-16404388D01*
X9827753Y-16404388D02*
X9827753Y-16366293D01*
X9827753Y-16366293D02*
X9818229Y-16347246D01*
X9818229Y-16347246D02*
X9808705Y-16337722D01*
X9808705Y-16337722D02*
X9789658Y-16328198D01*
X9951563Y-16242484D02*
X9970610Y-16242484D01*
X9970610Y-16242484D02*
X9989658Y-16252008D01*
X9989658Y-16252008D02*
X9999182Y-16261531D01*
X9999182Y-16261531D02*
X10008705Y-16280579D01*
X10008705Y-16280579D02*
X10018229Y-16318674D01*
X10018229Y-16318674D02*
X10018229Y-16366293D01*
X10018229Y-16366293D02*
X10008705Y-16404388D01*
X10008705Y-16404388D02*
X9999182Y-16423436D01*
X9999182Y-16423436D02*
X9989658Y-16432960D01*
X9989658Y-16432960D02*
X9970610Y-16442484D01*
X9970610Y-16442484D02*
X9951563Y-16442484D01*
X9951563Y-16442484D02*
X9932515Y-16432960D01*
X9932515Y-16432960D02*
X9922991Y-16423436D01*
X9922991Y-16423436D02*
X9913467Y-16404388D01*
X9913467Y-16404388D02*
X9903944Y-16366293D01*
X9903944Y-16366293D02*
X9903944Y-16318674D01*
X9903944Y-16318674D02*
X9913467Y-16280579D01*
X9913467Y-16280579D02*
X9922991Y-16261531D01*
X9922991Y-16261531D02*
X9932515Y-16252008D01*
X9932515Y-16252008D02*
X9951563Y-16242484D01*
X10142039Y-16242484D02*
X10161086Y-16242484D01*
X10161086Y-16242484D02*
X10180134Y-16252008D01*
X10180134Y-16252008D02*
X10189658Y-16261531D01*
X10189658Y-16261531D02*
X10199182Y-16280579D01*
X10199182Y-16280579D02*
X10208705Y-16318674D01*
X10208705Y-16318674D02*
X10208705Y-16366293D01*
X10208705Y-16366293D02*
X10199182Y-16404388D01*
X10199182Y-16404388D02*
X10189658Y-16423436D01*
X10189658Y-16423436D02*
X10180134Y-16432960D01*
X10180134Y-16432960D02*
X10161086Y-16442484D01*
X10161086Y-16442484D02*
X10142039Y-16442484D01*
X10142039Y-16442484D02*
X10122991Y-16432960D01*
X10122991Y-16432960D02*
X10113467Y-16423436D01*
X10113467Y-16423436D02*
X10103944Y-16404388D01*
X10103944Y-16404388D02*
X10094420Y-16366293D01*
X10094420Y-16366293D02*
X10094420Y-16318674D01*
X10094420Y-16318674D02*
X10103944Y-16280579D01*
X10103944Y-16280579D02*
X10113467Y-16261531D01*
X10113467Y-16261531D02*
X10122991Y-16252008D01*
X10122991Y-16252008D02*
X10142039Y-16242484D01*
X10294420Y-16442484D02*
X10294420Y-16309150D01*
X10294420Y-16328198D02*
X10303944Y-16318674D01*
X10303944Y-16318674D02*
X10322991Y-16309150D01*
X10322991Y-16309150D02*
X10351563Y-16309150D01*
X10351563Y-16309150D02*
X10370610Y-16318674D01*
X10370610Y-16318674D02*
X10380134Y-16337722D01*
X10380134Y-16337722D02*
X10380134Y-16442484D01*
X10380134Y-16337722D02*
X10389658Y-16318674D01*
X10389658Y-16318674D02*
X10408705Y-16309150D01*
X10408705Y-16309150D02*
X10437277Y-16309150D01*
X10437277Y-16309150D02*
X10456325Y-16318674D01*
X10456325Y-16318674D02*
X10465848Y-16337722D01*
X10465848Y-16337722D02*
X10465848Y-16442484D01*
X10561086Y-16442484D02*
X10561086Y-16309150D01*
X10561086Y-16328198D02*
X10570610Y-16318674D01*
X10570610Y-16318674D02*
X10589658Y-16309150D01*
X10589658Y-16309150D02*
X10618229Y-16309150D01*
X10618229Y-16309150D02*
X10637277Y-16318674D01*
X10637277Y-16318674D02*
X10646801Y-16337722D01*
X10646801Y-16337722D02*
X10646801Y-16442484D01*
X10646801Y-16337722D02*
X10656325Y-16318674D01*
X10656325Y-16318674D02*
X10675372Y-16309150D01*
X10675372Y-16309150D02*
X10703944Y-16309150D01*
X10703944Y-16309150D02*
X10722991Y-16318674D01*
X10722991Y-16318674D02*
X10732515Y-16337722D01*
X10732515Y-16337722D02*
X10732515Y-16442484D01*
X11122991Y-16232960D02*
X10951563Y-16490103D01*
X11380134Y-16242484D02*
X11399182Y-16242484D01*
X11399182Y-16242484D02*
X11418229Y-16252008D01*
X11418229Y-16252008D02*
X11427753Y-16261531D01*
X11427753Y-16261531D02*
X11437277Y-16280579D01*
X11437277Y-16280579D02*
X11446801Y-16318674D01*
X11446801Y-16318674D02*
X11446801Y-16366293D01*
X11446801Y-16366293D02*
X11437277Y-16404388D01*
X11437277Y-16404388D02*
X11427753Y-16423436D01*
X11427753Y-16423436D02*
X11418229Y-16432960D01*
X11418229Y-16432960D02*
X11399182Y-16442484D01*
X11399182Y-16442484D02*
X11380134Y-16442484D01*
X11380134Y-16442484D02*
X11361086Y-16432960D01*
X11361086Y-16432960D02*
X11351563Y-16423436D01*
X11351563Y-16423436D02*
X11342039Y-16404388D01*
X11342039Y-16404388D02*
X11332515Y-16366293D01*
X11332515Y-16366293D02*
X11332515Y-16318674D01*
X11332515Y-16318674D02*
X11342039Y-16280579D01*
X11342039Y-16280579D02*
X11351563Y-16261531D01*
X11351563Y-16261531D02*
X11361086Y-16252008D01*
X11361086Y-16252008D02*
X11380134Y-16242484D01*
X11532515Y-16423436D02*
X11542039Y-16432960D01*
X11542039Y-16432960D02*
X11532515Y-16442484D01*
X11532515Y-16442484D02*
X11522991Y-16432960D01*
X11522991Y-16432960D02*
X11532515Y-16423436D01*
X11532515Y-16423436D02*
X11532515Y-16442484D01*
X11665848Y-16242484D02*
X11684896Y-16242484D01*
X11684896Y-16242484D02*
X11703944Y-16252008D01*
X11703944Y-16252008D02*
X11713467Y-16261531D01*
X11713467Y-16261531D02*
X11722991Y-16280579D01*
X11722991Y-16280579D02*
X11732515Y-16318674D01*
X11732515Y-16318674D02*
X11732515Y-16366293D01*
X11732515Y-16366293D02*
X11722991Y-16404388D01*
X11722991Y-16404388D02*
X11713467Y-16423436D01*
X11713467Y-16423436D02*
X11703944Y-16432960D01*
X11703944Y-16432960D02*
X11684896Y-16442484D01*
X11684896Y-16442484D02*
X11665848Y-16442484D01*
X11665848Y-16442484D02*
X11646801Y-16432960D01*
X11646801Y-16432960D02*
X11637277Y-16423436D01*
X11637277Y-16423436D02*
X11627753Y-16404388D01*
X11627753Y-16404388D02*
X11618229Y-16366293D01*
X11618229Y-16366293D02*
X11618229Y-16318674D01*
X11618229Y-16318674D02*
X11627753Y-16280579D01*
X11627753Y-16280579D02*
X11637277Y-16261531D01*
X11637277Y-16261531D02*
X11646801Y-16252008D01*
X11646801Y-16252008D02*
X11665848Y-16242484D01*
X11799182Y-16242484D02*
X11932515Y-16242484D01*
X11932515Y-16242484D02*
X11846801Y-16442484D01*
X12046801Y-16242484D02*
X12065848Y-16242484D01*
X12065848Y-16242484D02*
X12084896Y-16252008D01*
X12084896Y-16252008D02*
X12094420Y-16261531D01*
X12094420Y-16261531D02*
X12103944Y-16280579D01*
X12103944Y-16280579D02*
X12113467Y-16318674D01*
X12113467Y-16318674D02*
X12113467Y-16366293D01*
X12113467Y-16366293D02*
X12103944Y-16404388D01*
X12103944Y-16404388D02*
X12094420Y-16423436D01*
X12094420Y-16423436D02*
X12084896Y-16432960D01*
X12084896Y-16432960D02*
X12065848Y-16442484D01*
X12065848Y-16442484D02*
X12046801Y-16442484D01*
X12046801Y-16442484D02*
X12027753Y-16432960D01*
X12027753Y-16432960D02*
X12018229Y-16423436D01*
X12018229Y-16423436D02*
X12008706Y-16404388D01*
X12008706Y-16404388D02*
X11999182Y-16366293D01*
X11999182Y-16366293D02*
X11999182Y-16318674D01*
X11999182Y-16318674D02*
X12008706Y-16280579D01*
X12008706Y-16280579D02*
X12018229Y-16261531D01*
X12018229Y-16261531D02*
X12027753Y-16252008D01*
X12027753Y-16252008D02*
X12046801Y-16242484D01*
X12208706Y-16442484D02*
X12246801Y-16442484D01*
X12246801Y-16442484D02*
X12265848Y-16432960D01*
X12265848Y-16432960D02*
X12275372Y-16423436D01*
X12275372Y-16423436D02*
X12294420Y-16394865D01*
X12294420Y-16394865D02*
X12303944Y-16356769D01*
X12303944Y-16356769D02*
X12303944Y-16280579D01*
X12303944Y-16280579D02*
X12294420Y-16261531D01*
X12294420Y-16261531D02*
X12284896Y-16252008D01*
X12284896Y-16252008D02*
X12265848Y-16242484D01*
X12265848Y-16242484D02*
X12227753Y-16242484D01*
X12227753Y-16242484D02*
X12208706Y-16252008D01*
X12208706Y-16252008D02*
X12199182Y-16261531D01*
X12199182Y-16261531D02*
X12189658Y-16280579D01*
X12189658Y-16280579D02*
X12189658Y-16328198D01*
X12189658Y-16328198D02*
X12199182Y-16347246D01*
X12199182Y-16347246D02*
X12208706Y-16356769D01*
X12208706Y-16356769D02*
X12227753Y-16366293D01*
X12227753Y-16366293D02*
X12265848Y-16366293D01*
X12265848Y-16366293D02*
X12284896Y-16356769D01*
X12284896Y-16356769D02*
X12294420Y-16347246D01*
X12294420Y-16347246D02*
X12303944Y-16328198D01*
X12380134Y-16242484D02*
X12380134Y-16280579D01*
X12456325Y-16242484D02*
X12456325Y-16280579D01*
X12751563Y-16518674D02*
X12742039Y-16509150D01*
X12742039Y-16509150D02*
X12722991Y-16480579D01*
X12722991Y-16480579D02*
X12713468Y-16461531D01*
X12713468Y-16461531D02*
X12703944Y-16432960D01*
X12703944Y-16432960D02*
X12694420Y-16385341D01*
X12694420Y-16385341D02*
X12694420Y-16347246D01*
X12694420Y-16347246D02*
X12703944Y-16299627D01*
X12703944Y-16299627D02*
X12713468Y-16271055D01*
X12713468Y-16271055D02*
X12722991Y-16252008D01*
X12722991Y-16252008D02*
X12742039Y-16223436D01*
X12742039Y-16223436D02*
X12751563Y-16213912D01*
X12818229Y-16261531D02*
X12827753Y-16252008D01*
X12827753Y-16252008D02*
X12846801Y-16242484D01*
X12846801Y-16242484D02*
X12894420Y-16242484D01*
X12894420Y-16242484D02*
X12913468Y-16252008D01*
X12913468Y-16252008D02*
X12922991Y-16261531D01*
X12922991Y-16261531D02*
X12932515Y-16280579D01*
X12932515Y-16280579D02*
X12932515Y-16299627D01*
X12932515Y-16299627D02*
X12922991Y-16328198D01*
X12922991Y-16328198D02*
X12808706Y-16442484D01*
X12808706Y-16442484D02*
X12932515Y-16442484D01*
X13170610Y-16442484D02*
X13170610Y-16242484D01*
X13256325Y-16442484D02*
X13256325Y-16337722D01*
X13256325Y-16337722D02*
X13246801Y-16318674D01*
X13246801Y-16318674D02*
X13227753Y-16309150D01*
X13227753Y-16309150D02*
X13199182Y-16309150D01*
X13199182Y-16309150D02*
X13180134Y-16318674D01*
X13180134Y-16318674D02*
X13170610Y-16328198D01*
X13380134Y-16442484D02*
X13361087Y-16432960D01*
X13361087Y-16432960D02*
X13351563Y-16423436D01*
X13351563Y-16423436D02*
X13342039Y-16404388D01*
X13342039Y-16404388D02*
X13342039Y-16347246D01*
X13342039Y-16347246D02*
X13351563Y-16328198D01*
X13351563Y-16328198D02*
X13361087Y-16318674D01*
X13361087Y-16318674D02*
X13380134Y-16309150D01*
X13380134Y-16309150D02*
X13408706Y-16309150D01*
X13408706Y-16309150D02*
X13427753Y-16318674D01*
X13427753Y-16318674D02*
X13437277Y-16328198D01*
X13437277Y-16328198D02*
X13446801Y-16347246D01*
X13446801Y-16347246D02*
X13446801Y-16404388D01*
X13446801Y-16404388D02*
X13437277Y-16423436D01*
X13437277Y-16423436D02*
X13427753Y-16432960D01*
X13427753Y-16432960D02*
X13408706Y-16442484D01*
X13408706Y-16442484D02*
X13380134Y-16442484D01*
X13561087Y-16442484D02*
X13542039Y-16432960D01*
X13542039Y-16432960D02*
X13532515Y-16413912D01*
X13532515Y-16413912D02*
X13532515Y-16242484D01*
X13713468Y-16432960D02*
X13694420Y-16442484D01*
X13694420Y-16442484D02*
X13656325Y-16442484D01*
X13656325Y-16442484D02*
X13637277Y-16432960D01*
X13637277Y-16432960D02*
X13627753Y-16413912D01*
X13627753Y-16413912D02*
X13627753Y-16337722D01*
X13627753Y-16337722D02*
X13637277Y-16318674D01*
X13637277Y-16318674D02*
X13656325Y-16309150D01*
X13656325Y-16309150D02*
X13694420Y-16309150D01*
X13694420Y-16309150D02*
X13713468Y-16318674D01*
X13713468Y-16318674D02*
X13722991Y-16337722D01*
X13722991Y-16337722D02*
X13722991Y-16356769D01*
X13722991Y-16356769D02*
X13627753Y-16375817D01*
X13799182Y-16432960D02*
X13818230Y-16442484D01*
X13818230Y-16442484D02*
X13856325Y-16442484D01*
X13856325Y-16442484D02*
X13875372Y-16432960D01*
X13875372Y-16432960D02*
X13884896Y-16413912D01*
X13884896Y-16413912D02*
X13884896Y-16404388D01*
X13884896Y-16404388D02*
X13875372Y-16385341D01*
X13875372Y-16385341D02*
X13856325Y-16375817D01*
X13856325Y-16375817D02*
X13827753Y-16375817D01*
X13827753Y-16375817D02*
X13808706Y-16366293D01*
X13808706Y-16366293D02*
X13799182Y-16347246D01*
X13799182Y-16347246D02*
X13799182Y-16337722D01*
X13799182Y-16337722D02*
X13808706Y-16318674D01*
X13808706Y-16318674D02*
X13827753Y-16309150D01*
X13827753Y-16309150D02*
X13856325Y-16309150D01*
X13856325Y-16309150D02*
X13875372Y-16318674D01*
X13951563Y-16518674D02*
X13961087Y-16509150D01*
X13961087Y-16509150D02*
X13980134Y-16480579D01*
X13980134Y-16480579D02*
X13989658Y-16461531D01*
X13989658Y-16461531D02*
X13999182Y-16432960D01*
X13999182Y-16432960D02*
X14008706Y-16385341D01*
X14008706Y-16385341D02*
X14008706Y-16347246D01*
X14008706Y-16347246D02*
X13999182Y-16299627D01*
X13999182Y-16299627D02*
X13989658Y-16271055D01*
X13989658Y-16271055D02*
X13980134Y-16252008D01*
X13980134Y-16252008D02*
X13961087Y-16223436D01*
X13961087Y-16223436D02*
X13951563Y-16213912D01*
X14313468Y-16518674D02*
X14303944Y-16509150D01*
X14303944Y-16509150D02*
X14284896Y-16480579D01*
X14284896Y-16480579D02*
X14275372Y-16461531D01*
X14275372Y-16461531D02*
X14265849Y-16432960D01*
X14265849Y-16432960D02*
X14256325Y-16385341D01*
X14256325Y-16385341D02*
X14256325Y-16347246D01*
X14256325Y-16347246D02*
X14265849Y-16299627D01*
X14265849Y-16299627D02*
X14275372Y-16271055D01*
X14275372Y-16271055D02*
X14284896Y-16252008D01*
X14284896Y-16252008D02*
X14303944Y-16223436D01*
X14303944Y-16223436D02*
X14313468Y-16213912D01*
X14389658Y-16309150D02*
X14389658Y-16442484D01*
X14389658Y-16328198D02*
X14399182Y-16318674D01*
X14399182Y-16318674D02*
X14418230Y-16309150D01*
X14418230Y-16309150D02*
X14446801Y-16309150D01*
X14446801Y-16309150D02*
X14465849Y-16318674D01*
X14465849Y-16318674D02*
X14475372Y-16337722D01*
X14475372Y-16337722D02*
X14475372Y-16442484D01*
X14599182Y-16442484D02*
X14580134Y-16432960D01*
X14580134Y-16432960D02*
X14570611Y-16423436D01*
X14570611Y-16423436D02*
X14561087Y-16404388D01*
X14561087Y-16404388D02*
X14561087Y-16347246D01*
X14561087Y-16347246D02*
X14570611Y-16328198D01*
X14570611Y-16328198D02*
X14580134Y-16318674D01*
X14580134Y-16318674D02*
X14599182Y-16309150D01*
X14599182Y-16309150D02*
X14627753Y-16309150D01*
X14627753Y-16309150D02*
X14646801Y-16318674D01*
X14646801Y-16318674D02*
X14656325Y-16328198D01*
X14656325Y-16328198D02*
X14665849Y-16347246D01*
X14665849Y-16347246D02*
X14665849Y-16404388D01*
X14665849Y-16404388D02*
X14656325Y-16423436D01*
X14656325Y-16423436D02*
X14646801Y-16432960D01*
X14646801Y-16432960D02*
X14627753Y-16442484D01*
X14627753Y-16442484D02*
X14599182Y-16442484D01*
X14722992Y-16309150D02*
X14799182Y-16309150D01*
X14751563Y-16242484D02*
X14751563Y-16413912D01*
X14751563Y-16413912D02*
X14761087Y-16432960D01*
X14761087Y-16432960D02*
X14780134Y-16442484D01*
X14780134Y-16442484D02*
X14799182Y-16442484D01*
X15018230Y-16309150D02*
X15018230Y-16509150D01*
X15018230Y-16318674D02*
X15037277Y-16309150D01*
X15037277Y-16309150D02*
X15075373Y-16309150D01*
X15075373Y-16309150D02*
X15094420Y-16318674D01*
X15094420Y-16318674D02*
X15103944Y-16328198D01*
X15103944Y-16328198D02*
X15113468Y-16347246D01*
X15113468Y-16347246D02*
X15113468Y-16404388D01*
X15113468Y-16404388D02*
X15103944Y-16423436D01*
X15103944Y-16423436D02*
X15094420Y-16432960D01*
X15094420Y-16432960D02*
X15075373Y-16442484D01*
X15075373Y-16442484D02*
X15037277Y-16442484D01*
X15037277Y-16442484D02*
X15018230Y-16432960D01*
X15227753Y-16442484D02*
X15208706Y-16432960D01*
X15208706Y-16432960D02*
X15199182Y-16413912D01*
X15199182Y-16413912D02*
X15199182Y-16242484D01*
X15389658Y-16442484D02*
X15389658Y-16337722D01*
X15389658Y-16337722D02*
X15380134Y-16318674D01*
X15380134Y-16318674D02*
X15361087Y-16309150D01*
X15361087Y-16309150D02*
X15322992Y-16309150D01*
X15322992Y-16309150D02*
X15303944Y-16318674D01*
X15389658Y-16432960D02*
X15370611Y-16442484D01*
X15370611Y-16442484D02*
X15322992Y-16442484D01*
X15322992Y-16442484D02*
X15303944Y-16432960D01*
X15303944Y-16432960D02*
X15294420Y-16413912D01*
X15294420Y-16413912D02*
X15294420Y-16394865D01*
X15294420Y-16394865D02*
X15303944Y-16375817D01*
X15303944Y-16375817D02*
X15322992Y-16366293D01*
X15322992Y-16366293D02*
X15370611Y-16366293D01*
X15370611Y-16366293D02*
X15389658Y-16356769D01*
X15456325Y-16309150D02*
X15532515Y-16309150D01*
X15484896Y-16242484D02*
X15484896Y-16413912D01*
X15484896Y-16413912D02*
X15494420Y-16432960D01*
X15494420Y-16432960D02*
X15513468Y-16442484D01*
X15513468Y-16442484D02*
X15532515Y-16442484D01*
X15675373Y-16432960D02*
X15656325Y-16442484D01*
X15656325Y-16442484D02*
X15618230Y-16442484D01*
X15618230Y-16442484D02*
X15599182Y-16432960D01*
X15599182Y-16432960D02*
X15589658Y-16413912D01*
X15589658Y-16413912D02*
X15589658Y-16337722D01*
X15589658Y-16337722D02*
X15599182Y-16318674D01*
X15599182Y-16318674D02*
X15618230Y-16309150D01*
X15618230Y-16309150D02*
X15656325Y-16309150D01*
X15656325Y-16309150D02*
X15675373Y-16318674D01*
X15675373Y-16318674D02*
X15684896Y-16337722D01*
X15684896Y-16337722D02*
X15684896Y-16356769D01*
X15684896Y-16356769D02*
X15589658Y-16375817D01*
X15856325Y-16442484D02*
X15856325Y-16242484D01*
X15856325Y-16432960D02*
X15837277Y-16442484D01*
X15837277Y-16442484D02*
X15799182Y-16442484D01*
X15799182Y-16442484D02*
X15780134Y-16432960D01*
X15780134Y-16432960D02*
X15770611Y-16423436D01*
X15770611Y-16423436D02*
X15761087Y-16404388D01*
X15761087Y-16404388D02*
X15761087Y-16347246D01*
X15761087Y-16347246D02*
X15770611Y-16328198D01*
X15770611Y-16328198D02*
X15780134Y-16318674D01*
X15780134Y-16318674D02*
X15799182Y-16309150D01*
X15799182Y-16309150D02*
X15837277Y-16309150D01*
X15837277Y-16309150D02*
X15856325Y-16318674D01*
X15932515Y-16518674D02*
X15942039Y-16509150D01*
X15942039Y-16509150D02*
X15961087Y-16480579D01*
X15961087Y-16480579D02*
X15970611Y-16461531D01*
X15970611Y-16461531D02*
X15980134Y-16432960D01*
X15980134Y-16432960D02*
X15989658Y-16385341D01*
X15989658Y-16385341D02*
X15989658Y-16347246D01*
X15989658Y-16347246D02*
X15980134Y-16299627D01*
X15980134Y-16299627D02*
X15970611Y-16271055D01*
X15970611Y-16271055D02*
X15961087Y-16252008D01*
X15961087Y-16252008D02*
X15942039Y-16223436D01*
X15942039Y-16223436D02*
X15932515Y-16213912D01*
X9076500Y-16551000D02*
X9076500Y-16751000D01*
X8976500Y-16651000D02*
X9176500Y-16651000D01*
X9418229Y-16542484D02*
X9542039Y-16542484D01*
X9542039Y-16542484D02*
X9475372Y-16618674D01*
X9475372Y-16618674D02*
X9503944Y-16618674D01*
X9503944Y-16618674D02*
X9522991Y-16628198D01*
X9522991Y-16628198D02*
X9532515Y-16637722D01*
X9532515Y-16637722D02*
X9542039Y-16656769D01*
X9542039Y-16656769D02*
X9542039Y-16704388D01*
X9542039Y-16704388D02*
X9532515Y-16723436D01*
X9532515Y-16723436D02*
X9522991Y-16732960D01*
X9522991Y-16732960D02*
X9503944Y-16742484D01*
X9503944Y-16742484D02*
X9446801Y-16742484D01*
X9446801Y-16742484D02*
X9427753Y-16732960D01*
X9427753Y-16732960D02*
X9418229Y-16723436D01*
X9627753Y-16723436D02*
X9637277Y-16732960D01*
X9637277Y-16732960D02*
X9627753Y-16742484D01*
X9627753Y-16742484D02*
X9618229Y-16732960D01*
X9618229Y-16732960D02*
X9627753Y-16723436D01*
X9627753Y-16723436D02*
X9627753Y-16742484D01*
X9761086Y-16542484D02*
X9780134Y-16542484D01*
X9780134Y-16542484D02*
X9799182Y-16552008D01*
X9799182Y-16552008D02*
X9808705Y-16561531D01*
X9808705Y-16561531D02*
X9818229Y-16580579D01*
X9818229Y-16580579D02*
X9827753Y-16618674D01*
X9827753Y-16618674D02*
X9827753Y-16666293D01*
X9827753Y-16666293D02*
X9818229Y-16704388D01*
X9818229Y-16704388D02*
X9808705Y-16723436D01*
X9808705Y-16723436D02*
X9799182Y-16732960D01*
X9799182Y-16732960D02*
X9780134Y-16742484D01*
X9780134Y-16742484D02*
X9761086Y-16742484D01*
X9761086Y-16742484D02*
X9742039Y-16732960D01*
X9742039Y-16732960D02*
X9732515Y-16723436D01*
X9732515Y-16723436D02*
X9722991Y-16704388D01*
X9722991Y-16704388D02*
X9713467Y-16666293D01*
X9713467Y-16666293D02*
X9713467Y-16618674D01*
X9713467Y-16618674D02*
X9722991Y-16580579D01*
X9722991Y-16580579D02*
X9732515Y-16561531D01*
X9732515Y-16561531D02*
X9742039Y-16552008D01*
X9742039Y-16552008D02*
X9761086Y-16542484D01*
X9951563Y-16542484D02*
X9970610Y-16542484D01*
X9970610Y-16542484D02*
X9989658Y-16552008D01*
X9989658Y-16552008D02*
X9999182Y-16561531D01*
X9999182Y-16561531D02*
X10008705Y-16580579D01*
X10008705Y-16580579D02*
X10018229Y-16618674D01*
X10018229Y-16618674D02*
X10018229Y-16666293D01*
X10018229Y-16666293D02*
X10008705Y-16704388D01*
X10008705Y-16704388D02*
X9999182Y-16723436D01*
X9999182Y-16723436D02*
X9989658Y-16732960D01*
X9989658Y-16732960D02*
X9970610Y-16742484D01*
X9970610Y-16742484D02*
X9951563Y-16742484D01*
X9951563Y-16742484D02*
X9932515Y-16732960D01*
X9932515Y-16732960D02*
X9922991Y-16723436D01*
X9922991Y-16723436D02*
X9913467Y-16704388D01*
X9913467Y-16704388D02*
X9903944Y-16666293D01*
X9903944Y-16666293D02*
X9903944Y-16618674D01*
X9903944Y-16618674D02*
X9913467Y-16580579D01*
X9913467Y-16580579D02*
X9922991Y-16561531D01*
X9922991Y-16561531D02*
X9932515Y-16552008D01*
X9932515Y-16552008D02*
X9951563Y-16542484D01*
X10142039Y-16542484D02*
X10161086Y-16542484D01*
X10161086Y-16542484D02*
X10180134Y-16552008D01*
X10180134Y-16552008D02*
X10189658Y-16561531D01*
X10189658Y-16561531D02*
X10199182Y-16580579D01*
X10199182Y-16580579D02*
X10208705Y-16618674D01*
X10208705Y-16618674D02*
X10208705Y-16666293D01*
X10208705Y-16666293D02*
X10199182Y-16704388D01*
X10199182Y-16704388D02*
X10189658Y-16723436D01*
X10189658Y-16723436D02*
X10180134Y-16732960D01*
X10180134Y-16732960D02*
X10161086Y-16742484D01*
X10161086Y-16742484D02*
X10142039Y-16742484D01*
X10142039Y-16742484D02*
X10122991Y-16732960D01*
X10122991Y-16732960D02*
X10113467Y-16723436D01*
X10113467Y-16723436D02*
X10103944Y-16704388D01*
X10103944Y-16704388D02*
X10094420Y-16666293D01*
X10094420Y-16666293D02*
X10094420Y-16618674D01*
X10094420Y-16618674D02*
X10103944Y-16580579D01*
X10103944Y-16580579D02*
X10113467Y-16561531D01*
X10113467Y-16561531D02*
X10122991Y-16552008D01*
X10122991Y-16552008D02*
X10142039Y-16542484D01*
X10294420Y-16742484D02*
X10294420Y-16609150D01*
X10294420Y-16628198D02*
X10303944Y-16618674D01*
X10303944Y-16618674D02*
X10322991Y-16609150D01*
X10322991Y-16609150D02*
X10351563Y-16609150D01*
X10351563Y-16609150D02*
X10370610Y-16618674D01*
X10370610Y-16618674D02*
X10380134Y-16637722D01*
X10380134Y-16637722D02*
X10380134Y-16742484D01*
X10380134Y-16637722D02*
X10389658Y-16618674D01*
X10389658Y-16618674D02*
X10408705Y-16609150D01*
X10408705Y-16609150D02*
X10437277Y-16609150D01*
X10437277Y-16609150D02*
X10456325Y-16618674D01*
X10456325Y-16618674D02*
X10465848Y-16637722D01*
X10465848Y-16637722D02*
X10465848Y-16742484D01*
X10561086Y-16742484D02*
X10561086Y-16609150D01*
X10561086Y-16628198D02*
X10570610Y-16618674D01*
X10570610Y-16618674D02*
X10589658Y-16609150D01*
X10589658Y-16609150D02*
X10618229Y-16609150D01*
X10618229Y-16609150D02*
X10637277Y-16618674D01*
X10637277Y-16618674D02*
X10646801Y-16637722D01*
X10646801Y-16637722D02*
X10646801Y-16742484D01*
X10646801Y-16637722D02*
X10656325Y-16618674D01*
X10656325Y-16618674D02*
X10675372Y-16609150D01*
X10675372Y-16609150D02*
X10703944Y-16609150D01*
X10703944Y-16609150D02*
X10722991Y-16618674D01*
X10722991Y-16618674D02*
X10732515Y-16637722D01*
X10732515Y-16637722D02*
X10732515Y-16742484D01*
X11122991Y-16532960D02*
X10951563Y-16790103D01*
X11380134Y-16542484D02*
X11399182Y-16542484D01*
X11399182Y-16542484D02*
X11418229Y-16552008D01*
X11418229Y-16552008D02*
X11427753Y-16561531D01*
X11427753Y-16561531D02*
X11437277Y-16580579D01*
X11437277Y-16580579D02*
X11446801Y-16618674D01*
X11446801Y-16618674D02*
X11446801Y-16666293D01*
X11446801Y-16666293D02*
X11437277Y-16704388D01*
X11437277Y-16704388D02*
X11427753Y-16723436D01*
X11427753Y-16723436D02*
X11418229Y-16732960D01*
X11418229Y-16732960D02*
X11399182Y-16742484D01*
X11399182Y-16742484D02*
X11380134Y-16742484D01*
X11380134Y-16742484D02*
X11361086Y-16732960D01*
X11361086Y-16732960D02*
X11351563Y-16723436D01*
X11351563Y-16723436D02*
X11342039Y-16704388D01*
X11342039Y-16704388D02*
X11332515Y-16666293D01*
X11332515Y-16666293D02*
X11332515Y-16618674D01*
X11332515Y-16618674D02*
X11342039Y-16580579D01*
X11342039Y-16580579D02*
X11351563Y-16561531D01*
X11351563Y-16561531D02*
X11361086Y-16552008D01*
X11361086Y-16552008D02*
X11380134Y-16542484D01*
X11532515Y-16723436D02*
X11542039Y-16732960D01*
X11542039Y-16732960D02*
X11532515Y-16742484D01*
X11532515Y-16742484D02*
X11522991Y-16732960D01*
X11522991Y-16732960D02*
X11532515Y-16723436D01*
X11532515Y-16723436D02*
X11532515Y-16742484D01*
X11732515Y-16742484D02*
X11618229Y-16742484D01*
X11675372Y-16742484D02*
X11675372Y-16542484D01*
X11675372Y-16542484D02*
X11656325Y-16571055D01*
X11656325Y-16571055D02*
X11637277Y-16590103D01*
X11637277Y-16590103D02*
X11618229Y-16599627D01*
X11922991Y-16742484D02*
X11808706Y-16742484D01*
X11865848Y-16742484D02*
X11865848Y-16542484D01*
X11865848Y-16542484D02*
X11846801Y-16571055D01*
X11846801Y-16571055D02*
X11827753Y-16590103D01*
X11827753Y-16590103D02*
X11808706Y-16599627D01*
X12037277Y-16628198D02*
X12018229Y-16618674D01*
X12018229Y-16618674D02*
X12008706Y-16609150D01*
X12008706Y-16609150D02*
X11999182Y-16590103D01*
X11999182Y-16590103D02*
X11999182Y-16580579D01*
X11999182Y-16580579D02*
X12008706Y-16561531D01*
X12008706Y-16561531D02*
X12018229Y-16552008D01*
X12018229Y-16552008D02*
X12037277Y-16542484D01*
X12037277Y-16542484D02*
X12075372Y-16542484D01*
X12075372Y-16542484D02*
X12094420Y-16552008D01*
X12094420Y-16552008D02*
X12103944Y-16561531D01*
X12103944Y-16561531D02*
X12113467Y-16580579D01*
X12113467Y-16580579D02*
X12113467Y-16590103D01*
X12113467Y-16590103D02*
X12103944Y-16609150D01*
X12103944Y-16609150D02*
X12094420Y-16618674D01*
X12094420Y-16618674D02*
X12075372Y-16628198D01*
X12075372Y-16628198D02*
X12037277Y-16628198D01*
X12037277Y-16628198D02*
X12018229Y-16637722D01*
X12018229Y-16637722D02*
X12008706Y-16647246D01*
X12008706Y-16647246D02*
X11999182Y-16666293D01*
X11999182Y-16666293D02*
X11999182Y-16704388D01*
X11999182Y-16704388D02*
X12008706Y-16723436D01*
X12008706Y-16723436D02*
X12018229Y-16732960D01*
X12018229Y-16732960D02*
X12037277Y-16742484D01*
X12037277Y-16742484D02*
X12075372Y-16742484D01*
X12075372Y-16742484D02*
X12094420Y-16732960D01*
X12094420Y-16732960D02*
X12103944Y-16723436D01*
X12103944Y-16723436D02*
X12113467Y-16704388D01*
X12113467Y-16704388D02*
X12113467Y-16666293D01*
X12113467Y-16666293D02*
X12103944Y-16647246D01*
X12103944Y-16647246D02*
X12094420Y-16637722D01*
X12094420Y-16637722D02*
X12075372Y-16628198D01*
X12303944Y-16742484D02*
X12189658Y-16742484D01*
X12246801Y-16742484D02*
X12246801Y-16542484D01*
X12246801Y-16542484D02*
X12227753Y-16571055D01*
X12227753Y-16571055D02*
X12208706Y-16590103D01*
X12208706Y-16590103D02*
X12189658Y-16599627D01*
X12380134Y-16542484D02*
X12380134Y-16580579D01*
X12456325Y-16542484D02*
X12456325Y-16580579D01*
X12751563Y-16818674D02*
X12742039Y-16809150D01*
X12742039Y-16809150D02*
X12722991Y-16780579D01*
X12722991Y-16780579D02*
X12713468Y-16761531D01*
X12713468Y-16761531D02*
X12703944Y-16732960D01*
X12703944Y-16732960D02*
X12694420Y-16685341D01*
X12694420Y-16685341D02*
X12694420Y-16647246D01*
X12694420Y-16647246D02*
X12703944Y-16599627D01*
X12703944Y-16599627D02*
X12713468Y-16571055D01*
X12713468Y-16571055D02*
X12722991Y-16552008D01*
X12722991Y-16552008D02*
X12742039Y-16523436D01*
X12742039Y-16523436D02*
X12751563Y-16513912D01*
X12913468Y-16609150D02*
X12913468Y-16742484D01*
X12865848Y-16532960D02*
X12818229Y-16675817D01*
X12818229Y-16675817D02*
X12942039Y-16675817D01*
X13170610Y-16742484D02*
X13170610Y-16542484D01*
X13256325Y-16742484D02*
X13256325Y-16637722D01*
X13256325Y-16637722D02*
X13246801Y-16618674D01*
X13246801Y-16618674D02*
X13227753Y-16609150D01*
X13227753Y-16609150D02*
X13199182Y-16609150D01*
X13199182Y-16609150D02*
X13180134Y-16618674D01*
X13180134Y-16618674D02*
X13170610Y-16628198D01*
X13380134Y-16742484D02*
X13361087Y-16732960D01*
X13361087Y-16732960D02*
X13351563Y-16723436D01*
X13351563Y-16723436D02*
X13342039Y-16704388D01*
X13342039Y-16704388D02*
X13342039Y-16647246D01*
X13342039Y-16647246D02*
X13351563Y-16628198D01*
X13351563Y-16628198D02*
X13361087Y-16618674D01*
X13361087Y-16618674D02*
X13380134Y-16609150D01*
X13380134Y-16609150D02*
X13408706Y-16609150D01*
X13408706Y-16609150D02*
X13427753Y-16618674D01*
X13427753Y-16618674D02*
X13437277Y-16628198D01*
X13437277Y-16628198D02*
X13446801Y-16647246D01*
X13446801Y-16647246D02*
X13446801Y-16704388D01*
X13446801Y-16704388D02*
X13437277Y-16723436D01*
X13437277Y-16723436D02*
X13427753Y-16732960D01*
X13427753Y-16732960D02*
X13408706Y-16742484D01*
X13408706Y-16742484D02*
X13380134Y-16742484D01*
X13561087Y-16742484D02*
X13542039Y-16732960D01*
X13542039Y-16732960D02*
X13532515Y-16713912D01*
X13532515Y-16713912D02*
X13532515Y-16542484D01*
X13713468Y-16732960D02*
X13694420Y-16742484D01*
X13694420Y-16742484D02*
X13656325Y-16742484D01*
X13656325Y-16742484D02*
X13637277Y-16732960D01*
X13637277Y-16732960D02*
X13627753Y-16713912D01*
X13627753Y-16713912D02*
X13627753Y-16637722D01*
X13627753Y-16637722D02*
X13637277Y-16618674D01*
X13637277Y-16618674D02*
X13656325Y-16609150D01*
X13656325Y-16609150D02*
X13694420Y-16609150D01*
X13694420Y-16609150D02*
X13713468Y-16618674D01*
X13713468Y-16618674D02*
X13722991Y-16637722D01*
X13722991Y-16637722D02*
X13722991Y-16656769D01*
X13722991Y-16656769D02*
X13627753Y-16675817D01*
X13799182Y-16732960D02*
X13818230Y-16742484D01*
X13818230Y-16742484D02*
X13856325Y-16742484D01*
X13856325Y-16742484D02*
X13875372Y-16732960D01*
X13875372Y-16732960D02*
X13884896Y-16713912D01*
X13884896Y-16713912D02*
X13884896Y-16704388D01*
X13884896Y-16704388D02*
X13875372Y-16685341D01*
X13875372Y-16685341D02*
X13856325Y-16675817D01*
X13856325Y-16675817D02*
X13827753Y-16675817D01*
X13827753Y-16675817D02*
X13808706Y-16666293D01*
X13808706Y-16666293D02*
X13799182Y-16647246D01*
X13799182Y-16647246D02*
X13799182Y-16637722D01*
X13799182Y-16637722D02*
X13808706Y-16618674D01*
X13808706Y-16618674D02*
X13827753Y-16609150D01*
X13827753Y-16609150D02*
X13856325Y-16609150D01*
X13856325Y-16609150D02*
X13875372Y-16618674D01*
X13951563Y-16818674D02*
X13961087Y-16809150D01*
X13961087Y-16809150D02*
X13980134Y-16780579D01*
X13980134Y-16780579D02*
X13989658Y-16761531D01*
X13989658Y-16761531D02*
X13999182Y-16732960D01*
X13999182Y-16732960D02*
X14008706Y-16685341D01*
X14008706Y-16685341D02*
X14008706Y-16647246D01*
X14008706Y-16647246D02*
X13999182Y-16599627D01*
X13999182Y-16599627D02*
X13989658Y-16571055D01*
X13989658Y-16571055D02*
X13980134Y-16552008D01*
X13980134Y-16552008D02*
X13961087Y-16523436D01*
X13961087Y-16523436D02*
X13951563Y-16513912D01*
X14313468Y-16818674D02*
X14303944Y-16809150D01*
X14303944Y-16809150D02*
X14284896Y-16780579D01*
X14284896Y-16780579D02*
X14275372Y-16761531D01*
X14275372Y-16761531D02*
X14265849Y-16732960D01*
X14265849Y-16732960D02*
X14256325Y-16685341D01*
X14256325Y-16685341D02*
X14256325Y-16647246D01*
X14256325Y-16647246D02*
X14265849Y-16599627D01*
X14265849Y-16599627D02*
X14275372Y-16571055D01*
X14275372Y-16571055D02*
X14284896Y-16552008D01*
X14284896Y-16552008D02*
X14303944Y-16523436D01*
X14303944Y-16523436D02*
X14313468Y-16513912D01*
X14389658Y-16609150D02*
X14389658Y-16742484D01*
X14389658Y-16628198D02*
X14399182Y-16618674D01*
X14399182Y-16618674D02*
X14418230Y-16609150D01*
X14418230Y-16609150D02*
X14446801Y-16609150D01*
X14446801Y-16609150D02*
X14465849Y-16618674D01*
X14465849Y-16618674D02*
X14475372Y-16637722D01*
X14475372Y-16637722D02*
X14475372Y-16742484D01*
X14599182Y-16742484D02*
X14580134Y-16732960D01*
X14580134Y-16732960D02*
X14570611Y-16723436D01*
X14570611Y-16723436D02*
X14561087Y-16704388D01*
X14561087Y-16704388D02*
X14561087Y-16647246D01*
X14561087Y-16647246D02*
X14570611Y-16628198D01*
X14570611Y-16628198D02*
X14580134Y-16618674D01*
X14580134Y-16618674D02*
X14599182Y-16609150D01*
X14599182Y-16609150D02*
X14627753Y-16609150D01*
X14627753Y-16609150D02*
X14646801Y-16618674D01*
X14646801Y-16618674D02*
X14656325Y-16628198D01*
X14656325Y-16628198D02*
X14665849Y-16647246D01*
X14665849Y-16647246D02*
X14665849Y-16704388D01*
X14665849Y-16704388D02*
X14656325Y-16723436D01*
X14656325Y-16723436D02*
X14646801Y-16732960D01*
X14646801Y-16732960D02*
X14627753Y-16742484D01*
X14627753Y-16742484D02*
X14599182Y-16742484D01*
X14722992Y-16609150D02*
X14799182Y-16609150D01*
X14751563Y-16542484D02*
X14751563Y-16713912D01*
X14751563Y-16713912D02*
X14761087Y-16732960D01*
X14761087Y-16732960D02*
X14780134Y-16742484D01*
X14780134Y-16742484D02*
X14799182Y-16742484D01*
X15018230Y-16609150D02*
X15018230Y-16809150D01*
X15018230Y-16618674D02*
X15037277Y-16609150D01*
X15037277Y-16609150D02*
X15075373Y-16609150D01*
X15075373Y-16609150D02*
X15094420Y-16618674D01*
X15094420Y-16618674D02*
X15103944Y-16628198D01*
X15103944Y-16628198D02*
X15113468Y-16647246D01*
X15113468Y-16647246D02*
X15113468Y-16704388D01*
X15113468Y-16704388D02*
X15103944Y-16723436D01*
X15103944Y-16723436D02*
X15094420Y-16732960D01*
X15094420Y-16732960D02*
X15075373Y-16742484D01*
X15075373Y-16742484D02*
X15037277Y-16742484D01*
X15037277Y-16742484D02*
X15018230Y-16732960D01*
X15227753Y-16742484D02*
X15208706Y-16732960D01*
X15208706Y-16732960D02*
X15199182Y-16713912D01*
X15199182Y-16713912D02*
X15199182Y-16542484D01*
X15389658Y-16742484D02*
X15389658Y-16637722D01*
X15389658Y-16637722D02*
X15380134Y-16618674D01*
X15380134Y-16618674D02*
X15361087Y-16609150D01*
X15361087Y-16609150D02*
X15322992Y-16609150D01*
X15322992Y-16609150D02*
X15303944Y-16618674D01*
X15389658Y-16732960D02*
X15370611Y-16742484D01*
X15370611Y-16742484D02*
X15322992Y-16742484D01*
X15322992Y-16742484D02*
X15303944Y-16732960D01*
X15303944Y-16732960D02*
X15294420Y-16713912D01*
X15294420Y-16713912D02*
X15294420Y-16694865D01*
X15294420Y-16694865D02*
X15303944Y-16675817D01*
X15303944Y-16675817D02*
X15322992Y-16666293D01*
X15322992Y-16666293D02*
X15370611Y-16666293D01*
X15370611Y-16666293D02*
X15389658Y-16656769D01*
X15456325Y-16609150D02*
X15532515Y-16609150D01*
X15484896Y-16542484D02*
X15484896Y-16713912D01*
X15484896Y-16713912D02*
X15494420Y-16732960D01*
X15494420Y-16732960D02*
X15513468Y-16742484D01*
X15513468Y-16742484D02*
X15532515Y-16742484D01*
X15675373Y-16732960D02*
X15656325Y-16742484D01*
X15656325Y-16742484D02*
X15618230Y-16742484D01*
X15618230Y-16742484D02*
X15599182Y-16732960D01*
X15599182Y-16732960D02*
X15589658Y-16713912D01*
X15589658Y-16713912D02*
X15589658Y-16637722D01*
X15589658Y-16637722D02*
X15599182Y-16618674D01*
X15599182Y-16618674D02*
X15618230Y-16609150D01*
X15618230Y-16609150D02*
X15656325Y-16609150D01*
X15656325Y-16609150D02*
X15675373Y-16618674D01*
X15675373Y-16618674D02*
X15684896Y-16637722D01*
X15684896Y-16637722D02*
X15684896Y-16656769D01*
X15684896Y-16656769D02*
X15589658Y-16675817D01*
X15856325Y-16742484D02*
X15856325Y-16542484D01*
X15856325Y-16732960D02*
X15837277Y-16742484D01*
X15837277Y-16742484D02*
X15799182Y-16742484D01*
X15799182Y-16742484D02*
X15780134Y-16732960D01*
X15780134Y-16732960D02*
X15770611Y-16723436D01*
X15770611Y-16723436D02*
X15761087Y-16704388D01*
X15761087Y-16704388D02*
X15761087Y-16647246D01*
X15761087Y-16647246D02*
X15770611Y-16628198D01*
X15770611Y-16628198D02*
X15780134Y-16618674D01*
X15780134Y-16618674D02*
X15799182Y-16609150D01*
X15799182Y-16609150D02*
X15837277Y-16609150D01*
X15837277Y-16609150D02*
X15856325Y-16618674D01*
X15932515Y-16818674D02*
X15942039Y-16809150D01*
X15942039Y-16809150D02*
X15961087Y-16780579D01*
X15961087Y-16780579D02*
X15970611Y-16761531D01*
X15970611Y-16761531D02*
X15980134Y-16732960D01*
X15980134Y-16732960D02*
X15989658Y-16685341D01*
X15989658Y-16685341D02*
X15989658Y-16647246D01*
X15989658Y-16647246D02*
X15980134Y-16599627D01*
X15980134Y-16599627D02*
X15970611Y-16571055D01*
X15970611Y-16571055D02*
X15961087Y-16552008D01*
X15961087Y-16552008D02*
X15942039Y-16523436D01*
X15942039Y-16523436D02*
X15932515Y-16513912D01*
M02*
