%TF.GenerationSoftware,KiCad,Pcbnew,7.0.9*%
%TF.CreationDate,2023-11-24T00:14:36+01:00*%
%TF.ProjectId,astrasat1,61737472-6173-4617-9431-2e6b69636164,v1*%
%TF.SameCoordinates,Original*%
%TF.FileFunction,Legend,Top*%
%TF.FilePolarity,Positive*%
%FSLAX46Y46*%
G04 Gerber Fmt 4.6, Leading zero omitted, Abs format (unit mm)*
G04 Created by KiCad (PCBNEW 7.0.9) date 2023-11-24 00:14:36*
%MOMM*%
%LPD*%
G01*
G04 APERTURE LIST*
%ADD10C,0.300000*%
%ADD11C,0.150000*%
%ADD12C,0.100000*%
%ADD13C,0.146304*%
%ADD14C,0.120000*%
G04 APERTURE END LIST*
D10*
X138606176Y-91878209D02*
X139558557Y-91878209D01*
X138415700Y-92449638D02*
X139082366Y-90449638D01*
X139082366Y-90449638D02*
X139749033Y-92449638D01*
X140320462Y-92354400D02*
X140606176Y-92449638D01*
X140606176Y-92449638D02*
X141082367Y-92449638D01*
X141082367Y-92449638D02*
X141272843Y-92354400D01*
X141272843Y-92354400D02*
X141368081Y-92259161D01*
X141368081Y-92259161D02*
X141463319Y-92068685D01*
X141463319Y-92068685D02*
X141463319Y-91878209D01*
X141463319Y-91878209D02*
X141368081Y-91687733D01*
X141368081Y-91687733D02*
X141272843Y-91592495D01*
X141272843Y-91592495D02*
X141082367Y-91497257D01*
X141082367Y-91497257D02*
X140701414Y-91402019D01*
X140701414Y-91402019D02*
X140510938Y-91306780D01*
X140510938Y-91306780D02*
X140415700Y-91211542D01*
X140415700Y-91211542D02*
X140320462Y-91021066D01*
X140320462Y-91021066D02*
X140320462Y-90830590D01*
X140320462Y-90830590D02*
X140415700Y-90640114D01*
X140415700Y-90640114D02*
X140510938Y-90544876D01*
X140510938Y-90544876D02*
X140701414Y-90449638D01*
X140701414Y-90449638D02*
X141177605Y-90449638D01*
X141177605Y-90449638D02*
X141463319Y-90544876D01*
X142034748Y-90449638D02*
X143177605Y-90449638D01*
X142606176Y-92449638D02*
X142606176Y-90449638D01*
X144987129Y-92449638D02*
X144320462Y-91497257D01*
X143844272Y-92449638D02*
X143844272Y-90449638D01*
X143844272Y-90449638D02*
X144606177Y-90449638D01*
X144606177Y-90449638D02*
X144796653Y-90544876D01*
X144796653Y-90544876D02*
X144891891Y-90640114D01*
X144891891Y-90640114D02*
X144987129Y-90830590D01*
X144987129Y-90830590D02*
X144987129Y-91116304D01*
X144987129Y-91116304D02*
X144891891Y-91306780D01*
X144891891Y-91306780D02*
X144796653Y-91402019D01*
X144796653Y-91402019D02*
X144606177Y-91497257D01*
X144606177Y-91497257D02*
X143844272Y-91497257D01*
X145749034Y-91878209D02*
X146701415Y-91878209D01*
X145558558Y-92449638D02*
X146225224Y-90449638D01*
X146225224Y-90449638D02*
X146891891Y-92449638D01*
X147463320Y-92354400D02*
X147749034Y-92449638D01*
X147749034Y-92449638D02*
X148225225Y-92449638D01*
X148225225Y-92449638D02*
X148415701Y-92354400D01*
X148415701Y-92354400D02*
X148510939Y-92259161D01*
X148510939Y-92259161D02*
X148606177Y-92068685D01*
X148606177Y-92068685D02*
X148606177Y-91878209D01*
X148606177Y-91878209D02*
X148510939Y-91687733D01*
X148510939Y-91687733D02*
X148415701Y-91592495D01*
X148415701Y-91592495D02*
X148225225Y-91497257D01*
X148225225Y-91497257D02*
X147844272Y-91402019D01*
X147844272Y-91402019D02*
X147653796Y-91306780D01*
X147653796Y-91306780D02*
X147558558Y-91211542D01*
X147558558Y-91211542D02*
X147463320Y-91021066D01*
X147463320Y-91021066D02*
X147463320Y-90830590D01*
X147463320Y-90830590D02*
X147558558Y-90640114D01*
X147558558Y-90640114D02*
X147653796Y-90544876D01*
X147653796Y-90544876D02*
X147844272Y-90449638D01*
X147844272Y-90449638D02*
X148320463Y-90449638D01*
X148320463Y-90449638D02*
X148606177Y-90544876D01*
X149368082Y-91878209D02*
X150320463Y-91878209D01*
X149177606Y-92449638D02*
X149844272Y-90449638D01*
X149844272Y-90449638D02*
X150510939Y-92449638D01*
X150891892Y-90449638D02*
X152034749Y-90449638D01*
X151463320Y-92449638D02*
X151463320Y-90449638D01*
X154225226Y-92449638D02*
X154225226Y-90449638D01*
X154225226Y-90449638D02*
X154987131Y-90449638D01*
X154987131Y-90449638D02*
X155177607Y-90544876D01*
X155177607Y-90544876D02*
X155272845Y-90640114D01*
X155272845Y-90640114D02*
X155368083Y-90830590D01*
X155368083Y-90830590D02*
X155368083Y-91116304D01*
X155368083Y-91116304D02*
X155272845Y-91306780D01*
X155272845Y-91306780D02*
X155177607Y-91402019D01*
X155177607Y-91402019D02*
X154987131Y-91497257D01*
X154987131Y-91497257D02*
X154225226Y-91497257D01*
X156225226Y-92449638D02*
X156225226Y-90449638D01*
X158320464Y-92259161D02*
X158225226Y-92354400D01*
X158225226Y-92354400D02*
X157939512Y-92449638D01*
X157939512Y-92449638D02*
X157749036Y-92449638D01*
X157749036Y-92449638D02*
X157463321Y-92354400D01*
X157463321Y-92354400D02*
X157272845Y-92163923D01*
X157272845Y-92163923D02*
X157177607Y-91973447D01*
X157177607Y-91973447D02*
X157082369Y-91592495D01*
X157082369Y-91592495D02*
X157082369Y-91306780D01*
X157082369Y-91306780D02*
X157177607Y-90925828D01*
X157177607Y-90925828D02*
X157272845Y-90735352D01*
X157272845Y-90735352D02*
X157463321Y-90544876D01*
X157463321Y-90544876D02*
X157749036Y-90449638D01*
X157749036Y-90449638D02*
X157939512Y-90449638D01*
X157939512Y-90449638D02*
X158225226Y-90544876D01*
X158225226Y-90544876D02*
X158320464Y-90640114D01*
X159558559Y-90449638D02*
X159939512Y-90449638D01*
X159939512Y-90449638D02*
X160129988Y-90544876D01*
X160129988Y-90544876D02*
X160320464Y-90735352D01*
X160320464Y-90735352D02*
X160415702Y-91116304D01*
X160415702Y-91116304D02*
X160415702Y-91782971D01*
X160415702Y-91782971D02*
X160320464Y-92163923D01*
X160320464Y-92163923D02*
X160129988Y-92354400D01*
X160129988Y-92354400D02*
X159939512Y-92449638D01*
X159939512Y-92449638D02*
X159558559Y-92449638D01*
X159558559Y-92449638D02*
X159368083Y-92354400D01*
X159368083Y-92354400D02*
X159177607Y-92163923D01*
X159177607Y-92163923D02*
X159082369Y-91782971D01*
X159082369Y-91782971D02*
X159082369Y-91116304D01*
X159082369Y-91116304D02*
X159177607Y-90735352D01*
X159177607Y-90735352D02*
X159368083Y-90544876D01*
X159368083Y-90544876D02*
X159558559Y-90449638D01*
X162510941Y-90449638D02*
X163177607Y-92449638D01*
X163177607Y-92449638D02*
X163844274Y-90449638D01*
X165558560Y-92449638D02*
X164415703Y-92449638D01*
X164987131Y-92449638D02*
X164987131Y-90449638D01*
X164987131Y-90449638D02*
X164796655Y-90735352D01*
X164796655Y-90735352D02*
X164606179Y-90925828D01*
X164606179Y-90925828D02*
X164415703Y-91021066D01*
D11*
X120889819Y-142883220D02*
X119889819Y-142883220D01*
X119889819Y-142883220D02*
X119889819Y-142502268D01*
X119889819Y-142502268D02*
X119937438Y-142407030D01*
X119937438Y-142407030D02*
X119985057Y-142359411D01*
X119985057Y-142359411D02*
X120080295Y-142311792D01*
X120080295Y-142311792D02*
X120223152Y-142311792D01*
X120223152Y-142311792D02*
X120318390Y-142359411D01*
X120318390Y-142359411D02*
X120366009Y-142407030D01*
X120366009Y-142407030D02*
X120413628Y-142502268D01*
X120413628Y-142502268D02*
X120413628Y-142883220D01*
X120889819Y-141883220D02*
X120223152Y-141883220D01*
X119889819Y-141883220D02*
X119937438Y-141930839D01*
X119937438Y-141930839D02*
X119985057Y-141883220D01*
X119985057Y-141883220D02*
X119937438Y-141835601D01*
X119937438Y-141835601D02*
X119889819Y-141883220D01*
X119889819Y-141883220D02*
X119985057Y-141883220D01*
X120223152Y-141549887D02*
X120223152Y-141168935D01*
X119889819Y-141407030D02*
X120746961Y-141407030D01*
X120746961Y-141407030D02*
X120842200Y-141359411D01*
X120842200Y-141359411D02*
X120889819Y-141264173D01*
X120889819Y-141264173D02*
X120889819Y-141168935D01*
X120889819Y-140692744D02*
X120842200Y-140787982D01*
X120842200Y-140787982D02*
X120794580Y-140835601D01*
X120794580Y-140835601D02*
X120699342Y-140883220D01*
X120699342Y-140883220D02*
X120413628Y-140883220D01*
X120413628Y-140883220D02*
X120318390Y-140835601D01*
X120318390Y-140835601D02*
X120270771Y-140787982D01*
X120270771Y-140787982D02*
X120223152Y-140692744D01*
X120223152Y-140692744D02*
X120223152Y-140549887D01*
X120223152Y-140549887D02*
X120270771Y-140454649D01*
X120270771Y-140454649D02*
X120318390Y-140407030D01*
X120318390Y-140407030D02*
X120413628Y-140359411D01*
X120413628Y-140359411D02*
X120699342Y-140359411D01*
X120699342Y-140359411D02*
X120794580Y-140407030D01*
X120794580Y-140407030D02*
X120842200Y-140454649D01*
X120842200Y-140454649D02*
X120889819Y-140549887D01*
X120889819Y-140549887D02*
X120889819Y-140692744D01*
X120223152Y-140073696D02*
X120223152Y-139692744D01*
X119889819Y-139930839D02*
X120746961Y-139930839D01*
X120746961Y-139930839D02*
X120842200Y-139883220D01*
X120842200Y-139883220D02*
X120889819Y-139787982D01*
X120889819Y-139787982D02*
X120889819Y-139692744D01*
X122163095Y-143099819D02*
X122163095Y-143909342D01*
X122163095Y-143909342D02*
X122210714Y-144004580D01*
X122210714Y-144004580D02*
X122258333Y-144052200D01*
X122258333Y-144052200D02*
X122353571Y-144099819D01*
X122353571Y-144099819D02*
X122544047Y-144099819D01*
X122544047Y-144099819D02*
X122639285Y-144052200D01*
X122639285Y-144052200D02*
X122686904Y-144004580D01*
X122686904Y-144004580D02*
X122734523Y-143909342D01*
X122734523Y-143909342D02*
X122734523Y-143099819D01*
X123163095Y-143195057D02*
X123210714Y-143147438D01*
X123210714Y-143147438D02*
X123305952Y-143099819D01*
X123305952Y-143099819D02*
X123544047Y-143099819D01*
X123544047Y-143099819D02*
X123639285Y-143147438D01*
X123639285Y-143147438D02*
X123686904Y-143195057D01*
X123686904Y-143195057D02*
X123734523Y-143290295D01*
X123734523Y-143290295D02*
X123734523Y-143385533D01*
X123734523Y-143385533D02*
X123686904Y-143528390D01*
X123686904Y-143528390D02*
X123115476Y-144099819D01*
X123115476Y-144099819D02*
X123734523Y-144099819D01*
D12*
X110733095Y-94417419D02*
X110733095Y-95226942D01*
X110733095Y-95226942D02*
X110780714Y-95322180D01*
X110780714Y-95322180D02*
X110828333Y-95369800D01*
X110828333Y-95369800D02*
X110923571Y-95417419D01*
X110923571Y-95417419D02*
X111114047Y-95417419D01*
X111114047Y-95417419D02*
X111209285Y-95369800D01*
X111209285Y-95369800D02*
X111256904Y-95322180D01*
X111256904Y-95322180D02*
X111304523Y-95226942D01*
X111304523Y-95226942D02*
X111304523Y-94417419D01*
X112209285Y-94417419D02*
X112018809Y-94417419D01*
X112018809Y-94417419D02*
X111923571Y-94465038D01*
X111923571Y-94465038D02*
X111875952Y-94512657D01*
X111875952Y-94512657D02*
X111780714Y-94655514D01*
X111780714Y-94655514D02*
X111733095Y-94845990D01*
X111733095Y-94845990D02*
X111733095Y-95226942D01*
X111733095Y-95226942D02*
X111780714Y-95322180D01*
X111780714Y-95322180D02*
X111828333Y-95369800D01*
X111828333Y-95369800D02*
X111923571Y-95417419D01*
X111923571Y-95417419D02*
X112114047Y-95417419D01*
X112114047Y-95417419D02*
X112209285Y-95369800D01*
X112209285Y-95369800D02*
X112256904Y-95322180D01*
X112256904Y-95322180D02*
X112304523Y-95226942D01*
X112304523Y-95226942D02*
X112304523Y-94988847D01*
X112304523Y-94988847D02*
X112256904Y-94893609D01*
X112256904Y-94893609D02*
X112209285Y-94845990D01*
X112209285Y-94845990D02*
X112114047Y-94798371D01*
X112114047Y-94798371D02*
X111923571Y-94798371D01*
X111923571Y-94798371D02*
X111828333Y-94845990D01*
X111828333Y-94845990D02*
X111780714Y-94893609D01*
X111780714Y-94893609D02*
X111733095Y-94988847D01*
X108756905Y-87847419D02*
X108756905Y-86847419D01*
X108756905Y-86847419D02*
X109090238Y-87561704D01*
X109090238Y-87561704D02*
X109423571Y-86847419D01*
X109423571Y-86847419D02*
X109423571Y-87847419D01*
X109899762Y-87847419D02*
X109899762Y-87180752D01*
X109899762Y-86847419D02*
X109852143Y-86895038D01*
X109852143Y-86895038D02*
X109899762Y-86942657D01*
X109899762Y-86942657D02*
X109947381Y-86895038D01*
X109947381Y-86895038D02*
X109899762Y-86847419D01*
X109899762Y-86847419D02*
X109899762Y-86942657D01*
X110804523Y-87799800D02*
X110709285Y-87847419D01*
X110709285Y-87847419D02*
X110518809Y-87847419D01*
X110518809Y-87847419D02*
X110423571Y-87799800D01*
X110423571Y-87799800D02*
X110375952Y-87752180D01*
X110375952Y-87752180D02*
X110328333Y-87656942D01*
X110328333Y-87656942D02*
X110328333Y-87371228D01*
X110328333Y-87371228D02*
X110375952Y-87275990D01*
X110375952Y-87275990D02*
X110423571Y-87228371D01*
X110423571Y-87228371D02*
X110518809Y-87180752D01*
X110518809Y-87180752D02*
X110709285Y-87180752D01*
X110709285Y-87180752D02*
X110804523Y-87228371D01*
X111233095Y-87847419D02*
X111233095Y-87180752D01*
X111233095Y-87371228D02*
X111280714Y-87275990D01*
X111280714Y-87275990D02*
X111328333Y-87228371D01*
X111328333Y-87228371D02*
X111423571Y-87180752D01*
X111423571Y-87180752D02*
X111518809Y-87180752D01*
X111995000Y-87847419D02*
X111899762Y-87799800D01*
X111899762Y-87799800D02*
X111852143Y-87752180D01*
X111852143Y-87752180D02*
X111804524Y-87656942D01*
X111804524Y-87656942D02*
X111804524Y-87371228D01*
X111804524Y-87371228D02*
X111852143Y-87275990D01*
X111852143Y-87275990D02*
X111899762Y-87228371D01*
X111899762Y-87228371D02*
X111995000Y-87180752D01*
X111995000Y-87180752D02*
X112137857Y-87180752D01*
X112137857Y-87180752D02*
X112233095Y-87228371D01*
X112233095Y-87228371D02*
X112280714Y-87275990D01*
X112280714Y-87275990D02*
X112328333Y-87371228D01*
X112328333Y-87371228D02*
X112328333Y-87656942D01*
X112328333Y-87656942D02*
X112280714Y-87752180D01*
X112280714Y-87752180D02*
X112233095Y-87799800D01*
X112233095Y-87799800D02*
X112137857Y-87847419D01*
X112137857Y-87847419D02*
X111995000Y-87847419D01*
X112709286Y-87799800D02*
X112852143Y-87847419D01*
X112852143Y-87847419D02*
X113090238Y-87847419D01*
X113090238Y-87847419D02*
X113185476Y-87799800D01*
X113185476Y-87799800D02*
X113233095Y-87752180D01*
X113233095Y-87752180D02*
X113280714Y-87656942D01*
X113280714Y-87656942D02*
X113280714Y-87561704D01*
X113280714Y-87561704D02*
X113233095Y-87466466D01*
X113233095Y-87466466D02*
X113185476Y-87418847D01*
X113185476Y-87418847D02*
X113090238Y-87371228D01*
X113090238Y-87371228D02*
X112899762Y-87323609D01*
X112899762Y-87323609D02*
X112804524Y-87275990D01*
X112804524Y-87275990D02*
X112756905Y-87228371D01*
X112756905Y-87228371D02*
X112709286Y-87133133D01*
X112709286Y-87133133D02*
X112709286Y-87037895D01*
X112709286Y-87037895D02*
X112756905Y-86942657D01*
X112756905Y-86942657D02*
X112804524Y-86895038D01*
X112804524Y-86895038D02*
X112899762Y-86847419D01*
X112899762Y-86847419D02*
X113137857Y-86847419D01*
X113137857Y-86847419D02*
X113280714Y-86895038D01*
X113709286Y-87847419D02*
X113709286Y-86847419D01*
X113709286Y-86847419D02*
X113947381Y-86847419D01*
X113947381Y-86847419D02*
X114090238Y-86895038D01*
X114090238Y-86895038D02*
X114185476Y-86990276D01*
X114185476Y-86990276D02*
X114233095Y-87085514D01*
X114233095Y-87085514D02*
X114280714Y-87275990D01*
X114280714Y-87275990D02*
X114280714Y-87418847D01*
X114280714Y-87418847D02*
X114233095Y-87609323D01*
X114233095Y-87609323D02*
X114185476Y-87704561D01*
X114185476Y-87704561D02*
X114090238Y-87799800D01*
X114090238Y-87799800D02*
X113947381Y-87847419D01*
X113947381Y-87847419D02*
X113709286Y-87847419D01*
X123457419Y-113761904D02*
X124266942Y-113761904D01*
X124266942Y-113761904D02*
X124362180Y-113714285D01*
X124362180Y-113714285D02*
X124409800Y-113666666D01*
X124409800Y-113666666D02*
X124457419Y-113571428D01*
X124457419Y-113571428D02*
X124457419Y-113380952D01*
X124457419Y-113380952D02*
X124409800Y-113285714D01*
X124409800Y-113285714D02*
X124362180Y-113238095D01*
X124362180Y-113238095D02*
X124266942Y-113190476D01*
X124266942Y-113190476D02*
X123457419Y-113190476D01*
X124457419Y-112190476D02*
X124457419Y-112761904D01*
X124457419Y-112476190D02*
X123457419Y-112476190D01*
X123457419Y-112476190D02*
X123600276Y-112571428D01*
X123600276Y-112571428D02*
X123695514Y-112666666D01*
X123695514Y-112666666D02*
X123743133Y-112761904D01*
X103593609Y-113149999D02*
X103641228Y-113007142D01*
X103641228Y-113007142D02*
X103688847Y-112959523D01*
X103688847Y-112959523D02*
X103784085Y-112911904D01*
X103784085Y-112911904D02*
X103926942Y-112911904D01*
X103926942Y-112911904D02*
X104022180Y-112959523D01*
X104022180Y-112959523D02*
X104069800Y-113007142D01*
X104069800Y-113007142D02*
X104117419Y-113102380D01*
X104117419Y-113102380D02*
X104117419Y-113483332D01*
X104117419Y-113483332D02*
X103117419Y-113483332D01*
X103117419Y-113483332D02*
X103117419Y-113149999D01*
X103117419Y-113149999D02*
X103165038Y-113054761D01*
X103165038Y-113054761D02*
X103212657Y-113007142D01*
X103212657Y-113007142D02*
X103307895Y-112959523D01*
X103307895Y-112959523D02*
X103403133Y-112959523D01*
X103403133Y-112959523D02*
X103498371Y-113007142D01*
X103498371Y-113007142D02*
X103545990Y-113054761D01*
X103545990Y-113054761D02*
X103593609Y-113149999D01*
X103593609Y-113149999D02*
X103593609Y-113483332D01*
X104117419Y-112483332D02*
X103117419Y-112483332D01*
X103117419Y-112483332D02*
X104117419Y-111911904D01*
X104117419Y-111911904D02*
X103117419Y-111911904D01*
X103736466Y-111435713D02*
X103736466Y-110673809D01*
X103212657Y-110245237D02*
X103165038Y-110197618D01*
X103165038Y-110197618D02*
X103117419Y-110102380D01*
X103117419Y-110102380D02*
X103117419Y-109864285D01*
X103117419Y-109864285D02*
X103165038Y-109769047D01*
X103165038Y-109769047D02*
X103212657Y-109721428D01*
X103212657Y-109721428D02*
X103307895Y-109673809D01*
X103307895Y-109673809D02*
X103403133Y-109673809D01*
X103403133Y-109673809D02*
X103545990Y-109721428D01*
X103545990Y-109721428D02*
X104117419Y-110292856D01*
X104117419Y-110292856D02*
X104117419Y-109673809D01*
X103212657Y-109292856D02*
X103165038Y-109245237D01*
X103165038Y-109245237D02*
X103117419Y-109149999D01*
X103117419Y-109149999D02*
X103117419Y-108911904D01*
X103117419Y-108911904D02*
X103165038Y-108816666D01*
X103165038Y-108816666D02*
X103212657Y-108769047D01*
X103212657Y-108769047D02*
X103307895Y-108721428D01*
X103307895Y-108721428D02*
X103403133Y-108721428D01*
X103403133Y-108721428D02*
X103545990Y-108769047D01*
X103545990Y-108769047D02*
X104117419Y-109340475D01*
X104117419Y-109340475D02*
X104117419Y-108721428D01*
X103117419Y-108102380D02*
X103117419Y-108007142D01*
X103117419Y-108007142D02*
X103165038Y-107911904D01*
X103165038Y-107911904D02*
X103212657Y-107864285D01*
X103212657Y-107864285D02*
X103307895Y-107816666D01*
X103307895Y-107816666D02*
X103498371Y-107769047D01*
X103498371Y-107769047D02*
X103736466Y-107769047D01*
X103736466Y-107769047D02*
X103926942Y-107816666D01*
X103926942Y-107816666D02*
X104022180Y-107864285D01*
X104022180Y-107864285D02*
X104069800Y-107911904D01*
X104069800Y-107911904D02*
X104117419Y-108007142D01*
X104117419Y-108007142D02*
X104117419Y-108102380D01*
X104117419Y-108102380D02*
X104069800Y-108197618D01*
X104069800Y-108197618D02*
X104022180Y-108245237D01*
X104022180Y-108245237D02*
X103926942Y-108292856D01*
X103926942Y-108292856D02*
X103736466Y-108340475D01*
X103736466Y-108340475D02*
X103498371Y-108340475D01*
X103498371Y-108340475D02*
X103307895Y-108292856D01*
X103307895Y-108292856D02*
X103212657Y-108245237D01*
X103212657Y-108245237D02*
X103165038Y-108197618D01*
X103165038Y-108197618D02*
X103117419Y-108102380D01*
D11*
X188609819Y-141248332D02*
X187609819Y-141248332D01*
X187609819Y-141248332D02*
X188324104Y-140914999D01*
X188324104Y-140914999D02*
X187609819Y-140581666D01*
X187609819Y-140581666D02*
X188609819Y-140581666D01*
X188609819Y-139676904D02*
X188086009Y-139676904D01*
X188086009Y-139676904D02*
X187990771Y-139724523D01*
X187990771Y-139724523D02*
X187943152Y-139819761D01*
X187943152Y-139819761D02*
X187943152Y-140010237D01*
X187943152Y-140010237D02*
X187990771Y-140105475D01*
X188562200Y-139676904D02*
X188609819Y-139772142D01*
X188609819Y-139772142D02*
X188609819Y-140010237D01*
X188609819Y-140010237D02*
X188562200Y-140105475D01*
X188562200Y-140105475D02*
X188466961Y-140153094D01*
X188466961Y-140153094D02*
X188371723Y-140153094D01*
X188371723Y-140153094D02*
X188276485Y-140105475D01*
X188276485Y-140105475D02*
X188228866Y-140010237D01*
X188228866Y-140010237D02*
X188228866Y-139772142D01*
X188228866Y-139772142D02*
X188181247Y-139676904D01*
X188609819Y-139200713D02*
X187943152Y-139200713D01*
X187609819Y-139200713D02*
X187657438Y-139248332D01*
X187657438Y-139248332D02*
X187705057Y-139200713D01*
X187705057Y-139200713D02*
X187657438Y-139153094D01*
X187657438Y-139153094D02*
X187609819Y-139200713D01*
X187609819Y-139200713D02*
X187705057Y-139200713D01*
X187943152Y-138724523D02*
X188609819Y-138724523D01*
X188038390Y-138724523D02*
X187990771Y-138676904D01*
X187990771Y-138676904D02*
X187943152Y-138581666D01*
X187943152Y-138581666D02*
X187943152Y-138438809D01*
X187943152Y-138438809D02*
X187990771Y-138343571D01*
X187990771Y-138343571D02*
X188086009Y-138295952D01*
X188086009Y-138295952D02*
X188609819Y-138295952D01*
X188086009Y-137486428D02*
X188133628Y-137343571D01*
X188133628Y-137343571D02*
X188181247Y-137295952D01*
X188181247Y-137295952D02*
X188276485Y-137248333D01*
X188276485Y-137248333D02*
X188419342Y-137248333D01*
X188419342Y-137248333D02*
X188514580Y-137295952D01*
X188514580Y-137295952D02*
X188562200Y-137343571D01*
X188562200Y-137343571D02*
X188609819Y-137438809D01*
X188609819Y-137438809D02*
X188609819Y-137819761D01*
X188609819Y-137819761D02*
X187609819Y-137819761D01*
X187609819Y-137819761D02*
X187609819Y-137486428D01*
X187609819Y-137486428D02*
X187657438Y-137391190D01*
X187657438Y-137391190D02*
X187705057Y-137343571D01*
X187705057Y-137343571D02*
X187800295Y-137295952D01*
X187800295Y-137295952D02*
X187895533Y-137295952D01*
X187895533Y-137295952D02*
X187990771Y-137343571D01*
X187990771Y-137343571D02*
X188038390Y-137391190D01*
X188038390Y-137391190D02*
X188086009Y-137486428D01*
X188086009Y-137486428D02*
X188086009Y-137819761D01*
X187609819Y-136962618D02*
X187609819Y-136391190D01*
X188609819Y-136676904D02*
X187609819Y-136676904D01*
X188609819Y-135534047D02*
X188609819Y-136105475D01*
X188609819Y-135819761D02*
X187609819Y-135819761D01*
X187609819Y-135819761D02*
X187752676Y-135914999D01*
X187752676Y-135914999D02*
X187847914Y-136010237D01*
X187847914Y-136010237D02*
X187895533Y-136105475D01*
X174521905Y-136054819D02*
X174521905Y-135054819D01*
X174521905Y-135054819D02*
X174760000Y-135054819D01*
X174760000Y-135054819D02*
X174902857Y-135102438D01*
X174902857Y-135102438D02*
X174998095Y-135197676D01*
X174998095Y-135197676D02*
X175045714Y-135292914D01*
X175045714Y-135292914D02*
X175093333Y-135483390D01*
X175093333Y-135483390D02*
X175093333Y-135626247D01*
X175093333Y-135626247D02*
X175045714Y-135816723D01*
X175045714Y-135816723D02*
X174998095Y-135911961D01*
X174998095Y-135911961D02*
X174902857Y-136007200D01*
X174902857Y-136007200D02*
X174760000Y-136054819D01*
X174760000Y-136054819D02*
X174521905Y-136054819D01*
X175474286Y-135150057D02*
X175521905Y-135102438D01*
X175521905Y-135102438D02*
X175617143Y-135054819D01*
X175617143Y-135054819D02*
X175855238Y-135054819D01*
X175855238Y-135054819D02*
X175950476Y-135102438D01*
X175950476Y-135102438D02*
X175998095Y-135150057D01*
X175998095Y-135150057D02*
X176045714Y-135245295D01*
X176045714Y-135245295D02*
X176045714Y-135340533D01*
X176045714Y-135340533D02*
X175998095Y-135483390D01*
X175998095Y-135483390D02*
X175426667Y-136054819D01*
X175426667Y-136054819D02*
X176045714Y-136054819D01*
X170553095Y-133954819D02*
X170553095Y-132954819D01*
X171124523Y-133954819D02*
X170695952Y-133383390D01*
X171124523Y-132954819D02*
X170553095Y-133526247D01*
X192666666Y-127264819D02*
X192333333Y-126788628D01*
X192095238Y-127264819D02*
X192095238Y-126264819D01*
X192095238Y-126264819D02*
X192476190Y-126264819D01*
X192476190Y-126264819D02*
X192571428Y-126312438D01*
X192571428Y-126312438D02*
X192619047Y-126360057D01*
X192619047Y-126360057D02*
X192666666Y-126455295D01*
X192666666Y-126455295D02*
X192666666Y-126598152D01*
X192666666Y-126598152D02*
X192619047Y-126693390D01*
X192619047Y-126693390D02*
X192571428Y-126741009D01*
X192571428Y-126741009D02*
X192476190Y-126788628D01*
X192476190Y-126788628D02*
X192095238Y-126788628D01*
X193095238Y-126741009D02*
X193428571Y-126741009D01*
X193571428Y-127264819D02*
X193095238Y-127264819D01*
X193095238Y-127264819D02*
X193095238Y-126264819D01*
X193095238Y-126264819D02*
X193571428Y-126264819D01*
X194333333Y-126741009D02*
X194000000Y-126741009D01*
X194000000Y-127264819D02*
X194000000Y-126264819D01*
X194000000Y-126264819D02*
X194476190Y-126264819D01*
X195000000Y-126264819D02*
X195000000Y-126502914D01*
X194761905Y-126407676D02*
X195000000Y-126502914D01*
X195000000Y-126502914D02*
X195238095Y-126407676D01*
X194857143Y-126693390D02*
X195000000Y-126502914D01*
X195000000Y-126502914D02*
X195142857Y-126693390D01*
X195761905Y-126264819D02*
X195761905Y-126502914D01*
X195523810Y-126407676D02*
X195761905Y-126502914D01*
X195761905Y-126502914D02*
X196000000Y-126407676D01*
X195619048Y-126693390D02*
X195761905Y-126502914D01*
X195761905Y-126502914D02*
X195904762Y-126693390D01*
D12*
X187417419Y-112121904D02*
X188226942Y-112121904D01*
X188226942Y-112121904D02*
X188322180Y-112074285D01*
X188322180Y-112074285D02*
X188369800Y-112026666D01*
X188369800Y-112026666D02*
X188417419Y-111931428D01*
X188417419Y-111931428D02*
X188417419Y-111740952D01*
X188417419Y-111740952D02*
X188369800Y-111645714D01*
X188369800Y-111645714D02*
X188322180Y-111598095D01*
X188322180Y-111598095D02*
X188226942Y-111550476D01*
X188226942Y-111550476D02*
X187417419Y-111550476D01*
X188417419Y-111026666D02*
X188417419Y-110836190D01*
X188417419Y-110836190D02*
X188369800Y-110740952D01*
X188369800Y-110740952D02*
X188322180Y-110693333D01*
X188322180Y-110693333D02*
X188179323Y-110598095D01*
X188179323Y-110598095D02*
X187988847Y-110550476D01*
X187988847Y-110550476D02*
X187607895Y-110550476D01*
X187607895Y-110550476D02*
X187512657Y-110598095D01*
X187512657Y-110598095D02*
X187465038Y-110645714D01*
X187465038Y-110645714D02*
X187417419Y-110740952D01*
X187417419Y-110740952D02*
X187417419Y-110931428D01*
X187417419Y-110931428D02*
X187465038Y-111026666D01*
X187465038Y-111026666D02*
X187512657Y-111074285D01*
X187512657Y-111074285D02*
X187607895Y-111121904D01*
X187607895Y-111121904D02*
X187845990Y-111121904D01*
X187845990Y-111121904D02*
X187941228Y-111074285D01*
X187941228Y-111074285D02*
X187988847Y-111026666D01*
X187988847Y-111026666D02*
X188036466Y-110931428D01*
X188036466Y-110931428D02*
X188036466Y-110740952D01*
X188036466Y-110740952D02*
X187988847Y-110645714D01*
X187988847Y-110645714D02*
X187941228Y-110598095D01*
X187941228Y-110598095D02*
X187845990Y-110550476D01*
X188594466Y-130360115D02*
X188594466Y-129598211D01*
X170814466Y-130360115D02*
X170814466Y-129598211D01*
X171195419Y-129979163D02*
X170433514Y-129979163D01*
X188594466Y-93276115D02*
X188594466Y-92514211D01*
X170814466Y-93276115D02*
X170814466Y-92514211D01*
X171195419Y-92895163D02*
X170433514Y-92895163D01*
D11*
X151373095Y-120449819D02*
X151373095Y-121259342D01*
X151373095Y-121259342D02*
X151420714Y-121354580D01*
X151420714Y-121354580D02*
X151468333Y-121402200D01*
X151468333Y-121402200D02*
X151563571Y-121449819D01*
X151563571Y-121449819D02*
X151754047Y-121449819D01*
X151754047Y-121449819D02*
X151849285Y-121402200D01*
X151849285Y-121402200D02*
X151896904Y-121354580D01*
X151896904Y-121354580D02*
X151944523Y-121259342D01*
X151944523Y-121259342D02*
X151944523Y-120449819D01*
X152896904Y-120449819D02*
X152420714Y-120449819D01*
X152420714Y-120449819D02*
X152373095Y-120926009D01*
X152373095Y-120926009D02*
X152420714Y-120878390D01*
X152420714Y-120878390D02*
X152515952Y-120830771D01*
X152515952Y-120830771D02*
X152754047Y-120830771D01*
X152754047Y-120830771D02*
X152849285Y-120878390D01*
X152849285Y-120878390D02*
X152896904Y-120926009D01*
X152896904Y-120926009D02*
X152944523Y-121021247D01*
X152944523Y-121021247D02*
X152944523Y-121259342D01*
X152944523Y-121259342D02*
X152896904Y-121354580D01*
X152896904Y-121354580D02*
X152849285Y-121402200D01*
X152849285Y-121402200D02*
X152754047Y-121449819D01*
X152754047Y-121449819D02*
X152515952Y-121449819D01*
X152515952Y-121449819D02*
X152420714Y-121402200D01*
X152420714Y-121402200D02*
X152373095Y-121354580D01*
X138124998Y-107415868D02*
X138044185Y-107442805D01*
X138044185Y-107442805D02*
X137963373Y-107523618D01*
X137963373Y-107523618D02*
X137909498Y-107631367D01*
X137909498Y-107631367D02*
X137909498Y-107739117D01*
X137909498Y-107739117D02*
X137936436Y-107819929D01*
X137936436Y-107819929D02*
X138017248Y-107954616D01*
X138017248Y-107954616D02*
X138098060Y-108035428D01*
X138098060Y-108035428D02*
X138232747Y-108116241D01*
X138232747Y-108116241D02*
X138313560Y-108143178D01*
X138313560Y-108143178D02*
X138421309Y-108143178D01*
X138421309Y-108143178D02*
X138529059Y-108089303D01*
X138529059Y-108089303D02*
X138582934Y-108035428D01*
X138582934Y-108035428D02*
X138636808Y-107927679D01*
X138636808Y-107927679D02*
X138636808Y-107873804D01*
X138636808Y-107873804D02*
X138448247Y-107685242D01*
X138448247Y-107685242D02*
X138340497Y-107792992D01*
X138933120Y-107685242D02*
X138367434Y-107119557D01*
X138367434Y-107119557D02*
X138582934Y-106904057D01*
X138582934Y-106904057D02*
X138663746Y-106877120D01*
X138663746Y-106877120D02*
X138717621Y-106877120D01*
X138717621Y-106877120D02*
X138798433Y-106904057D01*
X138798433Y-106904057D02*
X138879245Y-106984870D01*
X138879245Y-106984870D02*
X138906182Y-107065682D01*
X138906182Y-107065682D02*
X138906182Y-107119557D01*
X138906182Y-107119557D02*
X138879245Y-107200369D01*
X138879245Y-107200369D02*
X138663746Y-107415868D01*
X139795117Y-106823245D02*
X139471868Y-107146494D01*
X139633492Y-106984870D02*
X139067807Y-106419184D01*
X139067807Y-106419184D02*
X139094744Y-106553871D01*
X139094744Y-106553871D02*
X139094744Y-106661621D01*
X139094744Y-106661621D02*
X139067807Y-106742433D01*
X140064491Y-106553871D02*
X140172240Y-106446121D01*
X140172240Y-106446121D02*
X140199178Y-106365309D01*
X140199178Y-106365309D02*
X140199178Y-106311434D01*
X140199178Y-106311434D02*
X140172240Y-106176747D01*
X140172240Y-106176747D02*
X140091428Y-106042060D01*
X140091428Y-106042060D02*
X139875929Y-105826561D01*
X139875929Y-105826561D02*
X139795117Y-105799624D01*
X139795117Y-105799624D02*
X139741242Y-105799624D01*
X139741242Y-105799624D02*
X139660430Y-105826561D01*
X139660430Y-105826561D02*
X139552680Y-105934311D01*
X139552680Y-105934311D02*
X139525743Y-106015123D01*
X139525743Y-106015123D02*
X139525743Y-106068998D01*
X139525743Y-106068998D02*
X139552680Y-106149810D01*
X139552680Y-106149810D02*
X139687367Y-106284497D01*
X139687367Y-106284497D02*
X139768179Y-106311434D01*
X139768179Y-106311434D02*
X139822054Y-106311434D01*
X139822054Y-106311434D02*
X139902866Y-106284497D01*
X139902866Y-106284497D02*
X140010616Y-106176747D01*
X140010616Y-106176747D02*
X140037553Y-106095935D01*
X140037553Y-106095935D02*
X140037553Y-106042060D01*
X140037553Y-106042060D02*
X140010616Y-105961248D01*
X138124998Y-117575868D02*
X138044185Y-117602805D01*
X138044185Y-117602805D02*
X137963373Y-117683618D01*
X137963373Y-117683618D02*
X137909498Y-117791367D01*
X137909498Y-117791367D02*
X137909498Y-117899117D01*
X137909498Y-117899117D02*
X137936436Y-117979929D01*
X137936436Y-117979929D02*
X138017248Y-118114616D01*
X138017248Y-118114616D02*
X138098060Y-118195428D01*
X138098060Y-118195428D02*
X138232747Y-118276241D01*
X138232747Y-118276241D02*
X138313560Y-118303178D01*
X138313560Y-118303178D02*
X138421309Y-118303178D01*
X138421309Y-118303178D02*
X138529059Y-118249303D01*
X138529059Y-118249303D02*
X138582934Y-118195428D01*
X138582934Y-118195428D02*
X138636808Y-118087679D01*
X138636808Y-118087679D02*
X138636808Y-118033804D01*
X138636808Y-118033804D02*
X138448247Y-117845242D01*
X138448247Y-117845242D02*
X138340497Y-117952992D01*
X138933120Y-117845242D02*
X138367434Y-117279557D01*
X138367434Y-117279557D02*
X138582934Y-117064057D01*
X138582934Y-117064057D02*
X138663746Y-117037120D01*
X138663746Y-117037120D02*
X138717621Y-117037120D01*
X138717621Y-117037120D02*
X138798433Y-117064057D01*
X138798433Y-117064057D02*
X138879245Y-117144870D01*
X138879245Y-117144870D02*
X138906182Y-117225682D01*
X138906182Y-117225682D02*
X138906182Y-117279557D01*
X138906182Y-117279557D02*
X138879245Y-117360369D01*
X138879245Y-117360369D02*
X138663746Y-117575868D01*
X138960057Y-116794683D02*
X138960057Y-116740809D01*
X138960057Y-116740809D02*
X138986995Y-116659996D01*
X138986995Y-116659996D02*
X139121682Y-116525309D01*
X139121682Y-116525309D02*
X139202494Y-116498372D01*
X139202494Y-116498372D02*
X139256369Y-116498372D01*
X139256369Y-116498372D02*
X139337181Y-116525309D01*
X139337181Y-116525309D02*
X139391056Y-116579184D01*
X139391056Y-116579184D02*
X139444930Y-116686934D01*
X139444930Y-116686934D02*
X139444930Y-117333431D01*
X139444930Y-117333431D02*
X139795117Y-116983245D01*
X139498805Y-116255935D02*
X139498805Y-116202060D01*
X139498805Y-116202060D02*
X139525743Y-116121248D01*
X139525743Y-116121248D02*
X139660430Y-115986561D01*
X139660430Y-115986561D02*
X139741242Y-115959624D01*
X139741242Y-115959624D02*
X139795117Y-115959624D01*
X139795117Y-115959624D02*
X139875929Y-115986561D01*
X139875929Y-115986561D02*
X139929804Y-116040436D01*
X139929804Y-116040436D02*
X139983679Y-116148186D01*
X139983679Y-116148186D02*
X139983679Y-116794683D01*
X139983679Y-116794683D02*
X140333865Y-116444497D01*
X138124998Y-125185868D02*
X138044185Y-125212805D01*
X138044185Y-125212805D02*
X137963373Y-125293618D01*
X137963373Y-125293618D02*
X137909498Y-125401367D01*
X137909498Y-125401367D02*
X137909498Y-125509117D01*
X137909498Y-125509117D02*
X137936436Y-125589929D01*
X137936436Y-125589929D02*
X138017248Y-125724616D01*
X138017248Y-125724616D02*
X138098060Y-125805428D01*
X138098060Y-125805428D02*
X138232747Y-125886241D01*
X138232747Y-125886241D02*
X138313560Y-125913178D01*
X138313560Y-125913178D02*
X138421309Y-125913178D01*
X138421309Y-125913178D02*
X138529059Y-125859303D01*
X138529059Y-125859303D02*
X138582934Y-125805428D01*
X138582934Y-125805428D02*
X138636808Y-125697679D01*
X138636808Y-125697679D02*
X138636808Y-125643804D01*
X138636808Y-125643804D02*
X138448247Y-125455242D01*
X138448247Y-125455242D02*
X138340497Y-125562992D01*
X138933120Y-125455242D02*
X138367434Y-124889557D01*
X138367434Y-124889557D02*
X138582934Y-124674057D01*
X138582934Y-124674057D02*
X138663746Y-124647120D01*
X138663746Y-124647120D02*
X138717621Y-124647120D01*
X138717621Y-124647120D02*
X138798433Y-124674057D01*
X138798433Y-124674057D02*
X138879245Y-124754870D01*
X138879245Y-124754870D02*
X138906182Y-124835682D01*
X138906182Y-124835682D02*
X138906182Y-124889557D01*
X138906182Y-124889557D02*
X138879245Y-124970369D01*
X138879245Y-124970369D02*
X138663746Y-125185868D01*
X138960057Y-124404683D02*
X138960057Y-124350809D01*
X138960057Y-124350809D02*
X138986995Y-124269996D01*
X138986995Y-124269996D02*
X139121682Y-124135309D01*
X139121682Y-124135309D02*
X139202494Y-124108372D01*
X139202494Y-124108372D02*
X139256369Y-124108372D01*
X139256369Y-124108372D02*
X139337181Y-124135309D01*
X139337181Y-124135309D02*
X139391056Y-124189184D01*
X139391056Y-124189184D02*
X139444930Y-124296934D01*
X139444930Y-124296934D02*
X139444930Y-124943431D01*
X139444930Y-124943431D02*
X139795117Y-124593245D01*
X139417993Y-123838998D02*
X139795117Y-123461874D01*
X139795117Y-123461874D02*
X140118366Y-124269996D01*
X164221435Y-140193431D02*
X164140623Y-140220368D01*
X164140623Y-140220368D02*
X164059811Y-140301180D01*
X164059811Y-140301180D02*
X164005936Y-140408930D01*
X164005936Y-140408930D02*
X164005936Y-140516680D01*
X164005936Y-140516680D02*
X164032873Y-140597492D01*
X164032873Y-140597492D02*
X164113685Y-140732179D01*
X164113685Y-140732179D02*
X164194498Y-140812991D01*
X164194498Y-140812991D02*
X164329185Y-140893803D01*
X164329185Y-140893803D02*
X164409997Y-140920741D01*
X164409997Y-140920741D02*
X164517746Y-140920741D01*
X164517746Y-140920741D02*
X164625496Y-140866866D01*
X164625496Y-140866866D02*
X164679371Y-140812991D01*
X164679371Y-140812991D02*
X164733246Y-140705241D01*
X164733246Y-140705241D02*
X164733246Y-140651367D01*
X164733246Y-140651367D02*
X164544684Y-140462805D01*
X164544684Y-140462805D02*
X164436934Y-140570554D01*
X165029557Y-140462805D02*
X164463872Y-139897119D01*
X164463872Y-139897119D02*
X165352806Y-140139556D01*
X165352806Y-140139556D02*
X164787120Y-139573871D01*
X165622180Y-139870182D02*
X165056494Y-139304497D01*
X165056494Y-139304497D02*
X165191181Y-139169810D01*
X165191181Y-139169810D02*
X165298931Y-139115935D01*
X165298931Y-139115935D02*
X165406680Y-139115935D01*
X165406680Y-139115935D02*
X165487493Y-139142872D01*
X165487493Y-139142872D02*
X165622180Y-139223685D01*
X165622180Y-139223685D02*
X165702992Y-139304497D01*
X165702992Y-139304497D02*
X165783804Y-139439184D01*
X165783804Y-139439184D02*
X165810741Y-139519996D01*
X165810741Y-139519996D02*
X165810741Y-139627746D01*
X165810741Y-139627746D02*
X165756867Y-139735495D01*
X165756867Y-139735495D02*
X165622180Y-139870182D01*
X164232998Y-112495868D02*
X164152185Y-112522805D01*
X164152185Y-112522805D02*
X164071373Y-112603618D01*
X164071373Y-112603618D02*
X164017498Y-112711367D01*
X164017498Y-112711367D02*
X164017498Y-112819117D01*
X164017498Y-112819117D02*
X164044436Y-112899929D01*
X164044436Y-112899929D02*
X164125248Y-113034616D01*
X164125248Y-113034616D02*
X164206060Y-113115428D01*
X164206060Y-113115428D02*
X164340747Y-113196241D01*
X164340747Y-113196241D02*
X164421560Y-113223178D01*
X164421560Y-113223178D02*
X164529309Y-113223178D01*
X164529309Y-113223178D02*
X164637059Y-113169303D01*
X164637059Y-113169303D02*
X164690934Y-113115428D01*
X164690934Y-113115428D02*
X164744808Y-113007679D01*
X164744808Y-113007679D02*
X164744808Y-112953804D01*
X164744808Y-112953804D02*
X164556247Y-112765242D01*
X164556247Y-112765242D02*
X164448497Y-112872992D01*
X165041120Y-112765242D02*
X164475434Y-112199557D01*
X164475434Y-112199557D02*
X164690934Y-111984057D01*
X164690934Y-111984057D02*
X164771746Y-111957120D01*
X164771746Y-111957120D02*
X164825621Y-111957120D01*
X164825621Y-111957120D02*
X164906433Y-111984057D01*
X164906433Y-111984057D02*
X164987245Y-112064870D01*
X164987245Y-112064870D02*
X165014182Y-112145682D01*
X165014182Y-112145682D02*
X165014182Y-112199557D01*
X165014182Y-112199557D02*
X164987245Y-112280369D01*
X164987245Y-112280369D02*
X164771746Y-112495868D01*
X165903117Y-111903245D02*
X165579868Y-112226494D01*
X165741492Y-112064870D02*
X165175807Y-111499184D01*
X165175807Y-111499184D02*
X165202744Y-111633871D01*
X165202744Y-111633871D02*
X165202744Y-111741621D01*
X165202744Y-111741621D02*
X165175807Y-111822433D01*
X165687618Y-110987373D02*
X165741492Y-110933499D01*
X165741492Y-110933499D02*
X165822305Y-110906561D01*
X165822305Y-110906561D02*
X165876179Y-110906561D01*
X165876179Y-110906561D02*
X165956992Y-110933499D01*
X165956992Y-110933499D02*
X166091679Y-111014311D01*
X166091679Y-111014311D02*
X166226366Y-111148998D01*
X166226366Y-111148998D02*
X166307178Y-111283685D01*
X166307178Y-111283685D02*
X166334115Y-111364497D01*
X166334115Y-111364497D02*
X166334115Y-111418372D01*
X166334115Y-111418372D02*
X166307178Y-111499184D01*
X166307178Y-111499184D02*
X166253303Y-111553059D01*
X166253303Y-111553059D02*
X166172491Y-111579996D01*
X166172491Y-111579996D02*
X166118616Y-111579996D01*
X166118616Y-111579996D02*
X166037804Y-111553059D01*
X166037804Y-111553059D02*
X165903117Y-111472247D01*
X165903117Y-111472247D02*
X165768430Y-111337560D01*
X165768430Y-111337560D02*
X165687618Y-111202873D01*
X165687618Y-111202873D02*
X165660680Y-111122060D01*
X165660680Y-111122060D02*
X165660680Y-111068186D01*
X165660680Y-111068186D02*
X165687618Y-110987373D01*
X138621435Y-102093431D02*
X138540623Y-102120368D01*
X138540623Y-102120368D02*
X138459811Y-102201180D01*
X138459811Y-102201180D02*
X138405936Y-102308930D01*
X138405936Y-102308930D02*
X138405936Y-102416680D01*
X138405936Y-102416680D02*
X138432873Y-102497492D01*
X138432873Y-102497492D02*
X138513685Y-102632179D01*
X138513685Y-102632179D02*
X138594498Y-102712991D01*
X138594498Y-102712991D02*
X138729185Y-102793803D01*
X138729185Y-102793803D02*
X138809997Y-102820741D01*
X138809997Y-102820741D02*
X138917746Y-102820741D01*
X138917746Y-102820741D02*
X139025496Y-102766866D01*
X139025496Y-102766866D02*
X139079371Y-102712991D01*
X139079371Y-102712991D02*
X139133246Y-102605241D01*
X139133246Y-102605241D02*
X139133246Y-102551367D01*
X139133246Y-102551367D02*
X138944684Y-102362805D01*
X138944684Y-102362805D02*
X138836934Y-102470554D01*
X139429557Y-102362805D02*
X138863872Y-101797119D01*
X138863872Y-101797119D02*
X139752806Y-102039556D01*
X139752806Y-102039556D02*
X139187120Y-101473871D01*
X140022180Y-101770182D02*
X139456494Y-101204497D01*
X139456494Y-101204497D02*
X139591181Y-101069810D01*
X139591181Y-101069810D02*
X139698931Y-101015935D01*
X139698931Y-101015935D02*
X139806680Y-101015935D01*
X139806680Y-101015935D02*
X139887493Y-101042872D01*
X139887493Y-101042872D02*
X140022180Y-101123685D01*
X140022180Y-101123685D02*
X140102992Y-101204497D01*
X140102992Y-101204497D02*
X140183804Y-101339184D01*
X140183804Y-101339184D02*
X140210741Y-101419996D01*
X140210741Y-101419996D02*
X140210741Y-101527746D01*
X140210741Y-101527746D02*
X140156867Y-101635495D01*
X140156867Y-101635495D02*
X140022180Y-101770182D01*
X138124998Y-104875868D02*
X138044185Y-104902805D01*
X138044185Y-104902805D02*
X137963373Y-104983618D01*
X137963373Y-104983618D02*
X137909498Y-105091367D01*
X137909498Y-105091367D02*
X137909498Y-105199117D01*
X137909498Y-105199117D02*
X137936436Y-105279929D01*
X137936436Y-105279929D02*
X138017248Y-105414616D01*
X138017248Y-105414616D02*
X138098060Y-105495428D01*
X138098060Y-105495428D02*
X138232747Y-105576241D01*
X138232747Y-105576241D02*
X138313560Y-105603178D01*
X138313560Y-105603178D02*
X138421309Y-105603178D01*
X138421309Y-105603178D02*
X138529059Y-105549303D01*
X138529059Y-105549303D02*
X138582934Y-105495428D01*
X138582934Y-105495428D02*
X138636808Y-105387679D01*
X138636808Y-105387679D02*
X138636808Y-105333804D01*
X138636808Y-105333804D02*
X138448247Y-105145242D01*
X138448247Y-105145242D02*
X138340497Y-105252992D01*
X138933120Y-105145242D02*
X138367434Y-104579557D01*
X138367434Y-104579557D02*
X138582934Y-104364057D01*
X138582934Y-104364057D02*
X138663746Y-104337120D01*
X138663746Y-104337120D02*
X138717621Y-104337120D01*
X138717621Y-104337120D02*
X138798433Y-104364057D01*
X138798433Y-104364057D02*
X138879245Y-104444870D01*
X138879245Y-104444870D02*
X138906182Y-104525682D01*
X138906182Y-104525682D02*
X138906182Y-104579557D01*
X138906182Y-104579557D02*
X138879245Y-104660369D01*
X138879245Y-104660369D02*
X138663746Y-104875868D01*
X139795117Y-104283245D02*
X139471868Y-104606494D01*
X139633492Y-104444870D02*
X139067807Y-103879184D01*
X139067807Y-103879184D02*
X139094744Y-104013871D01*
X139094744Y-104013871D02*
X139094744Y-104121621D01*
X139094744Y-104121621D02*
X139067807Y-104202433D01*
X139795117Y-103636747D02*
X139714305Y-103663685D01*
X139714305Y-103663685D02*
X139660430Y-103663685D01*
X139660430Y-103663685D02*
X139579618Y-103636747D01*
X139579618Y-103636747D02*
X139552680Y-103609810D01*
X139552680Y-103609810D02*
X139525743Y-103528998D01*
X139525743Y-103528998D02*
X139525743Y-103475123D01*
X139525743Y-103475123D02*
X139552680Y-103394311D01*
X139552680Y-103394311D02*
X139660430Y-103286561D01*
X139660430Y-103286561D02*
X139741242Y-103259624D01*
X139741242Y-103259624D02*
X139795117Y-103259624D01*
X139795117Y-103259624D02*
X139875929Y-103286561D01*
X139875929Y-103286561D02*
X139902866Y-103313499D01*
X139902866Y-103313499D02*
X139929804Y-103394311D01*
X139929804Y-103394311D02*
X139929804Y-103448186D01*
X139929804Y-103448186D02*
X139902866Y-103528998D01*
X139902866Y-103528998D02*
X139795117Y-103636747D01*
X139795117Y-103636747D02*
X139768179Y-103717560D01*
X139768179Y-103717560D02*
X139768179Y-103771434D01*
X139768179Y-103771434D02*
X139795117Y-103852247D01*
X139795117Y-103852247D02*
X139902866Y-103959996D01*
X139902866Y-103959996D02*
X139983679Y-103986934D01*
X139983679Y-103986934D02*
X140037553Y-103986934D01*
X140037553Y-103986934D02*
X140118366Y-103959996D01*
X140118366Y-103959996D02*
X140226115Y-103852247D01*
X140226115Y-103852247D02*
X140253053Y-103771434D01*
X140253053Y-103771434D02*
X140253053Y-103717560D01*
X140253053Y-103717560D02*
X140226115Y-103636747D01*
X140226115Y-103636747D02*
X140118366Y-103528998D01*
X140118366Y-103528998D02*
X140037553Y-103502060D01*
X140037553Y-103502060D02*
X139983679Y-103502060D01*
X139983679Y-103502060D02*
X139902866Y-103528998D01*
X138124998Y-97255868D02*
X138044185Y-97282805D01*
X138044185Y-97282805D02*
X137963373Y-97363618D01*
X137963373Y-97363618D02*
X137909498Y-97471367D01*
X137909498Y-97471367D02*
X137909498Y-97579117D01*
X137909498Y-97579117D02*
X137936436Y-97659929D01*
X137936436Y-97659929D02*
X138017248Y-97794616D01*
X138017248Y-97794616D02*
X138098060Y-97875428D01*
X138098060Y-97875428D02*
X138232747Y-97956241D01*
X138232747Y-97956241D02*
X138313560Y-97983178D01*
X138313560Y-97983178D02*
X138421309Y-97983178D01*
X138421309Y-97983178D02*
X138529059Y-97929303D01*
X138529059Y-97929303D02*
X138582934Y-97875428D01*
X138582934Y-97875428D02*
X138636808Y-97767679D01*
X138636808Y-97767679D02*
X138636808Y-97713804D01*
X138636808Y-97713804D02*
X138448247Y-97525242D01*
X138448247Y-97525242D02*
X138340497Y-97632992D01*
X138933120Y-97525242D02*
X138367434Y-96959557D01*
X138367434Y-96959557D02*
X138582934Y-96744057D01*
X138582934Y-96744057D02*
X138663746Y-96717120D01*
X138663746Y-96717120D02*
X138717621Y-96717120D01*
X138717621Y-96717120D02*
X138798433Y-96744057D01*
X138798433Y-96744057D02*
X138879245Y-96824870D01*
X138879245Y-96824870D02*
X138906182Y-96905682D01*
X138906182Y-96905682D02*
X138906182Y-96959557D01*
X138906182Y-96959557D02*
X138879245Y-97040369D01*
X138879245Y-97040369D02*
X138663746Y-97255868D01*
X139795117Y-96663245D02*
X139471868Y-96986494D01*
X139633492Y-96824870D02*
X139067807Y-96259184D01*
X139067807Y-96259184D02*
X139094744Y-96393871D01*
X139094744Y-96393871D02*
X139094744Y-96501621D01*
X139094744Y-96501621D02*
X139067807Y-96582433D01*
X139714305Y-95612686D02*
X139606555Y-95720436D01*
X139606555Y-95720436D02*
X139579618Y-95801248D01*
X139579618Y-95801248D02*
X139579618Y-95855123D01*
X139579618Y-95855123D02*
X139606555Y-95989810D01*
X139606555Y-95989810D02*
X139687367Y-96124497D01*
X139687367Y-96124497D02*
X139902866Y-96339996D01*
X139902866Y-96339996D02*
X139983679Y-96366934D01*
X139983679Y-96366934D02*
X140037553Y-96366934D01*
X140037553Y-96366934D02*
X140118366Y-96339996D01*
X140118366Y-96339996D02*
X140226115Y-96232247D01*
X140226115Y-96232247D02*
X140253053Y-96151434D01*
X140253053Y-96151434D02*
X140253053Y-96097560D01*
X140253053Y-96097560D02*
X140226115Y-96016747D01*
X140226115Y-96016747D02*
X140091428Y-95882060D01*
X140091428Y-95882060D02*
X140010616Y-95855123D01*
X140010616Y-95855123D02*
X139956741Y-95855123D01*
X139956741Y-95855123D02*
X139875929Y-95882060D01*
X139875929Y-95882060D02*
X139768179Y-95989810D01*
X139768179Y-95989810D02*
X139741242Y-96070622D01*
X139741242Y-96070622D02*
X139741242Y-96124497D01*
X139741242Y-96124497D02*
X139768179Y-96205309D01*
X164248372Y-119846494D02*
X164167560Y-119873431D01*
X164167560Y-119873431D02*
X164086748Y-119954243D01*
X164086748Y-119954243D02*
X164032873Y-120061993D01*
X164032873Y-120061993D02*
X164032873Y-120169742D01*
X164032873Y-120169742D02*
X164059810Y-120250555D01*
X164059810Y-120250555D02*
X164140623Y-120385242D01*
X164140623Y-120385242D02*
X164221435Y-120466054D01*
X164221435Y-120466054D02*
X164356122Y-120546866D01*
X164356122Y-120546866D02*
X164436934Y-120573803D01*
X164436934Y-120573803D02*
X164544684Y-120573803D01*
X164544684Y-120573803D02*
X164652433Y-120519929D01*
X164652433Y-120519929D02*
X164706308Y-120466054D01*
X164706308Y-120466054D02*
X164760183Y-120358304D01*
X164760183Y-120358304D02*
X164760183Y-120304429D01*
X164760183Y-120304429D02*
X164571621Y-120115868D01*
X164571621Y-120115868D02*
X164463871Y-120223617D01*
X165056494Y-120115868D02*
X164490809Y-119550182D01*
X164490809Y-119550182D02*
X164706308Y-119334683D01*
X164706308Y-119334683D02*
X164787120Y-119307746D01*
X164787120Y-119307746D02*
X164840995Y-119307746D01*
X164840995Y-119307746D02*
X164921807Y-119334683D01*
X164921807Y-119334683D02*
X165002619Y-119415495D01*
X165002619Y-119415495D02*
X165029557Y-119496307D01*
X165029557Y-119496307D02*
X165029557Y-119550182D01*
X165029557Y-119550182D02*
X165002619Y-119630994D01*
X165002619Y-119630994D02*
X164787120Y-119846494D01*
X165379743Y-119146121D02*
X165298931Y-119173059D01*
X165298931Y-119173059D02*
X165245056Y-119173059D01*
X165245056Y-119173059D02*
X165164244Y-119146121D01*
X165164244Y-119146121D02*
X165137306Y-119119184D01*
X165137306Y-119119184D02*
X165110369Y-119038372D01*
X165110369Y-119038372D02*
X165110369Y-118984497D01*
X165110369Y-118984497D02*
X165137306Y-118903685D01*
X165137306Y-118903685D02*
X165245056Y-118795935D01*
X165245056Y-118795935D02*
X165325868Y-118768998D01*
X165325868Y-118768998D02*
X165379743Y-118768998D01*
X165379743Y-118768998D02*
X165460555Y-118795935D01*
X165460555Y-118795935D02*
X165487493Y-118822872D01*
X165487493Y-118822872D02*
X165514430Y-118903685D01*
X165514430Y-118903685D02*
X165514430Y-118957559D01*
X165514430Y-118957559D02*
X165487493Y-119038372D01*
X165487493Y-119038372D02*
X165379743Y-119146121D01*
X165379743Y-119146121D02*
X165352806Y-119226933D01*
X165352806Y-119226933D02*
X165352806Y-119280808D01*
X165352806Y-119280808D02*
X165379743Y-119361620D01*
X165379743Y-119361620D02*
X165487493Y-119469370D01*
X165487493Y-119469370D02*
X165568305Y-119496307D01*
X165568305Y-119496307D02*
X165622180Y-119496307D01*
X165622180Y-119496307D02*
X165702992Y-119469370D01*
X165702992Y-119469370D02*
X165810741Y-119361620D01*
X165810741Y-119361620D02*
X165837679Y-119280808D01*
X165837679Y-119280808D02*
X165837679Y-119226933D01*
X165837679Y-119226933D02*
X165810741Y-119146121D01*
X165810741Y-119146121D02*
X165702992Y-119038372D01*
X165702992Y-119038372D02*
X165622180Y-119011434D01*
X165622180Y-119011434D02*
X165568305Y-119011434D01*
X165568305Y-119011434D02*
X165487493Y-119038372D01*
X138124998Y-109955868D02*
X138044185Y-109982805D01*
X138044185Y-109982805D02*
X137963373Y-110063618D01*
X137963373Y-110063618D02*
X137909498Y-110171367D01*
X137909498Y-110171367D02*
X137909498Y-110279117D01*
X137909498Y-110279117D02*
X137936436Y-110359929D01*
X137936436Y-110359929D02*
X138017248Y-110494616D01*
X138017248Y-110494616D02*
X138098060Y-110575428D01*
X138098060Y-110575428D02*
X138232747Y-110656241D01*
X138232747Y-110656241D02*
X138313560Y-110683178D01*
X138313560Y-110683178D02*
X138421309Y-110683178D01*
X138421309Y-110683178D02*
X138529059Y-110629303D01*
X138529059Y-110629303D02*
X138582934Y-110575428D01*
X138582934Y-110575428D02*
X138636808Y-110467679D01*
X138636808Y-110467679D02*
X138636808Y-110413804D01*
X138636808Y-110413804D02*
X138448247Y-110225242D01*
X138448247Y-110225242D02*
X138340497Y-110332992D01*
X138933120Y-110225242D02*
X138367434Y-109659557D01*
X138367434Y-109659557D02*
X138582934Y-109444057D01*
X138582934Y-109444057D02*
X138663746Y-109417120D01*
X138663746Y-109417120D02*
X138717621Y-109417120D01*
X138717621Y-109417120D02*
X138798433Y-109444057D01*
X138798433Y-109444057D02*
X138879245Y-109524870D01*
X138879245Y-109524870D02*
X138906182Y-109605682D01*
X138906182Y-109605682D02*
X138906182Y-109659557D01*
X138906182Y-109659557D02*
X138879245Y-109740369D01*
X138879245Y-109740369D02*
X138663746Y-109955868D01*
X138960057Y-109174683D02*
X138960057Y-109120809D01*
X138960057Y-109120809D02*
X138986995Y-109039996D01*
X138986995Y-109039996D02*
X139121682Y-108905309D01*
X139121682Y-108905309D02*
X139202494Y-108878372D01*
X139202494Y-108878372D02*
X139256369Y-108878372D01*
X139256369Y-108878372D02*
X139337181Y-108905309D01*
X139337181Y-108905309D02*
X139391056Y-108959184D01*
X139391056Y-108959184D02*
X139444930Y-109066934D01*
X139444930Y-109066934D02*
X139444930Y-109713431D01*
X139444930Y-109713431D02*
X139795117Y-109363245D01*
X139579618Y-108447373D02*
X139633492Y-108393499D01*
X139633492Y-108393499D02*
X139714305Y-108366561D01*
X139714305Y-108366561D02*
X139768179Y-108366561D01*
X139768179Y-108366561D02*
X139848992Y-108393499D01*
X139848992Y-108393499D02*
X139983679Y-108474311D01*
X139983679Y-108474311D02*
X140118366Y-108608998D01*
X140118366Y-108608998D02*
X140199178Y-108743685D01*
X140199178Y-108743685D02*
X140226115Y-108824497D01*
X140226115Y-108824497D02*
X140226115Y-108878372D01*
X140226115Y-108878372D02*
X140199178Y-108959184D01*
X140199178Y-108959184D02*
X140145303Y-109013059D01*
X140145303Y-109013059D02*
X140064491Y-109039996D01*
X140064491Y-109039996D02*
X140010616Y-109039996D01*
X140010616Y-109039996D02*
X139929804Y-109013059D01*
X139929804Y-109013059D02*
X139795117Y-108932247D01*
X139795117Y-108932247D02*
X139660430Y-108797560D01*
X139660430Y-108797560D02*
X139579618Y-108662873D01*
X139579618Y-108662873D02*
X139552680Y-108582060D01*
X139552680Y-108582060D02*
X139552680Y-108528186D01*
X139552680Y-108528186D02*
X139579618Y-108447373D01*
X138621435Y-140193431D02*
X138540623Y-140220368D01*
X138540623Y-140220368D02*
X138459811Y-140301180D01*
X138459811Y-140301180D02*
X138405936Y-140408930D01*
X138405936Y-140408930D02*
X138405936Y-140516680D01*
X138405936Y-140516680D02*
X138432873Y-140597492D01*
X138432873Y-140597492D02*
X138513685Y-140732179D01*
X138513685Y-140732179D02*
X138594498Y-140812991D01*
X138594498Y-140812991D02*
X138729185Y-140893803D01*
X138729185Y-140893803D02*
X138809997Y-140920741D01*
X138809997Y-140920741D02*
X138917746Y-140920741D01*
X138917746Y-140920741D02*
X139025496Y-140866866D01*
X139025496Y-140866866D02*
X139079371Y-140812991D01*
X139079371Y-140812991D02*
X139133246Y-140705241D01*
X139133246Y-140705241D02*
X139133246Y-140651367D01*
X139133246Y-140651367D02*
X138944684Y-140462805D01*
X138944684Y-140462805D02*
X138836934Y-140570554D01*
X139429557Y-140462805D02*
X138863872Y-139897119D01*
X138863872Y-139897119D02*
X139752806Y-140139556D01*
X139752806Y-140139556D02*
X139187120Y-139573871D01*
X140022180Y-139870182D02*
X139456494Y-139304497D01*
X139456494Y-139304497D02*
X139591181Y-139169810D01*
X139591181Y-139169810D02*
X139698931Y-139115935D01*
X139698931Y-139115935D02*
X139806680Y-139115935D01*
X139806680Y-139115935D02*
X139887493Y-139142872D01*
X139887493Y-139142872D02*
X140022180Y-139223685D01*
X140022180Y-139223685D02*
X140102992Y-139304497D01*
X140102992Y-139304497D02*
X140183804Y-139439184D01*
X140183804Y-139439184D02*
X140210741Y-139519996D01*
X140210741Y-139519996D02*
X140210741Y-139627746D01*
X140210741Y-139627746D02*
X140156867Y-139735495D01*
X140156867Y-139735495D02*
X140022180Y-139870182D01*
X164221435Y-127493431D02*
X164140623Y-127520368D01*
X164140623Y-127520368D02*
X164059811Y-127601180D01*
X164059811Y-127601180D02*
X164005936Y-127708930D01*
X164005936Y-127708930D02*
X164005936Y-127816680D01*
X164005936Y-127816680D02*
X164032873Y-127897492D01*
X164032873Y-127897492D02*
X164113685Y-128032179D01*
X164113685Y-128032179D02*
X164194498Y-128112991D01*
X164194498Y-128112991D02*
X164329185Y-128193803D01*
X164329185Y-128193803D02*
X164409997Y-128220741D01*
X164409997Y-128220741D02*
X164517746Y-128220741D01*
X164517746Y-128220741D02*
X164625496Y-128166866D01*
X164625496Y-128166866D02*
X164679371Y-128112991D01*
X164679371Y-128112991D02*
X164733246Y-128005241D01*
X164733246Y-128005241D02*
X164733246Y-127951367D01*
X164733246Y-127951367D02*
X164544684Y-127762805D01*
X164544684Y-127762805D02*
X164436934Y-127870554D01*
X165029557Y-127762805D02*
X164463872Y-127197119D01*
X164463872Y-127197119D02*
X165352806Y-127439556D01*
X165352806Y-127439556D02*
X164787120Y-126873871D01*
X165622180Y-127170182D02*
X165056494Y-126604497D01*
X165056494Y-126604497D02*
X165191181Y-126469810D01*
X165191181Y-126469810D02*
X165298931Y-126415935D01*
X165298931Y-126415935D02*
X165406680Y-126415935D01*
X165406680Y-126415935D02*
X165487493Y-126442872D01*
X165487493Y-126442872D02*
X165622180Y-126523685D01*
X165622180Y-126523685D02*
X165702992Y-126604497D01*
X165702992Y-126604497D02*
X165783804Y-126739184D01*
X165783804Y-126739184D02*
X165810741Y-126819996D01*
X165810741Y-126819996D02*
X165810741Y-126927746D01*
X165810741Y-126927746D02*
X165756867Y-127035495D01*
X165756867Y-127035495D02*
X165622180Y-127170182D01*
X164248372Y-135086494D02*
X164167560Y-135113431D01*
X164167560Y-135113431D02*
X164086748Y-135194243D01*
X164086748Y-135194243D02*
X164032873Y-135301993D01*
X164032873Y-135301993D02*
X164032873Y-135409742D01*
X164032873Y-135409742D02*
X164059810Y-135490555D01*
X164059810Y-135490555D02*
X164140623Y-135625242D01*
X164140623Y-135625242D02*
X164221435Y-135706054D01*
X164221435Y-135706054D02*
X164356122Y-135786866D01*
X164356122Y-135786866D02*
X164436934Y-135813803D01*
X164436934Y-135813803D02*
X164544684Y-135813803D01*
X164544684Y-135813803D02*
X164652433Y-135759929D01*
X164652433Y-135759929D02*
X164706308Y-135706054D01*
X164706308Y-135706054D02*
X164760183Y-135598304D01*
X164760183Y-135598304D02*
X164760183Y-135544429D01*
X164760183Y-135544429D02*
X164571621Y-135355868D01*
X164571621Y-135355868D02*
X164463871Y-135463617D01*
X165056494Y-135355868D02*
X164490809Y-134790182D01*
X164490809Y-134790182D02*
X164706308Y-134574683D01*
X164706308Y-134574683D02*
X164787120Y-134547746D01*
X164787120Y-134547746D02*
X164840995Y-134547746D01*
X164840995Y-134547746D02*
X164921807Y-134574683D01*
X164921807Y-134574683D02*
X165002619Y-134655495D01*
X165002619Y-134655495D02*
X165029557Y-134736307D01*
X165029557Y-134736307D02*
X165029557Y-134790182D01*
X165029557Y-134790182D02*
X165002619Y-134870994D01*
X165002619Y-134870994D02*
X164787120Y-135086494D01*
X165002619Y-134278372D02*
X165352806Y-133928185D01*
X165352806Y-133928185D02*
X165379743Y-134332246D01*
X165379743Y-134332246D02*
X165460555Y-134251434D01*
X165460555Y-134251434D02*
X165541367Y-134224497D01*
X165541367Y-134224497D02*
X165595242Y-134224497D01*
X165595242Y-134224497D02*
X165676054Y-134251434D01*
X165676054Y-134251434D02*
X165810741Y-134386121D01*
X165810741Y-134386121D02*
X165837679Y-134466933D01*
X165837679Y-134466933D02*
X165837679Y-134520808D01*
X165837679Y-134520808D02*
X165810741Y-134601620D01*
X165810741Y-134601620D02*
X165649117Y-134763245D01*
X165649117Y-134763245D02*
X165568305Y-134790182D01*
X165568305Y-134790182D02*
X165514430Y-134790182D01*
X164248372Y-132546494D02*
X164167560Y-132573431D01*
X164167560Y-132573431D02*
X164086748Y-132654243D01*
X164086748Y-132654243D02*
X164032873Y-132761993D01*
X164032873Y-132761993D02*
X164032873Y-132869742D01*
X164032873Y-132869742D02*
X164059810Y-132950555D01*
X164059810Y-132950555D02*
X164140623Y-133085242D01*
X164140623Y-133085242D02*
X164221435Y-133166054D01*
X164221435Y-133166054D02*
X164356122Y-133246866D01*
X164356122Y-133246866D02*
X164436934Y-133273803D01*
X164436934Y-133273803D02*
X164544684Y-133273803D01*
X164544684Y-133273803D02*
X164652433Y-133219929D01*
X164652433Y-133219929D02*
X164706308Y-133166054D01*
X164706308Y-133166054D02*
X164760183Y-133058304D01*
X164760183Y-133058304D02*
X164760183Y-133004429D01*
X164760183Y-133004429D02*
X164571621Y-132815868D01*
X164571621Y-132815868D02*
X164463871Y-132923617D01*
X165056494Y-132815868D02*
X164490809Y-132250182D01*
X164490809Y-132250182D02*
X164706308Y-132034683D01*
X164706308Y-132034683D02*
X164787120Y-132007746D01*
X164787120Y-132007746D02*
X164840995Y-132007746D01*
X164840995Y-132007746D02*
X164921807Y-132034683D01*
X164921807Y-132034683D02*
X165002619Y-132115495D01*
X165002619Y-132115495D02*
X165029557Y-132196307D01*
X165029557Y-132196307D02*
X165029557Y-132250182D01*
X165029557Y-132250182D02*
X165002619Y-132330994D01*
X165002619Y-132330994D02*
X164787120Y-132546494D01*
X165487493Y-131630622D02*
X165864616Y-132007746D01*
X165137306Y-131549810D02*
X165406680Y-132088558D01*
X165406680Y-132088558D02*
X165756867Y-131738372D01*
X164232998Y-97255868D02*
X164152185Y-97282805D01*
X164152185Y-97282805D02*
X164071373Y-97363618D01*
X164071373Y-97363618D02*
X164017498Y-97471367D01*
X164017498Y-97471367D02*
X164017498Y-97579117D01*
X164017498Y-97579117D02*
X164044436Y-97659929D01*
X164044436Y-97659929D02*
X164125248Y-97794616D01*
X164125248Y-97794616D02*
X164206060Y-97875428D01*
X164206060Y-97875428D02*
X164340747Y-97956241D01*
X164340747Y-97956241D02*
X164421560Y-97983178D01*
X164421560Y-97983178D02*
X164529309Y-97983178D01*
X164529309Y-97983178D02*
X164637059Y-97929303D01*
X164637059Y-97929303D02*
X164690934Y-97875428D01*
X164690934Y-97875428D02*
X164744808Y-97767679D01*
X164744808Y-97767679D02*
X164744808Y-97713804D01*
X164744808Y-97713804D02*
X164556247Y-97525242D01*
X164556247Y-97525242D02*
X164448497Y-97632992D01*
X165041120Y-97525242D02*
X164475434Y-96959557D01*
X164475434Y-96959557D02*
X164690934Y-96744057D01*
X164690934Y-96744057D02*
X164771746Y-96717120D01*
X164771746Y-96717120D02*
X164825621Y-96717120D01*
X164825621Y-96717120D02*
X164906433Y-96744057D01*
X164906433Y-96744057D02*
X164987245Y-96824870D01*
X164987245Y-96824870D02*
X165014182Y-96905682D01*
X165014182Y-96905682D02*
X165014182Y-96959557D01*
X165014182Y-96959557D02*
X164987245Y-97040369D01*
X164987245Y-97040369D02*
X164771746Y-97255868D01*
X165903117Y-96663245D02*
X165579868Y-96986494D01*
X165741492Y-96824870D02*
X165175807Y-96259184D01*
X165175807Y-96259184D02*
X165202744Y-96393871D01*
X165202744Y-96393871D02*
X165202744Y-96501621D01*
X165202744Y-96501621D02*
X165175807Y-96582433D01*
X165849242Y-95585749D02*
X165579868Y-95855123D01*
X165579868Y-95855123D02*
X165822305Y-96151434D01*
X165822305Y-96151434D02*
X165822305Y-96097560D01*
X165822305Y-96097560D02*
X165849242Y-96016747D01*
X165849242Y-96016747D02*
X165983929Y-95882060D01*
X165983929Y-95882060D02*
X166064741Y-95855123D01*
X166064741Y-95855123D02*
X166118616Y-95855123D01*
X166118616Y-95855123D02*
X166199428Y-95882060D01*
X166199428Y-95882060D02*
X166334115Y-96016747D01*
X166334115Y-96016747D02*
X166361053Y-96097560D01*
X166361053Y-96097560D02*
X166361053Y-96151434D01*
X166361053Y-96151434D02*
X166334115Y-96232247D01*
X166334115Y-96232247D02*
X166199428Y-96366934D01*
X166199428Y-96366934D02*
X166118616Y-96393871D01*
X166118616Y-96393871D02*
X166064741Y-96393871D01*
X137655749Y-143245242D02*
X138409996Y-143622366D01*
X138409996Y-143622366D02*
X138032873Y-142868118D01*
X138733245Y-143245242D02*
X138840995Y-143191367D01*
X138840995Y-143191367D02*
X138975682Y-143056680D01*
X138975682Y-143056680D02*
X139002619Y-142975868D01*
X139002619Y-142975868D02*
X139002619Y-142921993D01*
X139002619Y-142921993D02*
X138975682Y-142841181D01*
X138975682Y-142841181D02*
X138921807Y-142787306D01*
X138921807Y-142787306D02*
X138840995Y-142760369D01*
X138840995Y-142760369D02*
X138787120Y-142760369D01*
X138787120Y-142760369D02*
X138706308Y-142787306D01*
X138706308Y-142787306D02*
X138571621Y-142868118D01*
X138571621Y-142868118D02*
X138490808Y-142895056D01*
X138490808Y-142895056D02*
X138436934Y-142895056D01*
X138436934Y-142895056D02*
X138356121Y-142868118D01*
X138356121Y-142868118D02*
X138302247Y-142814244D01*
X138302247Y-142814244D02*
X138275309Y-142733431D01*
X138275309Y-142733431D02*
X138275309Y-142679557D01*
X138275309Y-142679557D02*
X138302247Y-142598744D01*
X138302247Y-142598744D02*
X138436934Y-142464057D01*
X138436934Y-142464057D02*
X138544683Y-142410183D01*
X139164244Y-142329370D02*
X139433618Y-142598744D01*
X138679370Y-142221621D02*
X139164244Y-142329370D01*
X139164244Y-142329370D02*
X139056494Y-141844497D01*
X139756866Y-142221621D02*
X139864616Y-142167746D01*
X139864616Y-142167746D02*
X139999303Y-142033059D01*
X139999303Y-142033059D02*
X140026240Y-141952247D01*
X140026240Y-141952247D02*
X140026240Y-141898372D01*
X140026240Y-141898372D02*
X139999303Y-141817560D01*
X139999303Y-141817560D02*
X139945428Y-141763685D01*
X139945428Y-141763685D02*
X139864616Y-141736748D01*
X139864616Y-141736748D02*
X139810741Y-141736748D01*
X139810741Y-141736748D02*
X139729929Y-141763685D01*
X139729929Y-141763685D02*
X139595242Y-141844497D01*
X139595242Y-141844497D02*
X139514430Y-141871435D01*
X139514430Y-141871435D02*
X139460555Y-141871435D01*
X139460555Y-141871435D02*
X139379743Y-141844497D01*
X139379743Y-141844497D02*
X139325868Y-141790622D01*
X139325868Y-141790622D02*
X139298930Y-141709810D01*
X139298930Y-141709810D02*
X139298930Y-141655935D01*
X139298930Y-141655935D02*
X139325868Y-141575123D01*
X139325868Y-141575123D02*
X139460555Y-141440436D01*
X139460555Y-141440436D02*
X139568304Y-141386561D01*
X138621435Y-114793431D02*
X138540623Y-114820368D01*
X138540623Y-114820368D02*
X138459811Y-114901180D01*
X138459811Y-114901180D02*
X138405936Y-115008930D01*
X138405936Y-115008930D02*
X138405936Y-115116680D01*
X138405936Y-115116680D02*
X138432873Y-115197492D01*
X138432873Y-115197492D02*
X138513685Y-115332179D01*
X138513685Y-115332179D02*
X138594498Y-115412991D01*
X138594498Y-115412991D02*
X138729185Y-115493803D01*
X138729185Y-115493803D02*
X138809997Y-115520741D01*
X138809997Y-115520741D02*
X138917746Y-115520741D01*
X138917746Y-115520741D02*
X139025496Y-115466866D01*
X139025496Y-115466866D02*
X139079371Y-115412991D01*
X139079371Y-115412991D02*
X139133246Y-115305241D01*
X139133246Y-115305241D02*
X139133246Y-115251367D01*
X139133246Y-115251367D02*
X138944684Y-115062805D01*
X138944684Y-115062805D02*
X138836934Y-115170554D01*
X139429557Y-115062805D02*
X138863872Y-114497119D01*
X138863872Y-114497119D02*
X139752806Y-114739556D01*
X139752806Y-114739556D02*
X139187120Y-114173871D01*
X140022180Y-114470182D02*
X139456494Y-113904497D01*
X139456494Y-113904497D02*
X139591181Y-113769810D01*
X139591181Y-113769810D02*
X139698931Y-113715935D01*
X139698931Y-113715935D02*
X139806680Y-113715935D01*
X139806680Y-113715935D02*
X139887493Y-113742872D01*
X139887493Y-113742872D02*
X140022180Y-113823685D01*
X140022180Y-113823685D02*
X140102992Y-113904497D01*
X140102992Y-113904497D02*
X140183804Y-114039184D01*
X140183804Y-114039184D02*
X140210741Y-114119996D01*
X140210741Y-114119996D02*
X140210741Y-114227746D01*
X140210741Y-114227746D02*
X140156867Y-114335495D01*
X140156867Y-114335495D02*
X140022180Y-114470182D01*
X138225123Y-135285868D02*
X138575309Y-134935682D01*
X138575309Y-134935682D02*
X138602247Y-135339743D01*
X138602247Y-135339743D02*
X138683059Y-135258931D01*
X138683059Y-135258931D02*
X138763871Y-135231993D01*
X138763871Y-135231993D02*
X138817746Y-135231993D01*
X138817746Y-135231993D02*
X138898558Y-135258931D01*
X138898558Y-135258931D02*
X139033245Y-135393618D01*
X139033245Y-135393618D02*
X139060182Y-135474430D01*
X139060182Y-135474430D02*
X139060182Y-135528305D01*
X139060182Y-135528305D02*
X139033245Y-135609117D01*
X139033245Y-135609117D02*
X138871621Y-135770741D01*
X138871621Y-135770741D02*
X138790808Y-135797679D01*
X138790808Y-135797679D02*
X138736934Y-135797679D01*
X138736934Y-134774057D02*
X139491181Y-135151181D01*
X139491181Y-135151181D02*
X139114057Y-134396934D01*
X139248744Y-134262247D02*
X139598930Y-133912061D01*
X139598930Y-133912061D02*
X139625868Y-134316122D01*
X139625868Y-134316122D02*
X139706680Y-134235309D01*
X139706680Y-134235309D02*
X139787492Y-134208372D01*
X139787492Y-134208372D02*
X139841367Y-134208372D01*
X139841367Y-134208372D02*
X139922179Y-134235309D01*
X139922179Y-134235309D02*
X140056866Y-134369996D01*
X140056866Y-134369996D02*
X140083804Y-134450809D01*
X140083804Y-134450809D02*
X140083804Y-134504683D01*
X140083804Y-134504683D02*
X140056866Y-134585496D01*
X140056866Y-134585496D02*
X139895242Y-134747120D01*
X139895242Y-134747120D02*
X139814430Y-134774057D01*
X139814430Y-134774057D02*
X139760555Y-134774057D01*
X138124998Y-122655868D02*
X138044185Y-122682805D01*
X138044185Y-122682805D02*
X137963373Y-122763618D01*
X137963373Y-122763618D02*
X137909498Y-122871367D01*
X137909498Y-122871367D02*
X137909498Y-122979117D01*
X137909498Y-122979117D02*
X137936436Y-123059929D01*
X137936436Y-123059929D02*
X138017248Y-123194616D01*
X138017248Y-123194616D02*
X138098060Y-123275428D01*
X138098060Y-123275428D02*
X138232747Y-123356241D01*
X138232747Y-123356241D02*
X138313560Y-123383178D01*
X138313560Y-123383178D02*
X138421309Y-123383178D01*
X138421309Y-123383178D02*
X138529059Y-123329303D01*
X138529059Y-123329303D02*
X138582934Y-123275428D01*
X138582934Y-123275428D02*
X138636808Y-123167679D01*
X138636808Y-123167679D02*
X138636808Y-123113804D01*
X138636808Y-123113804D02*
X138448247Y-122925242D01*
X138448247Y-122925242D02*
X138340497Y-123032992D01*
X138933120Y-122925242D02*
X138367434Y-122359557D01*
X138367434Y-122359557D02*
X138582934Y-122144057D01*
X138582934Y-122144057D02*
X138663746Y-122117120D01*
X138663746Y-122117120D02*
X138717621Y-122117120D01*
X138717621Y-122117120D02*
X138798433Y-122144057D01*
X138798433Y-122144057D02*
X138879245Y-122224870D01*
X138879245Y-122224870D02*
X138906182Y-122305682D01*
X138906182Y-122305682D02*
X138906182Y-122359557D01*
X138906182Y-122359557D02*
X138879245Y-122440369D01*
X138879245Y-122440369D02*
X138663746Y-122655868D01*
X138960057Y-121874683D02*
X138960057Y-121820809D01*
X138960057Y-121820809D02*
X138986995Y-121739996D01*
X138986995Y-121739996D02*
X139121682Y-121605309D01*
X139121682Y-121605309D02*
X139202494Y-121578372D01*
X139202494Y-121578372D02*
X139256369Y-121578372D01*
X139256369Y-121578372D02*
X139337181Y-121605309D01*
X139337181Y-121605309D02*
X139391056Y-121659184D01*
X139391056Y-121659184D02*
X139444930Y-121766934D01*
X139444930Y-121766934D02*
X139444930Y-122413431D01*
X139444930Y-122413431D02*
X139795117Y-122063245D01*
X139714305Y-121012686D02*
X139606555Y-121120436D01*
X139606555Y-121120436D02*
X139579618Y-121201248D01*
X139579618Y-121201248D02*
X139579618Y-121255123D01*
X139579618Y-121255123D02*
X139606555Y-121389810D01*
X139606555Y-121389810D02*
X139687367Y-121524497D01*
X139687367Y-121524497D02*
X139902866Y-121739996D01*
X139902866Y-121739996D02*
X139983679Y-121766934D01*
X139983679Y-121766934D02*
X140037553Y-121766934D01*
X140037553Y-121766934D02*
X140118366Y-121739996D01*
X140118366Y-121739996D02*
X140226115Y-121632247D01*
X140226115Y-121632247D02*
X140253053Y-121551434D01*
X140253053Y-121551434D02*
X140253053Y-121497560D01*
X140253053Y-121497560D02*
X140226115Y-121416747D01*
X140226115Y-121416747D02*
X140091428Y-121282060D01*
X140091428Y-121282060D02*
X140010616Y-121255123D01*
X140010616Y-121255123D02*
X139956741Y-121255123D01*
X139956741Y-121255123D02*
X139875929Y-121282060D01*
X139875929Y-121282060D02*
X139768179Y-121389810D01*
X139768179Y-121389810D02*
X139741242Y-121470622D01*
X139741242Y-121470622D02*
X139741242Y-121524497D01*
X139741242Y-121524497D02*
X139768179Y-121605309D01*
X138973651Y-120398710D02*
X138515716Y-120317898D01*
X138650403Y-120721959D02*
X138084717Y-120156274D01*
X138084717Y-120156274D02*
X138300216Y-119940775D01*
X138300216Y-119940775D02*
X138381029Y-119913837D01*
X138381029Y-119913837D02*
X138434903Y-119913837D01*
X138434903Y-119913837D02*
X138515716Y-119940775D01*
X138515716Y-119940775D02*
X138596528Y-120021587D01*
X138596528Y-120021587D02*
X138623465Y-120102399D01*
X138623465Y-120102399D02*
X138623465Y-120156274D01*
X138623465Y-120156274D02*
X138596528Y-120237086D01*
X138596528Y-120237086D02*
X138381029Y-120452585D01*
X138650403Y-119590588D02*
X139108338Y-120048524D01*
X139108338Y-120048524D02*
X139189151Y-120075462D01*
X139189151Y-120075462D02*
X139243025Y-120075462D01*
X139243025Y-120075462D02*
X139323838Y-120048524D01*
X139323838Y-120048524D02*
X139431587Y-119940775D01*
X139431587Y-119940775D02*
X139458525Y-119859962D01*
X139458525Y-119859962D02*
X139458525Y-119806088D01*
X139458525Y-119806088D02*
X139431587Y-119725275D01*
X139431587Y-119725275D02*
X138973651Y-119267340D01*
X139808711Y-119563651D02*
X139243025Y-118997966D01*
X139243025Y-118997966D02*
X140131959Y-119240402D01*
X140131959Y-119240402D02*
X139566274Y-118674717D01*
X136657407Y-139353584D02*
X137007593Y-139003398D01*
X137007593Y-139003398D02*
X137034531Y-139407459D01*
X137034531Y-139407459D02*
X137115343Y-139326646D01*
X137115343Y-139326646D02*
X137196155Y-139299709D01*
X137196155Y-139299709D02*
X137250030Y-139299709D01*
X137250030Y-139299709D02*
X137330842Y-139326646D01*
X137330842Y-139326646D02*
X137465529Y-139461333D01*
X137465529Y-139461333D02*
X137492467Y-139542146D01*
X137492467Y-139542146D02*
X137492467Y-139596020D01*
X137492467Y-139596020D02*
X137465529Y-139676833D01*
X137465529Y-139676833D02*
X137303905Y-139838457D01*
X137303905Y-139838457D02*
X137223093Y-139865394D01*
X137223093Y-139865394D02*
X137169218Y-139865394D01*
X137169218Y-138841773D02*
X137923465Y-139218897D01*
X137923465Y-139218897D02*
X137546342Y-138464649D01*
X137681028Y-138329963D02*
X138031215Y-137979776D01*
X138031215Y-137979776D02*
X138058152Y-138383837D01*
X138058152Y-138383837D02*
X138138964Y-138303025D01*
X138138964Y-138303025D02*
X138219776Y-138276088D01*
X138219776Y-138276088D02*
X138273651Y-138276088D01*
X138273651Y-138276088D02*
X138354464Y-138303025D01*
X138354464Y-138303025D02*
X138489151Y-138437712D01*
X138489151Y-138437712D02*
X138516088Y-138518524D01*
X138516088Y-138518524D02*
X138516088Y-138572399D01*
X138516088Y-138572399D02*
X138489151Y-138653211D01*
X138489151Y-138653211D02*
X138327526Y-138814836D01*
X138327526Y-138814836D02*
X138246714Y-138841773D01*
X138246714Y-138841773D02*
X138192839Y-138841773D01*
X138758525Y-138491587D02*
X139189523Y-138060588D01*
X138974024Y-137575715D02*
X139162586Y-137387153D01*
X139539709Y-137602652D02*
X139270335Y-137872026D01*
X139270335Y-137872026D02*
X138704650Y-137306341D01*
X138704650Y-137306341D02*
X138974024Y-137036967D01*
X139782146Y-137360215D02*
X139216461Y-136794530D01*
X139216461Y-136794530D02*
X140105395Y-137036967D01*
X140105395Y-137036967D02*
X139539710Y-136471281D01*
X164248372Y-145246494D02*
X164167560Y-145273431D01*
X164167560Y-145273431D02*
X164086748Y-145354243D01*
X164086748Y-145354243D02*
X164032873Y-145461993D01*
X164032873Y-145461993D02*
X164032873Y-145569742D01*
X164032873Y-145569742D02*
X164059810Y-145650555D01*
X164059810Y-145650555D02*
X164140623Y-145785242D01*
X164140623Y-145785242D02*
X164221435Y-145866054D01*
X164221435Y-145866054D02*
X164356122Y-145946866D01*
X164356122Y-145946866D02*
X164436934Y-145973803D01*
X164436934Y-145973803D02*
X164544684Y-145973803D01*
X164544684Y-145973803D02*
X164652433Y-145919929D01*
X164652433Y-145919929D02*
X164706308Y-145866054D01*
X164706308Y-145866054D02*
X164760183Y-145758304D01*
X164760183Y-145758304D02*
X164760183Y-145704429D01*
X164760183Y-145704429D02*
X164571621Y-145515868D01*
X164571621Y-145515868D02*
X164463871Y-145623617D01*
X165056494Y-145515868D02*
X164490809Y-144950182D01*
X164490809Y-144950182D02*
X164706308Y-144734683D01*
X164706308Y-144734683D02*
X164787120Y-144707746D01*
X164787120Y-144707746D02*
X164840995Y-144707746D01*
X164840995Y-144707746D02*
X164921807Y-144734683D01*
X164921807Y-144734683D02*
X165002619Y-144815495D01*
X165002619Y-144815495D02*
X165029557Y-144896307D01*
X165029557Y-144896307D02*
X165029557Y-144950182D01*
X165029557Y-144950182D02*
X165002619Y-145030994D01*
X165002619Y-145030994D02*
X164787120Y-145246494D01*
X165164244Y-144276747D02*
X165218119Y-144222872D01*
X165218119Y-144222872D02*
X165298931Y-144195935D01*
X165298931Y-144195935D02*
X165352806Y-144195935D01*
X165352806Y-144195935D02*
X165433618Y-144222872D01*
X165433618Y-144222872D02*
X165568305Y-144303685D01*
X165568305Y-144303685D02*
X165702992Y-144438372D01*
X165702992Y-144438372D02*
X165783804Y-144573059D01*
X165783804Y-144573059D02*
X165810741Y-144653871D01*
X165810741Y-144653871D02*
X165810741Y-144707746D01*
X165810741Y-144707746D02*
X165783804Y-144788558D01*
X165783804Y-144788558D02*
X165729929Y-144842433D01*
X165729929Y-144842433D02*
X165649117Y-144869370D01*
X165649117Y-144869370D02*
X165595242Y-144869370D01*
X165595242Y-144869370D02*
X165514430Y-144842433D01*
X165514430Y-144842433D02*
X165379743Y-144761620D01*
X165379743Y-144761620D02*
X165245056Y-144626933D01*
X165245056Y-144626933D02*
X165164244Y-144492246D01*
X165164244Y-144492246D02*
X165137306Y-144411434D01*
X165137306Y-144411434D02*
X165137306Y-144357559D01*
X165137306Y-144357559D02*
X165164244Y-144276747D01*
X164221435Y-102093431D02*
X164140623Y-102120368D01*
X164140623Y-102120368D02*
X164059811Y-102201180D01*
X164059811Y-102201180D02*
X164005936Y-102308930D01*
X164005936Y-102308930D02*
X164005936Y-102416680D01*
X164005936Y-102416680D02*
X164032873Y-102497492D01*
X164032873Y-102497492D02*
X164113685Y-102632179D01*
X164113685Y-102632179D02*
X164194498Y-102712991D01*
X164194498Y-102712991D02*
X164329185Y-102793803D01*
X164329185Y-102793803D02*
X164409997Y-102820741D01*
X164409997Y-102820741D02*
X164517746Y-102820741D01*
X164517746Y-102820741D02*
X164625496Y-102766866D01*
X164625496Y-102766866D02*
X164679371Y-102712991D01*
X164679371Y-102712991D02*
X164733246Y-102605241D01*
X164733246Y-102605241D02*
X164733246Y-102551367D01*
X164733246Y-102551367D02*
X164544684Y-102362805D01*
X164544684Y-102362805D02*
X164436934Y-102470554D01*
X165029557Y-102362805D02*
X164463872Y-101797119D01*
X164463872Y-101797119D02*
X165352806Y-102039556D01*
X165352806Y-102039556D02*
X164787120Y-101473871D01*
X165622180Y-101770182D02*
X165056494Y-101204497D01*
X165056494Y-101204497D02*
X165191181Y-101069810D01*
X165191181Y-101069810D02*
X165298931Y-101015935D01*
X165298931Y-101015935D02*
X165406680Y-101015935D01*
X165406680Y-101015935D02*
X165487493Y-101042872D01*
X165487493Y-101042872D02*
X165622180Y-101123685D01*
X165622180Y-101123685D02*
X165702992Y-101204497D01*
X165702992Y-101204497D02*
X165783804Y-101339184D01*
X165783804Y-101339184D02*
X165810741Y-101419996D01*
X165810741Y-101419996D02*
X165810741Y-101527746D01*
X165810741Y-101527746D02*
X165756867Y-101635495D01*
X165756867Y-101635495D02*
X165622180Y-101770182D01*
X138124998Y-130529868D02*
X138044185Y-130556805D01*
X138044185Y-130556805D02*
X137963373Y-130637618D01*
X137963373Y-130637618D02*
X137909498Y-130745367D01*
X137909498Y-130745367D02*
X137909498Y-130853117D01*
X137909498Y-130853117D02*
X137936436Y-130933929D01*
X137936436Y-130933929D02*
X138017248Y-131068616D01*
X138017248Y-131068616D02*
X138098060Y-131149428D01*
X138098060Y-131149428D02*
X138232747Y-131230241D01*
X138232747Y-131230241D02*
X138313560Y-131257178D01*
X138313560Y-131257178D02*
X138421309Y-131257178D01*
X138421309Y-131257178D02*
X138529059Y-131203303D01*
X138529059Y-131203303D02*
X138582934Y-131149428D01*
X138582934Y-131149428D02*
X138636808Y-131041679D01*
X138636808Y-131041679D02*
X138636808Y-130987804D01*
X138636808Y-130987804D02*
X138448247Y-130799242D01*
X138448247Y-130799242D02*
X138340497Y-130906992D01*
X138933120Y-130799242D02*
X138367434Y-130233557D01*
X138367434Y-130233557D02*
X138582934Y-130018057D01*
X138582934Y-130018057D02*
X138663746Y-129991120D01*
X138663746Y-129991120D02*
X138717621Y-129991120D01*
X138717621Y-129991120D02*
X138798433Y-130018057D01*
X138798433Y-130018057D02*
X138879245Y-130098870D01*
X138879245Y-130098870D02*
X138906182Y-130179682D01*
X138906182Y-130179682D02*
X138906182Y-130233557D01*
X138906182Y-130233557D02*
X138879245Y-130314369D01*
X138879245Y-130314369D02*
X138663746Y-130529868D01*
X138960057Y-129748683D02*
X138960057Y-129694809D01*
X138960057Y-129694809D02*
X138986995Y-129613996D01*
X138986995Y-129613996D02*
X139121682Y-129479309D01*
X139121682Y-129479309D02*
X139202494Y-129452372D01*
X139202494Y-129452372D02*
X139256369Y-129452372D01*
X139256369Y-129452372D02*
X139337181Y-129479309D01*
X139337181Y-129479309D02*
X139391056Y-129533184D01*
X139391056Y-129533184D02*
X139444930Y-129640934D01*
X139444930Y-129640934D02*
X139444930Y-130287431D01*
X139444930Y-130287431D02*
X139795117Y-129937245D01*
X139795117Y-129290747D02*
X139714305Y-129317685D01*
X139714305Y-129317685D02*
X139660430Y-129317685D01*
X139660430Y-129317685D02*
X139579618Y-129290747D01*
X139579618Y-129290747D02*
X139552680Y-129263810D01*
X139552680Y-129263810D02*
X139525743Y-129182998D01*
X139525743Y-129182998D02*
X139525743Y-129129123D01*
X139525743Y-129129123D02*
X139552680Y-129048311D01*
X139552680Y-129048311D02*
X139660430Y-128940561D01*
X139660430Y-128940561D02*
X139741242Y-128913624D01*
X139741242Y-128913624D02*
X139795117Y-128913624D01*
X139795117Y-128913624D02*
X139875929Y-128940561D01*
X139875929Y-128940561D02*
X139902866Y-128967499D01*
X139902866Y-128967499D02*
X139929804Y-129048311D01*
X139929804Y-129048311D02*
X139929804Y-129102186D01*
X139929804Y-129102186D02*
X139902866Y-129182998D01*
X139902866Y-129182998D02*
X139795117Y-129290747D01*
X139795117Y-129290747D02*
X139768179Y-129371560D01*
X139768179Y-129371560D02*
X139768179Y-129425434D01*
X139768179Y-129425434D02*
X139795117Y-129506247D01*
X139795117Y-129506247D02*
X139902866Y-129613996D01*
X139902866Y-129613996D02*
X139983679Y-129640934D01*
X139983679Y-129640934D02*
X140037553Y-129640934D01*
X140037553Y-129640934D02*
X140118366Y-129613996D01*
X140118366Y-129613996D02*
X140226115Y-129506247D01*
X140226115Y-129506247D02*
X140253053Y-129425434D01*
X140253053Y-129425434D02*
X140253053Y-129371560D01*
X140253053Y-129371560D02*
X140226115Y-129290747D01*
X140226115Y-129290747D02*
X140118366Y-129182998D01*
X140118366Y-129182998D02*
X140037553Y-129156060D01*
X140037553Y-129156060D02*
X139983679Y-129156060D01*
X139983679Y-129156060D02*
X139902866Y-129182998D01*
X164348372Y-142716494D02*
X164267560Y-142743431D01*
X164267560Y-142743431D02*
X164186748Y-142824243D01*
X164186748Y-142824243D02*
X164132873Y-142931993D01*
X164132873Y-142931993D02*
X164132873Y-143039742D01*
X164132873Y-143039742D02*
X164159810Y-143120555D01*
X164159810Y-143120555D02*
X164240623Y-143255242D01*
X164240623Y-143255242D02*
X164321435Y-143336054D01*
X164321435Y-143336054D02*
X164456122Y-143416866D01*
X164456122Y-143416866D02*
X164536934Y-143443803D01*
X164536934Y-143443803D02*
X164644684Y-143443803D01*
X164644684Y-143443803D02*
X164752433Y-143389929D01*
X164752433Y-143389929D02*
X164806308Y-143336054D01*
X164806308Y-143336054D02*
X164860183Y-143228304D01*
X164860183Y-143228304D02*
X164860183Y-143174429D01*
X164860183Y-143174429D02*
X164671621Y-142985868D01*
X164671621Y-142985868D02*
X164563871Y-143093617D01*
X165156494Y-142985868D02*
X164590809Y-142420182D01*
X164590809Y-142420182D02*
X164806308Y-142204683D01*
X164806308Y-142204683D02*
X164887120Y-142177746D01*
X164887120Y-142177746D02*
X164940995Y-142177746D01*
X164940995Y-142177746D02*
X165021807Y-142204683D01*
X165021807Y-142204683D02*
X165102619Y-142285495D01*
X165102619Y-142285495D02*
X165129557Y-142366307D01*
X165129557Y-142366307D02*
X165129557Y-142420182D01*
X165129557Y-142420182D02*
X165102619Y-142500994D01*
X165102619Y-142500994D02*
X164887120Y-142716494D01*
X166018491Y-142123871D02*
X165695242Y-142447120D01*
X165856867Y-142285495D02*
X165291181Y-141719810D01*
X165291181Y-141719810D02*
X165318119Y-141854497D01*
X165318119Y-141854497D02*
X165318119Y-141962246D01*
X165318119Y-141962246D02*
X165291181Y-142043059D01*
X164232998Y-104875868D02*
X164152185Y-104902805D01*
X164152185Y-104902805D02*
X164071373Y-104983618D01*
X164071373Y-104983618D02*
X164017498Y-105091367D01*
X164017498Y-105091367D02*
X164017498Y-105199117D01*
X164017498Y-105199117D02*
X164044436Y-105279929D01*
X164044436Y-105279929D02*
X164125248Y-105414616D01*
X164125248Y-105414616D02*
X164206060Y-105495428D01*
X164206060Y-105495428D02*
X164340747Y-105576241D01*
X164340747Y-105576241D02*
X164421560Y-105603178D01*
X164421560Y-105603178D02*
X164529309Y-105603178D01*
X164529309Y-105603178D02*
X164637059Y-105549303D01*
X164637059Y-105549303D02*
X164690934Y-105495428D01*
X164690934Y-105495428D02*
X164744808Y-105387679D01*
X164744808Y-105387679D02*
X164744808Y-105333804D01*
X164744808Y-105333804D02*
X164556247Y-105145242D01*
X164556247Y-105145242D02*
X164448497Y-105252992D01*
X165041120Y-105145242D02*
X164475434Y-104579557D01*
X164475434Y-104579557D02*
X164690934Y-104364057D01*
X164690934Y-104364057D02*
X164771746Y-104337120D01*
X164771746Y-104337120D02*
X164825621Y-104337120D01*
X164825621Y-104337120D02*
X164906433Y-104364057D01*
X164906433Y-104364057D02*
X164987245Y-104444870D01*
X164987245Y-104444870D02*
X165014182Y-104525682D01*
X165014182Y-104525682D02*
X165014182Y-104579557D01*
X165014182Y-104579557D02*
X164987245Y-104660369D01*
X164987245Y-104660369D02*
X164771746Y-104875868D01*
X165903117Y-104283245D02*
X165579868Y-104606494D01*
X165741492Y-104444870D02*
X165175807Y-103879184D01*
X165175807Y-103879184D02*
X165202744Y-104013871D01*
X165202744Y-104013871D02*
X165202744Y-104121621D01*
X165202744Y-104121621D02*
X165175807Y-104202433D01*
X165525993Y-103528998D02*
X165876179Y-103178812D01*
X165876179Y-103178812D02*
X165903117Y-103582873D01*
X165903117Y-103582873D02*
X165983929Y-103502060D01*
X165983929Y-103502060D02*
X166064741Y-103475123D01*
X166064741Y-103475123D02*
X166118616Y-103475123D01*
X166118616Y-103475123D02*
X166199428Y-103502060D01*
X166199428Y-103502060D02*
X166334115Y-103636747D01*
X166334115Y-103636747D02*
X166361053Y-103717560D01*
X166361053Y-103717560D02*
X166361053Y-103771434D01*
X166361053Y-103771434D02*
X166334115Y-103852247D01*
X166334115Y-103852247D02*
X166172491Y-104013871D01*
X166172491Y-104013871D02*
X166091679Y-104040808D01*
X166091679Y-104040808D02*
X166037804Y-104040808D01*
X164348372Y-137626494D02*
X164267560Y-137653431D01*
X164267560Y-137653431D02*
X164186748Y-137734243D01*
X164186748Y-137734243D02*
X164132873Y-137841993D01*
X164132873Y-137841993D02*
X164132873Y-137949742D01*
X164132873Y-137949742D02*
X164159810Y-138030555D01*
X164159810Y-138030555D02*
X164240623Y-138165242D01*
X164240623Y-138165242D02*
X164321435Y-138246054D01*
X164321435Y-138246054D02*
X164456122Y-138326866D01*
X164456122Y-138326866D02*
X164536934Y-138353803D01*
X164536934Y-138353803D02*
X164644684Y-138353803D01*
X164644684Y-138353803D02*
X164752433Y-138299929D01*
X164752433Y-138299929D02*
X164806308Y-138246054D01*
X164806308Y-138246054D02*
X164860183Y-138138304D01*
X164860183Y-138138304D02*
X164860183Y-138084429D01*
X164860183Y-138084429D02*
X164671621Y-137895868D01*
X164671621Y-137895868D02*
X164563871Y-138003617D01*
X165156494Y-137895868D02*
X164590809Y-137330182D01*
X164590809Y-137330182D02*
X164806308Y-137114683D01*
X164806308Y-137114683D02*
X164887120Y-137087746D01*
X164887120Y-137087746D02*
X164940995Y-137087746D01*
X164940995Y-137087746D02*
X165021807Y-137114683D01*
X165021807Y-137114683D02*
X165102619Y-137195495D01*
X165102619Y-137195495D02*
X165129557Y-137276307D01*
X165129557Y-137276307D02*
X165129557Y-137330182D01*
X165129557Y-137330182D02*
X165102619Y-137410994D01*
X165102619Y-137410994D02*
X164887120Y-137626494D01*
X165183432Y-136845309D02*
X165183432Y-136791434D01*
X165183432Y-136791434D02*
X165210369Y-136710622D01*
X165210369Y-136710622D02*
X165345056Y-136575935D01*
X165345056Y-136575935D02*
X165425868Y-136548998D01*
X165425868Y-136548998D02*
X165479743Y-136548998D01*
X165479743Y-136548998D02*
X165560555Y-136575935D01*
X165560555Y-136575935D02*
X165614430Y-136629810D01*
X165614430Y-136629810D02*
X165668305Y-136737559D01*
X165668305Y-136737559D02*
X165668305Y-137384057D01*
X165668305Y-137384057D02*
X166018491Y-137033871D01*
X164248372Y-130006494D02*
X164167560Y-130033431D01*
X164167560Y-130033431D02*
X164086748Y-130114243D01*
X164086748Y-130114243D02*
X164032873Y-130221993D01*
X164032873Y-130221993D02*
X164032873Y-130329742D01*
X164032873Y-130329742D02*
X164059810Y-130410555D01*
X164059810Y-130410555D02*
X164140623Y-130545242D01*
X164140623Y-130545242D02*
X164221435Y-130626054D01*
X164221435Y-130626054D02*
X164356122Y-130706866D01*
X164356122Y-130706866D02*
X164436934Y-130733803D01*
X164436934Y-130733803D02*
X164544684Y-130733803D01*
X164544684Y-130733803D02*
X164652433Y-130679929D01*
X164652433Y-130679929D02*
X164706308Y-130626054D01*
X164706308Y-130626054D02*
X164760183Y-130518304D01*
X164760183Y-130518304D02*
X164760183Y-130464429D01*
X164760183Y-130464429D02*
X164571621Y-130275868D01*
X164571621Y-130275868D02*
X164463871Y-130383617D01*
X165056494Y-130275868D02*
X164490809Y-129710182D01*
X164490809Y-129710182D02*
X164706308Y-129494683D01*
X164706308Y-129494683D02*
X164787120Y-129467746D01*
X164787120Y-129467746D02*
X164840995Y-129467746D01*
X164840995Y-129467746D02*
X164921807Y-129494683D01*
X164921807Y-129494683D02*
X165002619Y-129575495D01*
X165002619Y-129575495D02*
X165029557Y-129656307D01*
X165029557Y-129656307D02*
X165029557Y-129710182D01*
X165029557Y-129710182D02*
X165002619Y-129790994D01*
X165002619Y-129790994D02*
X164787120Y-130006494D01*
X165325868Y-128875123D02*
X165056494Y-129144497D01*
X165056494Y-129144497D02*
X165298931Y-129440808D01*
X165298931Y-129440808D02*
X165298931Y-129386933D01*
X165298931Y-129386933D02*
X165325868Y-129306121D01*
X165325868Y-129306121D02*
X165460555Y-129171434D01*
X165460555Y-129171434D02*
X165541367Y-129144497D01*
X165541367Y-129144497D02*
X165595242Y-129144497D01*
X165595242Y-129144497D02*
X165676054Y-129171434D01*
X165676054Y-129171434D02*
X165810741Y-129306121D01*
X165810741Y-129306121D02*
X165837679Y-129386933D01*
X165837679Y-129386933D02*
X165837679Y-129440808D01*
X165837679Y-129440808D02*
X165810741Y-129521620D01*
X165810741Y-129521620D02*
X165676054Y-129656307D01*
X165676054Y-129656307D02*
X165595242Y-129683245D01*
X165595242Y-129683245D02*
X165541367Y-129683245D01*
X164278998Y-99795868D02*
X164198185Y-99822805D01*
X164198185Y-99822805D02*
X164117373Y-99903618D01*
X164117373Y-99903618D02*
X164063498Y-100011367D01*
X164063498Y-100011367D02*
X164063498Y-100119117D01*
X164063498Y-100119117D02*
X164090436Y-100199929D01*
X164090436Y-100199929D02*
X164171248Y-100334616D01*
X164171248Y-100334616D02*
X164252060Y-100415428D01*
X164252060Y-100415428D02*
X164386747Y-100496241D01*
X164386747Y-100496241D02*
X164467560Y-100523178D01*
X164467560Y-100523178D02*
X164575309Y-100523178D01*
X164575309Y-100523178D02*
X164683059Y-100469303D01*
X164683059Y-100469303D02*
X164736934Y-100415428D01*
X164736934Y-100415428D02*
X164790808Y-100307679D01*
X164790808Y-100307679D02*
X164790808Y-100253804D01*
X164790808Y-100253804D02*
X164602247Y-100065242D01*
X164602247Y-100065242D02*
X164494497Y-100172992D01*
X165087120Y-100065242D02*
X164521434Y-99499557D01*
X164521434Y-99499557D02*
X164736934Y-99284057D01*
X164736934Y-99284057D02*
X164817746Y-99257120D01*
X164817746Y-99257120D02*
X164871621Y-99257120D01*
X164871621Y-99257120D02*
X164952433Y-99284057D01*
X164952433Y-99284057D02*
X165033245Y-99364870D01*
X165033245Y-99364870D02*
X165060182Y-99445682D01*
X165060182Y-99445682D02*
X165060182Y-99499557D01*
X165060182Y-99499557D02*
X165033245Y-99580369D01*
X165033245Y-99580369D02*
X164817746Y-99795868D01*
X165949117Y-99203245D02*
X165625868Y-99526494D01*
X165787492Y-99364870D02*
X165221807Y-98799184D01*
X165221807Y-98799184D02*
X165248744Y-98933871D01*
X165248744Y-98933871D02*
X165248744Y-99041621D01*
X165248744Y-99041621D02*
X165221807Y-99122433D01*
X166056866Y-98341248D02*
X166433990Y-98718372D01*
X165706680Y-98260436D02*
X165976054Y-98799184D01*
X165976054Y-98799184D02*
X166326240Y-98448998D01*
X164248372Y-124926494D02*
X164167560Y-124953431D01*
X164167560Y-124953431D02*
X164086748Y-125034243D01*
X164086748Y-125034243D02*
X164032873Y-125141993D01*
X164032873Y-125141993D02*
X164032873Y-125249742D01*
X164032873Y-125249742D02*
X164059810Y-125330555D01*
X164059810Y-125330555D02*
X164140623Y-125465242D01*
X164140623Y-125465242D02*
X164221435Y-125546054D01*
X164221435Y-125546054D02*
X164356122Y-125626866D01*
X164356122Y-125626866D02*
X164436934Y-125653803D01*
X164436934Y-125653803D02*
X164544684Y-125653803D01*
X164544684Y-125653803D02*
X164652433Y-125599929D01*
X164652433Y-125599929D02*
X164706308Y-125546054D01*
X164706308Y-125546054D02*
X164760183Y-125438304D01*
X164760183Y-125438304D02*
X164760183Y-125384429D01*
X164760183Y-125384429D02*
X164571621Y-125195868D01*
X164571621Y-125195868D02*
X164463871Y-125303617D01*
X165056494Y-125195868D02*
X164490809Y-124630182D01*
X164490809Y-124630182D02*
X164706308Y-124414683D01*
X164706308Y-124414683D02*
X164787120Y-124387746D01*
X164787120Y-124387746D02*
X164840995Y-124387746D01*
X164840995Y-124387746D02*
X164921807Y-124414683D01*
X164921807Y-124414683D02*
X165002619Y-124495495D01*
X165002619Y-124495495D02*
X165029557Y-124576307D01*
X165029557Y-124576307D02*
X165029557Y-124630182D01*
X165029557Y-124630182D02*
X165002619Y-124710994D01*
X165002619Y-124710994D02*
X164787120Y-124926494D01*
X165298931Y-123822060D02*
X165191181Y-123929810D01*
X165191181Y-123929810D02*
X165164244Y-124010622D01*
X165164244Y-124010622D02*
X165164244Y-124064497D01*
X165164244Y-124064497D02*
X165191181Y-124199184D01*
X165191181Y-124199184D02*
X165271993Y-124333871D01*
X165271993Y-124333871D02*
X165487493Y-124549370D01*
X165487493Y-124549370D02*
X165568305Y-124576307D01*
X165568305Y-124576307D02*
X165622180Y-124576307D01*
X165622180Y-124576307D02*
X165702992Y-124549370D01*
X165702992Y-124549370D02*
X165810741Y-124441620D01*
X165810741Y-124441620D02*
X165837679Y-124360808D01*
X165837679Y-124360808D02*
X165837679Y-124306933D01*
X165837679Y-124306933D02*
X165810741Y-124226121D01*
X165810741Y-124226121D02*
X165676054Y-124091434D01*
X165676054Y-124091434D02*
X165595242Y-124064497D01*
X165595242Y-124064497D02*
X165541367Y-124064497D01*
X165541367Y-124064497D02*
X165460555Y-124091434D01*
X165460555Y-124091434D02*
X165352806Y-124199184D01*
X165352806Y-124199184D02*
X165325868Y-124279996D01*
X165325868Y-124279996D02*
X165325868Y-124333871D01*
X165325868Y-124333871D02*
X165352806Y-124414683D01*
X156025475Y-95119200D02*
X156139761Y-95157295D01*
X156139761Y-95157295D02*
X156330237Y-95157295D01*
X156330237Y-95157295D02*
X156406428Y-95119200D01*
X156406428Y-95119200D02*
X156444523Y-95081104D01*
X156444523Y-95081104D02*
X156482618Y-95004914D01*
X156482618Y-95004914D02*
X156482618Y-94928723D01*
X156482618Y-94928723D02*
X156444523Y-94852533D01*
X156444523Y-94852533D02*
X156406428Y-94814438D01*
X156406428Y-94814438D02*
X156330237Y-94776342D01*
X156330237Y-94776342D02*
X156177856Y-94738247D01*
X156177856Y-94738247D02*
X156101666Y-94700152D01*
X156101666Y-94700152D02*
X156063571Y-94662057D01*
X156063571Y-94662057D02*
X156025475Y-94585866D01*
X156025475Y-94585866D02*
X156025475Y-94509676D01*
X156025475Y-94509676D02*
X156063571Y-94433485D01*
X156063571Y-94433485D02*
X156101666Y-94395390D01*
X156101666Y-94395390D02*
X156177856Y-94357295D01*
X156177856Y-94357295D02*
X156368333Y-94357295D01*
X156368333Y-94357295D02*
X156482618Y-94395390D01*
X156749285Y-94357295D02*
X156939761Y-95157295D01*
X156939761Y-95157295D02*
X157092142Y-94585866D01*
X157092142Y-94585866D02*
X157244523Y-95157295D01*
X157244523Y-95157295D02*
X157435000Y-94357295D01*
X158196905Y-95081104D02*
X158158809Y-95119200D01*
X158158809Y-95119200D02*
X158044524Y-95157295D01*
X158044524Y-95157295D02*
X157968333Y-95157295D01*
X157968333Y-95157295D02*
X157854047Y-95119200D01*
X157854047Y-95119200D02*
X157777857Y-95043009D01*
X157777857Y-95043009D02*
X157739762Y-94966819D01*
X157739762Y-94966819D02*
X157701666Y-94814438D01*
X157701666Y-94814438D02*
X157701666Y-94700152D01*
X157701666Y-94700152D02*
X157739762Y-94547771D01*
X157739762Y-94547771D02*
X157777857Y-94471580D01*
X157777857Y-94471580D02*
X157854047Y-94395390D01*
X157854047Y-94395390D02*
X157968333Y-94357295D01*
X157968333Y-94357295D02*
X158044524Y-94357295D01*
X158044524Y-94357295D02*
X158158809Y-94395390D01*
X158158809Y-94395390D02*
X158196905Y-94433485D01*
X158920714Y-95157295D02*
X158539762Y-95157295D01*
X158539762Y-95157295D02*
X158539762Y-94357295D01*
X159187381Y-95157295D02*
X159187381Y-94357295D01*
X159644524Y-95157295D02*
X159301666Y-94700152D01*
X159644524Y-94357295D02*
X159187381Y-94814438D01*
X144839761Y-95119200D02*
X144954047Y-95157295D01*
X144954047Y-95157295D02*
X145144523Y-95157295D01*
X145144523Y-95157295D02*
X145220714Y-95119200D01*
X145220714Y-95119200D02*
X145258809Y-95081104D01*
X145258809Y-95081104D02*
X145296904Y-95004914D01*
X145296904Y-95004914D02*
X145296904Y-94928723D01*
X145296904Y-94928723D02*
X145258809Y-94852533D01*
X145258809Y-94852533D02*
X145220714Y-94814438D01*
X145220714Y-94814438D02*
X145144523Y-94776342D01*
X145144523Y-94776342D02*
X144992142Y-94738247D01*
X144992142Y-94738247D02*
X144915952Y-94700152D01*
X144915952Y-94700152D02*
X144877857Y-94662057D01*
X144877857Y-94662057D02*
X144839761Y-94585866D01*
X144839761Y-94585866D02*
X144839761Y-94509676D01*
X144839761Y-94509676D02*
X144877857Y-94433485D01*
X144877857Y-94433485D02*
X144915952Y-94395390D01*
X144915952Y-94395390D02*
X144992142Y-94357295D01*
X144992142Y-94357295D02*
X145182619Y-94357295D01*
X145182619Y-94357295D02*
X145296904Y-94395390D01*
X145563571Y-94357295D02*
X145754047Y-95157295D01*
X145754047Y-95157295D02*
X145906428Y-94585866D01*
X145906428Y-94585866D02*
X146058809Y-95157295D01*
X146058809Y-95157295D02*
X146249286Y-94357295D01*
X146554048Y-95157295D02*
X146554048Y-94357295D01*
X146554048Y-94357295D02*
X146744524Y-94357295D01*
X146744524Y-94357295D02*
X146858810Y-94395390D01*
X146858810Y-94395390D02*
X146935000Y-94471580D01*
X146935000Y-94471580D02*
X146973095Y-94547771D01*
X146973095Y-94547771D02*
X147011191Y-94700152D01*
X147011191Y-94700152D02*
X147011191Y-94814438D01*
X147011191Y-94814438D02*
X146973095Y-94966819D01*
X146973095Y-94966819D02*
X146935000Y-95043009D01*
X146935000Y-95043009D02*
X146858810Y-95119200D01*
X146858810Y-95119200D02*
X146744524Y-95157295D01*
X146744524Y-95157295D02*
X146554048Y-95157295D01*
X147354048Y-95157295D02*
X147354048Y-94357295D01*
X147887381Y-94357295D02*
X148039762Y-94357295D01*
X148039762Y-94357295D02*
X148115952Y-94395390D01*
X148115952Y-94395390D02*
X148192143Y-94471580D01*
X148192143Y-94471580D02*
X148230238Y-94623961D01*
X148230238Y-94623961D02*
X148230238Y-94890628D01*
X148230238Y-94890628D02*
X148192143Y-95043009D01*
X148192143Y-95043009D02*
X148115952Y-95119200D01*
X148115952Y-95119200D02*
X148039762Y-95157295D01*
X148039762Y-95157295D02*
X147887381Y-95157295D01*
X147887381Y-95157295D02*
X147811190Y-95119200D01*
X147811190Y-95119200D02*
X147735000Y-95043009D01*
X147735000Y-95043009D02*
X147696904Y-94890628D01*
X147696904Y-94890628D02*
X147696904Y-94623961D01*
X147696904Y-94623961D02*
X147735000Y-94471580D01*
X147735000Y-94471580D02*
X147811190Y-94395390D01*
X147811190Y-94395390D02*
X147887381Y-94357295D01*
X164221435Y-114793431D02*
X164140623Y-114820368D01*
X164140623Y-114820368D02*
X164059811Y-114901180D01*
X164059811Y-114901180D02*
X164005936Y-115008930D01*
X164005936Y-115008930D02*
X164005936Y-115116680D01*
X164005936Y-115116680D02*
X164032873Y-115197492D01*
X164032873Y-115197492D02*
X164113685Y-115332179D01*
X164113685Y-115332179D02*
X164194498Y-115412991D01*
X164194498Y-115412991D02*
X164329185Y-115493803D01*
X164329185Y-115493803D02*
X164409997Y-115520741D01*
X164409997Y-115520741D02*
X164517746Y-115520741D01*
X164517746Y-115520741D02*
X164625496Y-115466866D01*
X164625496Y-115466866D02*
X164679371Y-115412991D01*
X164679371Y-115412991D02*
X164733246Y-115305241D01*
X164733246Y-115305241D02*
X164733246Y-115251367D01*
X164733246Y-115251367D02*
X164544684Y-115062805D01*
X164544684Y-115062805D02*
X164436934Y-115170554D01*
X165029557Y-115062805D02*
X164463872Y-114497119D01*
X164463872Y-114497119D02*
X165352806Y-114739556D01*
X165352806Y-114739556D02*
X164787120Y-114173871D01*
X165622180Y-114470182D02*
X165056494Y-113904497D01*
X165056494Y-113904497D02*
X165191181Y-113769810D01*
X165191181Y-113769810D02*
X165298931Y-113715935D01*
X165298931Y-113715935D02*
X165406680Y-113715935D01*
X165406680Y-113715935D02*
X165487493Y-113742872D01*
X165487493Y-113742872D02*
X165622180Y-113823685D01*
X165622180Y-113823685D02*
X165702992Y-113904497D01*
X165702992Y-113904497D02*
X165783804Y-114039184D01*
X165783804Y-114039184D02*
X165810741Y-114119996D01*
X165810741Y-114119996D02*
X165810741Y-114227746D01*
X165810741Y-114227746D02*
X165756867Y-114335495D01*
X165756867Y-114335495D02*
X165622180Y-114470182D01*
X164378998Y-109955868D02*
X164298185Y-109982805D01*
X164298185Y-109982805D02*
X164217373Y-110063618D01*
X164217373Y-110063618D02*
X164163498Y-110171367D01*
X164163498Y-110171367D02*
X164163498Y-110279117D01*
X164163498Y-110279117D02*
X164190436Y-110359929D01*
X164190436Y-110359929D02*
X164271248Y-110494616D01*
X164271248Y-110494616D02*
X164352060Y-110575428D01*
X164352060Y-110575428D02*
X164486747Y-110656241D01*
X164486747Y-110656241D02*
X164567560Y-110683178D01*
X164567560Y-110683178D02*
X164675309Y-110683178D01*
X164675309Y-110683178D02*
X164783059Y-110629303D01*
X164783059Y-110629303D02*
X164836934Y-110575428D01*
X164836934Y-110575428D02*
X164890808Y-110467679D01*
X164890808Y-110467679D02*
X164890808Y-110413804D01*
X164890808Y-110413804D02*
X164702247Y-110225242D01*
X164702247Y-110225242D02*
X164594497Y-110332992D01*
X165187120Y-110225242D02*
X164621434Y-109659557D01*
X164621434Y-109659557D02*
X164836934Y-109444057D01*
X164836934Y-109444057D02*
X164917746Y-109417120D01*
X164917746Y-109417120D02*
X164971621Y-109417120D01*
X164971621Y-109417120D02*
X165052433Y-109444057D01*
X165052433Y-109444057D02*
X165133245Y-109524870D01*
X165133245Y-109524870D02*
X165160182Y-109605682D01*
X165160182Y-109605682D02*
X165160182Y-109659557D01*
X165160182Y-109659557D02*
X165133245Y-109740369D01*
X165133245Y-109740369D02*
X164917746Y-109955868D01*
X166049117Y-109363245D02*
X165725868Y-109686494D01*
X165887492Y-109524870D02*
X165321807Y-108959184D01*
X165321807Y-108959184D02*
X165348744Y-109093871D01*
X165348744Y-109093871D02*
X165348744Y-109201621D01*
X165348744Y-109201621D02*
X165321807Y-109282433D01*
X166587865Y-108824497D02*
X166264616Y-109147746D01*
X166426240Y-108986121D02*
X165860555Y-108420436D01*
X165860555Y-108420436D02*
X165887492Y-108555123D01*
X165887492Y-108555123D02*
X165887492Y-108662873D01*
X165887492Y-108662873D02*
X165860555Y-108743685D01*
X138124998Y-99795868D02*
X138044185Y-99822805D01*
X138044185Y-99822805D02*
X137963373Y-99903618D01*
X137963373Y-99903618D02*
X137909498Y-100011367D01*
X137909498Y-100011367D02*
X137909498Y-100119117D01*
X137909498Y-100119117D02*
X137936436Y-100199929D01*
X137936436Y-100199929D02*
X138017248Y-100334616D01*
X138017248Y-100334616D02*
X138098060Y-100415428D01*
X138098060Y-100415428D02*
X138232747Y-100496241D01*
X138232747Y-100496241D02*
X138313560Y-100523178D01*
X138313560Y-100523178D02*
X138421309Y-100523178D01*
X138421309Y-100523178D02*
X138529059Y-100469303D01*
X138529059Y-100469303D02*
X138582934Y-100415428D01*
X138582934Y-100415428D02*
X138636808Y-100307679D01*
X138636808Y-100307679D02*
X138636808Y-100253804D01*
X138636808Y-100253804D02*
X138448247Y-100065242D01*
X138448247Y-100065242D02*
X138340497Y-100172992D01*
X138933120Y-100065242D02*
X138367434Y-99499557D01*
X138367434Y-99499557D02*
X138582934Y-99284057D01*
X138582934Y-99284057D02*
X138663746Y-99257120D01*
X138663746Y-99257120D02*
X138717621Y-99257120D01*
X138717621Y-99257120D02*
X138798433Y-99284057D01*
X138798433Y-99284057D02*
X138879245Y-99364870D01*
X138879245Y-99364870D02*
X138906182Y-99445682D01*
X138906182Y-99445682D02*
X138906182Y-99499557D01*
X138906182Y-99499557D02*
X138879245Y-99580369D01*
X138879245Y-99580369D02*
X138663746Y-99795868D01*
X139795117Y-99203245D02*
X139471868Y-99526494D01*
X139633492Y-99364870D02*
X139067807Y-98799184D01*
X139067807Y-98799184D02*
X139094744Y-98933871D01*
X139094744Y-98933871D02*
X139094744Y-99041621D01*
X139094744Y-99041621D02*
X139067807Y-99122433D01*
X139417993Y-98448998D02*
X139795117Y-98071874D01*
X139795117Y-98071874D02*
X140118366Y-98879996D01*
X136290064Y-135529049D02*
X136559438Y-135259675D01*
X136397813Y-135744549D02*
X136020690Y-134990301D01*
X136020690Y-134990301D02*
X136774937Y-135367425D01*
X136963499Y-135178863D02*
X136397813Y-134613178D01*
X136397813Y-134613178D02*
X136532500Y-134478491D01*
X136532500Y-134478491D02*
X136640250Y-134424616D01*
X136640250Y-134424616D02*
X136747999Y-134424616D01*
X136747999Y-134424616D02*
X136828812Y-134451553D01*
X136828812Y-134451553D02*
X136963499Y-134532366D01*
X136963499Y-134532366D02*
X137044311Y-134613178D01*
X137044311Y-134613178D02*
X137125123Y-134747865D01*
X137125123Y-134747865D02*
X137152060Y-134828677D01*
X137152060Y-134828677D02*
X137152060Y-134936427D01*
X137152060Y-134936427D02*
X137098186Y-135044176D01*
X137098186Y-135044176D02*
X136963499Y-135178863D01*
X137798558Y-134236054D02*
X137798558Y-134289929D01*
X137798558Y-134289929D02*
X137744683Y-134397679D01*
X137744683Y-134397679D02*
X137690808Y-134451553D01*
X137690808Y-134451553D02*
X137583059Y-134505428D01*
X137583059Y-134505428D02*
X137475309Y-134505428D01*
X137475309Y-134505428D02*
X137394497Y-134478491D01*
X137394497Y-134478491D02*
X137259810Y-134397679D01*
X137259810Y-134397679D02*
X137178998Y-134316866D01*
X137178998Y-134316866D02*
X137098186Y-134182179D01*
X137098186Y-134182179D02*
X137071248Y-134101367D01*
X137071248Y-134101367D02*
X137071248Y-133993618D01*
X137071248Y-133993618D02*
X137125123Y-133885868D01*
X137125123Y-133885868D02*
X137178998Y-133831993D01*
X137178998Y-133831993D02*
X137286747Y-133778118D01*
X137286747Y-133778118D02*
X137340622Y-133778118D01*
X138014057Y-134236054D02*
X138445056Y-133805056D01*
X137879370Y-133131621D02*
X138633618Y-133508744D01*
X138633618Y-133508744D02*
X138256494Y-132754497D01*
X139333990Y-132808372D02*
X138876054Y-132727560D01*
X139010741Y-133131621D02*
X138445056Y-132565935D01*
X138445056Y-132565935D02*
X138660555Y-132350436D01*
X138660555Y-132350436D02*
X138741367Y-132323499D01*
X138741367Y-132323499D02*
X138795242Y-132323499D01*
X138795242Y-132323499D02*
X138876054Y-132350436D01*
X138876054Y-132350436D02*
X138956866Y-132431248D01*
X138956866Y-132431248D02*
X138983804Y-132512061D01*
X138983804Y-132512061D02*
X138983804Y-132565935D01*
X138983804Y-132565935D02*
X138956866Y-132646748D01*
X138956866Y-132646748D02*
X138741367Y-132862247D01*
X139280115Y-132269624D02*
X139468677Y-132081062D01*
X139845800Y-132296561D02*
X139576426Y-132565935D01*
X139576426Y-132565935D02*
X139010741Y-132000250D01*
X139010741Y-132000250D02*
X139280115Y-131730876D01*
X139980488Y-131569251D02*
X139791926Y-131757813D01*
X140088237Y-132054125D02*
X139522552Y-131488439D01*
X139522552Y-131488439D02*
X139791926Y-131219065D01*
X164248372Y-117306494D02*
X164167560Y-117333431D01*
X164167560Y-117333431D02*
X164086748Y-117414243D01*
X164086748Y-117414243D02*
X164032873Y-117521993D01*
X164032873Y-117521993D02*
X164032873Y-117629742D01*
X164032873Y-117629742D02*
X164059810Y-117710555D01*
X164059810Y-117710555D02*
X164140623Y-117845242D01*
X164140623Y-117845242D02*
X164221435Y-117926054D01*
X164221435Y-117926054D02*
X164356122Y-118006866D01*
X164356122Y-118006866D02*
X164436934Y-118033803D01*
X164436934Y-118033803D02*
X164544684Y-118033803D01*
X164544684Y-118033803D02*
X164652433Y-117979929D01*
X164652433Y-117979929D02*
X164706308Y-117926054D01*
X164706308Y-117926054D02*
X164760183Y-117818304D01*
X164760183Y-117818304D02*
X164760183Y-117764429D01*
X164760183Y-117764429D02*
X164571621Y-117575868D01*
X164571621Y-117575868D02*
X164463871Y-117683617D01*
X165056494Y-117575868D02*
X164490809Y-117010182D01*
X164490809Y-117010182D02*
X164706308Y-116794683D01*
X164706308Y-116794683D02*
X164787120Y-116767746D01*
X164787120Y-116767746D02*
X164840995Y-116767746D01*
X164840995Y-116767746D02*
X164921807Y-116794683D01*
X164921807Y-116794683D02*
X165002619Y-116875495D01*
X165002619Y-116875495D02*
X165029557Y-116956307D01*
X165029557Y-116956307D02*
X165029557Y-117010182D01*
X165029557Y-117010182D02*
X165002619Y-117090994D01*
X165002619Y-117090994D02*
X164787120Y-117306494D01*
X165649117Y-116983245D02*
X165756867Y-116875495D01*
X165756867Y-116875495D02*
X165783804Y-116794683D01*
X165783804Y-116794683D02*
X165783804Y-116740808D01*
X165783804Y-116740808D02*
X165756867Y-116606121D01*
X165756867Y-116606121D02*
X165676054Y-116471434D01*
X165676054Y-116471434D02*
X165460555Y-116255935D01*
X165460555Y-116255935D02*
X165379743Y-116228998D01*
X165379743Y-116228998D02*
X165325868Y-116228998D01*
X165325868Y-116228998D02*
X165245056Y-116255935D01*
X165245056Y-116255935D02*
X165137306Y-116363685D01*
X165137306Y-116363685D02*
X165110369Y-116444497D01*
X165110369Y-116444497D02*
X165110369Y-116498372D01*
X165110369Y-116498372D02*
X165137306Y-116579184D01*
X165137306Y-116579184D02*
X165271993Y-116713871D01*
X165271993Y-116713871D02*
X165352806Y-116740808D01*
X165352806Y-116740808D02*
X165406680Y-116740808D01*
X165406680Y-116740808D02*
X165487493Y-116713871D01*
X165487493Y-116713871D02*
X165595242Y-116606121D01*
X165595242Y-116606121D02*
X165622180Y-116525309D01*
X165622180Y-116525309D02*
X165622180Y-116471434D01*
X165622180Y-116471434D02*
X165595242Y-116390622D01*
X138124998Y-112485868D02*
X138044185Y-112512805D01*
X138044185Y-112512805D02*
X137963373Y-112593618D01*
X137963373Y-112593618D02*
X137909498Y-112701367D01*
X137909498Y-112701367D02*
X137909498Y-112809117D01*
X137909498Y-112809117D02*
X137936436Y-112889929D01*
X137936436Y-112889929D02*
X138017248Y-113024616D01*
X138017248Y-113024616D02*
X138098060Y-113105428D01*
X138098060Y-113105428D02*
X138232747Y-113186241D01*
X138232747Y-113186241D02*
X138313560Y-113213178D01*
X138313560Y-113213178D02*
X138421309Y-113213178D01*
X138421309Y-113213178D02*
X138529059Y-113159303D01*
X138529059Y-113159303D02*
X138582934Y-113105428D01*
X138582934Y-113105428D02*
X138636808Y-112997679D01*
X138636808Y-112997679D02*
X138636808Y-112943804D01*
X138636808Y-112943804D02*
X138448247Y-112755242D01*
X138448247Y-112755242D02*
X138340497Y-112862992D01*
X138933120Y-112755242D02*
X138367434Y-112189557D01*
X138367434Y-112189557D02*
X138582934Y-111974057D01*
X138582934Y-111974057D02*
X138663746Y-111947120D01*
X138663746Y-111947120D02*
X138717621Y-111947120D01*
X138717621Y-111947120D02*
X138798433Y-111974057D01*
X138798433Y-111974057D02*
X138879245Y-112054870D01*
X138879245Y-112054870D02*
X138906182Y-112135682D01*
X138906182Y-112135682D02*
X138906182Y-112189557D01*
X138906182Y-112189557D02*
X138879245Y-112270369D01*
X138879245Y-112270369D02*
X138663746Y-112485868D01*
X138960057Y-111704683D02*
X138960057Y-111650809D01*
X138960057Y-111650809D02*
X138986995Y-111569996D01*
X138986995Y-111569996D02*
X139121682Y-111435309D01*
X139121682Y-111435309D02*
X139202494Y-111408372D01*
X139202494Y-111408372D02*
X139256369Y-111408372D01*
X139256369Y-111408372D02*
X139337181Y-111435309D01*
X139337181Y-111435309D02*
X139391056Y-111489184D01*
X139391056Y-111489184D02*
X139444930Y-111596934D01*
X139444930Y-111596934D02*
X139444930Y-112243431D01*
X139444930Y-112243431D02*
X139795117Y-111893245D01*
X140333865Y-111354497D02*
X140010616Y-111677746D01*
X140172240Y-111516121D02*
X139606555Y-110950436D01*
X139606555Y-110950436D02*
X139633492Y-111085123D01*
X139633492Y-111085123D02*
X139633492Y-111192873D01*
X139633492Y-111192873D02*
X139606555Y-111273685D01*
X138178873Y-128436240D02*
X138448247Y-128166866D01*
X138286623Y-128651739D02*
X137909499Y-127897492D01*
X137909499Y-127897492D02*
X138663746Y-128274615D01*
X138609871Y-127250994D02*
X138529059Y-127277932D01*
X138529059Y-127277932D02*
X138448247Y-127358744D01*
X138448247Y-127358744D02*
X138394372Y-127466494D01*
X138394372Y-127466494D02*
X138394372Y-127574243D01*
X138394372Y-127574243D02*
X138421310Y-127655055D01*
X138421310Y-127655055D02*
X138502122Y-127789742D01*
X138502122Y-127789742D02*
X138582934Y-127870555D01*
X138582934Y-127870555D02*
X138717621Y-127951367D01*
X138717621Y-127951367D02*
X138798433Y-127978304D01*
X138798433Y-127978304D02*
X138906183Y-127978304D01*
X138906183Y-127978304D02*
X139013932Y-127924429D01*
X139013932Y-127924429D02*
X139067807Y-127870555D01*
X139067807Y-127870555D02*
X139121682Y-127762805D01*
X139121682Y-127762805D02*
X139121682Y-127708930D01*
X139121682Y-127708930D02*
X138933120Y-127520368D01*
X138933120Y-127520368D02*
X138825371Y-127628118D01*
X139417993Y-127520368D02*
X138852308Y-126954683D01*
X138852308Y-126954683D02*
X139741242Y-127197120D01*
X139741242Y-127197120D02*
X139175557Y-126631434D01*
X140010616Y-126927746D02*
X139444931Y-126362060D01*
X139444931Y-126362060D02*
X139579618Y-126227373D01*
X139579618Y-126227373D02*
X139687367Y-126173498D01*
X139687367Y-126173498D02*
X139795117Y-126173498D01*
X139795117Y-126173498D02*
X139875929Y-126200436D01*
X139875929Y-126200436D02*
X140010616Y-126281248D01*
X140010616Y-126281248D02*
X140091428Y-126362060D01*
X140091428Y-126362060D02*
X140172241Y-126496747D01*
X140172241Y-126496747D02*
X140199178Y-126577560D01*
X140199178Y-126577560D02*
X140199178Y-126685309D01*
X140199178Y-126685309D02*
X140145303Y-126793059D01*
X140145303Y-126793059D02*
X140010616Y-126927746D01*
X137488406Y-145922585D02*
X138242653Y-146299709D01*
X138242653Y-146299709D02*
X137865529Y-145545462D01*
X138512027Y-145437712D02*
X138619776Y-145383838D01*
X138619776Y-145383838D02*
X138673651Y-145383838D01*
X138673651Y-145383838D02*
X138754463Y-145410775D01*
X138754463Y-145410775D02*
X138835276Y-145491587D01*
X138835276Y-145491587D02*
X138862213Y-145572399D01*
X138862213Y-145572399D02*
X138862213Y-145626274D01*
X138862213Y-145626274D02*
X138835276Y-145707086D01*
X138835276Y-145707086D02*
X138619776Y-145922586D01*
X138619776Y-145922586D02*
X138054091Y-145356900D01*
X138054091Y-145356900D02*
X138242653Y-145168338D01*
X138242653Y-145168338D02*
X138323465Y-145141401D01*
X138323465Y-145141401D02*
X138377340Y-145141401D01*
X138377340Y-145141401D02*
X138458152Y-145168338D01*
X138458152Y-145168338D02*
X138512027Y-145222213D01*
X138512027Y-145222213D02*
X138538964Y-145303025D01*
X138538964Y-145303025D02*
X138538964Y-145356900D01*
X138538964Y-145356900D02*
X138512027Y-145437712D01*
X138512027Y-145437712D02*
X138323465Y-145626274D01*
X138619776Y-144791215D02*
X139077712Y-145249151D01*
X139077712Y-145249151D02*
X139158524Y-145276088D01*
X139158524Y-145276088D02*
X139212399Y-145276088D01*
X139212399Y-145276088D02*
X139293211Y-145249151D01*
X139293211Y-145249151D02*
X139400961Y-145141401D01*
X139400961Y-145141401D02*
X139427898Y-145060589D01*
X139427898Y-145060589D02*
X139427898Y-145006714D01*
X139427898Y-145006714D02*
X139400961Y-144925902D01*
X139400961Y-144925902D02*
X138943025Y-144467966D01*
X139724210Y-144764277D02*
X139831959Y-144710403D01*
X139831959Y-144710403D02*
X139966646Y-144575716D01*
X139966646Y-144575716D02*
X139993584Y-144494903D01*
X139993584Y-144494903D02*
X139993584Y-144441029D01*
X139993584Y-144441029D02*
X139966646Y-144360216D01*
X139966646Y-144360216D02*
X139912771Y-144306342D01*
X139912771Y-144306342D02*
X139831959Y-144279404D01*
X139831959Y-144279404D02*
X139778084Y-144279404D01*
X139778084Y-144279404D02*
X139697272Y-144306342D01*
X139697272Y-144306342D02*
X139562585Y-144387154D01*
X139562585Y-144387154D02*
X139481773Y-144414091D01*
X139481773Y-144414091D02*
X139427898Y-144414091D01*
X139427898Y-144414091D02*
X139347086Y-144387154D01*
X139347086Y-144387154D02*
X139293211Y-144333279D01*
X139293211Y-144333279D02*
X139266274Y-144252467D01*
X139266274Y-144252467D02*
X139266274Y-144198592D01*
X139266274Y-144198592D02*
X139293211Y-144117780D01*
X139293211Y-144117780D02*
X139427898Y-143983093D01*
X139427898Y-143983093D02*
X139535648Y-143929218D01*
X164148372Y-122416494D02*
X164067560Y-122443431D01*
X164067560Y-122443431D02*
X163986748Y-122524243D01*
X163986748Y-122524243D02*
X163932873Y-122631993D01*
X163932873Y-122631993D02*
X163932873Y-122739742D01*
X163932873Y-122739742D02*
X163959810Y-122820555D01*
X163959810Y-122820555D02*
X164040623Y-122955242D01*
X164040623Y-122955242D02*
X164121435Y-123036054D01*
X164121435Y-123036054D02*
X164256122Y-123116866D01*
X164256122Y-123116866D02*
X164336934Y-123143803D01*
X164336934Y-123143803D02*
X164444684Y-123143803D01*
X164444684Y-123143803D02*
X164552433Y-123089929D01*
X164552433Y-123089929D02*
X164606308Y-123036054D01*
X164606308Y-123036054D02*
X164660183Y-122928304D01*
X164660183Y-122928304D02*
X164660183Y-122874429D01*
X164660183Y-122874429D02*
X164471621Y-122685868D01*
X164471621Y-122685868D02*
X164363871Y-122793617D01*
X164956494Y-122685868D02*
X164390809Y-122120182D01*
X164390809Y-122120182D02*
X164606308Y-121904683D01*
X164606308Y-121904683D02*
X164687120Y-121877746D01*
X164687120Y-121877746D02*
X164740995Y-121877746D01*
X164740995Y-121877746D02*
X164821807Y-121904683D01*
X164821807Y-121904683D02*
X164902619Y-121985495D01*
X164902619Y-121985495D02*
X164929557Y-122066307D01*
X164929557Y-122066307D02*
X164929557Y-122120182D01*
X164929557Y-122120182D02*
X164902619Y-122200994D01*
X164902619Y-122200994D02*
X164687120Y-122416494D01*
X164902619Y-121608372D02*
X165279743Y-121231248D01*
X165279743Y-121231248D02*
X165602992Y-122039370D01*
X164378998Y-107415868D02*
X164298185Y-107442805D01*
X164298185Y-107442805D02*
X164217373Y-107523618D01*
X164217373Y-107523618D02*
X164163498Y-107631367D01*
X164163498Y-107631367D02*
X164163498Y-107739117D01*
X164163498Y-107739117D02*
X164190436Y-107819929D01*
X164190436Y-107819929D02*
X164271248Y-107954616D01*
X164271248Y-107954616D02*
X164352060Y-108035428D01*
X164352060Y-108035428D02*
X164486747Y-108116241D01*
X164486747Y-108116241D02*
X164567560Y-108143178D01*
X164567560Y-108143178D02*
X164675309Y-108143178D01*
X164675309Y-108143178D02*
X164783059Y-108089303D01*
X164783059Y-108089303D02*
X164836934Y-108035428D01*
X164836934Y-108035428D02*
X164890808Y-107927679D01*
X164890808Y-107927679D02*
X164890808Y-107873804D01*
X164890808Y-107873804D02*
X164702247Y-107685242D01*
X164702247Y-107685242D02*
X164594497Y-107792992D01*
X165187120Y-107685242D02*
X164621434Y-107119557D01*
X164621434Y-107119557D02*
X164836934Y-106904057D01*
X164836934Y-106904057D02*
X164917746Y-106877120D01*
X164917746Y-106877120D02*
X164971621Y-106877120D01*
X164971621Y-106877120D02*
X165052433Y-106904057D01*
X165052433Y-106904057D02*
X165133245Y-106984870D01*
X165133245Y-106984870D02*
X165160182Y-107065682D01*
X165160182Y-107065682D02*
X165160182Y-107119557D01*
X165160182Y-107119557D02*
X165133245Y-107200369D01*
X165133245Y-107200369D02*
X164917746Y-107415868D01*
X166049117Y-106823245D02*
X165725868Y-107146494D01*
X165887492Y-106984870D02*
X165321807Y-106419184D01*
X165321807Y-106419184D02*
X165348744Y-106553871D01*
X165348744Y-106553871D02*
X165348744Y-106661621D01*
X165348744Y-106661621D02*
X165321807Y-106742433D01*
X165752805Y-106095935D02*
X165752805Y-106042060D01*
X165752805Y-106042060D02*
X165779743Y-105961248D01*
X165779743Y-105961248D02*
X165914430Y-105826561D01*
X165914430Y-105826561D02*
X165995242Y-105799624D01*
X165995242Y-105799624D02*
X166049117Y-105799624D01*
X166049117Y-105799624D02*
X166129929Y-105826561D01*
X166129929Y-105826561D02*
X166183804Y-105880436D01*
X166183804Y-105880436D02*
X166237679Y-105988186D01*
X166237679Y-105988186D02*
X166237679Y-106634683D01*
X166237679Y-106634683D02*
X166587865Y-106284497D01*
X171909999Y-52629581D02*
X171862380Y-52677201D01*
X171862380Y-52677201D02*
X171719523Y-52724820D01*
X171719523Y-52724820D02*
X171624285Y-52724820D01*
X171624285Y-52724820D02*
X171481428Y-52677201D01*
X171481428Y-52677201D02*
X171386190Y-52581962D01*
X171386190Y-52581962D02*
X171338571Y-52486724D01*
X171338571Y-52486724D02*
X171290952Y-52296248D01*
X171290952Y-52296248D02*
X171290952Y-52153391D01*
X171290952Y-52153391D02*
X171338571Y-51962915D01*
X171338571Y-51962915D02*
X171386190Y-51867677D01*
X171386190Y-51867677D02*
X171481428Y-51772439D01*
X171481428Y-51772439D02*
X171624285Y-51724820D01*
X171624285Y-51724820D02*
X171719523Y-51724820D01*
X171719523Y-51724820D02*
X171862380Y-51772439D01*
X171862380Y-51772439D02*
X171909999Y-51820058D01*
X172719523Y-52677201D02*
X172624285Y-52724820D01*
X172624285Y-52724820D02*
X172433809Y-52724820D01*
X172433809Y-52724820D02*
X172338571Y-52677201D01*
X172338571Y-52677201D02*
X172290952Y-52581962D01*
X172290952Y-52581962D02*
X172290952Y-52201010D01*
X172290952Y-52201010D02*
X172338571Y-52105772D01*
X172338571Y-52105772D02*
X172433809Y-52058153D01*
X172433809Y-52058153D02*
X172624285Y-52058153D01*
X172624285Y-52058153D02*
X172719523Y-52105772D01*
X172719523Y-52105772D02*
X172767142Y-52201010D01*
X172767142Y-52201010D02*
X172767142Y-52296248D01*
X172767142Y-52296248D02*
X172290952Y-52391486D01*
X173338571Y-52724820D02*
X173243333Y-52677201D01*
X173243333Y-52677201D02*
X173195714Y-52581962D01*
X173195714Y-52581962D02*
X173195714Y-51724820D01*
X173862381Y-52724820D02*
X173767143Y-52677201D01*
X173767143Y-52677201D02*
X173719524Y-52581962D01*
X173719524Y-52581962D02*
X173719524Y-51724820D01*
X174576667Y-52201010D02*
X174719524Y-52248629D01*
X174719524Y-52248629D02*
X174767143Y-52296248D01*
X174767143Y-52296248D02*
X174814762Y-52391486D01*
X174814762Y-52391486D02*
X174814762Y-52534343D01*
X174814762Y-52534343D02*
X174767143Y-52629581D01*
X174767143Y-52629581D02*
X174719524Y-52677201D01*
X174719524Y-52677201D02*
X174624286Y-52724820D01*
X174624286Y-52724820D02*
X174243334Y-52724820D01*
X174243334Y-52724820D02*
X174243334Y-51724820D01*
X174243334Y-51724820D02*
X174576667Y-51724820D01*
X174576667Y-51724820D02*
X174671905Y-51772439D01*
X174671905Y-51772439D02*
X174719524Y-51820058D01*
X174719524Y-51820058D02*
X174767143Y-51915296D01*
X174767143Y-51915296D02*
X174767143Y-52010534D01*
X174767143Y-52010534D02*
X174719524Y-52105772D01*
X174719524Y-52105772D02*
X174671905Y-52153391D01*
X174671905Y-52153391D02*
X174576667Y-52201010D01*
X174576667Y-52201010D02*
X174243334Y-52201010D01*
X175100477Y-51724820D02*
X175671905Y-51724820D01*
X175386191Y-52724820D02*
X175386191Y-51724820D01*
X176529048Y-52724820D02*
X175957620Y-52724820D01*
X176243334Y-52724820D02*
X176243334Y-51724820D01*
X176243334Y-51724820D02*
X176148096Y-51867677D01*
X176148096Y-51867677D02*
X176052858Y-51962915D01*
X176052858Y-51962915D02*
X175957620Y-52010534D01*
X170588571Y-48084701D02*
X171731429Y-48084701D01*
X171160000Y-48656129D02*
X171160000Y-47513272D01*
X190104819Y-55091904D02*
X190914342Y-55091904D01*
X190914342Y-55091904D02*
X191009580Y-55044285D01*
X191009580Y-55044285D02*
X191057200Y-54996666D01*
X191057200Y-54996666D02*
X191104819Y-54901428D01*
X191104819Y-54901428D02*
X191104819Y-54710952D01*
X191104819Y-54710952D02*
X191057200Y-54615714D01*
X191057200Y-54615714D02*
X191009580Y-54568095D01*
X191009580Y-54568095D02*
X190914342Y-54520476D01*
X190914342Y-54520476D02*
X190104819Y-54520476D01*
X190104819Y-54139523D02*
X190104819Y-53520476D01*
X190104819Y-53520476D02*
X190485771Y-53853809D01*
X190485771Y-53853809D02*
X190485771Y-53710952D01*
X190485771Y-53710952D02*
X190533390Y-53615714D01*
X190533390Y-53615714D02*
X190581009Y-53568095D01*
X190581009Y-53568095D02*
X190676247Y-53520476D01*
X190676247Y-53520476D02*
X190914342Y-53520476D01*
X190914342Y-53520476D02*
X191009580Y-53568095D01*
X191009580Y-53568095D02*
X191057200Y-53615714D01*
X191057200Y-53615714D02*
X191104819Y-53710952D01*
X191104819Y-53710952D02*
X191104819Y-53996666D01*
X191104819Y-53996666D02*
X191057200Y-54091904D01*
X191057200Y-54091904D02*
X191009580Y-54139523D01*
X197543009Y-113426666D02*
X197590628Y-113283809D01*
X197590628Y-113283809D02*
X197638247Y-113236190D01*
X197638247Y-113236190D02*
X197733485Y-113188571D01*
X197733485Y-113188571D02*
X197876342Y-113188571D01*
X197876342Y-113188571D02*
X197971580Y-113236190D01*
X197971580Y-113236190D02*
X198019200Y-113283809D01*
X198019200Y-113283809D02*
X198066819Y-113379047D01*
X198066819Y-113379047D02*
X198066819Y-113759999D01*
X198066819Y-113759999D02*
X197066819Y-113759999D01*
X197066819Y-113759999D02*
X197066819Y-113426666D01*
X197066819Y-113426666D02*
X197114438Y-113331428D01*
X197114438Y-113331428D02*
X197162057Y-113283809D01*
X197162057Y-113283809D02*
X197257295Y-113236190D01*
X197257295Y-113236190D02*
X197352533Y-113236190D01*
X197352533Y-113236190D02*
X197447771Y-113283809D01*
X197447771Y-113283809D02*
X197495390Y-113331428D01*
X197495390Y-113331428D02*
X197543009Y-113426666D01*
X197543009Y-113426666D02*
X197543009Y-113759999D01*
X198066819Y-112759999D02*
X197400152Y-112759999D01*
X197066819Y-112759999D02*
X197114438Y-112807618D01*
X197114438Y-112807618D02*
X197162057Y-112759999D01*
X197162057Y-112759999D02*
X197114438Y-112712380D01*
X197114438Y-112712380D02*
X197066819Y-112759999D01*
X197066819Y-112759999D02*
X197162057Y-112759999D01*
X197400152Y-111855238D02*
X198209676Y-111855238D01*
X198209676Y-111855238D02*
X198304914Y-111902857D01*
X198304914Y-111902857D02*
X198352533Y-111950476D01*
X198352533Y-111950476D02*
X198400152Y-112045714D01*
X198400152Y-112045714D02*
X198400152Y-112188571D01*
X198400152Y-112188571D02*
X198352533Y-112283809D01*
X198019200Y-111855238D02*
X198066819Y-111950476D01*
X198066819Y-111950476D02*
X198066819Y-112140952D01*
X198066819Y-112140952D02*
X198019200Y-112236190D01*
X198019200Y-112236190D02*
X197971580Y-112283809D01*
X197971580Y-112283809D02*
X197876342Y-112331428D01*
X197876342Y-112331428D02*
X197590628Y-112331428D01*
X197590628Y-112331428D02*
X197495390Y-112283809D01*
X197495390Y-112283809D02*
X197447771Y-112236190D01*
X197447771Y-112236190D02*
X197400152Y-112140952D01*
X197400152Y-112140952D02*
X197400152Y-111950476D01*
X197400152Y-111950476D02*
X197447771Y-111855238D01*
X198066819Y-111379047D02*
X197066819Y-111379047D01*
X197066819Y-111379047D02*
X197781104Y-111045714D01*
X197781104Y-111045714D02*
X197066819Y-110712381D01*
X197066819Y-110712381D02*
X198066819Y-110712381D01*
X198066819Y-109712381D02*
X198066819Y-110283809D01*
X198066819Y-109998095D02*
X197066819Y-109998095D01*
X197066819Y-109998095D02*
X197209676Y-110093333D01*
X197209676Y-110093333D02*
X197304914Y-110188571D01*
X197304914Y-110188571D02*
X197352533Y-110283809D01*
X109666666Y-53794819D02*
X109333333Y-53318628D01*
X109095238Y-53794819D02*
X109095238Y-52794819D01*
X109095238Y-52794819D02*
X109476190Y-52794819D01*
X109476190Y-52794819D02*
X109571428Y-52842438D01*
X109571428Y-52842438D02*
X109619047Y-52890057D01*
X109619047Y-52890057D02*
X109666666Y-52985295D01*
X109666666Y-52985295D02*
X109666666Y-53128152D01*
X109666666Y-53128152D02*
X109619047Y-53223390D01*
X109619047Y-53223390D02*
X109571428Y-53271009D01*
X109571428Y-53271009D02*
X109476190Y-53318628D01*
X109476190Y-53318628D02*
X109095238Y-53318628D01*
X110095238Y-53271009D02*
X110428571Y-53271009D01*
X110571428Y-53794819D02*
X110095238Y-53794819D01*
X110095238Y-53794819D02*
X110095238Y-52794819D01*
X110095238Y-52794819D02*
X110571428Y-52794819D01*
X111333333Y-53271009D02*
X111000000Y-53271009D01*
X111000000Y-53794819D02*
X111000000Y-52794819D01*
X111000000Y-52794819D02*
X111476190Y-52794819D01*
X112000000Y-52794819D02*
X112000000Y-53032914D01*
X111761905Y-52937676D02*
X112000000Y-53032914D01*
X112000000Y-53032914D02*
X112238095Y-52937676D01*
X111857143Y-53223390D02*
X112000000Y-53032914D01*
X112000000Y-53032914D02*
X112142857Y-53223390D01*
X112761905Y-52794819D02*
X112761905Y-53032914D01*
X112523810Y-52937676D02*
X112761905Y-53032914D01*
X112761905Y-53032914D02*
X113000000Y-52937676D01*
X112619048Y-53223390D02*
X112761905Y-53032914D01*
X112761905Y-53032914D02*
X112904762Y-53223390D01*
X187586666Y-60684819D02*
X187253333Y-60208628D01*
X187015238Y-60684819D02*
X187015238Y-59684819D01*
X187015238Y-59684819D02*
X187396190Y-59684819D01*
X187396190Y-59684819D02*
X187491428Y-59732438D01*
X187491428Y-59732438D02*
X187539047Y-59780057D01*
X187539047Y-59780057D02*
X187586666Y-59875295D01*
X187586666Y-59875295D02*
X187586666Y-60018152D01*
X187586666Y-60018152D02*
X187539047Y-60113390D01*
X187539047Y-60113390D02*
X187491428Y-60161009D01*
X187491428Y-60161009D02*
X187396190Y-60208628D01*
X187396190Y-60208628D02*
X187015238Y-60208628D01*
X188015238Y-60161009D02*
X188348571Y-60161009D01*
X188491428Y-60684819D02*
X188015238Y-60684819D01*
X188015238Y-60684819D02*
X188015238Y-59684819D01*
X188015238Y-59684819D02*
X188491428Y-59684819D01*
X189253333Y-60161009D02*
X188920000Y-60161009D01*
X188920000Y-60684819D02*
X188920000Y-59684819D01*
X188920000Y-59684819D02*
X189396190Y-59684819D01*
X189920000Y-59684819D02*
X189920000Y-59922914D01*
X189681905Y-59827676D02*
X189920000Y-59922914D01*
X189920000Y-59922914D02*
X190158095Y-59827676D01*
X189777143Y-60113390D02*
X189920000Y-59922914D01*
X189920000Y-59922914D02*
X190062857Y-60113390D01*
X190681905Y-59684819D02*
X190681905Y-59922914D01*
X190443810Y-59827676D02*
X190681905Y-59922914D01*
X190681905Y-59922914D02*
X190920000Y-59827676D01*
X190539048Y-60113390D02*
X190681905Y-59922914D01*
X190681905Y-59922914D02*
X190824762Y-60113390D01*
D12*
X139897419Y-55716904D02*
X140706942Y-55716904D01*
X140706942Y-55716904D02*
X140802180Y-55669285D01*
X140802180Y-55669285D02*
X140849800Y-55621666D01*
X140849800Y-55621666D02*
X140897419Y-55526428D01*
X140897419Y-55526428D02*
X140897419Y-55335952D01*
X140897419Y-55335952D02*
X140849800Y-55240714D01*
X140849800Y-55240714D02*
X140802180Y-55193095D01*
X140802180Y-55193095D02*
X140706942Y-55145476D01*
X140706942Y-55145476D02*
X139897419Y-55145476D01*
X140230752Y-54240714D02*
X140897419Y-54240714D01*
X139849800Y-54478809D02*
X140564085Y-54716904D01*
X140564085Y-54716904D02*
X140564085Y-54097857D01*
X128030038Y-58431190D02*
X130030038Y-57097857D01*
X128030038Y-57097857D02*
X130030038Y-58431190D01*
X128982419Y-55669285D02*
X129077657Y-55383571D01*
X129077657Y-55383571D02*
X129172895Y-55288333D01*
X129172895Y-55288333D02*
X129363371Y-55193095D01*
X129363371Y-55193095D02*
X129649085Y-55193095D01*
X129649085Y-55193095D02*
X129839561Y-55288333D01*
X129839561Y-55288333D02*
X129934800Y-55383571D01*
X129934800Y-55383571D02*
X130030038Y-55574047D01*
X130030038Y-55574047D02*
X130030038Y-56335952D01*
X130030038Y-56335952D02*
X128030038Y-56335952D01*
X128030038Y-56335952D02*
X128030038Y-55669285D01*
X128030038Y-55669285D02*
X128125276Y-55478809D01*
X128125276Y-55478809D02*
X128220514Y-55383571D01*
X128220514Y-55383571D02*
X128410990Y-55288333D01*
X128410990Y-55288333D02*
X128601466Y-55288333D01*
X128601466Y-55288333D02*
X128791942Y-55383571D01*
X128791942Y-55383571D02*
X128887180Y-55478809D01*
X128887180Y-55478809D02*
X128982419Y-55669285D01*
X128982419Y-55669285D02*
X128982419Y-56335952D01*
X128982419Y-54335952D02*
X128982419Y-53669285D01*
X130030038Y-53383571D02*
X130030038Y-54335952D01*
X130030038Y-54335952D02*
X128030038Y-54335952D01*
X128030038Y-54335952D02*
X128030038Y-53383571D01*
X128982419Y-52526428D02*
X128982419Y-51859761D01*
X130030038Y-51574047D02*
X130030038Y-52526428D01*
X130030038Y-52526428D02*
X128030038Y-52526428D01*
X128030038Y-52526428D02*
X128030038Y-51574047D01*
D11*
X180868809Y-47948628D02*
X180868809Y-48424819D01*
X180535476Y-47424819D02*
X180868809Y-47948628D01*
X180868809Y-47948628D02*
X181202142Y-47424819D01*
X182059285Y-48424819D02*
X181487857Y-48424819D01*
X181773571Y-48424819D02*
X181773571Y-47424819D01*
X181773571Y-47424819D02*
X181678333Y-47567676D01*
X181678333Y-47567676D02*
X181583095Y-47662914D01*
X181583095Y-47662914D02*
X181487857Y-47710533D01*
X198019200Y-102798190D02*
X198066819Y-102655333D01*
X198066819Y-102655333D02*
X198066819Y-102417238D01*
X198066819Y-102417238D02*
X198019200Y-102322000D01*
X198019200Y-102322000D02*
X197971580Y-102274381D01*
X197971580Y-102274381D02*
X197876342Y-102226762D01*
X197876342Y-102226762D02*
X197781104Y-102226762D01*
X197781104Y-102226762D02*
X197685866Y-102274381D01*
X197685866Y-102274381D02*
X197638247Y-102322000D01*
X197638247Y-102322000D02*
X197590628Y-102417238D01*
X197590628Y-102417238D02*
X197543009Y-102607714D01*
X197543009Y-102607714D02*
X197495390Y-102702952D01*
X197495390Y-102702952D02*
X197447771Y-102750571D01*
X197447771Y-102750571D02*
X197352533Y-102798190D01*
X197352533Y-102798190D02*
X197257295Y-102798190D01*
X197257295Y-102798190D02*
X197162057Y-102750571D01*
X197162057Y-102750571D02*
X197114438Y-102702952D01*
X197114438Y-102702952D02*
X197066819Y-102607714D01*
X197066819Y-102607714D02*
X197066819Y-102369619D01*
X197066819Y-102369619D02*
X197114438Y-102226762D01*
X198066819Y-101798190D02*
X197400152Y-101798190D01*
X197495390Y-101798190D02*
X197447771Y-101750571D01*
X197447771Y-101750571D02*
X197400152Y-101655333D01*
X197400152Y-101655333D02*
X197400152Y-101512476D01*
X197400152Y-101512476D02*
X197447771Y-101417238D01*
X197447771Y-101417238D02*
X197543009Y-101369619D01*
X197543009Y-101369619D02*
X198066819Y-101369619D01*
X197543009Y-101369619D02*
X197447771Y-101322000D01*
X197447771Y-101322000D02*
X197400152Y-101226762D01*
X197400152Y-101226762D02*
X197400152Y-101083905D01*
X197400152Y-101083905D02*
X197447771Y-100988666D01*
X197447771Y-100988666D02*
X197543009Y-100941047D01*
X197543009Y-100941047D02*
X198066819Y-100941047D01*
X198066819Y-100036286D02*
X197543009Y-100036286D01*
X197543009Y-100036286D02*
X197447771Y-100083905D01*
X197447771Y-100083905D02*
X197400152Y-100179143D01*
X197400152Y-100179143D02*
X197400152Y-100369619D01*
X197400152Y-100369619D02*
X197447771Y-100464857D01*
X198019200Y-100036286D02*
X198066819Y-100131524D01*
X198066819Y-100131524D02*
X198066819Y-100369619D01*
X198066819Y-100369619D02*
X198019200Y-100464857D01*
X198019200Y-100464857D02*
X197923961Y-100512476D01*
X197923961Y-100512476D02*
X197828723Y-100512476D01*
X197828723Y-100512476D02*
X197733485Y-100464857D01*
X197733485Y-100464857D02*
X197685866Y-100369619D01*
X197685866Y-100369619D02*
X197685866Y-100131524D01*
X197685866Y-100131524D02*
X197638247Y-100036286D01*
X198066819Y-99417238D02*
X198019200Y-99512476D01*
X198019200Y-99512476D02*
X197923961Y-99560095D01*
X197923961Y-99560095D02*
X197066819Y-99560095D01*
X198066819Y-98893428D02*
X198019200Y-98988666D01*
X198019200Y-98988666D02*
X197923961Y-99036285D01*
X197923961Y-99036285D02*
X197066819Y-99036285D01*
X198066819Y-98512475D02*
X197066819Y-98512475D01*
X197066819Y-98512475D02*
X197781104Y-98179142D01*
X197781104Y-98179142D02*
X197066819Y-97845809D01*
X197066819Y-97845809D02*
X198066819Y-97845809D01*
X198066819Y-96845809D02*
X198066819Y-97417237D01*
X198066819Y-97131523D02*
X197066819Y-97131523D01*
X197066819Y-97131523D02*
X197209676Y-97226761D01*
X197209676Y-97226761D02*
X197304914Y-97321999D01*
X197304914Y-97321999D02*
X197352533Y-97417237D01*
X177267200Y-144010832D02*
X177314819Y-143867975D01*
X177314819Y-143867975D02*
X177314819Y-143629880D01*
X177314819Y-143629880D02*
X177267200Y-143534642D01*
X177267200Y-143534642D02*
X177219580Y-143487023D01*
X177219580Y-143487023D02*
X177124342Y-143439404D01*
X177124342Y-143439404D02*
X177029104Y-143439404D01*
X177029104Y-143439404D02*
X176933866Y-143487023D01*
X176933866Y-143487023D02*
X176886247Y-143534642D01*
X176886247Y-143534642D02*
X176838628Y-143629880D01*
X176838628Y-143629880D02*
X176791009Y-143820356D01*
X176791009Y-143820356D02*
X176743390Y-143915594D01*
X176743390Y-143915594D02*
X176695771Y-143963213D01*
X176695771Y-143963213D02*
X176600533Y-144010832D01*
X176600533Y-144010832D02*
X176505295Y-144010832D01*
X176505295Y-144010832D02*
X176410057Y-143963213D01*
X176410057Y-143963213D02*
X176362438Y-143915594D01*
X176362438Y-143915594D02*
X176314819Y-143820356D01*
X176314819Y-143820356D02*
X176314819Y-143582261D01*
X176314819Y-143582261D02*
X176362438Y-143439404D01*
X176314819Y-143106070D02*
X177314819Y-142867975D01*
X177314819Y-142867975D02*
X176600533Y-142677499D01*
X176600533Y-142677499D02*
X177314819Y-142487023D01*
X177314819Y-142487023D02*
X176314819Y-142248928D01*
X177314819Y-141344166D02*
X177314819Y-141915594D01*
X177314819Y-141629880D02*
X176314819Y-141629880D01*
X176314819Y-141629880D02*
X176457676Y-141725118D01*
X176457676Y-141725118D02*
X176552914Y-141820356D01*
X176552914Y-141820356D02*
X176600533Y-141915594D01*
D13*
X198094487Y-72607806D02*
X198742106Y-72607806D01*
X198742106Y-72607806D02*
X198818296Y-72576068D01*
X198818296Y-72576068D02*
X198856392Y-72544330D01*
X198856392Y-72544330D02*
X198894487Y-72480854D01*
X198894487Y-72480854D02*
X198894487Y-72353903D01*
X198894487Y-72353903D02*
X198856392Y-72290427D01*
X198856392Y-72290427D02*
X198818296Y-72258689D01*
X198818296Y-72258689D02*
X198742106Y-72226951D01*
X198742106Y-72226951D02*
X198094487Y-72226951D01*
X198094487Y-71973048D02*
X198094487Y-71528717D01*
X198094487Y-71528717D02*
X198894487Y-71814358D01*
D12*
X196861390Y-69671428D02*
X196813771Y-69814285D01*
X196813771Y-69814285D02*
X196766152Y-69861904D01*
X196766152Y-69861904D02*
X196670914Y-69909523D01*
X196670914Y-69909523D02*
X196528057Y-69909523D01*
X196528057Y-69909523D02*
X196432819Y-69861904D01*
X196432819Y-69861904D02*
X196385200Y-69814285D01*
X196385200Y-69814285D02*
X196337580Y-69719047D01*
X196337580Y-69719047D02*
X196337580Y-69338095D01*
X196337580Y-69338095D02*
X197337580Y-69338095D01*
X197337580Y-69338095D02*
X197337580Y-69671428D01*
X197337580Y-69671428D02*
X197289961Y-69766666D01*
X197289961Y-69766666D02*
X197242342Y-69814285D01*
X197242342Y-69814285D02*
X197147104Y-69861904D01*
X197147104Y-69861904D02*
X197051866Y-69861904D01*
X197051866Y-69861904D02*
X196956628Y-69814285D01*
X196956628Y-69814285D02*
X196909009Y-69766666D01*
X196909009Y-69766666D02*
X196861390Y-69671428D01*
X196861390Y-69671428D02*
X196861390Y-69338095D01*
X196337580Y-70338095D02*
X197337580Y-70338095D01*
X197337580Y-70338095D02*
X196623295Y-70671428D01*
X196623295Y-70671428D02*
X197337580Y-71004761D01*
X197337580Y-71004761D02*
X196337580Y-71004761D01*
X196337580Y-71480952D02*
X197337580Y-71480952D01*
X197337580Y-71480952D02*
X197337580Y-71861904D01*
X197337580Y-71861904D02*
X197289961Y-71957142D01*
X197289961Y-71957142D02*
X197242342Y-72004761D01*
X197242342Y-72004761D02*
X197147104Y-72052380D01*
X197147104Y-72052380D02*
X197004247Y-72052380D01*
X197004247Y-72052380D02*
X196909009Y-72004761D01*
X196909009Y-72004761D02*
X196861390Y-71957142D01*
X196861390Y-71957142D02*
X196813771Y-71861904D01*
X196813771Y-71861904D02*
X196813771Y-71480952D01*
X197337580Y-72385714D02*
X197337580Y-73004761D01*
X197337580Y-73004761D02*
X196956628Y-72671428D01*
X196956628Y-72671428D02*
X196956628Y-72814285D01*
X196956628Y-72814285D02*
X196909009Y-72909523D01*
X196909009Y-72909523D02*
X196861390Y-72957142D01*
X196861390Y-72957142D02*
X196766152Y-73004761D01*
X196766152Y-73004761D02*
X196528057Y-73004761D01*
X196528057Y-73004761D02*
X196432819Y-72957142D01*
X196432819Y-72957142D02*
X196385200Y-72909523D01*
X196385200Y-72909523D02*
X196337580Y-72814285D01*
X196337580Y-72814285D02*
X196337580Y-72528571D01*
X196337580Y-72528571D02*
X196385200Y-72433333D01*
X196385200Y-72433333D02*
X196432819Y-72385714D01*
X196909009Y-73576190D02*
X196956628Y-73480952D01*
X196956628Y-73480952D02*
X197004247Y-73433333D01*
X197004247Y-73433333D02*
X197099485Y-73385714D01*
X197099485Y-73385714D02*
X197147104Y-73385714D01*
X197147104Y-73385714D02*
X197242342Y-73433333D01*
X197242342Y-73433333D02*
X197289961Y-73480952D01*
X197289961Y-73480952D02*
X197337580Y-73576190D01*
X197337580Y-73576190D02*
X197337580Y-73766666D01*
X197337580Y-73766666D02*
X197289961Y-73861904D01*
X197289961Y-73861904D02*
X197242342Y-73909523D01*
X197242342Y-73909523D02*
X197147104Y-73957142D01*
X197147104Y-73957142D02*
X197099485Y-73957142D01*
X197099485Y-73957142D02*
X197004247Y-73909523D01*
X197004247Y-73909523D02*
X196956628Y-73861904D01*
X196956628Y-73861904D02*
X196909009Y-73766666D01*
X196909009Y-73766666D02*
X196909009Y-73576190D01*
X196909009Y-73576190D02*
X196861390Y-73480952D01*
X196861390Y-73480952D02*
X196813771Y-73433333D01*
X196813771Y-73433333D02*
X196718533Y-73385714D01*
X196718533Y-73385714D02*
X196528057Y-73385714D01*
X196528057Y-73385714D02*
X196432819Y-73433333D01*
X196432819Y-73433333D02*
X196385200Y-73480952D01*
X196385200Y-73480952D02*
X196337580Y-73576190D01*
X196337580Y-73576190D02*
X196337580Y-73766666D01*
X196337580Y-73766666D02*
X196385200Y-73861904D01*
X196385200Y-73861904D02*
X196432819Y-73909523D01*
X196432819Y-73909523D02*
X196528057Y-73957142D01*
X196528057Y-73957142D02*
X196718533Y-73957142D01*
X196718533Y-73957142D02*
X196813771Y-73909523D01*
X196813771Y-73909523D02*
X196861390Y-73861904D01*
X196861390Y-73861904D02*
X196909009Y-73766666D01*
X196909009Y-74528571D02*
X196956628Y-74433333D01*
X196956628Y-74433333D02*
X197004247Y-74385714D01*
X197004247Y-74385714D02*
X197099485Y-74338095D01*
X197099485Y-74338095D02*
X197147104Y-74338095D01*
X197147104Y-74338095D02*
X197242342Y-74385714D01*
X197242342Y-74385714D02*
X197289961Y-74433333D01*
X197289961Y-74433333D02*
X197337580Y-74528571D01*
X197337580Y-74528571D02*
X197337580Y-74719047D01*
X197337580Y-74719047D02*
X197289961Y-74814285D01*
X197289961Y-74814285D02*
X197242342Y-74861904D01*
X197242342Y-74861904D02*
X197147104Y-74909523D01*
X197147104Y-74909523D02*
X197099485Y-74909523D01*
X197099485Y-74909523D02*
X197004247Y-74861904D01*
X197004247Y-74861904D02*
X196956628Y-74814285D01*
X196956628Y-74814285D02*
X196909009Y-74719047D01*
X196909009Y-74719047D02*
X196909009Y-74528571D01*
X196909009Y-74528571D02*
X196861390Y-74433333D01*
X196861390Y-74433333D02*
X196813771Y-74385714D01*
X196813771Y-74385714D02*
X196718533Y-74338095D01*
X196718533Y-74338095D02*
X196528057Y-74338095D01*
X196528057Y-74338095D02*
X196432819Y-74385714D01*
X196432819Y-74385714D02*
X196385200Y-74433333D01*
X196385200Y-74433333D02*
X196337580Y-74528571D01*
X196337580Y-74528571D02*
X196337580Y-74719047D01*
X196337580Y-74719047D02*
X196385200Y-74814285D01*
X196385200Y-74814285D02*
X196432819Y-74861904D01*
X196432819Y-74861904D02*
X196528057Y-74909523D01*
X196528057Y-74909523D02*
X196718533Y-74909523D01*
X196718533Y-74909523D02*
X196813771Y-74861904D01*
X196813771Y-74861904D02*
X196861390Y-74814285D01*
X196861390Y-74814285D02*
X196909009Y-74719047D01*
X164996904Y-70967580D02*
X164996904Y-70158057D01*
X164996904Y-70158057D02*
X164949285Y-70062819D01*
X164949285Y-70062819D02*
X164901666Y-70015200D01*
X164901666Y-70015200D02*
X164806428Y-69967580D01*
X164806428Y-69967580D02*
X164615952Y-69967580D01*
X164615952Y-69967580D02*
X164520714Y-70015200D01*
X164520714Y-70015200D02*
X164473095Y-70062819D01*
X164473095Y-70062819D02*
X164425476Y-70158057D01*
X164425476Y-70158057D02*
X164425476Y-70967580D01*
X163806428Y-70539009D02*
X163901666Y-70586628D01*
X163901666Y-70586628D02*
X163949285Y-70634247D01*
X163949285Y-70634247D02*
X163996904Y-70729485D01*
X163996904Y-70729485D02*
X163996904Y-70777104D01*
X163996904Y-70777104D02*
X163949285Y-70872342D01*
X163949285Y-70872342D02*
X163901666Y-70919961D01*
X163901666Y-70919961D02*
X163806428Y-70967580D01*
X163806428Y-70967580D02*
X163615952Y-70967580D01*
X163615952Y-70967580D02*
X163520714Y-70919961D01*
X163520714Y-70919961D02*
X163473095Y-70872342D01*
X163473095Y-70872342D02*
X163425476Y-70777104D01*
X163425476Y-70777104D02*
X163425476Y-70729485D01*
X163425476Y-70729485D02*
X163473095Y-70634247D01*
X163473095Y-70634247D02*
X163520714Y-70586628D01*
X163520714Y-70586628D02*
X163615952Y-70539009D01*
X163615952Y-70539009D02*
X163806428Y-70539009D01*
X163806428Y-70539009D02*
X163901666Y-70491390D01*
X163901666Y-70491390D02*
X163949285Y-70443771D01*
X163949285Y-70443771D02*
X163996904Y-70348533D01*
X163996904Y-70348533D02*
X163996904Y-70158057D01*
X163996904Y-70158057D02*
X163949285Y-70062819D01*
X163949285Y-70062819D02*
X163901666Y-70015200D01*
X163901666Y-70015200D02*
X163806428Y-69967580D01*
X163806428Y-69967580D02*
X163615952Y-69967580D01*
X163615952Y-69967580D02*
X163520714Y-70015200D01*
X163520714Y-70015200D02*
X163473095Y-70062819D01*
X163473095Y-70062819D02*
X163425476Y-70158057D01*
X163425476Y-70158057D02*
X163425476Y-70348533D01*
X163425476Y-70348533D02*
X163473095Y-70443771D01*
X163473095Y-70443771D02*
X163520714Y-70491390D01*
X163520714Y-70491390D02*
X163615952Y-70539009D01*
X156607419Y-72186904D02*
X155607419Y-72186904D01*
X155607419Y-72186904D02*
X156321704Y-71853571D01*
X156321704Y-71853571D02*
X155607419Y-71520238D01*
X155607419Y-71520238D02*
X156607419Y-71520238D01*
X156607419Y-71044047D02*
X155607419Y-71044047D01*
X155607419Y-71044047D02*
X155607419Y-70663095D01*
X155607419Y-70663095D02*
X155655038Y-70567857D01*
X155655038Y-70567857D02*
X155702657Y-70520238D01*
X155702657Y-70520238D02*
X155797895Y-70472619D01*
X155797895Y-70472619D02*
X155940752Y-70472619D01*
X155940752Y-70472619D02*
X156035990Y-70520238D01*
X156035990Y-70520238D02*
X156083609Y-70567857D01*
X156083609Y-70567857D02*
X156131228Y-70663095D01*
X156131228Y-70663095D02*
X156131228Y-71044047D01*
X155607419Y-70044047D02*
X156416942Y-70044047D01*
X156416942Y-70044047D02*
X156512180Y-69996428D01*
X156512180Y-69996428D02*
X156559800Y-69948809D01*
X156559800Y-69948809D02*
X156607419Y-69853571D01*
X156607419Y-69853571D02*
X156607419Y-69663095D01*
X156607419Y-69663095D02*
X156559800Y-69567857D01*
X156559800Y-69567857D02*
X156512180Y-69520238D01*
X156512180Y-69520238D02*
X156416942Y-69472619D01*
X156416942Y-69472619D02*
X155607419Y-69472619D01*
X155607419Y-68567857D02*
X155607419Y-68758333D01*
X155607419Y-68758333D02*
X155655038Y-68853571D01*
X155655038Y-68853571D02*
X155702657Y-68901190D01*
X155702657Y-68901190D02*
X155845514Y-68996428D01*
X155845514Y-68996428D02*
X156035990Y-69044047D01*
X156035990Y-69044047D02*
X156416942Y-69044047D01*
X156416942Y-69044047D02*
X156512180Y-68996428D01*
X156512180Y-68996428D02*
X156559800Y-68948809D01*
X156559800Y-68948809D02*
X156607419Y-68853571D01*
X156607419Y-68853571D02*
X156607419Y-68663095D01*
X156607419Y-68663095D02*
X156559800Y-68567857D01*
X156559800Y-68567857D02*
X156512180Y-68520238D01*
X156512180Y-68520238D02*
X156416942Y-68472619D01*
X156416942Y-68472619D02*
X156178847Y-68472619D01*
X156178847Y-68472619D02*
X156083609Y-68520238D01*
X156083609Y-68520238D02*
X156035990Y-68567857D01*
X156035990Y-68567857D02*
X155988371Y-68663095D01*
X155988371Y-68663095D02*
X155988371Y-68853571D01*
X155988371Y-68853571D02*
X156035990Y-68948809D01*
X156035990Y-68948809D02*
X156083609Y-68996428D01*
X156083609Y-68996428D02*
X156178847Y-69044047D01*
X155607419Y-67853571D02*
X155607419Y-67758333D01*
X155607419Y-67758333D02*
X155655038Y-67663095D01*
X155655038Y-67663095D02*
X155702657Y-67615476D01*
X155702657Y-67615476D02*
X155797895Y-67567857D01*
X155797895Y-67567857D02*
X155988371Y-67520238D01*
X155988371Y-67520238D02*
X156226466Y-67520238D01*
X156226466Y-67520238D02*
X156416942Y-67567857D01*
X156416942Y-67567857D02*
X156512180Y-67615476D01*
X156512180Y-67615476D02*
X156559800Y-67663095D01*
X156559800Y-67663095D02*
X156607419Y-67758333D01*
X156607419Y-67758333D02*
X156607419Y-67853571D01*
X156607419Y-67853571D02*
X156559800Y-67948809D01*
X156559800Y-67948809D02*
X156512180Y-67996428D01*
X156512180Y-67996428D02*
X156416942Y-68044047D01*
X156416942Y-68044047D02*
X156226466Y-68091666D01*
X156226466Y-68091666D02*
X155988371Y-68091666D01*
X155988371Y-68091666D02*
X155797895Y-68044047D01*
X155797895Y-68044047D02*
X155702657Y-67996428D01*
X155702657Y-67996428D02*
X155655038Y-67948809D01*
X155655038Y-67948809D02*
X155607419Y-67853571D01*
X155607419Y-66615476D02*
X155607419Y-67091666D01*
X155607419Y-67091666D02*
X156083609Y-67139285D01*
X156083609Y-67139285D02*
X156035990Y-67091666D01*
X156035990Y-67091666D02*
X155988371Y-66996428D01*
X155988371Y-66996428D02*
X155988371Y-66758333D01*
X155988371Y-66758333D02*
X156035990Y-66663095D01*
X156035990Y-66663095D02*
X156083609Y-66615476D01*
X156083609Y-66615476D02*
X156178847Y-66567857D01*
X156178847Y-66567857D02*
X156416942Y-66567857D01*
X156416942Y-66567857D02*
X156512180Y-66615476D01*
X156512180Y-66615476D02*
X156559800Y-66663095D01*
X156559800Y-66663095D02*
X156607419Y-66758333D01*
X156607419Y-66758333D02*
X156607419Y-66996428D01*
X156607419Y-66996428D02*
X156559800Y-67091666D01*
X156559800Y-67091666D02*
X156512180Y-67139285D01*
X155607419Y-65948809D02*
X155607419Y-65853571D01*
X155607419Y-65853571D02*
X155655038Y-65758333D01*
X155655038Y-65758333D02*
X155702657Y-65710714D01*
X155702657Y-65710714D02*
X155797895Y-65663095D01*
X155797895Y-65663095D02*
X155988371Y-65615476D01*
X155988371Y-65615476D02*
X156226466Y-65615476D01*
X156226466Y-65615476D02*
X156416942Y-65663095D01*
X156416942Y-65663095D02*
X156512180Y-65710714D01*
X156512180Y-65710714D02*
X156559800Y-65758333D01*
X156559800Y-65758333D02*
X156607419Y-65853571D01*
X156607419Y-65853571D02*
X156607419Y-65948809D01*
X156607419Y-65948809D02*
X156559800Y-66044047D01*
X156559800Y-66044047D02*
X156512180Y-66091666D01*
X156512180Y-66091666D02*
X156416942Y-66139285D01*
X156416942Y-66139285D02*
X156226466Y-66186904D01*
X156226466Y-66186904D02*
X155988371Y-66186904D01*
X155988371Y-66186904D02*
X155797895Y-66139285D01*
X155797895Y-66139285D02*
X155702657Y-66091666D01*
X155702657Y-66091666D02*
X155655038Y-66044047D01*
X155655038Y-66044047D02*
X155607419Y-65948809D01*
D11*
X175076905Y-84344819D02*
X175076905Y-83344819D01*
X175076905Y-83344819D02*
X175315000Y-83344819D01*
X175315000Y-83344819D02*
X175457857Y-83392438D01*
X175457857Y-83392438D02*
X175553095Y-83487676D01*
X175553095Y-83487676D02*
X175600714Y-83582914D01*
X175600714Y-83582914D02*
X175648333Y-83773390D01*
X175648333Y-83773390D02*
X175648333Y-83916247D01*
X175648333Y-83916247D02*
X175600714Y-84106723D01*
X175600714Y-84106723D02*
X175553095Y-84201961D01*
X175553095Y-84201961D02*
X175457857Y-84297200D01*
X175457857Y-84297200D02*
X175315000Y-84344819D01*
X175315000Y-84344819D02*
X175076905Y-84344819D01*
X176600714Y-84344819D02*
X176029286Y-84344819D01*
X176315000Y-84344819D02*
X176315000Y-83344819D01*
X176315000Y-83344819D02*
X176219762Y-83487676D01*
X176219762Y-83487676D02*
X176124524Y-83582914D01*
X176124524Y-83582914D02*
X176029286Y-83630533D01*
X171743095Y-84714819D02*
X171743095Y-83714819D01*
X172314523Y-84714819D02*
X171885952Y-84143390D01*
X172314523Y-83714819D02*
X171743095Y-84286247D01*
X107886666Y-126819819D02*
X107553333Y-126343628D01*
X107315238Y-126819819D02*
X107315238Y-125819819D01*
X107315238Y-125819819D02*
X107696190Y-125819819D01*
X107696190Y-125819819D02*
X107791428Y-125867438D01*
X107791428Y-125867438D02*
X107839047Y-125915057D01*
X107839047Y-125915057D02*
X107886666Y-126010295D01*
X107886666Y-126010295D02*
X107886666Y-126153152D01*
X107886666Y-126153152D02*
X107839047Y-126248390D01*
X107839047Y-126248390D02*
X107791428Y-126296009D01*
X107791428Y-126296009D02*
X107696190Y-126343628D01*
X107696190Y-126343628D02*
X107315238Y-126343628D01*
X108315238Y-126296009D02*
X108648571Y-126296009D01*
X108791428Y-126819819D02*
X108315238Y-126819819D01*
X108315238Y-126819819D02*
X108315238Y-125819819D01*
X108315238Y-125819819D02*
X108791428Y-125819819D01*
X109553333Y-126296009D02*
X109220000Y-126296009D01*
X109220000Y-126819819D02*
X109220000Y-125819819D01*
X109220000Y-125819819D02*
X109696190Y-125819819D01*
X110220000Y-125819819D02*
X110220000Y-126057914D01*
X109981905Y-125962676D02*
X110220000Y-126057914D01*
X110220000Y-126057914D02*
X110458095Y-125962676D01*
X110077143Y-126248390D02*
X110220000Y-126057914D01*
X110220000Y-126057914D02*
X110362857Y-126248390D01*
X110981905Y-125819819D02*
X110981905Y-126057914D01*
X110743810Y-125962676D02*
X110981905Y-126057914D01*
X110981905Y-126057914D02*
X111220000Y-125962676D01*
X110839048Y-126248390D02*
X110981905Y-126057914D01*
X110981905Y-126057914D02*
X111124762Y-126248390D01*
D14*
%TO.C,U2*%
X124255000Y-142645000D02*
X122925000Y-142645000D01*
X124255000Y-141315000D02*
X124255000Y-142645000D01*
X124255000Y-140045000D02*
X124255000Y-134905000D01*
X124255000Y-140045000D02*
X121595000Y-140045000D01*
X124255000Y-134905000D02*
X121595000Y-134905000D01*
X121595000Y-140045000D02*
X121595000Y-134905000D01*
D12*
%TO.C,U6*%
X95570000Y-74640000D02*
X127420000Y-74640000D01*
X127420000Y-74640000D02*
X127420000Y-100040000D01*
X127420000Y-100040000D02*
X95570000Y-100040000D01*
X95570000Y-100040000D02*
X95570000Y-74640000D01*
%TO.C,U1*%
X101295000Y-120490000D02*
X123295000Y-120490000D01*
X123295000Y-120490000D02*
X123295000Y-100490000D01*
X123295000Y-100490000D02*
X101295000Y-100490000D01*
X101295000Y-100490000D02*
X101295000Y-120490000D01*
D14*
%TO.C,MainBT1*%
X186485000Y-140745000D02*
X185155000Y-140745000D01*
X186485000Y-139415000D02*
X186485000Y-140745000D01*
X186485000Y-138145000D02*
X186485000Y-135545000D01*
X186485000Y-138145000D02*
X183825000Y-138145000D01*
X186485000Y-135545000D02*
X183825000Y-135545000D01*
X183825000Y-138145000D02*
X183825000Y-135545000D01*
%TO.C,D2*%
X171905000Y-134130000D02*
X177345000Y-134130000D01*
X171905000Y-134260000D02*
X171905000Y-134130000D01*
X171905000Y-136940000D02*
X171905000Y-137070000D01*
X171905000Y-137070000D02*
X177345000Y-137070000D01*
X172685000Y-134130000D02*
X172685000Y-137070000D01*
X172805000Y-134130000D02*
X172805000Y-137070000D01*
X172925000Y-134130000D02*
X172925000Y-137070000D01*
X177345000Y-134130000D02*
X177345000Y-134260000D01*
X177345000Y-137070000D02*
X177345000Y-136940000D01*
D12*
%TO.C,U9*%
X179705000Y-121360000D02*
X179705000Y-101360000D01*
X179705000Y-101360000D02*
X182593000Y-104408000D01*
X179705000Y-101360000D02*
X176657000Y-104248000D01*
X169705000Y-132360000D02*
X189705000Y-132360000D01*
X189705000Y-132360000D02*
X189705000Y-90360000D01*
X189705000Y-90360000D02*
X169705000Y-90360000D01*
X169705000Y-90360000D02*
X169705000Y-132360000D01*
D14*
%TO.C,U5*%
X162635000Y-146495000D02*
X162635000Y-146195000D01*
X162635000Y-146495000D02*
X141635000Y-146495000D01*
X162635000Y-144095000D02*
X162635000Y-143695000D01*
X162635000Y-143828000D02*
X159628000Y-143828000D01*
X162635000Y-141495000D02*
X162635000Y-141095000D01*
X162635000Y-138995000D02*
X162635000Y-138595000D01*
X162635000Y-136395000D02*
X162635000Y-135995000D01*
X162635000Y-133895000D02*
X162635000Y-133495000D01*
X162635000Y-131395000D02*
X162635000Y-130995000D01*
X162635000Y-128795000D02*
X162635000Y-128395000D01*
X162635000Y-126295000D02*
X162635000Y-125895000D01*
X162635000Y-123695000D02*
X162635000Y-123295000D01*
X162635000Y-121195000D02*
X162635000Y-120795000D01*
X162635000Y-118695000D02*
X162635000Y-118295000D01*
X162635000Y-116095000D02*
X162635000Y-115695000D01*
X162635000Y-113595000D02*
X162635000Y-113195000D01*
X162635000Y-110995000D02*
X162635000Y-110595000D01*
X162635000Y-108495000D02*
X162635000Y-108095000D01*
X162635000Y-105895000D02*
X162635000Y-105495000D01*
X162635000Y-103395000D02*
X162635000Y-102995000D01*
X162635000Y-100895000D02*
X162635000Y-100495000D01*
X162635000Y-98295000D02*
X162635000Y-97895000D01*
X159628000Y-143828000D02*
X159628000Y-146495000D01*
X155835000Y-95495000D02*
X162635000Y-95495000D01*
X153635000Y-95495000D02*
X153235000Y-95495000D01*
X151035000Y-95495000D02*
X150635000Y-95495000D01*
X141635000Y-146495000D02*
X141635000Y-146195000D01*
X141635000Y-144095000D02*
X141635000Y-143695000D01*
X141635000Y-141495000D02*
X141635000Y-141095000D01*
X141635000Y-138995000D02*
X141635000Y-138595000D01*
X141635000Y-136395000D02*
X141635000Y-135995000D01*
X141635000Y-133895000D02*
X141635000Y-133495000D01*
X141635000Y-131395000D02*
X141635000Y-130995000D01*
X141635000Y-128795000D02*
X141635000Y-128395000D01*
X141635000Y-126295000D02*
X141635000Y-125895000D01*
X141635000Y-123695000D02*
X141635000Y-123295000D01*
X141635000Y-121195000D02*
X141635000Y-120795000D01*
X141635000Y-118695000D02*
X141635000Y-118295000D01*
X141635000Y-116095000D02*
X141635000Y-115695000D01*
X141635000Y-113595000D02*
X141635000Y-113195000D01*
X141635000Y-110995000D02*
X141635000Y-110595000D01*
X141635000Y-108495000D02*
X141635000Y-108095000D01*
X141635000Y-105895000D02*
X141635000Y-105495000D01*
X141635000Y-103395000D02*
X141635000Y-102995000D01*
X141635000Y-100895000D02*
X141635000Y-100495000D01*
X141635000Y-98295000D02*
X141635000Y-97895000D01*
X141635000Y-95495000D02*
X148435000Y-95495000D01*
%TO.C,CellBT1*%
X176110000Y-50970001D02*
X170410000Y-50970001D01*
X176110000Y-44970001D02*
X176110000Y-50970001D01*
X176110000Y-44970001D02*
X170410000Y-44970001D01*
X169660000Y-44470001D02*
G75*
G03*
X170410000Y-44970001I750000J312500D01*
G01*
X170410000Y-50970001D02*
G75*
G03*
X169660000Y-51470001I0J-812500D01*
G01*
X147214330Y-47970001D02*
G75*
G03*
X169659999Y-51470001I11495714J-11D01*
G01*
X169660000Y-44470001D02*
G75*
G03*
X147214329Y-47970001I-10949956J-3499989D01*
G01*
%TO.C,U3*%
X189650000Y-51680000D02*
X179370000Y-51680000D01*
X179370000Y-51680000D02*
X179370000Y-56980000D01*
X189650000Y-53330000D02*
X189650000Y-51680000D01*
X189650000Y-56980000D02*
X189650000Y-55330000D01*
X179370000Y-56980000D02*
X189650000Y-56980000D01*
X189650000Y-53330000D02*
G75*
G03*
X189650000Y-55330000I0J-1000000D01*
G01*
%TO.C,BigM1*%
X201725000Y-115960000D02*
X200395000Y-115960000D01*
X201725000Y-114630000D02*
X201725000Y-115960000D01*
X201725000Y-113360000D02*
X201725000Y-108220000D01*
X201725000Y-113360000D02*
X199065000Y-113360000D01*
X201725000Y-108220000D02*
X199065000Y-108220000D01*
X199065000Y-113360000D02*
X199065000Y-108220000D01*
D12*
%TO.C,U4*%
X124440000Y-67145000D02*
X124440000Y-59555000D01*
X145520000Y-67145000D02*
X124440000Y-67145000D01*
X145520000Y-67145000D02*
X145520000Y-42765000D01*
X144520000Y-65955000D02*
X144520000Y-43955000D01*
X117910000Y-59555000D02*
X124440000Y-67145000D01*
X124440000Y-59555000D02*
X124440000Y-50355000D01*
X117910000Y-50355000D02*
X117910000Y-59555000D01*
X124440000Y-50355000D02*
X124440000Y-42765000D01*
X124440000Y-42765000D02*
X117910000Y-50355000D01*
X145520000Y-42765000D02*
X124440000Y-42765000D01*
D14*
%TO.C,Y1*%
X183045000Y-44795000D02*
G75*
G03*
X179645000Y-44795000I-1700000J0D01*
G01*
X179645000Y-44795000D02*
G75*
G03*
X183045000Y-44795000I1700000J0D01*
G01*
%TO.C,SmallM1*%
X201725000Y-103895000D02*
X200395000Y-103895000D01*
X201725000Y-102565000D02*
X201725000Y-103895000D01*
X201725000Y-101295000D02*
X201725000Y-96155000D01*
X201725000Y-101295000D02*
X199065000Y-101295000D01*
X201725000Y-96155000D02*
X199065000Y-96155000D01*
X199065000Y-101295000D02*
X199065000Y-96155000D01*
%TO.C,SW1*%
X179010000Y-138027500D02*
X179010000Y-139027500D01*
X178010000Y-138027500D02*
X179010000Y-138027500D01*
X178710000Y-138327500D02*
X178710000Y-139177500D01*
X175010000Y-138327500D02*
X178710000Y-138327500D01*
X175010000Y-139207500D02*
X175010000Y-138327500D01*
X178710000Y-141177500D02*
X178710000Y-141707500D01*
X175010000Y-141707500D02*
X175010000Y-141147500D01*
X178710000Y-143647500D02*
X178710000Y-144207500D01*
X175010000Y-144197500D02*
X175010000Y-143647500D01*
X178710000Y-146147500D02*
X178710000Y-147027500D01*
X178710000Y-147027500D02*
X175010000Y-147027500D01*
X175010000Y-147027500D02*
X175010000Y-146157500D01*
%TO.C,G\u002A\u002A\u002A*%
G36*
X152469497Y-147940079D02*
G01*
X152493689Y-147942570D01*
X152533114Y-147949330D01*
X152583683Y-147959456D01*
X152641310Y-147972045D01*
X152701906Y-147986192D01*
X152761384Y-148000995D01*
X152815657Y-148015550D01*
X152831598Y-148020107D01*
X153044835Y-148091545D01*
X153248032Y-148179021D01*
X153443452Y-148283670D01*
X153633359Y-148406625D01*
X153701227Y-148455899D01*
X153887158Y-148606943D01*
X154057619Y-148770533D01*
X154212256Y-148946119D01*
X154350712Y-149133149D01*
X154472635Y-149331074D01*
X154577670Y-149539344D01*
X154665462Y-149757408D01*
X154735657Y-149984716D01*
X154765504Y-150108289D01*
X154779650Y-150174492D01*
X154789176Y-150223428D01*
X154794355Y-150257223D01*
X154795458Y-150278001D01*
X154792759Y-150287889D01*
X154788727Y-150289467D01*
X154776299Y-150286557D01*
X154749638Y-150279257D01*
X154713666Y-150268930D01*
X154698933Y-150264600D01*
X154459956Y-150183657D01*
X154227376Y-150084337D01*
X154002925Y-149967573D01*
X153788335Y-149834302D01*
X153585336Y-149685457D01*
X153507233Y-149621312D01*
X153321647Y-149451079D01*
X153149665Y-149267222D01*
X152992157Y-149071087D01*
X152849992Y-148864024D01*
X152724043Y-148647380D01*
X152615179Y-148422503D01*
X152524271Y-148190741D01*
X152468197Y-148012499D01*
X152447768Y-147939999D01*
X152469497Y-147940079D01*
G37*
G36*
X154790796Y-151119315D02*
G01*
X154794519Y-151130564D01*
X154793057Y-151152790D01*
X154786891Y-151188527D01*
X154776498Y-151240304D01*
X154770726Y-151268743D01*
X154741322Y-151401096D01*
X154708140Y-151522912D01*
X154669135Y-151640123D01*
X154622261Y-151758661D01*
X154565475Y-151884457D01*
X154541067Y-151935000D01*
X154430777Y-152137431D01*
X154303824Y-152329754D01*
X154161362Y-152510943D01*
X154004546Y-152679971D01*
X153834532Y-152835813D01*
X153652473Y-152977444D01*
X153459525Y-153103838D01*
X153256843Y-153213969D01*
X153045581Y-153306812D01*
X152961227Y-153338073D01*
X152902059Y-153357664D01*
X152835061Y-153377837D01*
X152763936Y-153397675D01*
X152692387Y-153416258D01*
X152624120Y-153432670D01*
X152562838Y-153445993D01*
X152512246Y-153455309D01*
X152476047Y-153459699D01*
X152469497Y-153459920D01*
X152447768Y-153460000D01*
X152468245Y-153387500D01*
X152529880Y-153196237D01*
X152606940Y-153001837D01*
X152696918Y-152809530D01*
X152797305Y-152624544D01*
X152905594Y-152452108D01*
X152941816Y-152400000D01*
X153101514Y-152192909D01*
X153274152Y-152000969D01*
X153459272Y-151824504D01*
X153656420Y-151663836D01*
X153865139Y-151519287D01*
X154084972Y-151391179D01*
X154315464Y-151279835D01*
X154556159Y-151185578D01*
X154743727Y-151126113D01*
X154765879Y-151119622D01*
X154781409Y-151116511D01*
X154790796Y-151119315D01*
G37*
G36*
X149290824Y-151113228D02*
G01*
X149319358Y-151121523D01*
X149359068Y-151133739D01*
X149406071Y-151148631D01*
X149456485Y-151164951D01*
X149506425Y-151181452D01*
X149552009Y-151196887D01*
X149589354Y-151210008D01*
X149596227Y-151212515D01*
X149819638Y-151305254D01*
X150037001Y-151416322D01*
X150246882Y-151544586D01*
X150447844Y-151688915D01*
X150638453Y-151848177D01*
X150817272Y-152021239D01*
X150982866Y-152206969D01*
X151133799Y-152404236D01*
X151165784Y-152450377D01*
X151283309Y-152636064D01*
X151387273Y-152828322D01*
X151479070Y-153030173D01*
X151560089Y-153244639D01*
X151622504Y-153442500D01*
X151623285Y-153452095D01*
X151616969Y-153457461D01*
X151600756Y-153458630D01*
X151571845Y-153455633D01*
X151527436Y-153448503D01*
X151501227Y-153443878D01*
X151286508Y-153395389D01*
X151075020Y-153327745D01*
X150868196Y-153241707D01*
X150667470Y-153138040D01*
X150474277Y-153017506D01*
X150290049Y-152880870D01*
X150116222Y-152728893D01*
X150065891Y-152680000D01*
X149903500Y-152505531D01*
X149759388Y-152323430D01*
X149633009Y-152132815D01*
X149523815Y-151932805D01*
X149431258Y-151722516D01*
X149375648Y-151567420D01*
X149358762Y-151512656D01*
X149341839Y-151452181D01*
X149325505Y-151388903D01*
X149310384Y-151325731D01*
X149297102Y-151265574D01*
X149286284Y-151211340D01*
X149278556Y-151165939D01*
X149274542Y-151132279D01*
X149274868Y-151113269D01*
X149277350Y-151110103D01*
X149290824Y-151113228D01*
G37*
G36*
X151621520Y-147941960D02*
G01*
X151620372Y-147952520D01*
X151614252Y-147978206D01*
X151604179Y-148015063D01*
X151592284Y-148055473D01*
X151508778Y-148296663D01*
X151407339Y-148529323D01*
X151288394Y-148752845D01*
X151152374Y-148966625D01*
X150999708Y-149170054D01*
X150830824Y-149362526D01*
X150646153Y-149543435D01*
X150446124Y-149712173D01*
X150388843Y-149756089D01*
X150260128Y-149846330D01*
X150116644Y-149935414D01*
X149963542Y-150020385D01*
X149805970Y-150098283D01*
X149745771Y-150125512D01*
X149712966Y-150139142D01*
X149668495Y-150156465D01*
X149615618Y-150176329D01*
X149557593Y-150197580D01*
X149497680Y-150219065D01*
X149439137Y-150239631D01*
X149385225Y-150258124D01*
X149339201Y-150273393D01*
X149304326Y-150284283D01*
X149283858Y-150289641D01*
X149280875Y-150290000D01*
X149278008Y-150281080D01*
X149278340Y-150258144D01*
X149280414Y-150237500D01*
X149302766Y-150108125D01*
X149337237Y-149968243D01*
X149382389Y-149822051D01*
X149436782Y-149673744D01*
X149498979Y-149527518D01*
X149567539Y-149387570D01*
X149579565Y-149365000D01*
X149695212Y-149171205D01*
X149827147Y-148987409D01*
X149974021Y-148814665D01*
X150134484Y-148654024D01*
X150307188Y-148506542D01*
X150490784Y-148373269D01*
X150683922Y-148255260D01*
X150885254Y-148153566D01*
X151093431Y-148069242D01*
X151307103Y-148003339D01*
X151332479Y-147996861D01*
X151398254Y-147981017D01*
X151460760Y-147967033D01*
X151517019Y-147955473D01*
X151564054Y-147946903D01*
X151598885Y-147941889D01*
X151618536Y-147940997D01*
X151621520Y-147941960D01*
G37*
G36*
X152041956Y-148639263D02*
G01*
X152054738Y-148663042D01*
X152073084Y-148699079D01*
X152095507Y-148744459D01*
X152116227Y-148787297D01*
X152246747Y-149037252D01*
X152392462Y-149274221D01*
X152553267Y-149498104D01*
X152729058Y-149708798D01*
X152919733Y-149906202D01*
X153125188Y-150090214D01*
X153345319Y-150260732D01*
X153580021Y-150417654D01*
X153829193Y-150560880D01*
X154020486Y-150656879D01*
X154109746Y-150699101D01*
X153995486Y-150752877D01*
X153860588Y-150820455D01*
X153718867Y-150898887D01*
X153575694Y-150984841D01*
X153436439Y-151074986D01*
X153306472Y-151165993D01*
X153206227Y-151242406D01*
X152994020Y-151424162D01*
X152797428Y-151618226D01*
X152616175Y-151824940D01*
X152449988Y-152044648D01*
X152298593Y-152277692D01*
X152161717Y-152524415D01*
X152127870Y-152592077D01*
X152101082Y-152646335D01*
X152077151Y-152693878D01*
X152057484Y-152731987D01*
X152043488Y-152757942D01*
X152036570Y-152769022D01*
X152036227Y-152769233D01*
X152030424Y-152760726D01*
X152017744Y-152737227D01*
X151999787Y-152701858D01*
X151978158Y-152657740D01*
X151966227Y-152632873D01*
X151835593Y-152381320D01*
X151689489Y-152142329D01*
X151528292Y-151916280D01*
X151352376Y-151703555D01*
X151162118Y-151504531D01*
X150957893Y-151319591D01*
X150740078Y-151149112D01*
X150509049Y-150993476D01*
X150265182Y-150853063D01*
X150144303Y-150791490D01*
X150090047Y-150764732D01*
X150042489Y-150740830D01*
X150004355Y-150721192D01*
X149978373Y-150707224D01*
X149967268Y-150700334D01*
X149967054Y-150700000D01*
X149975486Y-150694242D01*
X149999134Y-150681233D01*
X150035209Y-150662427D01*
X150080923Y-150639277D01*
X150133485Y-150613237D01*
X150133978Y-150612995D01*
X150385233Y-150478957D01*
X150623663Y-150329633D01*
X150848933Y-150165358D01*
X151060708Y-149986468D01*
X151258653Y-149793299D01*
X151442432Y-149586184D01*
X151611709Y-149365461D01*
X151766150Y-149131465D01*
X151905419Y-148884529D01*
X151949222Y-148797751D01*
X151975284Y-148745127D01*
X151998468Y-148699312D01*
X152017320Y-148663100D01*
X152030386Y-148639283D01*
X152036212Y-148630655D01*
X152036227Y-148630655D01*
X152041956Y-148639263D01*
G37*
D12*
%TO.C,U7*%
X184210000Y-61570000D02*
X200270000Y-61570000D01*
X200270000Y-61570000D02*
X200270000Y-82630000D01*
X200270000Y-82630000D02*
X184210000Y-82630000D01*
X184210000Y-82630000D02*
X184210000Y-61570000D01*
%TO.C,U8*%
X175235000Y-76425000D02*
X154235000Y-76425000D01*
X154235000Y-76425000D02*
X154235000Y-61425000D01*
X154235000Y-61425000D02*
X175235000Y-61425000D01*
X175235000Y-61425000D02*
X175235000Y-76425000D01*
D14*
%TO.C,D1*%
X173095000Y-84890000D02*
X178535000Y-84890000D01*
X173095000Y-85020000D02*
X173095000Y-84890000D01*
X173095000Y-87700000D02*
X173095000Y-87830000D01*
X173095000Y-87830000D02*
X178535000Y-87830000D01*
X173875000Y-84890000D02*
X173875000Y-87830000D01*
X173995000Y-84890000D02*
X173995000Y-87830000D01*
X174115000Y-84890000D02*
X174115000Y-87830000D01*
X178535000Y-84890000D02*
X178535000Y-85020000D01*
X178535000Y-87830000D02*
X178535000Y-87700000D01*
%TD*%
M02*
